<svg xmlns="http://www.w3.org/2000/svg" width="402" height="211" fill="none" viewBox="0 0 402 211">
  <path fill="#CAD0D3" d="M.667 0H402v210.7H.667z"/>
  <path fill="url(#a)" fill-opacity=".08" d="M0 0h401.333v210.7H0z" transform="translate(.667)"/>
  <path fill="#25292C" d="M28.4 28h-.881a1.83 1.83 0 0 0-.742-1.15 1.992 1.992 0 0 0-.607-.299 2.425 2.425 0 0 0-.696-.1c-.44 0-.84.112-1.197.334-.355.223-.638.55-.849.984-.208.433-.312.965-.312 1.595s.104 1.16.312 1.594c.21.433.494.761.849.984.357.222.756.334 1.197.334.241 0 .473-.034.696-.1.222-.066.424-.164.607-.295a1.873 1.873 0 0 0 .742-1.154h.88a2.933 2.933 0 0 1-.361.998 2.726 2.726 0 0 1-1.531 1.215c-.322.106-.667.16-1.033.16a3.05 3.05 0 0 1-1.655-.455c-.483-.303-.863-.734-1.14-1.293-.277-.558-.416-1.221-.416-1.988 0-.767.139-1.43.416-1.989.277-.559.657-.99 1.14-1.293.483-.303 1.034-.454 1.655-.454.366 0 .711.053 1.033.16.324.106.617.262.877.468.26.204.478.453.654.746.175.291.295.624.362.998Zm3.525 5.114c-.492 0-.924-.118-1.296-.352a2.388 2.388 0 0 1-.867-.984c-.206-.421-.309-.913-.309-1.477 0-.568.104-1.064.31-1.488.208-.424.497-.753.866-.987.372-.234.804-.352 1.296-.352s.923.118 1.293.352c.371.234.66.563.866.987.208.424.313.92.313 1.488 0 .564-.105 1.056-.313 1.477-.206.422-.495.75-.866.984-.37.234-.8.352-1.293.352Zm0-.753c.374 0 .682-.096.923-.288.242-.192.42-.444.537-.756.116-.313.174-.651.174-1.016 0-.364-.058-.704-.174-1.019a1.717 1.717 0 0 0-.537-.764c-.241-.194-.549-.29-.923-.29s-.682.096-.923.29c-.242.195-.42.45-.536.764a2.925 2.925 0 0 0-.174 1.02c0 .364.058.702.174 1.015.116.312.294.564.536.756.241.192.549.288.923.288Zm3.751.639v-5.454h.81v.852h.07a1.37 1.37 0 0 1 .551-.678c.253-.164.558-.246.913-.246.36 0 .66.082.898.245.242.161.43.387.565.679h.057c.14-.282.349-.506.628-.671.28-.169.614-.253 1.005-.253.488 0 .887.153 1.197.459.31.303.465.775.465 1.416V33h-.838v-3.65c0-.403-.11-.69-.33-.864a1.228 1.228 0 0 0-.778-.259c-.384 0-.68.116-.891.348-.211.23-.316.521-.316.874V33h-.853v-3.736c0-.31-.1-.56-.301-.75-.202-.19-.46-.287-.778-.287-.218 0-.422.058-.611.174a1.314 1.314 0 0 0-.455.483c-.113.204-.17.44-.17.707V33h-.838Zm8.691 0v-5.454h.839V33h-.839Zm.427-6.364a.596.596 0 0 1-.423-.166.536.536 0 0 1-.174-.402c0-.156.058-.29.174-.401a.596.596 0 0 1 .422-.167c.164 0 .304.056.42.167a.531.531 0 0 1 .177.401c0 .156-.06.29-.177.401a.584.584 0 0 1-.42.167Zm2.785 3.083V33h-.839v-5.454h.81v.852h.071c.128-.277.322-.5.582-.668.26-.17.597-.256 1.009-.256.37 0 .692.076.97.228.276.149.492.376.646.681.154.304.23.687.23 1.151V33h-.837v-3.41c0-.428-.112-.761-.334-1-.223-.242-.528-.363-.916-.363-.268 0-.507.058-.718.174a1.245 1.245 0 0 0-.493.508c-.121.223-.181.492-.181.81Zm7.213 5.44a3.11 3.11 0 0 1-1.044-.156 2.216 2.216 0 0 1-.728-.405 2.217 2.217 0 0 1-.458-.533l.667-.468c.076.099.172.213.288.34.116.13.274.243.476.338.203.097.47.145.799.145.44 0 .803-.106 1.09-.32.286-.212.43-.546.43-1v-1.11h-.071c-.062.1-.15.223-.263.37a1.49 1.49 0 0 1-.483.387c-.209.111-.49.167-.845.167a2.27 2.27 0 0 1-1.186-.313 2.193 2.193 0 0 1-.828-.909c-.201-.398-.302-.88-.302-1.449 0-.558.099-1.045.295-1.46a2.28 2.28 0 0 1 .82-.965c.35-.23.756-.345 1.215-.345.355 0 .637.06.845.178.21.116.372.249.483.398.114.146.201.267.263.362h.085v-.866h.81v5.61c0 .469-.107.85-.32 1.144a1.82 1.82 0 0 1-.852.65c-.355.14-.75.21-1.186.21Zm-.029-2.997c.337 0 .62-.077.853-.23.232-.155.408-.376.529-.665.12-.289.18-.634.18-1.037 0-.393-.058-.74-.177-1.04a1.561 1.561 0 0 0-.525-.707c-.232-.17-.519-.256-.86-.256-.355 0-.65.09-.887.27-.235.18-.411.422-.53.725a2.8 2.8 0 0 0-.174 1.008c0 .379.06.714.178 1.005.12.289.298.516.533.682.236.163.53.245.88.245Zm10.824-4.616a1.114 1.114 0 0 0-.518-.839c-.303-.198-.675-.298-1.115-.298-.322 0-.604.052-.846.156a1.35 1.35 0 0 0-.56.43 1.03 1.03 0 0 0-.2.621c0 .195.047.361.14.501.094.137.215.252.361.345.147.09.3.164.462.223.16.057.309.103.444.139l.738.199c.19.05.4.118.633.206.234.087.458.207.67.358.216.15.394.341.533.576.14.234.21.522.21.863 0 .393-.103.748-.309 1.065-.204.317-.502.57-.895.756-.39.187-.865.28-1.424.28-.52 0-.972-.083-1.353-.251a2.156 2.156 0 0 1-.895-.703 2.017 2.017 0 0 1-.366-1.048h.91c.023.275.115.502.276.682.164.177.37.31.618.398a2.5 2.5 0 0 0 .81.127c.336 0 .638-.054.906-.163.267-.111.479-.265.635-.462.157-.198.235-.43.235-.696a.856.856 0 0 0-.203-.59 1.485 1.485 0 0 0-.532-.368 5.587 5.587 0 0 0-.714-.249l-.895-.256c-.568-.163-1.018-.396-1.35-.7-.331-.302-.497-.699-.497-1.189 0-.407.11-.762.33-1.065.223-.306.521-.542.895-.71.377-.17.797-.256 1.261-.256.469 0 .886.084 1.25.252.365.166.653.393.867.682.215.289.329.616.34.983h-.852Zm4.502 5.568c-.492 0-.924-.118-1.296-.352a2.389 2.389 0 0 1-.867-.984c-.206-.421-.308-.913-.308-1.477 0-.568.103-1.064.309-1.488.208-.424.497-.753.866-.987a2.383 2.383 0 0 1 1.296-.352c.493 0 .924.118 1.293.352.371.234.66.563.866.987.209.424.313.92.313 1.488 0 .564-.104 1.056-.313 1.477-.206.422-.495.75-.866.984-.37.234-.8.352-1.293.352Zm0-.753c.374 0 .682-.096.924-.288.24-.192.42-.444.536-.756.116-.313.174-.651.174-1.016 0-.364-.058-.704-.174-1.019a1.718 1.718 0 0 0-.537-.764c-.241-.194-.549-.29-.923-.29s-.682.096-.923.29c-.242.195-.42.45-.536.764a2.925 2.925 0 0 0-.174 1.02c0 .364.058.702.174 1.015.116.312.294.564.536.756.241.192.55.288.923.288Zm5.967.753c-.492 0-.924-.118-1.296-.352a2.389 2.389 0 0 1-.867-.984c-.206-.421-.309-.913-.309-1.477 0-.568.103-1.064.31-1.488.208-.424.496-.753.866-.987.371-.234.803-.352 1.296-.352.492 0 .923.118 1.293.352.371.234.66.563.866.987.208.424.313.92.313 1.488 0 .564-.105 1.056-.313 1.477-.206.422-.495.75-.866.984-.37.234-.8.352-1.293.352Zm0-.753c.374 0 .682-.096.923-.288.242-.192.42-.444.537-.756.115-.313.173-.651.173-1.016 0-.364-.057-.704-.173-1.019a1.717 1.717 0 0 0-.537-.764c-.241-.194-.549-.29-.923-.29s-.682.096-.923.29c-.242.195-.42.45-.537.764a2.925 2.925 0 0 0-.174 1.02c0 .364.058.702.174 1.015.116.312.295.564.537.756.241.192.549.288.923.288Zm4.589-2.642V33h-.838v-5.454h.81v.852h.07c.128-.277.323-.5.583-.668.26-.17.597-.256 1.008-.256.37 0 .693.076.97.228.277.149.492.376.646.681.154.304.231.687.231 1.151V33h-.838v-3.41c0-.428-.111-.761-.334-1-.222-.242-.528-.363-.916-.363-.268 0-.507.058-.717.174a1.246 1.246 0 0 0-.494.508c-.12.223-.181.492-.181.81Zm5.622 3.338a.615.615 0 0 1-.45-.188.615.615 0 0 1-.189-.451c0-.176.063-.326.188-.451a.615.615 0 0 1 .451-.189c.175 0 .326.063.451.189a.615.615 0 0 1 .188.45.663.663 0 0 1-.32.554.609.609 0 0 1-.319.086Zm2.754 0a.615.615 0 0 1-.45-.188.615.615 0 0 1-.19-.451c0-.176.064-.326.19-.451a.615.615 0 0 1 .45-.189c.175 0 .326.063.451.189a.615.615 0 0 1 .188.45.663.663 0 0 1-.32.554.61.61 0 0 1-.319.086Zm2.754 0a.615.615 0 0 1-.45-.188.615.615 0 0 1-.19-.451c0-.176.064-.326.19-.451a.615.615 0 0 1 .45-.189c.175 0 .326.063.451.189a.616.616 0 0 1 .188.45.663.663 0 0 1-.32.554.61.61 0 0 1-.319.086ZM33.596 149.518c0 1.304-.236 2.431-.707 3.381-.47.95-1.116 1.682-1.938 2.197-.82.515-1.758.773-2.813.773-1.054 0-1.992-.258-2.813-.773-.82-.515-1.467-1.247-1.938-2.197-.47-.95-.706-2.077-.706-3.381 0-1.304.235-2.431.706-3.38.471-.95 1.117-1.683 1.938-2.198.821-.515 1.759-.773 2.813-.773 1.055 0 1.992.258 2.813.773.822.515 1.468 1.248 1.938 2.198.471.949.707 2.076.707 3.38Zm-1.45 0c0-1.07-.178-1.974-.536-2.71-.355-.737-.835-1.294-1.443-1.673a3.743 3.743 0 0 0-2.029-.567c-.748 0-1.426.189-2.034.567-.604.379-1.085.936-1.443 1.673-.354.736-.531 1.64-.531 2.71 0 1.071.177 1.974.531 2.711.358.736.84 1.294 1.443 1.672a3.774 3.774 0 0 0 2.034.567c.749 0 1.425-.189 2.029-.567.607-.378 1.088-.936 1.443-1.672.358-.737.537-1.64.537-2.711Zm3.774 9.659v-12.75h1.376v1.473h.17c.104-.161.249-.366.434-.615.19-.254.459-.479.809-.677.354-.201.833-.301 1.437-.301.78 0 1.469.195 2.064.585.596.391 1.06.944 1.395 1.66.334.717.501 1.562.501 2.536 0 .982-.167 1.833-.501 2.553-.334.717-.797 1.272-1.388 1.667-.592.39-1.274.585-2.047.585-.596 0-1.073-.098-1.43-.296-.359-.201-.635-.428-.828-.682a8.988 8.988 0 0 1-.447-.64h-.12v4.902H35.92Zm1.4-8.113c0 .7.103 1.318.308 1.853.206.531.505.948.9 1.25.394.297.877.446 1.449.446.595 0 1.092-.157 1.49-.471.403-.317.705-.744.906-1.279.206-.54.308-1.139.308-1.799 0-.652-.1-1.24-.301-1.763-.198-.527-.498-.944-.9-1.25-.398-.31-.9-.465-1.503-.465-.58 0-1.067.147-1.461.441-.395.29-.692.696-.894 1.22-.2.519-.301 1.124-.301 1.817Zm12.847 4.829c-.893 0-1.664-.197-2.312-.591a3.973 3.973 0 0 1-1.491-1.667c-.346-.716-.52-1.549-.52-2.499 0-.95.174-1.787.52-2.511.35-.729.837-1.296 1.46-1.703.629-.41 1.361-.615 2.198-.615.483 0 .96.08 1.431.241.47.161.9.423 1.286.785.386.358.694.833.924 1.425.229.591.344 1.32.344 2.185v.604h-7.148v-1.232h5.699c0-.523-.105-.99-.314-1.4a2.36 2.36 0 0 0-.882-.972c-.378-.238-.825-.357-1.34-.357-.567 0-1.058.141-1.473.423a2.79 2.79 0 0 0-.948 1.087 3.188 3.188 0 0 0-.332 1.436v.821c0 .701.121 1.294.363 1.781a2.61 2.61 0 0 0 1.02 1.105c.434.25.94.374 1.515.374.374 0 .712-.052 1.014-.157a2.15 2.15 0 0 0 .791-.483c.221-.217.392-.487.513-.808l1.377.386a3.048 3.048 0 0 1-.73 1.231 3.546 3.546 0 0 1-1.268.821c-.504.194-1.07.29-1.697.29Zm7.432-5.771v5.578h-1.425v-9.273h1.376v1.449h.121c.217-.471.547-.849.99-1.135.443-.29 1.014-.434 1.715-.434.627 0 1.177.128 1.648.386.47.253.837.64 1.098 1.159.262.515.393 1.167.393 1.956v5.892H62.09v-5.795c0-.729-.19-1.296-.567-1.703-.379-.41-.898-.616-1.558-.616-.455 0-.861.099-1.22.296a2.117 2.117 0 0 0-.839.863c-.205.379-.307.838-.307 1.377Zm20.255-3.695a1.895 1.895 0 0 0-.881-1.424c-.516-.338-1.147-.508-1.896-.508-.547 0-1.026.089-1.437.266a2.294 2.294 0 0 0-.954.731 1.748 1.748 0 0 0-.338 1.056c0 .33.079.614.236.851.16.234.366.429.615.586.25.153.512.28.785.38.274.097.526.175.755.236l1.256.338c.322.084.68.201 1.074.35.399.149.779.352 1.141.61.366.253.668.579.906.978.237.398.356.887.356 1.466 0 .669-.175 1.272-.525 1.812-.347.539-.854.967-1.522 1.285-.664.318-1.47.477-2.42.477-.886 0-1.653-.143-2.3-.428-.644-.286-1.152-.684-1.522-1.196a3.407 3.407 0 0 1-.622-1.78h1.546c.04.466.197.853.47 1.159a2.56 2.56 0 0 0 1.051.676 4.25 4.25 0 0 0 1.376.217c.572 0 1.085-.092 1.54-.278.455-.189.815-.45 1.08-.784a1.86 1.86 0 0 0 .399-1.184c0-.41-.115-.744-.344-1.002a2.532 2.532 0 0 0-.906-.628 9.554 9.554 0 0 0-1.213-.422l-1.521-.435c-.966-.278-1.73-.674-2.294-1.189-.564-.515-.846-1.189-.846-2.023 0-.692.188-1.295.562-1.811.378-.519.885-.921 1.521-1.207.64-.29 1.355-.435 2.143-.435.797 0 1.505.143 2.125.429.62.282 1.111.668 1.473 1.159a2.88 2.88 0 0 1 .58 1.672h-1.449Zm7.653 9.466c-.837 0-1.571-.199-2.203-.597-.628-.399-1.119-.956-1.473-1.673-.35-.716-.525-1.553-.525-2.511 0-.966.175-1.809.525-2.53.354-.72.845-1.279 1.473-1.678.632-.398 1.366-.597 2.203-.597.837 0 1.57.199 2.198.597.632.399 1.123.958 1.473 1.678.354.721.531 1.564.531 2.53 0 .958-.177 1.795-.531 2.511-.35.717-.841 1.274-1.473 1.673-.628.398-1.36.597-2.198.597Zm0-1.28c.636 0 1.16-.163 1.57-.489.41-.326.714-.754.912-1.285a4.928 4.928 0 0 0 .295-1.727 4.96 4.96 0 0 0-.296-1.733 2.922 2.922 0 0 0-.911-1.298c-.41-.33-.934-.495-1.57-.495s-1.159.165-1.57.495c-.41.33-.714.763-.91 1.298a4.978 4.978 0 0 0-.297 1.733c0 .62.099 1.195.296 1.727.197.531.501.959.912 1.285.41.326.933.489 1.57.489Zm12.22-2.704v-5.482h1.425v9.273h-1.424v-1.57h-.097a3.044 3.044 0 0 1-1.014 1.202c-.459.326-1.039.489-1.739.489-.58 0-1.095-.127-1.545-.381-.451-.257-.805-.644-1.063-1.159-.257-.519-.386-1.173-.386-1.962v-5.892h1.424v5.796c0 .676.19 1.215.568 1.618.382.402.87.603 1.46.603.355 0 .715-.09 1.082-.271.37-.181.68-.459.93-.833.253-.375.38-.852.38-1.431Zm4.035 3.791v-9.273h1.376v1.401h.097a2.23 2.23 0 0 1 .917-1.117 2.701 2.701 0 0 1 1.498-.429c.104 0 .235.002.392.006.157.004.276.01.356.019v1.448a4.23 4.23 0 0 0-.332-.054 3.285 3.285 0 0 0-.537-.042c-.451 0-.853.094-1.208.284-.35.185-.627.442-.833.772a2.087 2.087 0 0 0-.302 1.117v5.868h-1.424Zm9.81.193c-.87 0-1.618-.205-2.246-.616a4.01 4.01 0 0 1-1.449-1.696c-.338-.72-.507-1.543-.507-2.469 0-.942.173-1.773.519-2.493.35-.725.837-1.29 1.461-1.697.628-.41 1.36-.615 2.198-.615.652 0 1.239.12 1.762.362.524.241.952.579 1.286 1.014.334.435.542.942.622 1.521h-1.425c-.108-.422-.35-.797-.724-1.123-.37-.33-.869-.495-1.497-.495-.556 0-1.043.145-1.461.435-.415.286-.739.69-.972 1.213-.23.52-.344 1.129-.344 1.83 0 .716.112 1.34.338 1.871.229.531.551.944.966 1.238.418.293.909.44 1.473.44.37 0 .706-.064 1.008-.193.302-.129.557-.314.767-.555.209-.242.358-.531.446-.87h1.425a3.297 3.297 0 0 1-.598 1.48c-.314.434-.73.78-1.249 1.038-.515.253-1.115.38-1.799.38Zm9.617 0c-.894 0-1.665-.197-2.313-.591a3.978 3.978 0 0 1-1.491-1.667c-.346-.716-.519-1.549-.519-2.499 0-.95.173-1.787.519-2.511.35-.729.837-1.296 1.461-1.703.628-.41 1.361-.615 2.198-.615.483 0 .96.08 1.43.241.471.161.9.423 1.286.785.387.358.695.833.924 1.425.229.591.344 1.32.344 2.185v.604h-7.148v-1.232h5.699c0-.523-.104-.99-.314-1.4a2.36 2.36 0 0 0-.881-.972c-.378-.238-.825-.357-1.34-.357-.568 0-1.059.141-1.473.423-.411.278-.727.64-.948 1.087a3.192 3.192 0 0 0-.332 1.436v.821c0 .701.121 1.294.362 1.781.246.483.586.852 1.02 1.105.435.25.94.374 1.516.374.374 0 .712-.052 1.014-.157.306-.108.569-.269.791-.483.221-.217.392-.487.513-.808l1.376.386a3.05 3.05 0 0 1-.73 1.231 3.547 3.547 0 0 1-1.268.821c-.503.194-1.069.29-1.696.29Zm10.981-.193v-12.364h4.177c.97 0 1.763.175 2.379.526.62.346 1.078.815 1.376 1.406.298.592.447 1.252.447 1.98 0 .729-.149 1.391-.447 1.986-.294.596-.748 1.071-1.364 1.425-.616.35-1.405.525-2.367.525h-2.994v-1.328h2.946c.664 0 1.198-.114 1.6-.344.402-.229.694-.539.875-.93.185-.394.278-.839.278-1.334 0-.495-.093-.937-.278-1.328a1.981 1.981 0 0 0-.881-.917c-.407-.226-.946-.338-1.618-.338h-2.632V155.7h-1.497Zm13.326.217c-.587 0-1.121-.11-1.599-.332a2.735 2.735 0 0 1-1.141-.972c-.282-.426-.423-.941-.423-1.545 0-.531.105-.962.314-1.292.209-.334.489-.596.839-.785a4.4 4.4 0 0 1 1.159-.422c.427-.097.855-.173 1.286-.23a59.13 59.13 0 0 1 1.37-.163c.355-.04.612-.106.773-.199.165-.093.248-.254.248-.483v-.048c0-.596-.163-1.059-.489-1.389-.322-.33-.811-.495-1.467-.495-.681 0-1.214.149-1.6.447-.387.298-.658.616-.815.954l-1.352-.483c.241-.564.563-1.002.965-1.316.407-.318.85-.54 1.329-.664a5.499 5.499 0 0 1 1.424-.193c.298 0 .64.036 1.027.108.39.069.766.212 1.129.429.366.217.67.545.911.984.242.439.362 1.026.362 1.763v6.109h-1.424v-1.256h-.073a2.462 2.462 0 0 1-.483.646c-.225.23-.525.425-.899.586-.375.161-.831.241-1.371.241Zm.218-1.279c.563 0 1.038-.111 1.424-.333a2.255 2.255 0 0 0 1.184-1.962v-1.303c-.061.072-.194.138-.399.199a7.026 7.026 0 0 1-.7.151 32 32 0 0 1-1.364.181 5.465 5.465 0 0 0-1.039.235 1.802 1.802 0 0 0-.773.477c-.193.209-.289.495-.289.857 0 .495.183.87.549 1.123.37.25.839.375 1.407.375Zm10.4 1.255c-.87 0-1.618-.205-2.246-.616a4.01 4.01 0 0 1-1.449-1.696c-.338-.72-.507-1.543-.507-2.469 0-.942.173-1.773.519-2.493.35-.725.837-1.29 1.461-1.697.628-.41 1.36-.615 2.198-.615.652 0 1.239.12 1.762.362.524.241.952.579 1.286 1.014.334.435.542.942.622 1.521h-1.425c-.108-.422-.35-.797-.724-1.123-.37-.33-.869-.495-1.497-.495-.556 0-1.043.145-1.461.435-.415.286-.739.69-.972 1.213-.23.52-.344 1.129-.344 1.83 0 .716.112 1.34.338 1.871.229.531.551.944.966 1.238.418.293.909.44 1.473.44.37 0 .706-.064 1.008-.193.302-.129.557-.314.767-.555.209-.242.358-.531.446-.87h1.425a3.297 3.297 0 0 1-.598 1.48c-.314.434-.73.78-1.249 1.038-.515.253-1.115.38-1.799.38Zm7.057-3.574-.024-1.762h.29l4.056-4.13h1.763l-4.322 4.371h-.121l-1.642 1.521Zm-1.328 3.381v-12.364h1.425V155.7h-1.425Zm5.892 0-3.622-4.588 1.014-.99 4.419 5.578h-1.811Zm6.084.217c-.588 0-1.121-.11-1.6-.332a2.741 2.741 0 0 1-1.141-.972c-.282-.426-.423-.941-.423-1.545 0-.531.105-.962.314-1.292.209-.334.489-.596.839-.785a4.4 4.4 0 0 1 1.159-.422c.427-.097.856-.173 1.286-.23.564-.072 1.02-.127 1.371-.163.354-.04.611-.106.772-.199.165-.093.248-.254.248-.483v-.048c0-.596-.163-1.059-.489-1.389-.322-.33-.811-.495-1.467-.495-.68 0-1.214.149-1.6.447-.386.298-.658.616-.815.954l-1.352-.483c.241-.564.563-1.002.966-1.316.406-.318.849-.54 1.328-.664a5.506 5.506 0 0 1 1.425-.193c.297 0 .639.036 1.026.108.39.069.767.212 1.129.429.366.217.67.545.911.984.242.439.363 1.026.363 1.763v6.109h-1.425v-1.256h-.073a2.462 2.462 0 0 1-.483.646c-.225.23-.525.425-.899.586-.374.161-.831.241-1.37.241Zm.217-1.279c.563 0 1.038-.111 1.425-.333a2.259 2.259 0 0 0 1.183-1.962v-1.303c-.061.072-.193.138-.399.199a6.965 6.965 0 0 1-.7.151 31.303 31.303 0 0 1-1.364.181c-.37.048-.717.127-1.039.235a1.792 1.792 0 0 0-.772.477c-.193.209-.29.495-.29.857 0 .495.183.87.549 1.123.371.25.839.375 1.407.375Zm10.376 4.732c-.688 0-1.28-.088-1.775-.265a3.78 3.78 0 0 1-1.238-.688 3.763 3.763 0 0 1-.778-.906l1.135-.797c.128.169.291.362.489.58.197.221.466.412.809.573.346.165.798.248 1.358.248.748 0 1.366-.181 1.853-.544.487-.362.731-.929.731-1.702v-1.883h-.121a7.743 7.743 0 0 1-.447.627c-.189.246-.463.465-.821.658-.354.19-.833.284-1.437.284-.748 0-1.42-.177-2.016-.531-.592-.354-1.06-.869-1.407-1.546-.342-.676-.513-1.497-.513-2.463 0-.949.167-1.777.501-2.481.334-.708.799-1.256 1.395-1.642.596-.39 1.284-.585 2.065-.585.603 0 1.082.1 1.436.301.359.198.632.423.821.677.194.249.342.454.447.615h.145v-1.473h1.376v9.539c0 .797-.181 1.444-.543 1.944a3.088 3.088 0 0 1-1.449 1.104c-.603.238-1.276.356-2.016.356Zm-.048-5.095c.571 0 1.054-.131 1.448-.392.395-.262.695-.638.9-1.129.205-.491.308-1.079.308-1.763 0-.668-.101-1.257-.302-1.769-.201-.511-.499-.911-.893-1.201-.395-.29-.882-.435-1.461-.435-.604 0-1.107.153-1.51.459a2.797 2.797 0 0 0-.899 1.232 4.761 4.761 0 0 0-.296 1.714c0 .644.101 1.214.302 1.709.205.491.507.877.905 1.159.403.277.902.416 1.498.416Zm10.552 1.618c-.893 0-1.664-.197-2.312-.591a3.971 3.971 0 0 1-1.491-1.667c-.346-.716-.519-1.549-.519-2.499 0-.95.173-1.787.519-2.511.35-.729.837-1.296 1.461-1.703.628-.41 1.36-.615 2.197-.615.483 0 .96.08 1.431.241.471.161.899.423 1.286.785.386.358.694.833.924 1.425.229.591.344 1.32.344 2.185v.604h-7.148v-1.232h5.699c0-.523-.105-.99-.314-1.4a2.355 2.355 0 0 0-.882-.972c-.378-.238-.825-.357-1.34-.357-.567 0-1.058.141-1.473.423a2.79 2.79 0 0 0-.948 1.087 3.192 3.192 0 0 0-.332 1.436v.821c0 .701.121 1.294.363 1.781.245.483.585.852 1.02 1.105.435.25.94.374 1.515.374.374 0 .712-.052 1.014-.157a2.15 2.15 0 0 0 .791-.483c.222-.217.393-.487.513-.808l1.377.386a3.051 3.051 0 0 1-.731 1.231 3.543 3.543 0 0 1-1.267.821c-.504.194-1.069.29-1.697.29Zm12.575-7.389-1.28.362a2.38 2.38 0 0 0-.356-.622 1.73 1.73 0 0 0-.628-.507c-.265-.133-.605-.199-1.02-.199-.568 0-1.04.131-1.419.392-.374.258-.561.586-.561.985 0 .354.129.633.386.839.258.205.66.376 1.208.513l1.376.338c.829.201 1.447.509 1.853.923.407.411.61.94.61 1.588 0 .531-.153 1.006-.459 1.425-.302.418-.724.749-1.267.99-.544.241-1.176.362-1.896.362-.946 0-1.729-.205-2.348-.616-.62-.41-1.013-1.01-1.178-1.799l1.353-.338c.128.499.372.874.73 1.123.362.25.835.375 1.419.375.664 0 1.191-.141 1.581-.423.395-.286.592-.628.592-1.026a1.08 1.08 0 0 0-.338-.809c-.225-.222-.571-.387-1.038-.495l-1.546-.363c-.849-.201-1.473-.513-1.871-.935-.395-.427-.592-.96-.592-1.6 0-.523.147-.986.441-1.389a3 3 0 0 1 1.213-.947c.515-.23 1.099-.344 1.751-.344.918 0 1.638.201 2.161.603.527.403.902.934 1.123 1.594Z"/>
  <path fill="#383E42" d="M22.46 176.7v-6.545h3.95v.703h-3.158v2.211h2.953v.703h-2.953v2.225h3.209v.703h-4.002Zm5.838-4.909 1.177 2.007 1.176-2.007h.87l-1.586 2.454 1.585 2.455h-.87l-1.175-1.905-1.177 1.905h-.869l1.56-2.455-1.56-2.454h.87Zm6.09 5.011c-.46 0-.856-.108-1.188-.326a2.118 2.118 0 0 1-.767-.898 3.04 3.04 0 0 1-.269-1.307c0-.499.092-.939.275-1.32.185-.383.443-.683.773-.898a2.08 2.08 0 0 1 1.164-.326 2.2 2.2 0 0 1 .933.192c.277.128.504.307.68.537.178.23.287.498.33.805h-.754a1.165 1.165 0 0 0-.384-.594c-.196-.175-.46-.262-.792-.262a1.32 1.32 0 0 0-.774.23c-.22.151-.39.365-.515.642a2.382 2.382 0 0 0-.182.968c0 .38.06.71.18.991s.291.5.51.655c.222.156.482.234.78.234.197 0 .375-.034.534-.103a1.096 1.096 0 0 0 .643-.754h.754a1.745 1.745 0 0 1-.978 1.333c-.273.134-.59.201-.953.201Zm3.034-.102v-4.909h.754v4.909h-.755Zm.383-5.727a.537.537 0 0 1-.38-.15.485.485 0 0 1-.157-.362c0-.14.052-.261.157-.361.106-.1.233-.15.38-.15s.273.05.377.15c.107.1.16.221.16.361a.48.48 0 0 1-.16.362c-.104.1-.23.15-.377.15Zm3.887.818v.639h-2.544v-.639h2.544Zm-1.802-1.176h.754v4.679c0 .213.03.373.093.479a.477.477 0 0 0 .242.211.98.98 0 0 0 .317.051c.083 0 .151-.004.205-.013l.127-.025.154.677a1.595 1.595 0 0 1-.563.09c-.213 0-.422-.046-.626-.137a1.253 1.253 0 0 1-.505-.419c-.132-.188-.198-.424-.198-.71v-4.883Zm2.937 6.085v-4.909h.754v4.909h-.754Zm.383-5.727a.537.537 0 0 1-.38-.15.485.485 0 0 1-.157-.362c0-.14.053-.261.157-.361.107-.1.233-.15.38-.15s.273.05.377.15c.107.1.16.221.16.361a.48.48 0 0 1-.16.362c-.104.1-.23.15-.377.15Zm2.507 2.774v2.953h-.754v-4.909h.728v.767h.064c.115-.249.29-.45.524-.601.235-.153.537-.23.908-.23.332 0 .623.068.873.205.249.134.443.338.581.613.139.273.208.618.208 1.036v3.119h-.754v-3.068c0-.386-.1-.686-.3-.901-.201-.218-.476-.326-.825-.326-.241 0-.456.052-.646.156a1.126 1.126 0 0 0-.444.457 1.51 1.51 0 0 0-.163.729Zm6.492 4.896c-.365 0-.678-.047-.94-.14a1.988 1.988 0 0 1-1.067-.844l.6-.422c.069.089.155.192.26.307.104.117.247.218.428.303.183.088.423.131.719.131.396 0 .723-.095.98-.287.259-.192.388-.492.388-.901v-.998h-.064c-.056.09-.134.201-.237.333-.1.13-.245.246-.434.348-.188.1-.441.15-.761.15-.396 0-.752-.093-1.068-.281a1.969 1.969 0 0 1-.744-.818c-.181-.358-.272-.793-.272-1.304 0-.503.089-.941.265-1.314.177-.375.423-.664.739-.869.315-.207.68-.31 1.093-.31.32 0 .573.053.76.16.19.104.335.224.435.358.102.132.181.241.236.326h.077v-.78h.729v5.05c0 .422-.096.765-.288 1.029-.19.266-.445.461-.767.585-.32.125-.675.188-1.067.188Zm-.026-2.697c.303 0 .558-.069.767-.208a1.29 1.29 0 0 0 .476-.598c.11-.26.163-.571.163-.933 0-.354-.053-.666-.16-.936a1.4 1.4 0 0 0-.472-.636c-.21-.154-.467-.23-.774-.23-.32 0-.586.081-.799.242-.21.162-.37.38-.476.652a2.525 2.525 0 0 0-.157.908c0 .341.054.643.16.905.109.26.269.464.48.613.213.147.477.221.792.221Zm11.352-5.791v6.545h-.767l-3.566-5.139h-.064v5.139h-.793v-6.545h.767l3.58 5.152h.064v-5.152h.78Zm3.542 6.647c-.473 0-.88-.104-1.224-.313a2.104 2.104 0 0 1-.79-.882c-.182-.379-.274-.82-.274-1.323s.092-.946.275-1.33a2.17 2.17 0 0 1 .773-.901 2.08 2.08 0 0 1 1.164-.326c.255 0 .508.043.757.128.25.085.476.224.68.415.206.19.368.441.49.755.121.313.182.698.182 1.157v.319h-3.784v-.652h3.017c0-.277-.055-.524-.166-.741a1.251 1.251 0 0 0-.467-.515 1.304 1.304 0 0 0-.71-.188c-.3 0-.56.074-.78.223a1.47 1.47 0 0 0-.5.576c-.118.236-.177.49-.177.76v.435c0 .371.064.685.192.943.13.255.31.45.54.585.23.132.498.198.802.198.199 0 .378-.028.537-.083.162-.058.302-.143.419-.256.117-.115.208-.258.272-.428l.728.204a1.613 1.613 0 0 1-.386.652c-.181.186-.405.33-.672.435a2.495 2.495 0 0 1-.898.153Zm4.293-.102-1.496-4.909h.793l1.06 3.758h.052l1.048-3.758h.805l1.036 3.746h.051l1.061-3.746h.793l-1.496 4.909h-.741l-1.074-3.771h-.077l-1.074 3.771h-.741Zm14.356-3.273c0 .691-.124 1.287-.374 1.79a2.8 2.8 0 0 1-1.026 1.163c-.434.273-.93.41-1.489.41a2.741 2.741 0 0 1-1.49-.41 2.8 2.8 0 0 1-1.025-1.163c-.25-.503-.374-1.099-.374-1.79 0-.69.125-1.287.374-1.789a2.805 2.805 0 0 1 1.026-1.164 2.74 2.74 0 0 1 1.489-.409 2.74 2.74 0 0 1 1.49.409 2.81 2.81 0 0 1 1.025 1.164c.25.502.374 1.099.374 1.789Zm-.767 0c0-.566-.095-1.045-.284-1.435-.188-.39-.442-.685-.764-.885-.32-.2-.678-.3-1.074-.3s-.755.1-1.077.3c-.32.2-.574.495-.764.885-.187.39-.281.869-.281 1.435 0 .567.094 1.045.281 1.435.19.39.444.685.764.886.322.2.68.3 1.077.3.396 0 .754-.1 1.074-.3.322-.201.576-.496.764-.886.19-.39.284-.868.284-1.435Zm1.998 5.114v-6.75h.728v.78h.09c.055-.085.132-.194.23-.326.1-.134.243-.254.428-.358.188-.107.441-.16.76-.16.414 0 .779.103 1.094.31.315.207.561.5.738.879.177.379.265.827.265 1.342 0 .52-.088.971-.265 1.352a2.095 2.095 0 0 1-.735.882 1.92 1.92 0 0 1-1.083.31c-.316 0-.568-.052-.758-.156a1.414 1.414 0 0 1-.438-.361 5.104 5.104 0 0 1-.236-.339h-.064v2.595h-.754Zm.741-4.296c0 .371.055.698.163.982.109.281.268.501.476.661.21.158.465.237.767.237.316 0 .579-.083.79-.25.213-.168.373-.394.48-.677.108-.286.162-.603.162-.953a2.58 2.58 0 0 0-.16-.933 1.441 1.441 0 0 0-.476-.661c-.21-.164-.476-.246-.796-.246-.306 0-.564.077-.773.233a1.396 1.396 0 0 0-.473.645c-.107.275-.16.596-.16.962Zm6.801 2.557c-.473 0-.88-.104-1.224-.313a2.103 2.103 0 0 1-.79-.882c-.182-.379-.274-.82-.274-1.323s.092-.946.275-1.33a2.17 2.17 0 0 1 .773-.901 2.08 2.08 0 0 1 1.164-.326c.255 0 .508.043.757.128.25.085.476.224.68.415.205.19.368.441.49.755.121.313.182.698.182 1.157v.319h-3.784v-.652h3.017c0-.277-.055-.524-.166-.741a1.25 1.25 0 0 0-.467-.515 1.304 1.304 0 0 0-.71-.188c-.3 0-.56.074-.78.223a1.47 1.47 0 0 0-.501.576 1.69 1.69 0 0 0-.176.76v.435c0 .371.064.685.192.943.13.255.31.45.54.585.23.132.498.198.802.198.199 0 .377-.028.537-.083.162-.058.302-.143.419-.256.117-.115.208-.258.272-.428l.728.204a1.613 1.613 0 0 1-.386.652c-.181.186-.405.33-.672.435a2.495 2.495 0 0 1-.898.153Zm3.935-3.055v2.953h-.755v-4.909h.729v.767h.064c.115-.249.29-.45.524-.601.235-.153.537-.23.908-.23.332 0 .623.068.872.205.25.134.443.338.582.613.138.273.208.618.208 1.036v3.119h-.755v-3.068c0-.386-.1-.686-.3-.901-.2-.218-.475-.326-.825-.326-.24 0-.456.052-.645.156a1.126 1.126 0 0 0-.444.457c-.11.2-.163.443-.163.729Zm10.723-1.956a1.001 1.001 0 0 0-.467-.754c-.272-.179-.607-.269-1.003-.269-.29 0-.543.047-.761.141a1.215 1.215 0 0 0-.505.387.928.928 0 0 0-.179.559c0 .175.042.325.125.45.085.124.194.227.326.31.132.081.271.149.415.202.145.051.278.093.4.124l.665.179c.17.045.36.107.569.186.211.079.412.186.604.323.194.134.353.306.479.517.126.211.189.47.189.777 0 .354-.093.673-.278.959a1.906 1.906 0 0 1-.806.681c-.351.168-.779.252-1.281.252-.469 0-.875-.076-1.218-.227a1.936 1.936 0 0 1-.806-.633 1.815 1.815 0 0 1-.329-.942h.818c.022.247.105.451.25.613.147.16.332.279.556.358.226.077.469.115.729.115.302 0 .574-.049.815-.147.24-.1.431-.238.572-.415a.99.99 0 0 0 .211-.627.764.764 0 0 0-.183-.53 1.335 1.335 0 0 0-.479-.333 5.077 5.077 0 0 0-.642-.223l-.806-.231c-.511-.147-.916-.356-1.214-.629-.299-.273-.448-.63-.448-1.071 0-.366.099-.686.297-.959.201-.274.469-.488.806-.639.339-.153.717-.23 1.134-.23.422 0 .797.076 1.125.227.329.149.589.354.78.614.194.26.296.555.307.885h-.767Zm4.052 5.011c-.443 0-.832-.105-1.167-.316a2.157 2.157 0 0 1-.78-.885c-.185-.38-.278-.823-.278-1.33 0-.511.093-.958.278-1.339.188-.381.448-.678.78-.889a2.143 2.143 0 0 1 1.167-.316c.443 0 .831.105 1.163.316.335.211.595.508.78.889.188.381.281.828.281 1.339 0 .507-.093.95-.281 1.33a2.116 2.116 0 0 1-.78.885c-.332.211-.72.316-1.163.316Zm0-.677c.336 0 .613-.087.831-.259.217-.173.378-.4.482-.681.105-.281.157-.586.157-.914 0-.328-.052-.634-.157-.917a1.536 1.536 0 0 0-.482-.687c-.218-.175-.495-.262-.831-.262-.337 0-.614.087-.831.262a1.546 1.546 0 0 0-.483.687 2.64 2.64 0 0 0-.156.917c0 .328.052.633.156.914.105.281.266.508.483.681.217.172.494.259.831.259Zm6.469-1.432v-2.902h.755v4.909h-.755v-.831h-.051a1.613 1.613 0 0 1-.537.636c-.243.173-.549.259-.92.259a1.64 1.64 0 0 1-.818-.201 1.415 1.415 0 0 1-.563-.614c-.136-.275-.204-.621-.204-1.039v-3.119h.754v3.068c0 .358.1.644.3.857.203.213.461.319.774.319.187 0 .378-.048.572-.144.196-.095.36-.242.492-.441.134-.198.201-.45.201-.757Zm2.136 2.007v-4.909h.729v.741h.051c.089-.242.251-.44.486-.591a1.43 1.43 0 0 1 .792-.227l.208.003c.083.003.146.006.189.01v.767a2.56 2.56 0 0 0-.176-.029 1.725 1.725 0 0 0-.285-.022c-.238 0-.451.05-.639.15a1.135 1.135 0 0 0-.441.409c-.106.173-.16.37-.16.591v3.107h-.754Zm5.194.102c-.461 0-.857-.108-1.189-.326a2.115 2.115 0 0 1-.767-.898 3.04 3.04 0 0 1-.269-1.307c0-.499.092-.939.275-1.32.185-.383.443-.683.774-.898.332-.217.72-.326 1.163-.326.345 0 .656.064.933.192s.504.307.681.537c.177.23.286.498.329.805h-.754a1.17 1.17 0 0 0-.384-.594c-.196-.175-.46-.262-.792-.262-.294 0-.552.076-.774.23a1.494 1.494 0 0 0-.514.642 2.371 2.371 0 0 0-.183.968c0 .38.06.71.179.991.122.281.292.5.512.655.221.156.481.234.78.234.196 0 .374-.034.533-.103a1.097 1.097 0 0 0 .643-.754h.754c-.043.29-.148.551-.316.783-.167.23-.387.414-.662.55-.273.134-.59.201-.952.201Zm5.091 0c-.473 0-.881-.104-1.224-.313a2.108 2.108 0 0 1-.79-.882c-.183-.379-.274-.82-.274-1.323s.091-.946.274-1.33c.186-.385.444-.686.774-.901.332-.217.72-.326 1.163-.326.256 0 .508.043.758.128.249.085.476.224.68.415.205.19.368.441.489.755.122.313.183.698.183 1.157v.319h-3.784v-.652h3.017c0-.277-.056-.524-.167-.741a1.248 1.248 0 0 0-.466-.515 1.307 1.307 0 0 0-.71-.188c-.3 0-.56.074-.78.223a1.47 1.47 0 0 0-.501.576c-.118.236-.176.49-.176.76v.435c0 .371.064.685.192.943.13.255.31.45.54.585.23.132.497.198.802.198.198 0 .377-.028.537-.083.162-.058.301-.143.419-.256.117-.115.207-.258.271-.428l.729.204a1.619 1.619 0 0 1-.387.652c-.181.186-.405.33-.671.435a2.495 2.495 0 0 1-.898.153Zm5.813-.102v-6.545h2.212c.514 0 .933.092 1.259.278.328.183.571.431.729.744.158.313.237.663.237 1.049 0 .385-.079.736-.237 1.051a1.752 1.752 0 0 1-.722.754c-.326.186-.744.278-1.253.278h-1.585v-.703h1.559c.352 0 .634-.06.847-.182.213-.121.368-.285.464-.492.098-.209.147-.444.147-.706 0-.262-.049-.497-.147-.704a1.052 1.052 0 0 0-.467-.485c-.215-.12-.501-.179-.856-.179h-1.394v5.842h-.793Zm7.056.115c-.311 0-.594-.059-.847-.176a1.451 1.451 0 0 1-.604-.514 1.454 1.454 0 0 1-.224-.818c0-.282.055-.51.166-.684.111-.177.259-.316.444-.416.186-.1.39-.175.614-.224.226-.051.453-.091.681-.121.298-.038.54-.067.725-.086.188-.022.324-.057.409-.106.088-.049.131-.134.131-.255v-.026c0-.315-.086-.56-.258-.735-.171-.175-.43-.262-.777-.262-.36 0-.642.079-.847.236a1.394 1.394 0 0 0-.431.505l-.716-.255c.127-.299.298-.531.511-.697.215-.168.45-.286.703-.352.256-.068.507-.102.754-.102.158 0 .339.019.544.058.206.036.406.111.597.226.194.116.355.289.483.521.128.233.192.544.192.934v3.234h-.755v-.665h-.038a1.296 1.296 0 0 1-.256.342 1.46 1.46 0 0 1-.476.31c-.198.085-.44.128-.725.128Zm.115-.677a1.5 1.5 0 0 0 .754-.176c.207-.117.362-.269.467-.454a1.16 1.16 0 0 0 .159-.585v-.69c-.032.038-.102.073-.21.105a3.47 3.47 0 0 1-.371.08 18.876 18.876 0 0 1-.723.096 2.863 2.863 0 0 0-.549.125.936.936 0 0 0-.409.252c-.103.111-.154.262-.154.454 0 .262.097.46.291.594.196.132.444.199.745.199Zm5.506.664c-.461 0-.857-.108-1.189-.326a2.115 2.115 0 0 1-.767-.898 3.04 3.04 0 0 1-.269-1.307c0-.499.092-.939.275-1.32.186-.383.443-.683.774-.898.332-.217.72-.326 1.163-.326.345 0 .656.064.933.192s.504.307.681.537c.177.23.286.498.329.805h-.754a1.17 1.17 0 0 0-.384-.594c-.196-.175-.46-.262-.792-.262-.294 0-.552.076-.774.23a1.494 1.494 0 0 0-.514.642 2.372 2.372 0 0 0-.182.968c0 .38.059.71.179.991.121.281.291.5.511.655.221.156.481.234.78.234.196 0 .374-.034.533-.103a1.09 1.09 0 0 0 .643-.754h.754c-.043.29-.148.551-.316.783-.166.23-.387.414-.662.55-.273.134-.59.201-.952.201Zm3.736-1.892-.013-.933h.153l2.148-2.186h.933l-2.288 2.314h-.064l-.869.805Zm-.703 1.79v-6.545h.754v6.545h-.754Zm3.119 0-1.918-2.429.537-.524 2.34 2.953h-.959Zm3.221.115c-.311 0-.594-.059-.847-.176a1.451 1.451 0 0 1-.604-.514 1.454 1.454 0 0 1-.224-.818c0-.282.056-.51.166-.684.111-.177.259-.316.445-.416.185-.1.389-.175.613-.224.226-.051.453-.091.681-.121.298-.038.54-.067.725-.086.188-.022.324-.057.41-.106.087-.049.131-.134.131-.255v-.026c0-.315-.087-.56-.259-.735-.171-.175-.43-.262-.777-.262-.36 0-.642.079-.847.236a1.404 1.404 0 0 0-.431.505l-.716-.255c.128-.299.298-.531.511-.697.215-.168.45-.286.703-.352a2.93 2.93 0 0 1 .755-.102c.157 0 .338.019.543.058.207.036.406.111.597.226.194.116.355.289.483.521.128.233.192.544.192.934v3.234h-.754v-.665h-.039a1.312 1.312 0 0 1-.255.342c-.12.122-.279.225-.477.31-.198.085-.44.128-.725.128Zm.115-.677c.298 0 .55-.059.754-.176a1.201 1.201 0 0 0 .627-1.039v-.69c-.032.038-.103.073-.211.105-.107.03-.23.057-.371.08a18.876 18.876 0 0 1-.722.096c-.196.026-.38.067-.55.125a.942.942 0 0 0-.409.252c-.102.111-.154.262-.154.454 0 .262.097.46.291.594.196.132.444.199.745.199Zm5.493 2.505c-.364 0-.677-.047-.94-.14a1.991 1.991 0 0 1-1.067-.844l.601-.422c.068.089.154.192.259.307.104.117.247.218.428.303.183.088.423.131.719.131.396 0 .723-.095.981-.287.258-.192.387-.492.387-.901v-.998h-.064c-.055.09-.134.201-.236.333-.101.13-.245.246-.435.348-.188.1-.441.15-.761.15-.396 0-.752-.093-1.067-.281a1.97 1.97 0 0 1-.745-.818c-.181-.358-.272-.793-.272-1.304 0-.503.089-.941.266-1.314.177-.375.423-.664.738-.869.315-.207.68-.31 1.093-.31.32 0 .573.053.761.16.189.104.334.224.434.358.103.132.181.241.237.326h.077v-.78h.728v5.05c0 .422-.096.765-.287 1.029-.19.266-.446.461-.767.585-.32.125-.676.188-1.068.188Zm-.025-2.697c.302 0 .558-.069.767-.208.208-.138.367-.338.476-.598.108-.26.163-.571.163-.933a2.55 2.55 0 0 0-.16-.936 1.402 1.402 0 0 0-.473-.636c-.209-.154-.467-.23-.773-.23-.32 0-.586.081-.8.242-.21.162-.369.38-.476.652a2.534 2.534 0 0 0-.156.908c0 .341.053.643.159.905.109.26.269.464.48.613.213.147.477.221.793.221Zm5.586.856c-.473 0-.881-.104-1.224-.313a2.1 2.1 0 0 1-.789-.882c-.184-.379-.275-.82-.275-1.323s.091-.946.275-1.33c.185-.385.443-.686.773-.901.332-.217.72-.326 1.163-.326.256 0 .509.043.758.128s.476.224.681.415a2 2 0 0 1 .489.755c.121.313.182.698.182 1.157v.319h-3.784v-.652h3.017c0-.277-.056-.524-.166-.741a1.257 1.257 0 0 0-.467-.515 1.304 1.304 0 0 0-.71-.188c-.3 0-.56.074-.779.223a1.464 1.464 0 0 0-.502.576 1.69 1.69 0 0 0-.176.76v.435c0 .371.064.685.192.943.13.255.31.45.54.585.23.132.497.198.802.198.198 0 .377-.028.537-.083.162-.058.302-.143.419-.256.117-.115.208-.258.271-.428l.729.204a1.607 1.607 0 0 1-.387.652c-.181.186-.404.33-.671.435a2.491 2.491 0 0 1-.898.153Zm6.657-3.912-.677.192a1.263 1.263 0 0 0-.189-.329.916.916 0 0 0-.332-.269 1.214 1.214 0 0 0-.54-.105c-.301 0-.551.069-.751.208-.198.136-.297.31-.297.521 0 .187.068.335.204.444.136.109.35.199.639.272l.729.179c.439.106.766.269.981.489.215.217.323.497.323.84 0 .281-.081.533-.243.754-.16.222-.383.397-.671.525a2.467 2.467 0 0 1-1.004.191c-.5 0-.915-.108-1.243-.326-.328-.217-.536-.535-.623-.952l.716-.179c.068.264.197.462.386.594.192.132.443.199.752.199.351 0 .63-.075.837-.224.209-.151.313-.333.313-.544 0-.17-.06-.313-.179-.428-.119-.117-.302-.204-.55-.262l-.818-.192c-.449-.106-.78-.271-.991-.495a1.203 1.203 0 0 1-.313-.847c0-.277.078-.522.234-.735.157-.213.371-.38.642-.502.273-.121.582-.182.927-.182.486 0 .867.107 1.144.32.279.213.477.494.594.843Zm3.859 3.81v-6.545h.754v2.416h.064c.055-.085.132-.194.23-.326.1-.134.243-.254.428-.358.188-.107.441-.16.761-.16.413 0 .778.103 1.093.31.315.207.562.5.738.879.177.379.266.827.266 1.342 0 .52-.089.971-.266 1.352a2.084 2.084 0 0 1-.735.882c-.313.207-.674.31-1.083.31-.315 0-.568-.052-.758-.156a1.413 1.413 0 0 1-.437-.361 4.75 4.75 0 0 1-.237-.339h-.089v.754h-.729Zm.741-2.455c0 .371.055.698.163.982.109.281.268.501.477.661.208.158.464.237.767.237.315 0 .578-.083.789-.25.213-.168.373-.394.479-.677.109-.286.163-.603.163-.953 0-.345-.053-.656-.159-.933a1.447 1.447 0 0 0-.477-.661c-.211-.164-.476-.246-.795-.246-.307 0-.565.077-.774.233a1.398 1.398 0 0 0-.473.645c-.106.275-.16.596-.16.962Zm5.056 4.296c-.127 0-.241-.011-.342-.032a.837.837 0 0 1-.207-.058l.191-.664c.184.047.346.064.486.051a.581.581 0 0 0 .374-.189c.111-.111.212-.291.304-.54l.14-.383-1.815-4.935h.818l1.355 3.912h.052l1.355-3.912h.818l-2.084 5.625c-.094.253-.21.463-.348.63-.139.168-.3.293-.483.373a1.489 1.489 0 0 1-.614.122Zm9.664-8.386h.792v4.679c0 .417-.076.772-.23 1.064-.153.292-.37.513-.649.665a2.044 2.044 0 0 1-.987.227 2.24 2.24 0 0 1-.956-.195 1.583 1.583 0 0 1-.658-.563 1.54 1.54 0 0 1-.24-.866h.78c0 .185.046.347.137.486a.944.944 0 0 0 .384.319c.162.077.346.115.553.115.228 0 .422-.048.581-.143a.912.912 0 0 0 .365-.422c.085-.188.128-.417.128-.687v-4.679Zm2.381 6.545v-6.545h2.211c.514 0 .934.092 1.26.278.328.183.571.431.728.744.158.313.237.663.237 1.049 0 .385-.079.736-.237 1.051a1.752 1.752 0 0 1-.722.754c-.326.186-.744.278-1.253.278h-1.585v-.703h1.56c.351 0 .633-.06.846-.182a1.08 1.08 0 0 0 .464-.492c.098-.209.147-.444.147-.706 0-.262-.049-.497-.147-.704a1.052 1.052 0 0 0-.467-.485c-.215-.12-.5-.179-.856-.179h-1.394v5.842h-.792Zm5.852.051a.554.554 0 0 1-.406-.169.557.557 0 0 1-.169-.406c0-.158.057-.293.169-.406a.554.554 0 0 1 .406-.169c.158 0 .293.056.406.169.113.113.17.248.17.406a.598.598 0 0 1-.288.498.54.54 0 0 1-.288.077Zm7.298-4.551h-.792a1.657 1.657 0 0 0-.668-1.035 1.778 1.778 0 0 0-.547-.269c-.2-.06-.409-.089-.626-.089a2 2 0 0 0-1.077.3c-.32.2-.574.495-.764.885-.187.39-.281.869-.281 1.435 0 .567.094 1.045.281 1.435.19.39.444.685.764.886a2 2 0 0 0 1.077.3c.217 0 .426-.03.626-.089.201-.06.383-.149.547-.266a1.676 1.676 0 0 0 .668-1.038h.792a2.63 2.63 0 0 1-.326.898 2.43 2.43 0 0 1-.588.674 2.576 2.576 0 0 1-.789.419c-.29.096-.6.144-.93.144a2.74 2.74 0 0 1-1.489-.41 2.796 2.796 0 0 1-1.026-1.163c-.25-.503-.374-1.099-.374-1.79 0-.69.124-1.287.374-1.789a2.805 2.805 0 0 1 1.026-1.164 2.738 2.738 0 0 1 1.489-.409c.33 0 .64.048.93.144.292.096.555.236.789.422.235.183.431.407.588.671.158.262.267.561.326.898Zm3.173 4.602c-.443 0-.832-.105-1.166-.316a2.143 2.143 0 0 1-.78-.885c-.185-.38-.278-.823-.278-1.33 0-.511.093-.958.278-1.339.187-.381.447-.678.78-.889a2.137 2.137 0 0 1 1.166-.316c.444 0 .831.105 1.164.316.334.211.594.508.78.889.187.381.281.828.281 1.339 0 .507-.094.95-.281 1.33a2.13 2.13 0 0 1-.78.885c-.333.211-.72.316-1.164.316Zm0-.677c.337 0 .614-.087.831-.259.218-.173.379-.4.483-.681.104-.281.157-.586.157-.914a2.64 2.64 0 0 0-.157-.917 1.53 1.53 0 0 0-.483-.687c-.217-.175-.494-.262-.831-.262-.336 0-.613.087-.831.262a1.536 1.536 0 0 0-.482.687 2.617 2.617 0 0 0-.157.917c0 .328.052.633.157.914.104.281.265.508.482.681.218.172.495.259.831.259Zm5.562-4.334v.639h-2.646v-.639h2.646Zm-1.853 4.909v-5.587c0-.281.066-.515.198-.703.132-.187.303-.328.514-.422a1.64 1.64 0 0 1 .668-.14 1.698 1.698 0 0 1 .716.128l-.217.652a3.534 3.534 0 0 0-.16-.048.933.933 0 0 0-.262-.029c-.249 0-.429.063-.54.188-.109.126-.163.31-.163.553v5.408h-.754Zm5.096-4.909v.639h-2.646v-.639h2.646Zm-1.853 4.909v-5.587c0-.281.066-.515.198-.703.132-.187.303-.328.514-.422a1.64 1.64 0 0 1 .668-.14 1.698 1.698 0 0 1 .716.128l-.217.652a3.177 3.177 0 0 0-.16-.048.933.933 0 0 0-.262-.029c-.249 0-.429.063-.54.188-.109.126-.163.31-.163.553v5.408h-.754Zm4.767.102c-.473 0-.881-.104-1.225-.313a2.106 2.106 0 0 1-.789-.882c-.183-.379-.275-.82-.275-1.323s.092-.946.275-1.33c.185-.385.443-.686.774-.901.332-.217.72-.326 1.163-.326.256 0 .508.043.757.128.25.085.477.224.681.415.205.19.368.441.489.755.122.313.182.698.182 1.157v.319h-3.784v-.652h3.017c0-.277-.055-.524-.166-.741a1.25 1.25 0 0 0-.467-.515 1.3 1.3 0 0 0-.709-.188c-.301 0-.561.074-.78.223a1.472 1.472 0 0 0-.502.576 1.69 1.69 0 0 0-.176.76v.435c0 .371.064.685.192.943.13.255.31.45.54.585.23.132.498.198.803.198.198 0 .377-.028.536-.083.162-.058.302-.143.419-.256.117-.115.208-.258.272-.428l.729.204a1.619 1.619 0 0 1-.387.652c-.181.186-.405.33-.671.435a2.499 2.499 0 0 1-.898.153Zm5.238 0c-.473 0-.881-.104-1.224-.313a2.108 2.108 0 0 1-.79-.882c-.183-.379-.275-.82-.275-1.323s.092-.946.275-1.33c.186-.385.444-.686.774-.901.332-.217.72-.326 1.163-.326.256 0 .508.043.758.128.249.085.476.224.68.415.205.19.368.441.489.755.122.313.183.698.183 1.157v.319h-3.785v-.652h3.017c0-.277-.055-.524-.166-.741a1.248 1.248 0 0 0-.466-.515 1.307 1.307 0 0 0-.71-.188c-.3 0-.56.074-.78.223a1.47 1.47 0 0 0-.501.576c-.118.236-.176.49-.176.76v.435c0 .371.064.685.192.943.129.255.31.45.54.585.23.132.497.198.802.198.198 0 .377-.028.537-.083a1.15 1.15 0 0 0 .418-.256c.118-.115.208-.258.272-.428l.729.204a1.619 1.619 0 0 1-.387.652c-.181.186-.405.33-.671.435a2.495 2.495 0 0 1-.898.153Zm5.813-.102v-6.545h.793v5.842h3.043v.703h-3.836Zm6.405.115a2 2 0 0 1-.847-.176 1.458 1.458 0 0 1-.604-.514 1.453 1.453 0 0 1-.223-.818c0-.282.055-.51.166-.684.111-.177.259-.316.444-.416.185-.1.39-.175.614-.224.225-.051.452-.091.68-.121.299-.038.54-.067.726-.086.187-.022.324-.057.409-.106.087-.049.131-.134.131-.255v-.026c0-.315-.086-.56-.259-.735-.17-.175-.429-.262-.777-.262-.36 0-.642.079-.846.236a1.397 1.397 0 0 0-.432.505l-.716-.255c.128-.299.298-.531.512-.697.215-.168.449-.286.703-.352.255-.068.507-.102.754-.102.158 0 .339.019.543.058.207.036.406.111.598.226.194.116.355.289.482.521.128.233.192.544.192.934v3.234h-.754v-.665h-.038a1.342 1.342 0 0 1-.256.342 1.46 1.46 0 0 1-.476.31c-.198.085-.44.128-.726.128Zm.115-.677c.299 0 .55-.059.755-.176a1.198 1.198 0 0 0 .626-1.039v-.69c-.032.038-.102.073-.211.105-.106.03-.23.057-.371.08a17.236 17.236 0 0 1-.722.096 2.891 2.891 0 0 0-.55.125.948.948 0 0 0-.409.252c-.102.111-.153.262-.153.454 0 .262.097.46.291.594.196.132.444.199.744.199Zm6.606-1.445v-2.902h.754v4.909h-.754v-.831h-.051a1.622 1.622 0 0 1-.537.636c-.243.173-.55.259-.921.259-.307 0-.579-.067-.818-.201a1.415 1.415 0 0 1-.563-.614c-.136-.275-.204-.621-.204-1.039v-3.119h.754v3.068c0 .358.1.644.301.857.202.213.46.319.773.319.188 0 .378-.048.572-.144.196-.095.36-.242.492-.441.135-.198.202-.45.202-.757Zm2.89-.946v2.953h-.755v-4.909h.729v.767h.064c.115-.249.29-.45.524-.601.235-.153.537-.23.908-.23.332 0 .623.068.872.205.25.134.444.338.582.613.139.273.208.618.208 1.036v3.119h-.754v-3.068c0-.386-.101-.686-.301-.901-.2-.218-.475-.326-.824-.326-.241 0-.456.052-.646.156a1.118 1.118 0 0 0-.444.457c-.109.2-.163.443-.163.729Zm6.504 3.055c-.46 0-.856-.108-1.189-.326a2.121 2.121 0 0 1-.767-.898 3.04 3.04 0 0 1-.268-1.307c0-.499.092-.939.275-1.32.185-.383.443-.683.773-.898.333-.217.72-.326 1.164-.326.345 0 .656.064.933.192s.504.307.681.537c.176.23.286.498.329.805h-.754a1.17 1.17 0 0 0-.384-.594c-.196-.175-.46-.262-.793-.262a1.32 1.32 0 0 0-.773.23c-.22.151-.391.365-.515.642a2.388 2.388 0 0 0-.182.968c0 .38.06.71.179.991.122.281.292.5.512.655.221.156.481.234.779.234.196 0 .374-.034.534-.103a1.097 1.097 0 0 0 .643-.754h.754a1.743 1.743 0 0 1-.978 1.333c-.273.134-.59.201-.953.201Zm3.788-3.055v2.953h-.755v-6.545h.755v2.403h.064c.115-.254.287-.455.517-.604.233-.151.542-.227.927-.227.335 0 .628.067.879.201.252.132.446.336.585.611.141.273.211.62.211 1.042v3.119h-.754v-3.068c0-.39-.102-.692-.304-.905-.2-.215-.478-.322-.834-.322-.247 0-.469.052-.665.156a1.15 1.15 0 0 0-.46.457c-.111.2-.166.443-.166.729Zm4.563 2.953v-4.909h.754v4.909h-.754Zm.383-5.727a.537.537 0 0 1-.38-.15.487.487 0 0 1-.157-.362c0-.14.053-.261.157-.361.107-.1.233-.15.38-.15s.273.05.377.15c.107.1.16.221.16.361a.48.48 0 0 1-.16.362c-.104.1-.23.15-.377.15Zm2.507 2.774v2.953h-.754v-4.909h.728v.767h.064c.115-.249.29-.45.524-.601.235-.153.537-.23.908-.23.332 0 .623.068.872.205.25.134.444.338.582.613.139.273.208.618.208 1.036v3.119h-.754v-3.068c0-.386-.101-.686-.301-.901-.2-.218-.475-.326-.824-.326-.241 0-.456.052-.646.156a1.124 1.124 0 0 0-.444.457c-.109.2-.163.443-.163.729Zm6.492 4.896c-.365 0-.678-.047-.94-.14a1.991 1.991 0 0 1-1.067-.844l.6-.422c.069.089.155.192.259.307.105.117.248.218.429.303.183.088.423.131.719.131.396 0 .723-.095.981-.287.258-.192.387-.492.387-.901v-.998h-.064c-.056.09-.135.201-.237.333-.1.13-.245.246-.434.348-.188.1-.442.15-.761.15-.396 0-.752-.093-1.068-.281a1.968 1.968 0 0 1-.744-.818c-.181-.358-.272-.793-.272-1.304 0-.503.088-.941.265-1.314.177-.375.423-.664.739-.869.315-.207.679-.31 1.093-.31.319 0 .573.053.76.16.19.104.335.224.435.358.102.132.181.241.236.326h.077v-.78h.729v5.05c0 .422-.096.765-.288 1.029a1.638 1.638 0 0 1-.767.585 2.904 2.904 0 0 1-1.067.188Zm-.026-2.697c.303 0 .558-.069.767-.208.209-.138.368-.338.476-.598.109-.26.163-.571.163-.933a2.55 2.55 0 0 0-.159-.936 1.41 1.41 0 0 0-.473-.636c-.209-.154-.467-.23-.774-.23-.319 0-.586.081-.799.242-.211.162-.37.38-.476.652a2.534 2.534 0 0 0-.157.908c0 .341.054.643.16.905.109.26.269.464.48.613.213.147.477.221.792.221Zm-252.77 6.845a1.003 1.003 0 0 0-.467-.754c-.272-.179-.607-.269-1.003-.269-.29 0-.544.047-.76.141a1.21 1.21 0 0 0-.506.387.926.926 0 0 0-.179.559c0 .175.042.325.125.45.085.124.194.227.326.31.132.081.27.149.415.202.145.051.278.093.4.124l.665.179c.17.045.36.107.568.186.211.079.413.186.604.323.194.134.354.306.48.517.126.211.188.47.188.777 0 .354-.092.673-.278.959a1.902 1.902 0 0 1-.805.681c-.352.168-.779.252-1.282.252-.468 0-.874-.076-1.217-.227a1.935 1.935 0 0 1-.806-.633 1.804 1.804 0 0 1-.329-.942h.818c.022.247.105.451.25.613.147.16.332.279.556.358.226.077.468.115.728.115.303 0 .575-.049.815-.147a1.4 1.4 0 0 0 .573-.415.986.986 0 0 0 .21-.627.766.766 0 0 0-.182-.53 1.339 1.339 0 0 0-.48-.333 5.084 5.084 0 0 0-.642-.223l-.805-.231c-.511-.147-.916-.356-1.214-.629-.299-.273-.448-.63-.448-1.071 0-.366.1-.686.297-.959.2-.274.47-.488.806-.639.338-.153.717-.23 1.134-.23.422 0 .797.076 1.125.227.328.149.588.354.78.614.194.26.296.555.307.885h-.767Zm4.052 5.011a2.14 2.14 0 0 1-1.167-.316 2.15 2.15 0 0 1-.78-.885c-.185-.38-.278-.823-.278-1.33 0-.511.093-.958.278-1.339a2.15 2.15 0 0 1 .78-.889 2.14 2.14 0 0 1 1.167-.316c.443 0 .83.105 1.163.316.334.211.595.508.78.889.187.381.281.828.281 1.339 0 .507-.094.95-.281 1.33a2.12 2.12 0 0 1-.78.885c-.332.211-.72.316-1.163.316Zm0-.677c.336 0 .613-.087.83-.259.218-.173.379-.4.483-.681.105-.281.157-.586.157-.914a2.63 2.63 0 0 0-.157-.917 1.538 1.538 0 0 0-.482-.687c-.218-.175-.495-.262-.831-.262-.337 0-.614.087-.831.262a1.538 1.538 0 0 0-.483.687 2.63 2.63 0 0 0-.157.917c0 .328.053.633.157.914.104.281.265.508.483.681.217.172.494.259.83.259Zm5.37.677a2.14 2.14 0 0 1-1.167-.316 2.15 2.15 0 0 1-.78-.885c-.185-.38-.278-.823-.278-1.33 0-.511.093-.958.278-1.339a2.15 2.15 0 0 1 .78-.889 2.14 2.14 0 0 1 1.167-.316c.443 0 .83.105 1.163.316.335.211.595.508.78.889.188.381.281.828.281 1.339 0 .507-.093.95-.281 1.33a2.121 2.121 0 0 1-.78.885c-.332.211-.72.316-1.163.316Zm0-.677c.336 0 .613-.087.83-.259.218-.173.379-.4.483-.681.105-.281.157-.586.157-.914 0-.328-.052-.634-.157-.917a1.538 1.538 0 0 0-.482-.687c-.218-.175-.495-.262-.831-.262-.337 0-.614.087-.831.262a1.538 1.538 0 0 0-.483.687 2.63 2.63 0 0 0-.156.917c0 .328.052.633.156.914.105.281.266.508.483.681.217.172.494.259.83.259Zm4.13-2.378v2.953h-.754v-4.909h.728v.767h.064c.115-.249.29-.45.524-.601.235-.153.537-.23.908-.23.332 0 .623.068.873.205.249.134.443.338.581.613.139.273.208.618.208 1.036v3.119h-.754v-3.068c0-.386-.1-.686-.3-.901-.201-.218-.476-.326-.825-.326-.241 0-.456.052-.646.156a1.126 1.126 0 0 0-.444.457 1.51 1.51 0 0 0-.163.729Zm5.507-3.592-.063 4.704h-.742l-.064-4.704h.87Zm-.434 6.596a.553.553 0 0 1-.406-.169.554.554 0 0 1-.17-.406c0-.158.057-.293.17-.406a.553.553 0 0 1 .406-.169c.157 0 .293.056.406.169a.553.553 0 0 1 .169.406.595.595 0 0 1-.288.498.54.54 0 0 1-.287.077Z"/>
  <defs>
    <linearGradient id="a" x1="401" x2="0" y1="0" y2="211" gradientUnits="userSpaceOnUse">
      <stop stop-color="#E96E26"/>
      <stop offset="1" stop-color="#21A6D6"/>
    </linearGradient>
  </defs>
</svg>
