<svg xmlns="http://www.w3.org/2000/svg" width="402" height="211" fill="none" viewBox="0 0 402 211">
  <path fill="#383E42" d="M0 0h401.333v210.7H0z"/>
  <path fill="url(#a)" fill-opacity=".08" d="M0 0h401.333v210.7H0z"/>
  <g clip-path="url(#b)">
    <path fill="#1384B4" d="M25.065 33.175c.12.131.376.409.441.474.116-.03 3.832-.084 5.355-.119.327-.007.656-.007.98-.063.439-.076.657-.214.718-.292h-7.494Zm9.698-6.955c-.379 0-.756.207-.898.31l-.196-.848 1.437-.229.881.18.67.587.163 1.062-.718 1.6-2.074 1.86-2.367 1.062c.027-.12.108-.385.212-.49 4.18-1.926 4.114-3.886 4.114-4.032.066-.964-1.11-1.062-1.224-1.062Z"/>
    <path fill="#EEEFF0" d="M35.171 25.714a2.591 2.591 0 0 0-1.192.36h-.343c.022-.148.141-.48.441-.637.376-.196.98-.18 1.094-.18 1.894.05 1.829 1.584 1.829 1.714-.248 2.965-3.815 4.675-5.567 5.16.076-.137.235-.441.26-.572 4.867-1.823 4.866-4.44 4.866-4.586v-.002c-.114-1.191-1.208-1.257-1.388-1.257Zm-10.495 6.429.22-.02.466.791-.552.067-.134-.838Z"/>
    <path fill="#1384B4" d="m24.819 32.038.39 1.114-.714-.057-.39-1.038.714-.019Z"/>
    <mask id="c" width="13" height="10" x="22" y="24" maskUnits="userSpaceOnUse" style="mask-type:alpha">
      <path fill="#F4F3ED" d="M25.245 32.865c-.04-.094-.267-.522-.857-1.502-1.305-2.165-2.102-4.478-2.278-7.02h12.212c-.176 2.542-.973 4.855-2.278 7.02-.59.98-.817 1.408-.856 1.502.798-.033 2.19-.07 2.726-.013.114.012.19.028.212.05.046.042-.14.105-.162.113h-.001c-.094.032-.22.062-.36.09-.259.05-.57.093-.832.122-.224.025-.444.03-.67.03h-7.77c-.226 0-.445-.005-.67-.03-.262-.03-.573-.071-.833-.122a2.935 2.935 0 0 1-.359-.09c-.022-.008-.208-.071-.163-.114.023-.02.098-.037.212-.05.537-.055 1.928-.02 2.727.014Z"/>
    </mask>
    <g mask="url(#c)">
      <path fill="#EEEFF0" d="M25.245 32.865c-.04-.094-.267-.522-.857-1.502-1.305-2.165-2.102-4.478-2.278-7.02h12.212c-.176 2.542-.973 4.855-2.278 7.02-.59.98-.817 1.408-.856 1.502.798-.033 2.19-.07 2.726-.013.114.012.19.028.212.05.046.042-.14.105-.162.113h-.001c-.094.032-.22.062-.36.09-.259.05-.57.093-.832.122-.224.025-.444.03-.67.03h-7.77c-.226 0-.445-.005-.67-.03-.262-.03-.573-.071-.833-.122a2.935 2.935 0 0 1-.359-.09c-.022-.008-.208-.071-.163-.114.023-.02.098-.037.212-.05.537-.055 1.928-.02 2.727.014Z"/>
    </g>
    <mask id="d" width="10" height="9" x="22" y="24" maskUnits="userSpaceOnUse" style="mask-type:alpha">
      <path fill="#D87324" d="m28.69 29.404.049-1.11h1.012v1.11H28.69Zm1.747 3.429-1.813-3.07H30.6v1.012h1.11l-.947 2.058h-.326Zm-.36 0h-1.714l.229-2.613 1.485 2.613Zm-3.624 0-.163-.817h1.796l-.033.817h-1.6Zm-.49-.817h-.735l.294.817h.62l-.179-.817Zm-.196-3.82.49 3.494h1.894l.261-3.494h-2.645Zm-1.518 0h1.143l.261 2.35-1.404-2.35Zm.93 3.494-1.257-3.494 2.008 3.494h-.75Zm3.298-3.853h-2.742l-.229-1.584h1.878v1.094h1.126l-.033.49Zm-2.971-1.927h.718v-1.077h-.832l.114 1.077Zm-.163 1.927h-1.355l-1.257-3.004h2.285l.327 3.004Z"/>
    </mask>
    <g mask="url(#d)">
      <path fill="#21A6D6" d="m28.69 29.404.049-1.11h1.012v1.11H28.69Zm1.747 3.429-1.813-3.07H30.6v1.012h1.11l-.947 2.058h-.326Zm-.36 0h-1.714l.229-2.613 1.485 2.613Zm-3.624 0-.163-.817h1.796l-.033.817h-1.6Zm-.49-.817h-.735l.294.817h.62l-.179-.817Zm-.196-3.82.49 3.494h1.894l.261-3.494h-2.645Zm-1.518 0h1.143l.261 2.35-1.404-2.35Zm.93 3.494-1.257-3.494 2.008 3.494h-.75Zm3.298-3.853h-2.742l-.229-1.584h1.878v1.094h1.126l-.033.49Zm-2.971-1.927h.718v-1.077h-.832l.114 1.077Zm-.163 1.927h-1.355l-1.257-3.004h2.285l.327 3.004Z"/>
      <path fill="#1384B4" d="M22.747 25.257h1.747l.375 2.58.572.098-.31-3.2-2.547-.082.163.604Zm3.053 0h-.392l-.065.016-.066-.522h1.045v1.192H25.8v-.686Zm1.045 1.371v1.29l1.714.017.065-.67-1.093-.065v-1.03l-2.09.05.081.391 1.323.017Zm-1.943 1.96h-.49l-.31-.523 1.339.016.26 1.11.017 1.437h-.098l-.326-.457-.392-1.583Zm.229 3.216-1.29-3.575v-.31l1.681 2.84.555 1.012-.947.033Zm2.53.539v.538l.425.017.13-.947-2.04.016.13.376h1.355Zm-2.057 0h-.375l-.115-.36.915-.048.212.98-.457.015-.18-.587Zm2.253-3.723h-2.122l-.131-.522 2.955.016-.277 3.608h-.654l.229-3.102Zm1.306.098h-.555l.114-.571 1.127-.066.081 1.405-.767.016v-.784Zm.147 4.164-.833-1.584-.016-1.012.147-.31 1.649 2.873-.947.033Zm.735-2.694h-1.241l-.163-.262-.115-.26 2.09-.034 1.127 1.127-.62.376h-1.078v-.947Z"/>
    </g>
    <path fill="#1384B4" d="m22.306 26.76-.588-1.47h-.653L21 24.833h1.339l.702 1.926h-.735Zm2.09 6.073-1.992-5.306h-.718l-.392-.441h1.796l2.008 5.747h-.702Z"/>
    <path fill="#EEEFF0" d="M21.147 26.76h1.681l.213.326h-1.747l-.147-.327Zm.245-2.417h.98l-.05.49H21l.392-.49Z"/>
  </g>
  <path fill="#EEEFF0" d="M45.858 27.546a1.115 1.115 0 0 0-.518-.839c-.304-.198-.675-.298-1.116-.298a2.12 2.12 0 0 0-.845.156 1.35 1.35 0 0 0-.56.43 1.03 1.03 0 0 0-.2.621.89.89 0 0 0 .139.501c.094.137.215.252.362.345.147.09.3.164.462.223.16.057.309.103.444.139l.738.199c.19.05.4.118.632.206.235.087.458.207.672.358.215.15.393.341.532.576.14.234.21.522.21.863 0 .393-.103.748-.31 1.065-.203.317-.501.57-.894.756-.39.187-.866.28-1.424.28-.521 0-.972-.083-1.353-.251a2.157 2.157 0 0 1-.895-.703 2.017 2.017 0 0 1-.366-1.048h.91c.023.275.115.502.276.682.164.177.37.31.618.398.251.085.521.127.81.127.336 0 .638-.054.905-.163.268-.111.48-.265.636-.462.156-.198.234-.43.234-.696 0-.241-.067-.438-.202-.59a1.486 1.486 0 0 0-.533-.368 5.594 5.594 0 0 0-.714-.249l-.894-.256c-.569-.163-1.018-.396-1.35-.7-.331-.302-.497-.699-.497-1.189 0-.407.11-.762.33-1.065.223-.306.521-.542.895-.71.377-.17.797-.256 1.26-.256.47 0 .886.084 1.25.252.365.166.654.393.867.682.216.289.33.616.341.983h-.852Zm4.502 5.568c-.511 0-.952-.121-1.321-.363a2.361 2.361 0 0 1-.852-.997c-.2-.424-.299-.908-.299-1.453 0-.554.102-1.043.306-1.466.206-.427.492-.76.86-.998.368-.242.8-.363 1.292-.363.383 0 .729.072 1.037.213.307.142.56.341.756.597.197.256.318.554.366.895h-.838a1.299 1.299 0 0 0-.426-.66c-.218-.195-.512-.292-.881-.292-.327 0-.613.085-.86.256a1.665 1.665 0 0 0-.571.714 2.645 2.645 0 0 0-.203 1.076c0 .421.067.788.2 1.1.134.313.324.556.567.729.247.172.535.259.867.259.218 0 .415-.038.593-.114a1.224 1.224 0 0 0 .714-.838h.838a1.94 1.94 0 0 1-1.087 1.48c-.303.15-.656.225-1.058.225Zm4.975.014c-.346 0-.66-.065-.941-.196a1.615 1.615 0 0 1-.671-.571c-.166-.251-.249-.554-.249-.91 0-.312.062-.565.185-.76.123-.196.288-.35.494-.46.206-.112.433-.195.681-.25.251-.056.503-.101.757-.134.331-.043.6-.075.806-.096.208-.024.36-.063.454-.117.097-.055.146-.15.146-.285v-.028c0-.35-.096-.623-.288-.817-.19-.194-.477-.29-.863-.29-.4 0-.713.087-.94.262a1.553 1.553 0 0 0-.48.56l-.796-.283a1.91 1.91 0 0 1 .569-.774c.239-.187.5-.317.78-.39.285-.077.564-.115.839-.115.175 0 .376.022.604.064.23.04.45.125.664.253.215.127.394.32.536.578.142.258.213.604.213 1.037V33h-.838v-.739h-.043a1.477 1.477 0 0 1-.284.38 1.64 1.64 0 0 1-.529.345c-.22.095-.489.142-.806.142Zm.128-.753c.331 0 .61-.065.838-.195a1.33 1.33 0 0 0 .696-1.154v-.767c-.035.042-.114.081-.234.117a3.957 3.957 0 0 1-.412.088 18.409 18.409 0 0 1-.803.107 3.203 3.203 0 0 0-.61.138 1.053 1.053 0 0 0-.455.281c-.114.123-.17.291-.17.504 0 .291.107.512.322.66.218.148.494.221.828.221Zm6.33-4.83v.71h-2.94v-.71h2.94ZM59.735 33v-6.207c0-.313.073-.573.22-.782.147-.208.337-.364.572-.468.234-.105.482-.157.742-.157a1.957 1.957 0 0 1 .796.142l-.242.725a4.126 4.126 0 0 0-.178-.053 1.076 1.076 0 0 0-.29-.032c-.278 0-.478.07-.6.21-.121.139-.182.344-.182.613V33h-.838Zm5.663-5.454v.71h-2.94v-.71h2.94ZM63.337 33v-6.207c0-.313.074-.573.22-.782.148-.208.338-.364.572-.468.235-.105.482-.157.743-.157a1.953 1.953 0 0 1 .796.142l-.242.725a4.126 4.126 0 0 0-.178-.053 1.076 1.076 0 0 0-.291-.032c-.277 0-.477.07-.6.21-.121.139-.181.344-.181.613V33h-.839Zm5.226.114c-.492 0-.924-.118-1.296-.352a2.388 2.388 0 0 1-.867-.984c-.206-.421-.309-.913-.309-1.477 0-.568.103-1.064.31-1.488.208-.424.496-.753.866-.987.372-.234.804-.352 1.296-.352s.923.118 1.293.352c.371.234.66.563.866.987.209.424.313.92.313 1.488 0 .564-.105 1.056-.313 1.477-.206.422-.495.75-.866.984-.37.234-.8.352-1.293.352Zm0-.753c.374 0 .682-.096.923-.288.242-.192.42-.444.536-.756.117-.313.175-.651.175-1.016 0-.364-.058-.704-.175-1.019a1.717 1.717 0 0 0-.536-.764c-.241-.194-.549-.29-.923-.29s-.682.096-.923.29c-.242.195-.42.45-.537.764a2.925 2.925 0 0 0-.173 1.02c0 .364.057.702.173 1.015.117.312.295.564.537.756.241.192.549.288.923.288Zm4.589-6.634V33h-.838v-7.273h.838Zm3.595 7.387c-.455 0-.856-.115-1.204-.345a2.326 2.326 0 0 1-.817-.98c-.197-.424-.295-.924-.295-1.502 0-.573.099-1.07.295-1.491.197-.422.47-.747.82-.977.35-.23.756-.345 1.215-.345.355 0 .636.06.842.178.208.116.366.249.475.398.112.146.198.267.26.362h.07v-2.685h.839V33h-.81v-.838h-.1c-.061.1-.149.225-.262.376a1.56 1.56 0 0 1-.487.402c-.21.116-.491.174-.841.174Zm.113-.753c.336 0 .62-.088.853-.263.232-.177.408-.423.529-.735.12-.315.18-.678.18-1.09 0-.407-.058-.764-.177-1.07a1.556 1.556 0 0 0-.525-.716c-.232-.173-.519-.26-.86-.26-.355 0-.65.091-.888.274-.234.18-.41.425-.529.735a2.922 2.922 0 0 0-.174 1.037c0 .388.06.74.178 1.058.12.315.298.566.533.753.236.184.53.277.88.277Zm4.649.696a.615.615 0 0 1-.451-.188.615.615 0 0 1-.189-.451c0-.176.063-.326.189-.451a.615.615 0 0 1 .45-.189c.176 0 .326.063.452.189a.615.615 0 0 1 .188.45.663.663 0 0 1-.32.554.61.61 0 0 1-.32.086ZM89.618 28h-.881a1.829 1.829 0 0 0-.742-1.15 1.992 1.992 0 0 0-.607-.299 2.424 2.424 0 0 0-.696-.1c-.44 0-.84.112-1.197.334-.355.223-.638.55-.849.984-.208.433-.312.965-.312 1.595s.104 1.16.312 1.594c.21.433.494.761.849.984.357.222.756.334 1.197.334.241 0 .473-.034.696-.1.222-.066.425-.164.607-.295a1.873 1.873 0 0 0 .742-1.154h.88a2.933 2.933 0 0 1-.362.998 2.726 2.726 0 0 1-1.53 1.215c-.322.106-.666.16-1.033.16a3.05 3.05 0 0 1-1.655-.455c-.483-.303-.863-.734-1.14-1.293-.277-.558-.416-1.221-.416-1.988 0-.767.139-1.43.416-1.989.277-.559.657-.99 1.14-1.293.483-.303 1.034-.454 1.655-.454.367 0 .711.053 1.033.16.324.106.617.262.877.468.26.204.478.453.653.746.176.291.296.624.363.998Zm3.525 5.114c-.492 0-.924-.118-1.296-.352a2.388 2.388 0 0 1-.866-.984c-.206-.421-.31-.913-.31-1.477 0-.568.103-1.064.31-1.488.208-.424.497-.753.866-.987.372-.234.804-.352 1.296-.352s.923.118 1.293.352c.371.234.66.563.866.987.208.424.313.92.313 1.488 0 .564-.105 1.056-.313 1.477-.206.422-.495.75-.866.984-.37.234-.8.352-1.293.352Zm0-.753c.374 0 .682-.096.923-.288.242-.192.42-.444.537-.756.116-.313.174-.651.174-1.016 0-.364-.058-.704-.174-1.019a1.717 1.717 0 0 0-.537-.764c-.241-.194-.549-.29-.923-.29s-.682.096-.923.29c-.242.195-.42.45-.536.764a2.925 2.925 0 0 0-.174 1.02c0 .364.058.702.174 1.015.116.312.294.564.536.756.241.192.55.288.923.288Zm6.18-4.815v.71h-2.94v-.71h2.94ZM97.263 33v-6.207c0-.313.074-.573.22-.782.147-.208.338-.364.572-.468.235-.105.482-.157.742-.157a1.957 1.957 0 0 1 .796.142l-.242.725a4.126 4.126 0 0 0-.177-.053 1.076 1.076 0 0 0-.291-.032c-.277 0-.477.07-.6.21-.121.139-.182.344-.182.613V33h-.838Zm5.663-5.454v.71h-2.94v-.71h2.94ZM100.867 33v-6.207c0-.313.073-.573.22-.782.147-.208.337-.364.572-.468.234-.105.482-.157.742-.157a1.96 1.96 0 0 1 .795.142l-.241.725a4.266 4.266 0 0 0-.178-.053 1.072 1.072 0 0 0-.291-.032c-.277 0-.477.07-.6.21-.121.139-.181.344-.181.613V33h-.838Zm5.296.114c-.525 0-.979-.116-1.36-.348a2.335 2.335 0 0 1-.877-.98c-.203-.422-.305-.912-.305-1.47 0-.56.102-1.052.305-1.478.206-.428.493-.762.86-1.001.369-.242.8-.363 1.292-.363.284 0 .565.048.842.142.277.095.529.25.756.462.227.21.409.49.543.838.135.348.203.777.203 1.286v.355h-4.205v-.725h3.353a1.79 1.79 0 0 0-.185-.823 1.394 1.394 0 0 0-.519-.572 1.45 1.45 0 0 0-.788-.21 1.5 1.5 0 0 0-.866.249 1.63 1.63 0 0 0-.558.64 1.88 1.88 0 0 0-.195.844v.483c0 .412.071.761.213 1.048.144.284.344.5.6.65.256.146.553.22.891.22.221 0 .419-.031.597-.092.18-.064.335-.16.465-.285a1.29 1.29 0 0 0 .302-.476l.81.228a1.807 1.807 0 0 1-.43.724c-.201.206-.45.367-.746.483-.296.114-.628.17-.998.17Zm5.821 0c-.526 0-.979-.116-1.36-.348a2.337 2.337 0 0 1-.878-.98c-.203-.422-.305-.912-.305-1.47 0-.56.102-1.052.305-1.478.206-.428.493-.762.86-1.001.369-.242.8-.363 1.292-.363.285 0 .565.048.842.142.277.095.529.25.756.462.228.21.409.49.544.838.135.348.202.777.202 1.286v.355h-4.204v-.725h3.352a1.79 1.79 0 0 0-.185-.823 1.385 1.385 0 0 0-.518-.572 1.455 1.455 0 0 0-.789-.21c-.333 0-.622.083-.866.249a1.638 1.638 0 0 0-.558.64 1.88 1.88 0 0 0-.195.844v.483c0 .412.071.761.213 1.048.145.284.345.5.6.65.256.146.553.22.892.22.22 0 .419-.031.596-.092.18-.064.335-.16.465-.285.131-.128.231-.286.302-.476l.81.228a1.785 1.785 0 0 1-.43.724c-.201.206-.45.367-.745.483a2.76 2.76 0 0 1-.998.17ZM32.446 147.2h-1.497a3.11 3.11 0 0 0-1.262-1.956 3.398 3.398 0 0 0-1.032-.507 4.112 4.112 0 0 0-1.183-.169c-.749 0-1.427.189-2.035.567-.604.379-1.085.936-1.443 1.673-.354.736-.53 1.64-.53 2.71 0 1.071.176 1.974.53 2.711.358.736.84 1.294 1.443 1.672a3.774 3.774 0 0 0 2.035.567c.41 0 .804-.056 1.183-.169a3.43 3.43 0 0 0 1.032-.501 3.169 3.169 0 0 0 1.262-1.962h1.497a4.99 4.99 0 0 1-.616 1.697 4.652 4.652 0 0 1-1.11 1.274c-.443.346-.94.609-1.492.79a5.56 5.56 0 0 1-1.756.272c-1.055 0-1.993-.258-2.814-.773-.82-.515-1.467-1.247-1.938-2.197-.47-.95-.706-2.077-.706-3.381 0-1.304.236-2.431.707-3.381.47-.949 1.116-1.682 1.937-2.197.821-.515 1.76-.773 2.814-.773.623 0 1.209.091 1.756.272a4.795 4.795 0 0 1 1.491.797c.443.346.813.769 1.111 1.268.298.495.503 1.06.616 1.696Zm2.42 8.5v-12.364h1.496v11.036h5.748v1.328h-7.245Zm11.059-12.364V155.7h-1.497v-12.364h1.497Zm11.72 3.091v1.208h-5v-1.208h5Zm-3.502 9.273v-10.553c0-.531.124-.974.374-1.328.25-.354.574-.619.972-.797a3.073 3.073 0 0 1 1.262-.265c.35 0 .636.028.857.084.221.057.386.109.495.157l-.41 1.232a6.836 6.836 0 0 0-.302-.091 1.84 1.84 0 0 0-.495-.054c-.471 0-.811.119-1.02.356-.206.238-.308.586-.308 1.045V155.7h-1.425Zm8.883.193c-.837 0-1.572-.199-2.203-.597-.628-.399-1.12-.956-1.473-1.673-.35-.716-.526-1.553-.526-2.511 0-.966.175-1.809.526-2.53.354-.72.845-1.279 1.473-1.678.632-.398 1.366-.597 2.203-.597.837 0 1.57.199 2.197.597.632.399 1.123.958 1.474 1.678.354.721.53 1.564.53 2.53 0 .958-.176 1.795-.53 2.511-.35.717-.842 1.274-1.474 1.673-.627.398-1.36.597-2.197.597Zm0-1.28c.636 0 1.16-.163 1.57-.489a2.88 2.88 0 0 0 .911-1.286 4.918 4.918 0 0 0 .296-1.726c0-.62-.099-1.197-.296-1.733a2.922 2.922 0 0 0-.911-1.298c-.41-.33-.934-.495-1.57-.495s-1.159.165-1.57.495c-.41.33-.714.763-.911 1.298a4.978 4.978 0 0 0-.296 1.733c0 .62.099 1.195.296 1.726.197.532.501.96.911 1.286.411.326.934.489 1.57.489Zm6.377 1.087v-9.273h1.376v1.401h.097c.169-.459.474-.831.917-1.117a2.7 2.7 0 0 1 1.497-.429c.105 0 .236.002.393.006.157.004.275.01.356.019v1.448a4.253 4.253 0 0 0-.332-.054 3.286 3.286 0 0 0-.537-.042c-.451 0-.854.094-1.208.284-.35.185-.628.442-.833.772a2.084 2.084 0 0 0-.302 1.117v5.868h-1.424Zm18.06-9.273a1.895 1.895 0 0 0-.88-1.424c-.516-.339-1.148-.508-1.896-.508-.548 0-1.027.089-1.437.266a2.294 2.294 0 0 0-.954.731 1.748 1.748 0 0 0-.338 1.056c0 .33.078.614.235.851.161.234.367.429.616.586.25.153.511.28.785.38.274.097.525.175.755.236l1.255.338c.322.084.68.201 1.075.35a4.95 4.95 0 0 1 1.14.61 3.1 3.1 0 0 1 .906.977c.238.399.357.888.357 1.467 0 .669-.176 1.272-.526 1.812-.346.539-.853.967-1.521 1.285-.664.318-1.471.477-2.42.477-.886 0-1.653-.143-2.3-.428-.645-.286-1.152-.684-1.522-1.196a3.408 3.408 0 0 1-.622-1.781h1.545c.04.467.198.854.471 1.16a2.56 2.56 0 0 0 1.05.676 4.25 4.25 0 0 0 1.377.217c.572 0 1.085-.093 1.54-.278.454-.189.815-.45 1.08-.784.266-.339.399-.733.399-1.184 0-.41-.115-.744-.344-1.002a2.532 2.532 0 0 0-.906-.628 9.404 9.404 0 0 0-1.213-.422l-1.522-.435c-.966-.278-1.73-.674-2.294-1.189-.563-.515-.845-1.189-.845-2.023 0-.692.187-1.295.561-1.811.379-.519.886-.921 1.522-1.207.64-.29 1.354-.435 2.143-.435.797 0 1.505.143 2.125.429.62.282 1.11.668 1.473 1.159.366.491.56 1.048.58 1.672h-1.45Zm7.654 9.466c-.87 0-1.618-.205-2.246-.616-.628-.41-1.11-.976-1.449-1.696-.338-.72-.507-1.543-.507-2.469 0-.942.173-1.773.52-2.493.35-.725.837-1.29 1.46-1.697.628-.41 1.36-.615 2.198-.615.652 0 1.24.12 1.763.362.523.241.951.579 1.285 1.014.334.435.542.942.622 1.521h-1.425c-.108-.422-.35-.797-.724-1.123-.37-.33-.87-.495-1.497-.495-.556 0-1.043.145-1.461.435-.415.286-.739.69-.972 1.213-.23.52-.344 1.129-.344 1.83 0 .716.113 1.34.338 1.871.23.531.551.944.966 1.238.418.293.91.44 1.473.44.37 0 .706-.064 1.008-.193.302-.129.558-.314.767-.555.21-.242.358-.531.447-.87h1.424a3.295 3.295 0 0 1-1.847 2.518c-.515.253-1.115.38-1.8.38Zm8.458.024c-.588 0-1.121-.11-1.6-.332a2.741 2.741 0 0 1-1.141-.972c-.282-.426-.423-.941-.423-1.545 0-.531.105-.962.314-1.292.21-.334.489-.596.839-.785.351-.189.737-.33 1.159-.422.427-.097.856-.173 1.286-.23a59.772 59.772 0 0 1 1.371-.163c.354-.04.611-.106.772-.199.165-.093.248-.254.248-.483v-.048c0-.596-.163-1.059-.489-1.389-.322-.33-.811-.495-1.467-.495-.68 0-1.213.149-1.6.447-.386.298-.658.616-.815.954l-1.352-.483c.241-.564.563-1.002.966-1.316.406-.318.849-.54 1.328-.664a5.506 5.506 0 0 1 1.425-.193c.298 0 .64.036 1.026.108.39.069.767.211 1.129.429.366.217.67.545.911.984.242.439.363 1.026.363 1.763v6.109H106.4v-1.256h-.072a2.507 2.507 0 0 1-.483.646c-.226.23-.526.425-.9.586-.374.161-.831.241-1.37.241Zm.217-1.28c.563 0 1.038-.11 1.425-.332a2.259 2.259 0 0 0 1.183-1.962v-1.304c-.06.073-.193.139-.398.2a7.05 7.05 0 0 1-.701.151 31.93 31.93 0 0 1-1.364.181c-.37.048-.717.127-1.038.235a1.796 1.796 0 0 0-.773.477c-.193.209-.29.495-.29.857 0 .495.183.87.549 1.123.371.25.84.374 1.407.374Zm10.762-8.21v1.208h-4.998v-1.208h4.998Zm-3.501 9.273v-10.553c0-.531.125-.974.374-1.328.25-.354.574-.619.972-.797a3.075 3.075 0 0 1 1.262-.265c.35 0 .636.028.857.084.221.057.386.109.495.157l-.41 1.232a6.976 6.976 0 0 0-.302-.091 1.843 1.843 0 0 0-.495-.054c-.471 0-.811.119-1.02.356-.206.238-.308.586-.308 1.045V155.7h-1.425Zm9.627-9.273v1.208h-4.998v-1.208h4.998Zm-3.501 9.273v-10.553c0-.531.125-.974.374-1.328.25-.354.574-.619.972-.797a3.075 3.075 0 0 1 1.262-.265c.35 0 .636.028.857.084.221.057.386.109.495.157l-.41 1.232a6.976 6.976 0 0 0-.302-.091 1.843 1.843 0 0 0-.495-.054c-.471 0-.811.119-1.021.356-.205.238-.307.586-.307 1.045V155.7h-1.425Zm8.883.193c-.837 0-1.571-.199-2.203-.597-.628-.399-1.119-.956-1.473-1.673-.35-.716-.525-1.553-.525-2.511 0-.966.175-1.809.525-2.53.354-.72.845-1.279 1.473-1.678.632-.398 1.366-.597 2.203-.597.837 0 1.57.199 2.198.597.632.399 1.123.958 1.473 1.678.354.721.531 1.564.531 2.53 0 .958-.177 1.795-.531 2.511-.35.717-.841 1.274-1.473 1.673-.628.398-1.361.597-2.198.597Zm0-1.28c.636 0 1.159-.163 1.57-.489a2.88 2.88 0 0 0 .911-1.286 4.9 4.9 0 0 0 .296-1.726 4.96 4.96 0 0 0-.296-1.733 2.923 2.923 0 0 0-.911-1.298c-.411-.33-.934-.495-1.57-.495s-1.159.165-1.569.495c-.411.33-.715.763-.912 1.298a4.982 4.982 0 0 0-.296 1.733c0 .62.099 1.195.296 1.726.197.532.501.96.912 1.286.41.326.933.489 1.569.489Zm7.801-11.277V155.7h-1.424v-12.364h1.424Zm6.111 12.557c-.772 0-1.455-.195-2.046-.585-.592-.395-1.055-.95-1.389-1.667-.334-.72-.501-1.571-.501-2.553 0-.974.167-1.819.501-2.536.334-.716.799-1.269 1.395-1.66.596-.39 1.284-.585 2.064-.585.604 0 1.081.1 1.431.301.354.198.624.423.809.677.189.249.336.454.441.615h.121v-4.564h1.424V155.7h-1.376v-1.425h-.169a9.212 9.212 0 0 1-.447.64c-.193.254-.469.481-.827.682-.358.198-.835.296-1.431.296Zm.194-1.28c.571 0 1.054-.149 1.448-.446.395-.302.695-.719.9-1.25.205-.535.308-1.153.308-1.853 0-.693-.101-1.298-.302-1.817-.201-.524-.499-.93-.894-1.22-.394-.294-.881-.441-1.46-.441-.604 0-1.107.155-1.51.465-.398.306-.698.723-.899 1.25a4.973 4.973 0 0 0-.296 1.763c0 .66.101 1.259.302 1.799.205.535.507.962.905 1.279.403.314.902.471 1.498.471Zm6.864 1.087v-9.273h1.424v9.273h-1.424Zm.724-10.818c-.278 0-.517-.095-.718-.284a.908.908 0 0 1-.296-.682c0-.266.098-.493.296-.682.201-.189.44-.284.718-.284.278 0 .515.095.712.284a.9.9 0 0 1 .302.682.9.9 0 0 1-.302.682.991.991 0 0 1-.712.284Zm4.734 5.24v5.578h-1.424v-9.273h1.376v1.449h.121c.217-.471.547-.849.99-1.135.443-.29 1.014-.434 1.714-.434.628 0 1.178.128 1.648.386.471.253.838.64 1.099 1.159.262.515.393 1.167.393 1.956v5.892h-1.425v-5.795c0-.729-.189-1.296-.568-1.703-.378-.41-.897-.616-1.557-.616-.455 0-.861.099-1.22.296a2.122 2.122 0 0 0-.839.863c-.205.379-.308.838-.308 1.377Zm12.263 9.248c-.688 0-1.28-.088-1.775-.265a3.775 3.775 0 0 1-1.237-.688 3.769 3.769 0 0 1-.779-.906l1.135-.797c.128.169.291.362.489.58.197.221.467.412.809.573.346.165.799.248 1.358.248.749 0 1.366-.181 1.853-.544.487-.362.731-.929.731-1.702v-1.883h-.121a7.743 7.743 0 0 1-.447.627c-.189.246-.463.465-.821.658-.354.19-.833.284-1.437.284-.748 0-1.42-.177-2.016-.531-.592-.354-1.06-.869-1.406-1.546-.343-.676-.514-1.497-.514-2.463 0-.949.167-1.777.501-2.481.334-.708.799-1.256 1.395-1.642.596-.39 1.284-.585 2.065-.585.603 0 1.082.1 1.436.301.359.198.632.423.821.677.194.249.343.454.447.615h.145v-1.473h1.376v9.539c0 .796-.181 1.444-.543 1.944a3.088 3.088 0 0 1-1.449 1.104c-.603.238-1.276.356-2.016.356Zm-.048-5.095c.571 0 1.054-.131 1.448-.392.395-.262.695-.638.9-1.129.205-.491.308-1.079.308-1.763 0-.668-.101-1.258-.302-1.769-.201-.511-.499-.911-.893-1.201-.395-.29-.882-.435-1.461-.435-.604 0-1.107.153-1.51.459a2.797 2.797 0 0 0-.899 1.232 4.761 4.761 0 0 0-.296 1.714c0 .644.101 1.214.302 1.709.205.491.507.877.905 1.159.403.277.902.416 1.498.416Zm11.639 1.425v-12.364h4.177c.97 0 1.763.175 2.379.526.62.346 1.079.815 1.376 1.406.298.592.447 1.252.447 1.98 0 .729-.149 1.391-.447 1.986-.293.596-.748 1.071-1.364 1.425-.616.35-1.405.525-2.366.525h-2.995v-1.328h2.946c.664 0 1.198-.114 1.6-.344.402-.229.694-.539.875-.93.186-.394.278-.839.278-1.334 0-.495-.092-.937-.278-1.328a1.981 1.981 0 0 0-.881-.917c-.406-.226-.946-.339-1.618-.339h-2.632V155.7h-1.497Zm10.598 0v-9.273h1.376v1.401h.097a2.23 2.23 0 0 1 .917-1.117 2.7 2.7 0 0 1 1.497-.429c.105 0 .236.002.393.006.157.004.276.01.356.019v1.448a4.23 4.23 0 0 0-.332-.054 3.285 3.285 0 0 0-.537-.042c-.451 0-.854.094-1.208.284-.35.185-.628.442-.833.772a2.087 2.087 0 0 0-.302 1.117v5.868h-1.424Zm9.81.193c-.837 0-1.572-.199-2.204-.597-.628-.399-1.119-.956-1.473-1.673-.35-.716-.525-1.553-.525-2.511 0-.966.175-1.809.525-2.53.354-.72.845-1.279 1.473-1.678.632-.398 1.367-.597 2.204-.597.837 0 1.569.199 2.197.597.632.399 1.123.958 1.473 1.678.354.721.531 1.564.531 2.53 0 .958-.177 1.795-.531 2.511-.35.717-.841 1.274-1.473 1.673-.628.398-1.36.597-2.197.597Zm0-1.28c.636 0 1.159-.163 1.569-.489.411-.326.715-.754.912-1.286a4.923 4.923 0 0 0 .296-1.726c0-.62-.099-1.197-.296-1.733a2.917 2.917 0 0 0-.912-1.298c-.41-.33-.933-.495-1.569-.495-.636 0-1.159.165-1.57.495-.41.33-.714.763-.911 1.298a4.96 4.96 0 0 0-.296 1.733 4.9 4.9 0 0 0 .296 1.726c.197.532.501.96.911 1.286.411.326.934.489 1.57.489Zm6.376-8.186h1.425v9.949c0 .572-.099 1.067-.296 1.485a2.126 2.126 0 0 1-.881.972c-.391.23-.884.344-1.479.344h-.29v-1.328h.266c.434 0 .752-.129.953-.386.202-.254.302-.616.302-1.087v-9.949Zm.7-1.545c-.277 0-.517-.095-.718-.284a.911.911 0 0 1-.296-.682c0-.266.099-.493.296-.682.201-.189.441-.284.718-.284.278 0 .516.095.713.284a.903.903 0 0 1 .302.682.903.903 0 0 1-.302.682.994.994 0 0 1-.713.284Zm7.222 11.011c-.893 0-1.664-.197-2.312-.591a3.971 3.971 0 0 1-1.491-1.667c-.346-.716-.519-1.549-.519-2.499 0-.95.173-1.787.519-2.511.35-.729.837-1.296 1.461-1.703.628-.41 1.36-.615 2.197-.615.483 0 .96.08 1.431.241.471.161.9.423 1.286.785.386.358.694.833.924 1.425.229.591.344 1.32.344 2.185v.604h-7.148v-1.232h5.699c0-.523-.105-.99-.314-1.401a2.359 2.359 0 0 0-.882-.971c-.378-.238-.825-.357-1.34-.357-.567 0-1.058.141-1.473.423a2.79 2.79 0 0 0-.948 1.087 3.192 3.192 0 0 0-.332 1.436v.821c0 .701.121 1.294.363 1.781.245.483.585.852 1.02 1.105.435.25.94.374 1.515.374a3.07 3.07 0 0 0 1.014-.157 2.15 2.15 0 0 0 .791-.483c.222-.217.393-.487.513-.809l1.377.387a3.051 3.051 0 0 1-.731 1.231 3.543 3.543 0 0 1-1.267.821c-.504.194-1.069.29-1.697.29Zm9.774 0c-.869 0-1.618-.205-2.246-.616a4.01 4.01 0 0 1-1.449-1.696c-.338-.72-.507-1.543-.507-2.469 0-.942.173-1.773.519-2.493.351-.725.838-1.29 1.461-1.697.628-.41 1.361-.615 2.198-.615.652 0 1.239.12 1.763.362.523.241.951.579 1.285 1.014.334.435.542.942.622 1.521h-1.424c-.109-.422-.351-.797-.725-1.123-.37-.33-.869-.495-1.497-.495-.555 0-1.042.145-1.461.435-.415.286-.739.69-.972 1.213-.229.52-.344 1.129-.344 1.83 0 .716.113 1.34.338 1.871.229.531.551.944.966 1.238.419.293.91.44 1.473.44.37 0 .706-.064 1.008-.193.302-.129.558-.314.767-.555.209-.242.358-.531.447-.87h1.424a3.287 3.287 0 0 1-1.847 2.518c-.515.253-1.115.38-1.799.38Zm9.762-9.466v1.208h-4.806v-1.208h4.806Zm-3.405-2.221h1.425v8.838c0 .402.058.704.175.905.12.197.273.33.458.399.19.064.389.096.598.096.157 0 .286-.008.386-.024l.242-.048.29 1.28a2.943 2.943 0 0 1-.405.108 2.926 2.926 0 0 1-.658.061c-.402 0-.797-.087-1.183-.26a2.357 2.357 0 0 1-.954-.791c-.249-.354-.374-.801-.374-1.34v-9.224Zm11.95 4.298-1.28.362a2.38 2.38 0 0 0-.356-.622 1.73 1.73 0 0 0-.628-.507c-.266-.133-.606-.199-1.02-.199-.568 0-1.041.131-1.419.392-.374.258-.561.586-.561.984 0 .355.129.634.386.84.258.205.66.376 1.207.513l1.377.338c.829.201 1.447.509 1.853.923.407.411.61.94.61 1.588 0 .531-.153 1.006-.459 1.425-.302.418-.724.748-1.268.99-.543.241-1.175.362-1.895.362-.946 0-1.729-.205-2.349-.616-.619-.41-1.012-1.01-1.177-1.799l1.353-.338c.128.499.372.874.73 1.123.362.25.835.374 1.419.374.664 0 1.191-.14 1.581-.422.395-.286.592-.628.592-1.026a1.08 1.08 0 0 0-.338-.809c-.225-.222-.572-.387-1.038-.495l-1.546-.363c-.849-.201-1.473-.513-1.871-.935-.395-.427-.592-.96-.592-1.6 0-.523.147-.986.441-1.389a3 3 0 0 1 1.213-.947c.515-.23 1.099-.344 1.751-.344.917 0 1.638.201 2.161.603.527.403.902.934 1.123 1.594Z"/>
  <path fill="#CAD0D3" d="M25.372 171.791a1.003 1.003 0 0 0-.466-.754c-.273-.179-.608-.269-1.004-.269-.29 0-.543.047-.76.141a1.21 1.21 0 0 0-.506.387.925.925 0 0 0-.179.559c0 .175.042.325.125.45a1.1 1.1 0 0 0 .326.31c.132.081.27.149.415.202.145.051.279.093.4.124l.665.179c.17.045.36.107.569.186.21.079.412.186.604.323.194.134.353.306.48.517.125.211.188.47.188.777 0 .354-.093.673-.278.959a1.901 1.901 0 0 1-.806.681c-.351.168-.779.252-1.281.252-.47 0-.875-.076-1.218-.227a1.934 1.934 0 0 1-.805-.633 1.803 1.803 0 0 1-.33-.943h.819c.02.248.104.452.249.614.147.16.332.279.556.358.226.077.469.115.729.115.302 0 .574-.049.815-.147.24-.1.431-.239.572-.415a.986.986 0 0 0 .21-.627.767.767 0 0 0-.181-.53 1.34 1.34 0 0 0-.48-.333 4.936 4.936 0 0 0-.642-.223l-.806-.231c-.511-.147-.916-.356-1.214-.629-.299-.273-.448-.63-.448-1.071 0-.366.1-.686.298-.959.2-.274.468-.488.805-.639.339-.153.717-.23 1.135-.23.421 0 .796.076 1.125.227.328.149.588.354.78.614.193.26.296.555.306.885h-.767Zm4.192 0v.639H27.02v-.639h2.544Zm-1.802-1.176h.754v4.679c0 .213.031.373.093.479a.477.477 0 0 0 .243.211c.1.034.205.051.316.051.083 0 .152-.004.205-.013l.128-.025.153.677a1.595 1.595 0 0 1-.563.09c-.213 0-.421-.046-.626-.138a1.242 1.242 0 0 1-.505-.418c-.132-.188-.198-.424-.198-.71v-4.883Zm2.937 6.085v-4.909h.729v.741h.051c.09-.243.251-.44.486-.591a1.43 1.43 0 0 1 .792-.227 8.9 8.9 0 0 1 .208.003c.083.003.146.006.189.01v.767a2.545 2.545 0 0 0-.176-.029 1.722 1.722 0 0 0-.285-.022c-.238 0-.451.05-.639.15a1.104 1.104 0 0 0-.6 1v3.107h-.755Zm5.258.102c-.473 0-.881-.104-1.224-.313a2.103 2.103 0 0 1-.79-.882c-.183-.379-.275-.82-.275-1.323s.092-.946.275-1.33a2.17 2.17 0 0 1 .774-.901 2.08 2.08 0 0 1 1.163-.326c.256 0 .508.043.757.128.25.085.477.224.681.415.205.19.368.441.49.755.12.313.181.698.181 1.157v.319h-3.784v-.652h3.017c0-.277-.055-.524-.166-.741a1.25 1.25 0 0 0-.467-.515 1.304 1.304 0 0 0-.71-.188c-.3 0-.56.074-.779.223a1.47 1.47 0 0 0-.502.576 1.69 1.69 0 0 0-.175.76v.435c0 .371.063.685.191.943.13.255.31.45.54.585.23.132.498.198.803.198.198 0 .377-.028.536-.083.163-.058.302-.143.42-.256.116-.115.207-.258.27-.428l.73.204a1.615 1.615 0 0 1-.387.652c-.181.186-.405.33-.671.435a2.495 2.495 0 0 1-.898.153Zm4.624.013c-.31 0-.593-.059-.847-.176a1.455 1.455 0 0 1-.604-.514 1.453 1.453 0 0 1-.224-.818c0-.282.056-.51.167-.684.11-.177.259-.316.444-.416.185-.1.39-.175.614-.224.225-.051.452-.091.68-.121.299-.038.54-.067.726-.086.187-.022.324-.057.409-.106.087-.049.131-.134.131-.256v-.025c0-.315-.086-.56-.259-.735-.17-.175-.43-.262-.776-.262-.36 0-.643.079-.848.236a1.4 1.4 0 0 0-.43.505l-.717-.255c.128-.299.298-.531.512-.697.215-.169.45-.286.703-.352.255-.068.507-.102.754-.102.158 0 .339.019.543.058.207.036.406.111.598.226.194.115.355.289.483.521.127.233.191.544.191.934v3.234h-.754v-.665h-.038a1.31 1.31 0 0 1-.256.342 1.47 1.47 0 0 1-.476.31c-.198.085-.44.128-.726.128Zm.115-.678c.299 0 .55-.058.755-.175a1.199 1.199 0 0 0 .626-1.039v-.69c-.032.038-.102.073-.211.105-.106.03-.23.057-.37.08a18.344 18.344 0 0 1-.723.096 2.8 2.8 0 0 0-.55.125.943.943 0 0 0-.409.252c-.102.111-.153.262-.153.454 0 .262.097.46.29.594.197.132.445.198.745.198Zm3.512.563v-4.909h.729v.767H45a1.23 1.23 0 0 1 .495-.61c.228-.148.502-.221.821-.221.324 0 .594.073.809.221.217.144.387.348.508.61h.051c.126-.254.314-.455.566-.604.251-.151.553-.227.904-.227.44 0 .798.137 1.077.412.28.273.42.698.42 1.275v3.286h-.755v-3.286c0-.362-.1-.621-.297-.776a1.097 1.097 0 0 0-.7-.233c-.346 0-.613.104-.803.313-.19.206-.284.469-.284.786v3.196h-.767v-3.362c0-.279-.09-.504-.272-.675-.18-.172-.414-.258-.7-.258a1.04 1.04 0 0 0-.55.156 1.184 1.184 0 0 0-.408.435 1.282 1.282 0 0 0-.154.636v3.068h-.754Zm8.576-6.545v6.545h-.754v-6.545h.754Zm1.382 6.545v-4.909h.754v4.909h-.754Zm.383-5.727a.537.537 0 0 1-.38-.15.485.485 0 0 1-.156-.362c0-.14.052-.261.156-.361.107-.1.233-.15.38-.15.148 0 .273.05.378.15.106.1.16.221.16.361a.48.48 0 0 1-.16.362c-.105.1-.23.15-.378.15Zm2.507 2.774v2.953h-.754v-4.909h.728v.767h.064c.115-.249.29-.45.524-.601.235-.153.537-.23.908-.23.332 0 .623.068.873.205.249.134.443.338.581.613.139.273.208.618.208 1.036v3.119h-.754v-3.068c0-.386-.1-.686-.3-.901-.2-.218-.476-.326-.825-.326-.241 0-.456.052-.646.156a1.126 1.126 0 0 0-.444.457 1.51 1.51 0 0 0-.163.729Zm6.569 3.055c-.474 0-.882-.104-1.224-.313a2.103 2.103 0 0 1-.79-.882c-.183-.379-.275-.82-.275-1.323s.092-.946.275-1.33a2.17 2.17 0 0 1 .774-.901 2.08 2.08 0 0 1 1.163-.326c.255 0 .508.043.757.128.25.085.476.224.681.415.205.19.368.441.49.755.12.313.181.698.181 1.157v.319h-3.784v-.652h3.017c0-.277-.055-.524-.166-.741a1.251 1.251 0 0 0-1.176-.703c-.3 0-.56.074-.78.223a1.47 1.47 0 0 0-.502.576 1.69 1.69 0 0 0-.175.76v.435c0 .371.063.685.191.943.13.255.31.45.54.585.23.132.498.198.803.198.198 0 .377-.028.537-.083.161-.058.301-.143.418-.256.117-.115.208-.258.272-.428l.728.204a1.613 1.613 0 0 1-.386.652c-.181.186-.405.33-.671.435a2.495 2.495 0 0 1-.898.153Zm5.033 0c-.409 0-.77-.103-1.083-.31a2.095 2.095 0 0 1-.735-.882c-.177-.381-.266-.832-.266-1.352 0-.515.089-.963.266-1.342a2.07 2.07 0 0 1 .738-.879c.315-.207.68-.31 1.093-.31.32 0 .572.053.757.16.188.104.33.224.429.358.1.132.178.241.233.326h.064v-2.416h.754v6.545h-.728v-.754h-.09a5.104 5.104 0 0 1-.236.339 1.413 1.413 0 0 1-.438.361c-.19.104-.442.156-.758.156Zm.103-.677c.302 0 .558-.079.767-.237.208-.16.367-.38.476-.661a2.75 2.75 0 0 0 .163-.982c0-.366-.053-.687-.16-.962a1.396 1.396 0 0 0-.473-.645c-.209-.156-.467-.233-.773-.233-.32 0-.586.082-.8.246-.21.162-.37.382-.476.661a2.627 2.627 0 0 0-.156.933c0 .35.053.667.16.953.108.283.268.509.479.677.213.167.477.25.793.25Zm11.534-3.925h-.793a1.652 1.652 0 0 0-.668-1.036 1.804 1.804 0 0 0-.546-.268 2.17 2.17 0 0 0-.626-.089 2 2 0 0 0-1.078.3c-.32.2-.574.495-.763.885-.188.39-.282.869-.282 1.435 0 .567.094 1.045.282 1.435.19.39.444.685.763.886a2 2 0 0 0 1.078.3c.217 0 .426-.03.626-.089.2-.06.382-.149.546-.266a1.674 1.674 0 0 0 .668-1.038h.793a2.65 2.65 0 0 1-.326.898 2.451 2.451 0 0 1-1.377 1.093c-.29.096-.6.143-.93.143a2.74 2.74 0 0 1-1.49-.409 2.8 2.8 0 0 1-1.026-1.163c-.25-.503-.374-1.099-.374-1.79 0-.69.125-1.287.374-1.79.25-.502.591-.89 1.026-1.163a2.74 2.74 0 0 1 1.49-.409c.33 0 .64.048.93.144.291.096.555.236.789.422.234.183.43.407.588.671.158.262.266.561.326.898Zm3.173 4.602a2.14 2.14 0 0 1-1.167-.316 2.15 2.15 0 0 1-.78-.885c-.185-.38-.278-.823-.278-1.33 0-.511.093-.958.279-1.339.187-.382.447-.678.78-.889a2.14 2.14 0 0 1 1.166-.316c.443 0 .83.105 1.163.316.335.211.595.507.78.889.188.381.281.828.281 1.339 0 .507-.093.95-.281 1.33a2.12 2.12 0 0 1-.78.885c-.332.211-.72.316-1.163.316Zm0-.677c.337 0 .614-.087.83-.259.218-.173.379-.4.483-.681.105-.281.157-.586.157-.914a2.63 2.63 0 0 0-.157-.917 1.538 1.538 0 0 0-.482-.687c-.218-.175-.495-.262-.831-.262-.337 0-.614.087-.831.262a1.538 1.538 0 0 0-.483.687 2.63 2.63 0 0 0-.156.917c0 .328.052.633.156.914.105.281.266.508.483.681.217.172.494.259.83.259Zm3.376.575v-4.909h.728v.767h.064c.103-.262.268-.466.496-.61.228-.148.501-.221.821-.221.324 0 .593.073.809.221.217.144.386.348.508.61h.05c.127-.254.315-.455.567-.604.251-.151.552-.227.904-.227.439 0 .798.137 1.077.412.28.273.419.698.419 1.275v3.286h-.754v-3.286c0-.362-.1-.621-.298-.776a1.097 1.097 0 0 0-.7-.233c-.345 0-.612.104-.802.313-.19.206-.284.469-.284.786v3.196h-.767v-3.362c0-.279-.09-.504-.272-.675-.181-.172-.414-.258-.7-.258-.196 0-.38.052-.55.156a1.184 1.184 0 0 0-.409.435 1.283 1.283 0 0 0-.153.636v3.068h-.754Zm7.822 0v-4.909h.729v.767h.064a1.23 1.23 0 0 1 .495-.61c.228-.148.502-.221.821-.221.324 0 .594.073.809.221.217.144.387.348.508.61h.051c.126-.254.314-.455.566-.604.251-.151.553-.227.904-.227.439 0 .798.137 1.077.412.28.273.419.698.419 1.275v3.286h-.754v-3.286c0-.362-.099-.621-.297-.776a1.099 1.099 0 0 0-.7-.233c-.346 0-.613.104-.803.313-.19.206-.284.469-.284.786v3.196h-.767v-3.362c0-.279-.09-.504-.272-.675-.18-.172-.414-.258-.7-.258a1.04 1.04 0 0 0-.55.156 1.184 1.184 0 0 0-.408.435 1.282 1.282 0 0 0-.154.636v3.068h-.754Zm9.267.115c-.311 0-.594-.059-.847-.176a1.451 1.451 0 0 1-.604-.514 1.454 1.454 0 0 1-.224-.818c0-.282.055-.51.166-.684.111-.177.259-.316.445-.416.185-.1.389-.175.613-.224.226-.051.453-.091.681-.121.298-.038.54-.067.725-.086.188-.022.324-.057.409-.106.088-.049.132-.134.132-.256v-.025c0-.315-.087-.56-.259-.735-.171-.175-.43-.262-.777-.262-.36 0-.642.079-.847.236a1.404 1.404 0 0 0-.431.505l-.716-.255c.128-.299.298-.531.511-.697.215-.169.45-.286.703-.352.256-.068.507-.102.754-.102.158 0 .339.019.544.058.206.036.406.111.597.226.194.115.355.289.483.521.128.233.192.544.192.934v3.234h-.754v-.665h-.039a1.296 1.296 0 0 1-.256.342 1.46 1.46 0 0 1-.476.31c-.198.085-.44.128-.725.128Zm.115-.678c.298 0 .55-.058.754-.175a1.201 1.201 0 0 0 .627-1.039v-.69c-.032.038-.103.073-.211.105a3.47 3.47 0 0 1-.371.08 18.876 18.876 0 0 1-.722.096 2.8 2.8 0 0 0-.55.125.942.942 0 0 0-.409.252c-.103.111-.154.262-.154.454 0 .262.097.46.291.594.196.132.444.198.745.198Zm4.266-2.39v2.953h-.755v-4.909h.729v.767h.064c.115-.249.29-.45.524-.601.235-.153.537-.23.908-.23.332 0 .623.068.872.205.25.134.444.338.582.613.139.273.208.618.208 1.036v3.119h-.754v-3.068c0-.386-.101-.686-.301-.901-.2-.218-.475-.326-.824-.326-.241 0-.456.052-.646.156a1.118 1.118 0 0 0-.444.457c-.109.2-.163.443-.163.729Zm6.364 3.055c-.409 0-.77-.103-1.084-.31a2.098 2.098 0 0 1-.735-.882c-.177-.381-.265-.832-.265-1.352 0-.515.088-.963.265-1.342.177-.379.423-.672.739-.879.315-.207.679-.31 1.093-.31.319 0 .572.053.757.16.188.104.33.224.428.358.1.132.178.241.234.326h.064v-2.416h.754v6.545h-.729v-.754h-.089a5.515 5.515 0 0 1-.237.339 1.406 1.406 0 0 1-.438.361c-.189.104-.442.156-.757.156Zm.102-.677c.303 0 .558-.079.767-.237.209-.16.368-.38.476-.661.109-.284.163-.611.163-.982 0-.366-.053-.687-.159-.962a1.405 1.405 0 0 0-.473-.645c-.209-.156-.467-.233-.774-.233-.32 0-.586.082-.799.246-.211.162-.37.382-.476.661a2.616 2.616 0 0 0-.157.933c0 .35.054.667.16.953.109.283.269.509.479.677.214.167.478.25.793.25Zm6.446-2.583v.703h-2.863v-.703h2.863Zm1.43 3.158v-6.545h.793v5.842h3.042v.703h-3.835Zm4.96 0v-4.909h.754v4.909h-.754Zm.384-5.727a.54.54 0 0 1-.381-.15.486.486 0 0 1-.156-.362c0-.14.052-.261.156-.361a.54.54 0 0 1 .381-.15c.147 0 .272.05.377.15.106.1.16.221.16.361a.483.483 0 0 1-.16.362c-.105.1-.23.15-.377.15Zm2.506 2.774v2.953h-.754v-4.909h.729v.767h.063c.116-.249.29-.45.525-.601.234-.153.537-.23.907-.23.333 0 .624.068.873.205.249.134.443.338.581.613.139.273.208.618.208 1.036v3.119h-.754v-3.068c0-.386-.1-.686-.3-.901-.201-.218-.476-.326-.825-.326-.241 0-.456.052-.646.156a1.13 1.13 0 0 0-.444.457c-.109.2-.163.443-.163.729Zm6.569 3.055c-.473 0-.881-.104-1.224-.313a2.108 2.108 0 0 1-.79-.882c-.183-.379-.275-.82-.275-1.323s.092-.946.275-1.33a2.17 2.17 0 0 1 .774-.901c.332-.217.72-.326 1.163-.326.256 0 .508.043.758.128.249.085.476.224.68.415.205.19.368.441.489.755.122.313.182.698.182 1.157v.319h-3.784v-.652h3.017c0-.277-.055-.524-.166-.741a1.248 1.248 0 0 0-.466-.515 1.307 1.307 0 0 0-.71-.188c-.3 0-.56.074-.78.223a1.48 1.48 0 0 0-.502.576 1.69 1.69 0 0 0-.175.76v.435c0 .371.064.685.191.943.13.255.31.45.541.585.23.132.497.198.802.198.198 0 .377-.028.537-.083a1.15 1.15 0 0 0 .418-.256c.118-.115.208-.258.272-.428l.729.204a1.619 1.619 0 0 1-.387.652c-.181.186-.405.33-.671.435a2.499 2.499 0 0 1-.898.153Zm6.606-6.647v6.545h-.793v-6.545h.793Zm2.241 3.592v2.953h-.754v-4.909h.729v.767h.063c.116-.249.29-.45.525-.601.234-.153.537-.23.907-.23.333 0 .624.068.873.205.249.134.443.338.582.613.138.273.207.618.207 1.036v3.119h-.754v-3.068c0-.386-.1-.686-.3-.901-.201-.218-.476-.326-.825-.326-.241 0-.456.052-.646.156a1.13 1.13 0 0 0-.444.457c-.109.2-.163.443-.163.729Zm6.645-1.956v.639h-2.544v-.639h2.544Zm-1.802-1.176h.754v4.679c0 .213.031.373.093.479a.477.477 0 0 0 .243.211c.1.034.205.051.316.051.083 0 .151-.004.205-.013l.128-.025.153.677a1.601 1.601 0 0 1-.563.09c-.213 0-.421-.046-.626-.138a1.243 1.243 0 0 1-.505-.418c-.132-.188-.198-.424-.198-.71v-4.883Zm4.943 6.187c-.473 0-.881-.104-1.225-.313a2.106 2.106 0 0 1-.789-.882c-.183-.379-.275-.82-.275-1.323s.092-.946.275-1.33c.185-.385.443-.686.774-.901.332-.217.72-.326 1.163-.326.256 0 .508.043.757.128.25.085.477.224.681.415.205.19.368.441.489.755.122.313.182.698.182 1.157v.319h-3.784v-.652h3.017c0-.277-.055-.524-.166-.741a1.25 1.25 0 0 0-.467-.515 1.3 1.3 0 0 0-.709-.188c-.301 0-.561.074-.78.223a1.472 1.472 0 0 0-.502.576 1.69 1.69 0 0 0-.176.76v.435c0 .371.064.685.192.943.13.255.31.45.54.585.23.132.498.198.803.198.198 0 .377-.028.536-.083.162-.058.302-.143.419-.256.117-.115.208-.258.272-.428l.729.204a1.619 1.619 0 0 1-.387.652c-.181.186-.405.33-.671.435a2.499 2.499 0 0 1-.898.153Zm3.18-.102v-4.909h.728v.741h.051c.09-.243.252-.44.486-.591.235-.151.499-.227.793-.227l.208.003c.083.003.146.006.188.01v.767a2.449 2.449 0 0 0-.176-.029 1.713 1.713 0 0 0-.284-.022c-.239 0-.452.05-.639.15a1.1 1.1 0 0 0-.601 1v3.107h-.754Zm5.842-4.909v.639h-2.646v-.639h2.646Zm-1.854 4.909v-5.587c0-.281.066-.515.198-.703.132-.187.304-.328.515-.422a1.64 1.64 0 0 1 .668-.14c.185 0 .337.015.454.044.117.03.204.058.262.084l-.217.652a3.534 3.534 0 0 0-.16-.048.938.938 0 0 0-.262-.029c-.25 0-.43.063-.54.188-.109.126-.163.31-.163.553v5.408h-.755Zm4.215.115a2 2 0 0 1-.847-.176 1.458 1.458 0 0 1-.604-.514 1.454 1.454 0 0 1-.224-.818c0-.282.056-.51.166-.684.111-.177.259-.316.445-.416.185-.1.39-.175.613-.224.226-.051.453-.091.681-.121.298-.038.54-.067.726-.086.187-.022.323-.057.409-.106.087-.049.131-.134.131-.256v-.025c0-.315-.087-.56-.259-.735-.171-.175-.429-.262-.777-.262-.36 0-.642.079-.847.236a1.404 1.404 0 0 0-.431.505l-.716-.255c.128-.299.298-.531.511-.697.215-.169.45-.286.703-.352a2.93 2.93 0 0 1 .755-.102c.157 0 .338.019.543.058.207.036.406.111.598.226.194.115.354.289.482.521.128.233.192.544.192.934v3.234h-.754v-.665h-.039a1.312 1.312 0 0 1-.255.342c-.12.122-.278.225-.477.31a1.834 1.834 0 0 1-.725.128Zm.115-.678c.298 0 .55-.058.754-.175a1.194 1.194 0 0 0 .627-1.039v-.69c-.032.038-.103.073-.211.105-.107.03-.23.057-.371.08a18.019 18.019 0 0 1-.722.096 2.8 2.8 0 0 0-.55.125.942.942 0 0 0-.409.252c-.102.111-.153.262-.153.454 0 .262.096.46.29.594.196.132.445.198.745.198Zm5.506.665c-.46 0-.857-.108-1.189-.326a2.121 2.121 0 0 1-.767-.898 3.04 3.04 0 0 1-.268-1.307c0-.499.091-.939.274-1.32.186-.383.444-.683.774-.898.332-.217.72-.326 1.163-.326.345 0 .656.064.933.192s.504.307.681.537c.177.23.287.498.329.805h-.754a1.161 1.161 0 0 0-.383-.594c-.196-.175-.461-.262-.793-.262-.294 0-.552.076-.773.23-.22.151-.391.365-.515.642a2.388 2.388 0 0 0-.182.968c0 .38.059.71.179.991.121.281.292.5.511.655.222.156.482.234.78.234.196 0 .374-.034.534-.103a1.097 1.097 0 0 0 .642-.754h.754a1.741 1.741 0 0 1-.978 1.333c-.272.134-.59.201-.952.201Zm5.091 0c-.473 0-.881-.104-1.224-.313a2.1 2.1 0 0 1-.789-.882c-.183-.379-.275-.82-.275-1.323s.092-.946.275-1.33c.185-.385.443-.686.773-.901.333-.217.72-.326 1.164-.326.255 0 .508.043.757.128s.476.224.681.415a2 2 0 0 1 .489.755c.121.313.182.698.182 1.157v.319h-3.784v-.652h3.017c0-.277-.056-.524-.166-.741a1.257 1.257 0 0 0-.467-.515 1.303 1.303 0 0 0-.709-.188c-.301 0-.561.074-.78.223a1.464 1.464 0 0 0-.502.576 1.69 1.69 0 0 0-.176.76v.435c0 .371.064.685.192.943.13.255.31.45.54.585.23.132.498.198.802.198.198 0 .377-.028.537-.083.162-.058.302-.143.419-.256.117-.115.208-.258.272-.428l.728.204a1.605 1.605 0 0 1-.386.652 1.89 1.89 0 0 1-.672.435 2.491 2.491 0 0 1-.898.153Zm7.898-5.011v.639h-2.647v-.639h2.647Zm-1.854 4.909v-5.587c0-.281.066-.515.198-.703.132-.187.304-.328.515-.422.211-.093.433-.14.668-.14a1.718 1.718 0 0 1 .716.128l-.218.652a2.885 2.885 0 0 0-.16-.048.933.933 0 0 0-.262-.029c-.249 0-.429.063-.54.188-.108.126-.163.31-.163.553v5.408h-.754Zm4.703.102c-.443 0-.832-.105-1.167-.316a2.148 2.148 0 0 1-.779-.885c-.186-.38-.279-.823-.279-1.33 0-.511.093-.958.279-1.339a2.14 2.14 0 0 1 .779-.889 2.143 2.143 0 0 1 1.167-.316c.443 0 .831.105 1.163.316.335.211.595.507.78.889.188.381.281.828.281 1.339 0 .507-.093.95-.281 1.33a2.116 2.116 0 0 1-.78.885c-.332.211-.72.316-1.163.316Zm0-.677c.337 0 .614-.087.831-.259.217-.173.378-.4.482-.681.105-.281.157-.586.157-.914 0-.328-.052-.634-.157-.917a1.536 1.536 0 0 0-.482-.687c-.217-.175-.494-.262-.831-.262-.337 0-.614.087-.831.262a1.546 1.546 0 0 0-.483.687 2.64 2.64 0 0 0-.156.917c0 .328.052.633.156.914.105.281.266.508.483.681.217.172.494.259.831.259Zm3.376.575v-4.909h.728v.741h.052c.089-.243.251-.44.485-.591.235-.151.499-.227.793-.227l.208.003c.083.003.146.006.188.01v.767a2.449 2.449 0 0 0-.176-.029 1.713 1.713 0 0 0-.284-.022c-.239 0-.452.05-.639.15a1.1 1.1 0 0 0-.601 1v3.107h-.754Zm8.36-2.045h.869l.729.958.191.256 1.087 1.445h-.869l-.716-.959-.179-.243-1.112-1.457Zm3.145-1.228c0 .691-.125 1.287-.374 1.79a2.81 2.81 0 0 1-1.026 1.163 2.742 2.742 0 0 1-1.49.409 2.74 2.74 0 0 1-1.489-.409 2.796 2.796 0 0 1-1.026-1.163c-.249-.503-.374-1.099-.374-1.79 0-.69.125-1.287.374-1.79.249-.502.591-.89 1.026-1.163a2.74 2.74 0 0 1 1.489-.409c.559 0 1.055.136 1.49.409.434.273.776.661 1.026 1.163.249.503.374 1.1.374 1.79Zm-.767 0c0-.566-.095-1.045-.285-1.435-.187-.39-.442-.685-.764-.885a1.98 1.98 0 0 0-1.074-.3 2 2 0 0 0-1.077.3c-.319.2-.574.495-.764.885-.187.39-.281.869-.281 1.435 0 .567.094 1.045.281 1.435.19.39.445.685.764.886a2 2 0 0 0 1.077.3c.397 0 .755-.1 1.074-.3.322-.201.577-.496.764-.886.19-.39.285-.868.285-1.435Zm5.091 1.266v-2.902h.754v4.909h-.754v-.831h-.051a1.613 1.613 0 0 1-.537.636c-.243.173-.55.259-.921.259-.307 0-.579-.067-.818-.201a1.407 1.407 0 0 1-.562-.614c-.137-.275-.205-.621-.205-1.039v-3.119h.754v3.068c0 .358.1.644.301.857.202.213.46.319.773.319.188 0 .378-.048.572-.144.196-.095.36-.242.492-.441.135-.198.202-.45.202-.757Zm2.136 2.007v-4.909h.754v4.909h-.754Zm.383-5.727a.535.535 0 0 1-.38-.15.483.483 0 0 1-.157-.362c0-.14.052-.261.157-.361.106-.1.233-.15.38-.15s.273.05.377.15c.107.1.16.221.16.361a.48.48 0 0 1-.16.362c-.104.1-.23.15-.377.15Zm3.747 5.829c-.461 0-.857-.108-1.189-.326a2.115 2.115 0 0 1-.767-.898 3.04 3.04 0 0 1-.269-1.307c0-.499.092-.939.275-1.32.185-.383.443-.683.773-.898a2.084 2.084 0 0 1 1.164-.326c.345 0 .656.064.933.192s.504.307.681.537c.177.23.286.498.329.805h-.754a1.17 1.17 0 0 0-.384-.594c-.196-.175-.46-.262-.792-.262-.294 0-.552.076-.774.23a1.494 1.494 0 0 0-.514.642 2.371 2.371 0 0 0-.183.968c0 .38.06.71.179.991.122.281.292.5.512.655.221.156.481.234.78.234.196 0 .374-.034.533-.103a1.097 1.097 0 0 0 .643-.754h.754c-.043.29-.148.551-.316.783-.167.23-.387.414-.662.55-.273.134-.59.201-.952.201Zm3.736-1.892-.013-.933h.153l2.148-2.186h.933l-2.288 2.314h-.064l-.869.805Zm-.703 1.79v-6.545h.754v6.545h-.754Zm3.119 0-1.918-2.429.537-.524 2.34 2.953h-.959Zm4.41 0v-6.545h2.211c.514 0 .934.092 1.26.278.328.183.571.431.728.744.158.313.237.663.237 1.049 0 .385-.079.736-.237 1.051a1.752 1.752 0 0 1-.722.754c-.326.186-.744.278-1.253.278h-1.585v-.703h1.56c.351 0 .633-.06.846-.182a1.08 1.08 0 0 0 .464-.492c.098-.209.147-.444.147-.706 0-.263-.049-.497-.147-.704a1.052 1.052 0 0 0-.467-.485c-.215-.12-.5-.179-.856-.179h-1.394v5.842h-.792Zm5.61 0v-4.909h.729v.741h.051c.09-.243.252-.44.486-.591a1.43 1.43 0 0 1 .793-.227l.207.003c.083.003.146.006.189.01v.767a2.56 2.56 0 0 0-.176-.029 1.713 1.713 0 0 0-.284-.022c-.239 0-.452.05-.64.15a1.135 1.135 0 0 0-.441.409c-.106.173-.159.37-.159.591v3.107h-.755Zm5.194.102c-.443 0-.832-.105-1.167-.316a2.157 2.157 0 0 1-.78-.885c-.185-.38-.278-.823-.278-1.33 0-.511.093-.958.278-1.339a2.15 2.15 0 0 1 .78-.889 2.143 2.143 0 0 1 1.167-.316c.443 0 .831.105 1.163.316.335.211.595.507.78.889.187.381.281.828.281 1.339 0 .507-.094.95-.281 1.33a2.116 2.116 0 0 1-.78.885c-.332.211-.72.316-1.163.316Zm0-.677c.336 0 .613-.087.831-.259.217-.173.378-.4.482-.681.105-.281.157-.586.157-.914 0-.328-.052-.634-.157-.917a1.536 1.536 0 0 0-.482-.687c-.218-.175-.495-.262-.831-.262-.337 0-.614.087-.831.262a1.546 1.546 0 0 0-.483.687 2.64 2.64 0 0 0-.156.917c0 .328.052.633.156.914.105.281.266.508.483.681.217.172.494.259.831.259Zm3.376-4.334h.754v5.267c0 .303-.052.565-.157.786a1.13 1.13 0 0 1-.466.515c-.207.121-.468.182-.783.182h-.154v-.703h.141c.23 0 .398-.068.505-.205.106-.134.16-.326.16-.575v-5.267Zm.37-.818a.537.537 0 0 1-.38-.15.487.487 0 0 1-.157-.362c0-.14.053-.261.157-.361.107-.1.233-.15.38-.15s.273.05.377.15c.107.1.16.221.16.361a.48.48 0 0 1-.16.362c-.104.1-.23.15-.377.15Zm3.824 5.829c-.473 0-.881-.104-1.224-.313a2.101 2.101 0 0 1-.79-.882c-.183-.379-.275-.82-.275-1.323s.092-.946.275-1.33c.185-.385.443-.686.774-.901.332-.217.72-.326 1.163-.326.256 0 .508.043.757.128.25.085.477.224.681.415.205.19.368.441.489.755.122.313.182.698.182 1.157v.319h-3.784v-.652h3.017c0-.277-.055-.524-.166-.741a1.25 1.25 0 0 0-.467-.515 1.3 1.3 0 0 0-.709-.188c-.301 0-.56.074-.78.223a1.472 1.472 0 0 0-.502.576 1.69 1.69 0 0 0-.176.76v.435c0 .371.064.685.192.943.13.255.31.45.54.585.23.132.498.198.803.198.198 0 .377-.028.537-.083.161-.058.301-.143.418-.256.117-.115.208-.258.272-.428l.729.204a1.619 1.619 0 0 1-.387.652c-.181.186-.405.33-.671.435a2.499 2.499 0 0 1-.898.153Zm5.174 0c-.46 0-.857-.108-1.189-.326a2.121 2.121 0 0 1-.767-.898 3.04 3.04 0 0 1-.268-1.307c0-.499.091-.939.274-1.32.186-.383.444-.683.774-.898.332-.217.72-.326 1.163-.326.345 0 .656.064.933.192s.504.307.681.537c.177.23.287.498.329.805h-.754a1.161 1.161 0 0 0-.383-.594c-.196-.175-.461-.262-.793-.262-.294 0-.552.076-.773.23-.22.151-.391.365-.515.642a2.388 2.388 0 0 0-.182.968c0 .38.059.71.179.991.121.281.292.5.511.655.222.156.482.234.78.234.196 0 .374-.034.534-.103.159-.068.295-.166.406-.294a1.13 1.13 0 0 0 .236-.46h.754a1.741 1.741 0 0 1-.978 1.333c-.272.134-.59.201-.952.201Zm5.168-5.011v.639h-2.544v-.639h2.544Zm-1.803-1.176h.755v4.679c0 .213.031.373.092.479a.477.477 0 0 0 .243.211.98.98 0 0 0 .317.051c.083 0 .151-.004.204-.013l.128-.025.153.677a1.585 1.585 0 0 1-.562.09c-.213 0-.422-.046-.627-.138a1.24 1.24 0 0 1-.504-.418c-.133-.188-.199-.424-.199-.71v-4.883Zm7.322 6.174c-.43 0-.801-.078-1.112-.236a1.745 1.745 0 0 1-.719-.649 1.771 1.771 0 0 1-.252-.943c0-.272.057-.514.172-.725.117-.213.278-.41.483-.591.207-.184.444-.367.713-.55l.946-.703c.185-.122.333-.252.444-.39.113-.139.169-.32.169-.543 0-.167-.073-.328-.22-.483a.744.744 0 0 0-.572-.233.774.774 0 0 0-.441.127.922.922 0 0 0-.298.32.815.815 0 0 0-.105.396c0 .154.041.309.124.467.086.156.193.315.323.479l.409.499 3.005 3.669h-.908l-2.48-2.991-.627-.755a3.604 3.604 0 0 1-.447-.668 1.554 1.554 0 0 1-.166-.712c0-.294.065-.552.195-.774.132-.224.316-.397.553-.521.238-.126.517-.188.837-.188.328 0 .61.064.847.191.236.126.419.293.546.502.128.207.192.432.192.675 0 .313-.078.584-.233.815a2.68 2.68 0 0 1-.636.642l-1.304.971c-.294.218-.493.429-.598.633-.104.205-.156.352-.156.441 0 .205.053.396.159.572.107.177.257.32.451.429.194.108.421.163.681.163.247 0 .488-.052.722-.157a2.01 2.01 0 0 0 .636-.46c.192-.2.343-.441.454-.722.113-.282.169-.598.169-.95h.729c0 .435-.05.79-.15 1.065-.1.274-.213.49-.339.645a4.677 4.677 0 0 1-.304.349 1.767 1.767 0 0 0-.07.095 1.456 1.456 0 0 1-.07.096 1.93 1.93 0 0 1-.799.531 2.817 2.817 0 0 1-.953.172ZM21.793 187.7v-6.545h2.211c.514 0 .933.092 1.26.278.328.183.57.431.728.744a2.3 2.3 0 0 1 .237 1.049c0 .385-.08.736-.237 1.051a1.757 1.757 0 0 1-.722.754c-.326.186-.744.278-1.253.278h-1.585v-.703h1.56c.351 0 .633-.06.846-.182.213-.121.368-.285.464-.492a1.64 1.64 0 0 0 .147-.706c0-.263-.05-.497-.147-.704a1.05 1.05 0 0 0-.467-.485c-.215-.12-.5-.179-.856-.179h-1.394v5.842h-.792Zm7.055.115c-.311 0-.594-.059-.847-.176a1.455 1.455 0 0 1-.604-.514 1.453 1.453 0 0 1-.224-.818c0-.282.056-.51.166-.684.111-.177.26-.316.445-.416.185-.1.39-.175.613-.224a7.63 7.63 0 0 1 .68-.121c.3-.038.541-.067.726-.086.188-.022.324-.057.41-.106.087-.049.13-.134.13-.256v-.025c0-.315-.086-.56-.258-.735-.17-.175-.43-.262-.777-.262-.36 0-.642.079-.847.236a1.4 1.4 0 0 0-.431.505l-.716-.255c.128-.299.298-.531.511-.697.215-.169.45-.286.703-.352a2.93 2.93 0 0 1 .755-.102c.157 0 .338.019.543.058.206.036.406.111.598.226.193.115.354.289.482.521.128.233.192.544.192.934v3.234h-.754v-.665h-.039a1.31 1.31 0 0 1-.256.342 1.45 1.45 0 0 1-.476.31c-.198.085-.44.128-.725.128Zm.115-.678c.298 0 .55-.058.754-.175a1.199 1.199 0 0 0 .627-1.039v-.69c-.032.038-.103.073-.211.105-.107.03-.23.057-.371.08a18.344 18.344 0 0 1-.722.096 2.8 2.8 0 0 0-.55.125.943.943 0 0 0-.41.252c-.101.111-.153.262-.153.454 0 .262.097.46.291.594.196.132.445.198.745.198Zm5.506.665c-.46 0-.857-.108-1.19-.326a2.119 2.119 0 0 1-.766-.898 3.04 3.04 0 0 1-.269-1.307c0-.499.092-.939.275-1.32.186-.383.443-.683.774-.898a2.08 2.08 0 0 1 1.163-.326 2.2 2.2 0 0 1 .933.192c.277.128.504.307.681.537.177.23.287.498.33.805h-.755a1.166 1.166 0 0 0-.384-.594c-.196-.175-.46-.262-.792-.262a1.32 1.32 0 0 0-.774.23c-.22.151-.39.365-.514.642a2.382 2.382 0 0 0-.182.968c0 .38.06.71.179.991.121.281.291.5.511.655.222.156.481.234.78.234.196 0 .374-.034.534-.103a1.097 1.097 0 0 0 .642-.754h.754a1.744 1.744 0 0 1-.978 1.333c-.273.134-.59.201-.952.201Zm3.736-1.892-.013-.933h.154l2.147-2.186h.934l-2.289 2.314h-.064l-.869.805Zm-.703 1.79v-6.545h.754v6.545h-.754Zm3.12 0-1.918-2.429.536-.524 2.34 2.953h-.959Zm3.22.115a2 2 0 0 1-.847-.176 1.455 1.455 0 0 1-.604-.514 1.452 1.452 0 0 1-.224-.818c0-.282.056-.51.166-.684.111-.177.26-.316.445-.416.185-.1.39-.175.613-.224.226-.051.453-.091.681-.121.298-.038.54-.067.726-.086.187-.022.323-.057.409-.106.087-.049.13-.134.13-.256v-.025c0-.315-.086-.56-.258-.735-.17-.175-.43-.262-.777-.262-.36 0-.642.079-.847.236a1.4 1.4 0 0 0-.431.505l-.716-.255c.128-.299.298-.531.511-.697.215-.169.45-.286.703-.352.256-.068.508-.102.755-.102.157 0 .338.019.543.058.207.036.406.111.598.226.194.115.354.289.482.521.128.233.192.544.192.934v3.234h-.754v-.665h-.039a1.315 1.315 0 0 1-.255.342 1.47 1.47 0 0 1-.476.31c-.199.085-.44.128-.726.128Zm.115-.678c.298 0 .55-.058.754-.175a1.198 1.198 0 0 0 .627-1.039v-.69c-.032.038-.103.073-.211.105-.107.03-.23.057-.371.08a18.344 18.344 0 0 1-.722.096 2.8 2.8 0 0 0-.55.125.943.943 0 0 0-.41.252c-.101.111-.152.262-.152.454 0 .262.097.46.29.594.196.132.445.198.745.198Zm5.493 2.506c-.364 0-.677-.047-.94-.14a2.006 2.006 0 0 1-.655-.365 1.998 1.998 0 0 1-.412-.479l.6-.422c.07.089.155.192.26.307.104.117.247.218.428.303.183.088.423.131.72.131.395 0 .723-.095.98-.287.258-.192.387-.492.387-.902v-.997h-.064a3.97 3.97 0 0 1-.236.333c-.1.13-.245.246-.435.348-.188.1-.441.15-.76.15-.397 0-.753-.093-1.068-.281a1.97 1.97 0 0 1-.745-.818c-.18-.358-.271-.793-.271-1.304 0-.503.088-.941.265-1.314a2.05 2.05 0 0 1 .738-.869c.315-.207.68-.31 1.093-.31.32 0 .573.053.76.16.19.104.335.224.436.358.102.132.18.241.236.326h.077v-.78h.728v5.05c0 .421-.096.765-.287 1.029-.19.266-.446.461-.767.585-.32.125-.676.188-1.068.188Zm-.025-2.697c.302 0 .558-.07.767-.208.209-.139.367-.338.476-.598.108-.26.163-.571.163-.933 0-.354-.053-.666-.16-.936a1.401 1.401 0 0 0-.473-.636c-.209-.154-.467-.23-.773-.23-.32 0-.586.081-.8.242-.21.162-.37.38-.476.652a2.525 2.525 0 0 0-.156.908c0 .341.053.642.16.905.108.26.268.464.479.613.213.147.477.221.793.221Zm5.586.856c-.473 0-.88-.104-1.224-.313a2.103 2.103 0 0 1-.79-.882c-.182-.379-.274-.82-.274-1.323s.092-.946.275-1.33a2.17 2.17 0 0 1 .773-.901 2.08 2.08 0 0 1 1.164-.326c.255 0 .508.043.757.128.25.085.476.224.68.415.205.19.368.441.49.755.121.313.182.698.182 1.157v.319H53.26v-.652h3.017c0-.277-.056-.524-.166-.741a1.251 1.251 0 0 0-1.176-.703c-.3 0-.56.074-.78.223a1.47 1.47 0 0 0-.502.576 1.69 1.69 0 0 0-.176.76v.435c0 .371.064.685.192.943.13.255.31.45.54.585.23.132.498.198.802.198.198 0 .377-.028.537-.083.162-.058.302-.143.419-.256.117-.115.208-.258.272-.428l.728.204a1.613 1.613 0 0 1-.386.652 1.89 1.89 0 0 1-.672.435 2.495 2.495 0 0 1-.898.153Zm9.393-5.011a1.003 1.003 0 0 0-.466-.754c-.273-.179-.608-.269-1.004-.269-.29 0-.543.047-.76.141a1.21 1.21 0 0 0-.505.387.926.926 0 0 0-.18.559c0 .175.042.325.125.45.086.124.194.227.326.31.132.081.27.149.416.202.145.051.278.093.4.124l.664.179c.17.045.36.107.569.186.21.079.412.186.604.323.194.134.354.306.48.517.125.211.188.47.188.777 0 .354-.093.673-.278.959a1.902 1.902 0 0 1-.806.681c-.351.168-.778.252-1.281.252-.469 0-.875-.076-1.218-.227a1.935 1.935 0 0 1-.805-.633 1.804 1.804 0 0 1-.33-.943h.819c.021.248.104.452.25.614.146.16.331.279.555.358.226.077.469.115.729.115.302 0 .574-.049.815-.147.24-.1.431-.239.572-.415a.985.985 0 0 0 .21-.627.766.766 0 0 0-.181-.53 1.339 1.339 0 0 0-.48-.333 4.936 4.936 0 0 0-.642-.223l-.805-.231c-.512-.147-.917-.356-1.215-.629-.298-.273-.447-.63-.447-1.071 0-.366.099-.686.297-.959.2-.274.468-.488.805-.639.339-.153.717-.23 1.135-.23.422 0 .797.076 1.125.227.328.149.588.354.78.614.194.26.296.555.306.885h-.767Zm4.052 5.011c-.46 0-.856-.108-1.189-.326a2.119 2.119 0 0 1-.767-.898 3.04 3.04 0 0 1-.268-1.307c0-.499.091-.939.275-1.32.185-.383.443-.683.773-.898a2.08 2.08 0 0 1 1.163-.326 2.2 2.2 0 0 1 .934.192c.277.128.504.307.68.537.177.23.287.498.33.805h-.755a1.165 1.165 0 0 0-.383-.594c-.196-.175-.46-.262-.793-.262a1.32 1.32 0 0 0-.773.23c-.22.151-.391.365-.515.642a2.382 2.382 0 0 0-.182.968c0 .38.06.71.179.991.121.281.292.5.511.655.222.156.482.234.78.234.196 0 .374-.034.534-.103a1.097 1.097 0 0 0 .642-.754h.754a1.744 1.744 0 0 1-.977 1.333c-.273.134-.59.201-.953.201Zm4.478.013c-.311 0-.594-.059-.847-.176a1.455 1.455 0 0 1-.604-.514 1.452 1.452 0 0 1-.224-.818c0-.282.055-.51.166-.684.111-.177.26-.316.445-.416.185-.1.39-.175.613-.224a7.63 7.63 0 0 1 .68-.121c.3-.038.541-.067.726-.086.188-.022.324-.057.41-.106.087-.049.13-.134.13-.256v-.025c0-.315-.086-.56-.258-.735-.17-.175-.43-.262-.777-.262-.36 0-.642.079-.847.236a1.4 1.4 0 0 0-.431.505l-.716-.255c.127-.299.298-.531.511-.697.215-.169.45-.286.703-.352.256-.068.507-.102.754-.102.158 0 .34.019.544.058.206.036.406.111.597.226.194.115.355.289.483.521.128.233.192.544.192.934v3.234h-.754v-.665h-.039a1.315 1.315 0 0 1-.256.342 1.46 1.46 0 0 1-.476.31c-.198.085-.44.128-.725.128Zm.115-.678c.298 0 .55-.058.754-.175a1.198 1.198 0 0 0 .627-1.039v-.69c-.033.038-.103.073-.211.105-.107.03-.23.057-.371.08a18.344 18.344 0 0 1-.722.096c-.197.025-.38.067-.55.125a.943.943 0 0 0-.41.252c-.102.111-.153.262-.153.454 0 .262.097.46.291.594.196.132.444.198.745.198Zm5.697-4.346v.639H76.1v-.639h2.647Zm-1.853 4.909v-5.587c0-.281.066-.515.198-.703.132-.187.304-.328.515-.422.21-.093.433-.14.668-.14a1.713 1.713 0 0 1 .716.128l-.218.652a3.19 3.19 0 0 0-.16-.048.936.936 0 0 0-.262-.029c-.25 0-.43.063-.54.188-.109.126-.163.31-.163.553v5.408h-.754Zm5.097-4.909v.639h-2.647v-.639h2.647Zm-1.854 4.909v-5.587c0-.281.066-.515.198-.703.132-.187.304-.328.515-.422.21-.093.433-.14.668-.14a1.711 1.711 0 0 1 .716.128l-.218.652a3.223 3.223 0 0 0-.16-.048.936.936 0 0 0-.262-.029c-.249 0-.429.063-.54.188-.108.126-.163.31-.163.553v5.408h-.754Zm4.703.102a2.14 2.14 0 0 1-1.167-.316 2.15 2.15 0 0 1-.78-.885c-.185-.38-.277-.823-.277-1.33 0-.511.092-.958.278-1.339.187-.382.447-.678.78-.889a2.14 2.14 0 0 1 1.166-.316c.443 0 .83.105 1.163.316.335.211.595.507.78.889.188.381.281.828.281 1.339 0 .507-.093.95-.28 1.33a2.12 2.12 0 0 1-.78.885c-.333.211-.72.316-1.164.316Zm0-.677c.337 0 .614-.087.83-.259.218-.173.38-.4.484-.681.104-.281.156-.586.156-.914a2.63 2.63 0 0 0-.156-.917 1.538 1.538 0 0 0-.483-.687c-.217-.175-.494-.262-.831-.262-.337 0-.614.087-.831.262a1.538 1.538 0 0 0-.483.687 2.63 2.63 0 0 0-.156.917c0 .328.052.633.156.914.105.281.266.508.483.681.217.172.494.259.831.259Zm4.13-5.97v6.545h-.754v-6.545h.754Zm3.235 6.647c-.409 0-.77-.103-1.083-.31a2.095 2.095 0 0 1-.735-.882c-.177-.381-.266-.832-.266-1.352 0-.515.089-.963.266-1.342a2.07 2.07 0 0 1 .738-.879c.315-.207.68-.31 1.093-.31.32 0 .572.053.757.16.188.104.33.224.429.358.1.132.178.241.233.326h.064v-2.416h.754v6.545h-.728v-.754h-.09a5.104 5.104 0 0 1-.236.339 1.413 1.413 0 0 1-.438.361c-.19.104-.443.156-.758.156Zm.103-.677c.302 0 .558-.079.766-.237.21-.16.368-.38.477-.661a2.75 2.75 0 0 0 .163-.982c0-.366-.054-.687-.16-.962a1.396 1.396 0 0 0-.473-.645c-.209-.156-.467-.233-.773-.233-.32 0-.587.082-.8.246-.21.162-.37.382-.476.661a2.63 2.63 0 0 0-.156.933c0 .35.053.667.16.953.108.283.268.509.479.677.213.167.477.25.793.25Zm3.633.575v-4.909h.755v4.909h-.755Zm.384-5.727a.537.537 0 0 1-.38-.15.485.485 0 0 1-.157-.362c0-.14.052-.261.156-.361.107-.1.234-.15.38-.15.148 0 .274.05.378.15.107.1.16.221.16.361a.48.48 0 0 1-.16.362c-.104.1-.23.15-.377.15Zm2.506 2.774v2.953h-.754v-4.909h.729v.767h.064c.115-.249.29-.45.524-.601.234-.153.537-.23.908-.23.332 0 .623.068.872.205.249.134.443.338.582.613.138.273.207.618.207 1.036v3.119h-.754v-3.068c0-.386-.1-.686-.3-.901-.201-.218-.475-.326-.825-.326-.24 0-.456.052-.645.156a1.126 1.126 0 0 0-.445.457 1.51 1.51 0 0 0-.163.729Zm6.492 4.896c-.364 0-.677-.047-.939-.14a2.015 2.015 0 0 1-.656-.365 2.003 2.003 0 0 1-.412-.479l.601-.422c.068.089.154.192.259.307.104.117.247.218.428.303.183.088.423.131.719.131.397 0 .724-.095.981-.287.258-.192.387-.492.387-.902v-.997h-.064c-.055.09-.134.201-.236.333-.1.13-.245.246-.435.348-.187.1-.441.15-.761.15-.396 0-.752-.093-1.067-.281a1.976 1.976 0 0 1-.745-.818c-.181-.358-.271-.793-.271-1.304 0-.503.088-.941.265-1.314.177-.375.423-.664.738-.869.316-.207.68-.31 1.093-.31.32 0 .573.053.761.16.189.104.334.224.435.358.102.132.181.241.236.326h.077v-.78h.728v5.05c0 .421-.095.765-.287 1.029-.19.266-.446.461-.767.585-.32.125-.676.188-1.068.188Zm-.025-2.697c.302 0 .558-.07.767-.208.209-.139.367-.338.476-.598.109-.26.163-.571.163-.933 0-.354-.053-.666-.16-.936a1.395 1.395 0 0 0-.473-.636c-.209-.154-.466-.23-.773-.23-.32 0-.586.081-.799.242-.211.162-.37.38-.477.652a2.534 2.534 0 0 0-.156.908c0 .341.053.642.16.905.108.26.268.464.479.613.213.147.477.221.793.221Z"/>
  <defs>
    <linearGradient id="a" x1="401" x2="0" y1="0" y2="211" gradientUnits="userSpaceOnUse">
      <stop stop-color="#E96E26"/>
      <stop offset="1" stop-color="#21A6D6"/>
    </linearGradient>
    <clipPath id="b">
      <path fill="#fff" d="M21 24.343h16v9.314H21z"/>
    </clipPath>
  </defs>
</svg>
