<svg xmlns="http://www.w3.org/2000/svg" width="402" height="211" fill="none" viewBox="0 0 402 211">
  <path fill="#383E42" d="M.333 0h401.333v210.7H.333z"/>
  <path fill="url(#a)" fill-opacity=".08" d="M0 0h401.333v210.7H0z" transform="translate(.333)"/>
  <path fill="#EEEFF0" d="M22.115 33.782a1.418 1.418 0 0 1-.512-.308 1.063 1.063 0 0 1-.27-.512c.154-.146.334-.33.539-.552.205-.222.406-.487.602-.795.197-.316.36-.67.488-1.064.136-.393.205-.833.205-1.32v-1.552a1.947 1.947 0 0 1 1.167 0v2.962c0 .744.119 1.286.358 1.628.24.334.616.5 1.128.5 1.223 0 1.834-.893 1.834-2.68v-2.41c.068-.025.154-.046.256-.064.103-.017.21-.025.32-.025.206 0 .402.03.59.09v3.692c0 .453.069.807.206 1.064.145.248.384.372.718.372.145 0 .243.06.294.18a.948.948 0 0 1 .077.384c0 .136-.038.26-.115.371-.068.112-.184.167-.346.167-.82 0-1.376-.359-1.667-1.077-.24.35-.547.62-.923.808-.376.18-.82.27-1.333.27-1.171 0-1.945-.535-2.32-1.603a6.138 6.138 0 0 1-.642.859 3.9 3.9 0 0 1-.654.615Zm7.63-.974c.18 0 .373-.056.578-.167a1.88 1.88 0 0 0 .577-.513c.213-.29.367-.624.461-1 .103-.376.167-.756.192-1.14V27.68a1.948 1.948 0 0 1 1.167 0v3.692c0 .453.069.807.205 1.064.146.248.385.372.718.372a.86.86 0 0 0 .308-.065c.111-.042.226-.106.346-.192a.808.808 0 0 1 .359.36.87.87 0 0 1 .128.486 1.497 1.497 0 0 1-.525.372 1.7 1.7 0 0 1-.693.141h-.013c-.888 0-1.465-.419-1.73-1.256-.12.196-.248.363-.385.5-.23.23-.5.414-.808.551a2.308 2.308 0 0 1-.974.205c-.12 0-.21-.06-.27-.18a.695.695 0 0 1-.102-.371.66.66 0 0 1 .116-.385c.068-.11.184-.166.346-.166Zm2.411-6.975a.84.84 0 0 1-.615-.256.84.84 0 0 1-.257-.615.85.85 0 0 1 .244-.629.878.878 0 0 1 .628-.243.85.85 0 0 1 .628.243.85.85 0 0 1 .244.629.854.854 0 0 1-.872.871Zm4.293 8.077a.84.84 0 0 1-.616-.256.882.882 0 0 1-.256-.628.84.84 0 0 1 .256-.616.84.84 0 0 1 .616-.256.84.84 0 0 1 .615.256.82.82 0 0 1 .27.616.86.86 0 0 1-.27.628.84.84 0 0 1-.615.256Zm10.538-8.183h.88v4.816c0 .497-.117.94-.351 1.331-.232.389-.56.695-.984.92-.423.223-.92.334-1.491.334-.57 0-1.068-.111-1.492-.334a2.486 2.486 0 0 1-.987-.92 2.558 2.558 0 0 1-.348-1.331v-4.816h.88v4.745c0 .355.079.67.235.948.156.274.379.491.668.65.29.156.639.234 1.044.234s.753-.078 1.044-.234a1.65 1.65 0 0 0 .667-.65c.157-.277.235-.593.235-.948v-4.745Zm3.52 0V33h-.88v-7.273h.88Zm2.263 7.33a.615.615 0 0 1-.451-.188.615.615 0 0 1-.188-.451c0-.176.062-.326.188-.451a.615.615 0 0 1 .45-.189c.176 0 .326.063.452.189a.615.615 0 0 1 .188.45.663.663 0 0 1-.32.554.61.61 0 0 1-.32.086ZM60.879 28h-.88a1.829 1.829 0 0 0-.743-1.15 1.991 1.991 0 0 0-.607-.299 2.424 2.424 0 0 0-.696-.1c-.44 0-.84.112-1.197.334-.355.223-.638.55-.849.984-.208.433-.312.965-.312 1.595s.104 1.16.312 1.594c.21.433.494.761.849.984.357.222.756.334 1.197.334.241 0 .473-.034.696-.1.222-.066.425-.164.607-.295a1.873 1.873 0 0 0 .742-1.154h.88a2.933 2.933 0 0 1-.361.998 2.726 2.726 0 0 1-1.53 1.215c-.323.106-.667.16-1.034.16a3.05 3.05 0 0 1-1.655-.455c-.483-.303-.863-.734-1.14-1.293-.277-.558-.416-1.221-.416-1.988 0-.767.139-1.43.416-1.989.277-.559.657-.99 1.14-1.293.483-.303 1.034-.454 1.655-.454.367 0 .711.053 1.033.16.324.106.617.262.877.468.26.204.478.453.654.746.175.291.295.624.362.998Zm3.525 5.114c-.492 0-.924-.118-1.296-.352a2.388 2.388 0 0 1-.866-.984c-.206-.421-.31-.913-.31-1.477 0-.568.104-1.064.31-1.488.208-.424.497-.753.866-.987a2.383 2.383 0 0 1 1.296-.352c.493 0 .924.118 1.293.352.371.234.66.563.866.987.209.424.313.92.313 1.488 0 .564-.104 1.056-.313 1.477-.206.422-.495.75-.866.984-.37.234-.8.352-1.293.352Zm0-.753c.374 0 .682-.096.924-.288.241-.192.42-.444.536-.756.116-.313.174-.651.174-1.016 0-.364-.058-.704-.174-1.019a1.717 1.717 0 0 0-.537-.764c-.241-.194-.549-.29-.923-.29s-.682.096-.923.29c-.242.195-.42.45-.536.764a2.925 2.925 0 0 0-.174 1.02c0 .364.058.702.174 1.015.116.312.294.564.536.756.241.192.55.288.923.288Zm6.18-4.815v.71h-2.94v-.71h2.94ZM68.524 33v-6.207c0-.313.074-.573.22-.782.147-.208.338-.364.572-.468.235-.105.482-.157.742-.157a1.953 1.953 0 0 1 .796.142l-.242.725a4.126 4.126 0 0 0-.177-.053 1.076 1.076 0 0 0-.291-.032c-.277 0-.477.07-.6.21-.121.139-.181.344-.181.613V33h-.839Zm5.664-5.454v.71h-2.94v-.71h2.94ZM72.128 33v-6.207c0-.313.073-.573.22-.782.147-.208.338-.364.572-.468.234-.105.482-.157.742-.157a1.953 1.953 0 0 1 .795.142l-.241.725a4.158 4.158 0 0 0-.177-.053 1.077 1.077 0 0 0-.292-.032c-.277 0-.477.07-.6.21-.12.139-.181.344-.181.613V33h-.838Zm5.296.114c-.525 0-.979-.116-1.36-.348a2.336 2.336 0 0 1-.877-.98c-.203-.422-.305-.912-.305-1.47 0-.56.102-1.052.305-1.478a2.41 2.41 0 0 1 .86-1.001c.369-.242.8-.363 1.292-.363.284 0 .565.048.842.142.277.095.529.25.756.462.228.21.409.49.544.838.135.348.202.777.202 1.286v.355h-4.205v-.725h3.353c0-.307-.062-.582-.185-.823a1.392 1.392 0 0 0-.518-.572 1.452 1.452 0 0 0-.789-.21 1.5 1.5 0 0 0-.866.249 1.635 1.635 0 0 0-.558.64c-.13.262-.195.544-.195.844v.483c0 .412.07.761.213 1.048.144.284.344.5.6.65.256.146.553.22.891.22.22 0 .42-.031.597-.092a1.28 1.28 0 0 0 .465-.285 1.29 1.29 0 0 0 .302-.476l.81.228a1.796 1.796 0 0 1-.43.724c-.201.206-.45.367-.746.483-.296.114-.628.17-.998.17Zm5.82 0c-.525 0-.978-.116-1.36-.348a2.336 2.336 0 0 1-.876-.98c-.204-.422-.306-.912-.306-1.47 0-.56.102-1.052.306-1.478a2.41 2.41 0 0 1 .859-1.001c.37-.242.8-.363 1.292-.363.285 0 .565.048.842.142.277.095.53.25.757.462.227.21.408.49.543.838.135.348.202.777.202 1.286v.355H81.3v-.725h3.352c0-.307-.061-.582-.185-.823a1.392 1.392 0 0 0-.518-.572 1.452 1.452 0 0 0-.788-.21c-.334 0-.623.083-.867.249a1.635 1.635 0 0 0-.558.64c-.13.262-.195.544-.195.844v.483c0 .412.071.761.213 1.048.145.284.345.5.6.65.256.146.553.22.892.22.22 0 .419-.031.596-.092a1.28 1.28 0 0 0 .466-.285c.13-.128.23-.286.301-.476l.81.228a1.796 1.796 0 0 1-.43.724c-.2.206-.45.367-.745.483a2.76 2.76 0 0 1-.998.17Zm-53.652 93.313a1.895 1.895 0 0 0-.881-1.424c-.516-.339-1.147-.508-1.896-.508-.547 0-1.026.089-1.437.266a2.294 2.294 0 0 0-.954.731 1.748 1.748 0 0 0-.338 1.056c0 .33.079.614.236.851.16.234.366.429.615.586.25.153.511.28.785.38.274.097.525.175.755.236l1.256.338c.322.084.68.201 1.074.35a4.95 4.95 0 0 1 1.141.61 3.1 3.1 0 0 1 .906.977c.237.399.356.888.356 1.467 0 .669-.175 1.272-.525 1.812-.346.539-.854.967-1.522 1.285-.664.318-1.47.477-2.42.477-.886 0-1.653-.143-2.3-.428-.645-.286-1.152-.684-1.522-1.196-.366-.511-.573-1.104-.622-1.781h1.546c.04.467.197.854.47 1.16a2.56 2.56 0 0 0 1.051.676 4.25 4.25 0 0 0 1.377.217c.571 0 1.084-.093 1.539-.278.455-.189.815-.45 1.08-.784.266-.339.399-.733.399-1.184 0-.41-.115-.744-.344-1.002a2.532 2.532 0 0 0-.906-.628 9.404 9.404 0 0 0-1.213-.422l-1.521-.435c-.966-.278-1.731-.674-2.294-1.189-.564-.515-.846-1.189-.846-2.023 0-.692.188-1.295.562-1.811.378-.519.885-.921 1.521-1.207.64-.29 1.354-.435 2.143-.435.797 0 1.505.143 2.125.429.62.282 1.111.668 1.473 1.159a2.88 2.88 0 0 1 .58 1.672h-1.45Zm3.886 9.273v-9.273h1.425v9.273h-1.425Zm.725-10.818c-.278 0-.518-.095-.719-.284a.91.91 0 0 1-.296-.682.91.91 0 0 1 .296-.682c.201-.189.44-.284.719-.284.277 0 .515.095.712.284a.902.902 0 0 1 .302.682.9.9 0 0 1-.302.682.993.993 0 0 1-.712.284Zm3.31 10.818v-9.273h1.376v1.449h.12a2.34 2.34 0 0 1 .936-1.153c.43-.278.948-.416 1.552-.416.611 0 1.12.138 1.527.416.41.274.73.658.96 1.153h.096a2.703 2.703 0 0 1 1.07-1.141c.474-.286 1.044-.428 1.708-.428.829 0 1.507.259 2.034.778.527.515.79 1.318.79 2.409v6.206h-1.424v-6.206c0-.684-.187-1.173-.561-1.467a2.077 2.077 0 0 0-1.322-.441c-.652 0-1.157.198-1.516.592-.358.39-.537.885-.537 1.485v6.037h-1.449v-6.351c0-.527-.17-.952-.513-1.274-.342-.326-.783-.489-1.322-.489-.37 0-.716.099-1.038.296a2.233 2.233 0 0 0-.773.821c-.193.346-.29.747-.29 1.202v5.795h-1.425Zm14.775 3.477v-12.75h1.376v1.473h.17c.104-.161.249-.366.434-.615.189-.254.459-.479.809-.677.354-.201.833-.301 1.437-.301.78 0 1.469.195 2.064.585.596.391 1.06.944 1.395 1.66.334.717.5 1.562.5 2.536 0 .982-.166 1.833-.5 2.553-.334.717-.797 1.272-1.389 1.667-.591.39-1.274.585-2.046.585-.596 0-1.073-.098-1.431-.296-.358-.201-.634-.428-.827-.682a8.988 8.988 0 0 1-.447-.64h-.12v4.902h-1.425Zm1.4-8.113c0 .7.103 1.318.308 1.853.205.531.505.948.9 1.25.394.297.877.446 1.449.446.595 0 1.092-.157 1.49-.471.403-.317.705-.744.906-1.279.206-.54.308-1.139.308-1.799 0-.652-.1-1.24-.302-1.763-.197-.527-.497-.944-.9-1.25-.398-.31-.899-.465-1.502-.465-.58 0-1.067.147-1.461.441-.395.29-.693.696-.894 1.22-.201.519-.302 1.124-.302 1.817Zm10.384-7.728V135.7h-1.425v-12.364h1.425Zm6.497 12.557c-.893 0-1.664-.197-2.312-.591a3.973 3.973 0 0 1-1.491-1.667c-.346-.716-.52-1.549-.52-2.499 0-.95.174-1.787.52-2.511.35-.729.837-1.296 1.46-1.703.629-.41 1.361-.615 2.198-.615.483 0 .96.08 1.43.241.472.161.9.423 1.287.785.386.358.694.833.923 1.425.23.591.345 1.32.345 2.185v.604H67.26v-1.232h5.699c0-.523-.105-.99-.314-1.401-.206-.41-.5-.734-.882-.971-.378-.238-.825-.357-1.34-.357-.567 0-1.058.141-1.473.423a2.78 2.78 0 0 0-.948 1.087 3.187 3.187 0 0 0-.332 1.436v.821c0 .701.121 1.294.363 1.781a2.61 2.61 0 0 0 1.02 1.105c.434.25.94.374 1.515.374.374 0 .712-.052 1.014-.157a2.15 2.15 0 0 0 .791-.483c.222-.217.392-.487.513-.809l1.377.387a3.048 3.048 0 0 1-.73 1.231 3.547 3.547 0 0 1-1.269.821c-.503.194-1.068.29-1.696.29Zm14.29-.024c-.813 0-1.514-.149-2.101-.447a3.304 3.304 0 0 1-1.359-1.225c-.318-.519-.477-1.113-.477-1.781 0-.515.11-.972.326-1.37.222-.403.526-.775.912-1.117.39-.346.84-.693 1.346-1.039l1.787-1.328c.35-.229.63-.475.84-.736.213-.262.32-.604.32-1.027 0-.313-.14-.617-.417-.911-.274-.294-.634-.441-1.08-.441-.315 0-.593.081-.834.242a1.718 1.718 0 0 0-.561.603c-.133.242-.2.491-.2.749 0 .29.079.583.236.881.16.294.364.596.61.906.249.306.507.62.772.942l5.675 6.93h-1.715l-4.684-5.651-1.183-1.424a6.77 6.77 0 0 1-.846-1.262 2.945 2.945 0 0 1-.314-1.346c0-.556.123-1.043.369-1.461a2.56 2.56 0 0 1 1.044-.984c.45-.238.978-.356 1.582-.356.62 0 1.153.12 1.6.362.446.237.79.553 1.032.948.241.39.362.815.362 1.273 0 .592-.147 1.105-.44 1.54-.294.435-.695.839-1.202 1.213l-2.463 1.835c-.555.411-.932.809-1.129 1.196-.197.386-.296.664-.296.833 0 .386.1.746.302 1.081.201.334.485.603.851.808.367.206.795.308 1.286.308.467 0 .922-.098 1.364-.295a3.836 3.836 0 0 0 1.202-.87c.362-.378.648-.833.857-1.364.213-.531.32-1.129.32-1.793h1.377c0 .821-.095 1.491-.284 2.01-.19.519-.403.926-.64 1.22a9.083 9.083 0 0 1-.574.658c-.048.06-.092.12-.133.181-.04.06-.084.121-.132.181a3.653 3.653 0 0 1-1.51 1.002 5.326 5.326 0 0 1-1.798.326Zm12.854-.169h-1.57l4.54-12.364h1.545l4.54 12.364h-1.57l-3.694-10.408h-.097L97.713 135.7Zm.58-4.83h6.326v1.329h-6.327v-1.329Zm13.975 5.023c-.87 0-1.618-.205-2.246-.616a4.01 4.01 0 0 1-1.449-1.696c-.338-.72-.507-1.543-.507-2.469 0-.942.173-1.773.519-2.493.35-.725.837-1.29 1.461-1.697.628-.41 1.36-.615 2.198-.615.652 0 1.239.12 1.762.362.524.241.952.579 1.286 1.014.334.435.541.942.622 1.521h-1.425c-.108-.422-.35-.797-.724-1.123-.37-.33-.869-.495-1.497-.495-.556 0-1.043.145-1.461.435-.415.286-.739.69-.972 1.213-.23.52-.344 1.129-.344 1.83 0 .716.112 1.34.338 1.871.229.531.551.944.966 1.238.418.293.909.44 1.473.44.37 0 .706-.064 1.008-.193.302-.129.557-.314.767-.555.209-.242.358-.531.446-.87h1.425a3.3 3.3 0 0 1-.598 1.479c-.314.435-.73.781-1.249 1.039-.515.253-1.115.38-1.799.38Zm9.496 0c-.87 0-1.618-.205-2.246-.616a4.01 4.01 0 0 1-1.449-1.696c-.338-.72-.507-1.543-.507-2.469 0-.942.173-1.773.519-2.493.35-.725.837-1.29 1.461-1.697.628-.41 1.361-.615 2.198-.615.652 0 1.239.12 1.762.362.524.241.952.579 1.286 1.014.334.435.542.942.622 1.521h-1.425c-.108-.422-.35-.797-.724-1.123-.37-.33-.869-.495-1.497-.495-.556 0-1.043.145-1.461.435-.415.286-.739.69-.972 1.213-.23.52-.344 1.129-.344 1.83 0 .716.112 1.34.338 1.871.229.531.551.944.966 1.238.418.293.909.44 1.473.44.37 0 .706-.064 1.008-.193.302-.129.557-.314.767-.555.209-.242.358-.531.446-.87h1.425a3.288 3.288 0 0 1-.598 1.479c-.313.435-.73.781-1.249 1.039-.515.253-1.115.38-1.799.38Zm9.617 0c-.894 0-1.665-.197-2.313-.591a3.978 3.978 0 0 1-1.491-1.667c-.346-.716-.519-1.549-.519-2.499 0-.95.173-1.787.519-2.511.35-.729.837-1.296 1.461-1.703.628-.41 1.361-.615 2.198-.615.483 0 .96.08 1.43.241.471.161.9.423 1.286.785.387.358.695.833.924 1.425.229.591.344 1.32.344 2.185v.604h-7.148v-1.232h5.699c0-.523-.104-.99-.314-1.401a2.363 2.363 0 0 0-.881-.971c-.378-.238-.825-.357-1.34-.357-.568 0-1.059.141-1.473.423-.411.278-.727.64-.948 1.087a3.192 3.192 0 0 0-.332 1.436v.821c0 .701.121 1.294.362 1.781.246.483.586.852 1.02 1.105.435.25.94.374 1.516.374.374 0 .712-.052 1.014-.157.306-.108.569-.269.791-.483a2.2 2.2 0 0 0 .513-.809l1.376.387a3.05 3.05 0 0 1-.73 1.231 3.547 3.547 0 0 1-1.268.821c-.503.194-1.069.29-1.696.29Zm12.575-7.389-1.28.362c-.081-.213-.2-.42-.356-.622a1.74 1.74 0 0 0-.628-.507c-.266-.133-.606-.199-1.021-.199-.567 0-1.04.131-1.418.392-.375.258-.562.586-.562.984 0 .355.129.634.387.84.257.205.66.376 1.207.513l1.376.338c.83.201 1.447.509 1.854.923.406.411.61.94.61 1.588 0 .531-.153 1.006-.459 1.425-.302.418-.725.748-1.268.99-.543.241-1.175.362-1.896.362-.945 0-1.728-.205-2.348-.616-.62-.41-1.012-1.01-1.177-1.799l1.352-.338c.129.499.372.874.731 1.123.362.25.835.374 1.418.374.664 0 1.192-.14 1.582-.422.394-.286.592-.628.592-1.026 0-.322-.113-.592-.339-.809-.225-.222-.571-.387-1.038-.495l-1.545-.363c-.85-.201-1.473-.513-1.872-.935-.394-.427-.591-.96-.591-1.6 0-.523.147-.986.44-1.389.298-.402.703-.718 1.214-.947.515-.23 1.098-.344 1.75-.344.918 0 1.638.201 2.162.603.527.403.901.934 1.123 1.594Zm8.881 0-1.279.362c-.081-.213-.2-.42-.357-.622a1.736 1.736 0 0 0-.627-.507c-.266-.133-.606-.199-1.021-.199-.567 0-1.04.131-1.418.392-.375.258-.562.586-.562.984 0 .355.129.634.387.84.257.205.66.376 1.207.513l1.376.338c.829.201 1.447.509 1.854.923.406.411.609.94.609 1.588 0 .531-.153 1.006-.458 1.425-.302.418-.725.748-1.268.99-.543.241-1.175.362-1.896.362-.946 0-1.728-.205-2.348-.616-.62-.41-1.012-1.01-1.177-1.799l1.352-.338c.129.499.372.874.73 1.123.363.25.836.374 1.419.374.664 0 1.191-.14 1.582-.422.394-.286.591-.628.591-1.026 0-.322-.112-.592-.338-.809-.225-.222-.571-.387-1.038-.495l-1.545-.363c-.85-.201-1.473-.513-1.872-.935-.394-.427-.592-.96-.592-1.6 0-.523.147-.986.441-1.389a2.996 2.996 0 0 1 1.214-.947c.515-.23 1.098-.344 1.75-.344.918 0 1.638.201 2.162.603.527.403.901.934 1.122 1.594Zm2.314 7.196v-9.273h1.425v9.273h-1.425Zm.724-10.818c-.277 0-.517-.095-.718-.284a.911.911 0 0 1-.296-.682c0-.266.099-.493.296-.682.201-.189.441-.284.718-.284.278 0 .516.095.713.284a.903.903 0 0 1 .302.682.903.903 0 0 1-.302.682.994.994 0 0 1-.713.284Zm3.503 10.818v-12.364h1.425v4.564h.121c.104-.161.249-.366.434-.615.19-.254.459-.479.809-.677.355-.201.834-.301 1.437-.301.781 0 1.469.195 2.065.585.596.391 1.06.944 1.394 1.66.334.717.501 1.562.501 2.536 0 .982-.167 1.833-.501 2.553-.334.717-.796 1.272-1.388 1.667-.592.39-1.274.585-2.047.585-.595 0-1.072-.098-1.43-.296-.359-.201-.634-.428-.827-.682a8.564 8.564 0 0 1-.447-.64h-.169v1.425h-1.377Zm1.401-4.636c0 .7.103 1.318.308 1.853.205.531.505.948.899 1.25.395.297.878.446 1.449.446.596 0 1.093-.157 1.491-.471.403-.317.705-.744.906-1.279a5.03 5.03 0 0 0 .308-1.799c0-.652-.101-1.24-.302-1.763-.197-.527-.497-.944-.9-1.25-.398-.31-.899-.465-1.503-.465-.579 0-1.066.147-1.461.441-.394.29-.692.696-.893 1.22-.201.519-.302 1.124-.302 1.817Zm12.853 4.829c-.894 0-1.665-.197-2.313-.591a3.971 3.971 0 0 1-1.491-1.667c-.346-.716-.519-1.549-.519-2.499 0-.95.173-1.787.519-2.511.35-.729.837-1.296 1.461-1.703.628-.41 1.361-.615 2.198-.615.483 0 .96.08 1.43.241.471.161.9.423 1.286.785.387.358.695.833.924 1.425.229.591.344 1.32.344 2.185v.604h-7.148v-1.232h5.699c0-.523-.104-.99-.314-1.401a2.363 2.363 0 0 0-.881-.971c-.378-.238-.825-.357-1.34-.357-.568 0-1.059.141-1.473.423-.411.278-.727.64-.948 1.087a3.192 3.192 0 0 0-.332 1.436v.821c0 .701.121 1.294.362 1.781.246.483.586.852 1.02 1.105.435.25.94.374 1.516.374.374 0 .712-.052 1.014-.157.306-.108.569-.269.791-.483a2.2 2.2 0 0 0 .513-.809l1.376.387a3.05 3.05 0 0 1-.73 1.231 3.547 3.547 0 0 1-1.268.821c-.503.194-1.069.29-1.696.29Zm19.094-12.557h1.498v8.186c0 .846-.2 1.6-.598 2.264a4.19 4.19 0 0 1-1.672 1.564c-.721.378-1.566.567-2.536.567s-1.815-.189-2.535-.567a4.228 4.228 0 0 1-1.679-1.564c-.394-.664-.591-1.418-.591-2.264v-8.186h1.497v8.066c0 .603.133 1.141.398 1.612.266.466.644.835 1.135 1.104.495.266 1.087.399 1.775.399s1.28-.133 1.775-.399a2.808 2.808 0 0 0 1.135-1.104c.266-.471.398-1.009.398-1.612v-8.066Zm5.985 0V135.7h-1.498v-12.364h1.498ZM32.779 147.2h-1.497a3.11 3.11 0 0 0-1.262-1.956 3.398 3.398 0 0 0-1.032-.507 4.112 4.112 0 0 0-1.183-.169c-.749 0-1.427.189-2.035.567-.603.379-1.084.936-1.442 1.673-.354.736-.532 1.64-.532 2.71 0 1.071.178 1.974.532 2.711.358.736.839 1.294 1.442 1.672a3.774 3.774 0 0 0 2.035.567c.41 0 .805-.056 1.183-.169a3.43 3.43 0 0 0 1.032-.501 3.169 3.169 0 0 0 1.262-1.962h1.497a4.988 4.988 0 0 1-.615 1.697 4.65 4.65 0 0 1-1.111 1.274 4.87 4.87 0 0 1-1.491.79 5.56 5.56 0 0 1-1.757.272c-1.055 0-1.992-.258-2.813-.773-.821-.515-1.467-1.247-1.938-2.197-.471-.95-.706-2.077-.706-3.381 0-1.304.235-2.431.706-3.381.47-.949 1.117-1.682 1.938-2.197.82-.515 1.758-.773 2.813-.773.624 0 1.21.091 1.757.272a4.795 4.795 0 0 1 1.49.797 4.54 4.54 0 0 1 1.112 1.268c.297.495.503 1.06.615 1.696Zm5.994 8.693c-.838 0-1.572-.199-2.204-.597-.628-.399-1.119-.956-1.473-1.673-.35-.716-.525-1.553-.525-2.511 0-.966.175-1.809.525-2.53.354-.72.845-1.279 1.473-1.678.632-.398 1.366-.597 2.204-.597.837 0 1.57.199 2.197.597.632.399 1.123.958 1.473 1.678.354.721.531 1.564.531 2.53 0 .958-.177 1.795-.531 2.511-.35.717-.841 1.274-1.473 1.673-.628.398-1.36.597-2.197.597Zm0-1.28c.635 0 1.159-.163 1.57-.489.41-.326.713-.754.91-1.286a4.918 4.918 0 0 0 .297-1.726c0-.62-.1-1.197-.296-1.733a2.922 2.922 0 0 0-.912-1.298c-.41-.33-.934-.495-1.57-.495-.635 0-1.158.165-1.569.495-.41.33-.714.763-.912 1.298a4.978 4.978 0 0 0-.295 1.733c0 .62.098 1.195.295 1.726.198.532.501.96.912 1.286.41.326.934.489 1.57.489Zm6.376 1.087v-9.273h1.377v1.449h.12a2.33 2.33 0 0 1 .936-1.153c.43-.278.948-.416 1.551-.416.612 0 1.121.138 1.528.416.41.274.73.658.96 1.153h.096a2.702 2.702 0 0 1 1.069-1.141c.475-.286 1.044-.428 1.708-.428.83 0 1.508.259 2.035.778.527.515.79 1.318.79 2.409v6.206h-1.424v-6.206c0-.684-.187-1.173-.562-1.467a2.077 2.077 0 0 0-1.322-.441c-.652 0-1.157.198-1.515.592-.358.39-.537.885-.537 1.485v6.037h-1.45v-6.351c0-.527-.17-.952-.512-1.274-.342-.326-.783-.489-1.322-.489-.37 0-.717.099-1.039.296a2.233 2.233 0 0 0-.772.821c-.194.346-.29.747-.29 1.202v5.795h-1.425Zm14.776 3.477v-12.75H61.3v1.473h.169c.105-.161.25-.366.435-.615.189-.254.458-.479.809-.677.354-.201.833-.301 1.436-.301.781 0 1.47.195 2.065.585.596.391 1.06.944 1.394 1.66.335.717.502 1.562.502 2.536 0 .982-.168 1.833-.502 2.553-.334.717-.796 1.272-1.388 1.667-.592.39-1.274.585-2.047.585-.595 0-1.072-.098-1.43-.296-.358-.201-.634-.428-.827-.682a9.055 9.055 0 0 1-.447-.64h-.12v4.902h-1.425Zm1.4-8.113c0 .7.103 1.318.308 1.853.205.531.505.948.9 1.25.394.297.877.446 1.448.446.596 0 1.093-.157 1.491-.471.403-.317.705-.744.906-1.279a5.03 5.03 0 0 0 .308-1.799c0-.652-.1-1.24-.302-1.763-.197-.527-.497-.944-.9-1.25-.398-.31-.899-.465-1.503-.465-.58 0-1.066.147-1.46.441-.395.29-.693.696-.894 1.22-.201.519-.302 1.124-.302 1.817Zm12.726 4.829c-.837 0-1.572-.199-2.204-.597-.627-.399-1.118-.956-1.473-1.673-.35-.716-.525-1.553-.525-2.511 0-.966.175-1.809.525-2.53.355-.72.846-1.279 1.473-1.678.632-.398 1.367-.597 2.204-.597.837 0 1.57.199 2.197.597.632.399 1.123.958 1.473 1.678.355.721.532 1.564.532 2.53 0 .958-.177 1.795-.532 2.511-.35.717-.84 1.274-1.473 1.673-.627.398-1.36.597-2.197.597Zm0-1.28c.636 0 1.159-.163 1.57-.489a2.88 2.88 0 0 0 .911-1.286 4.918 4.918 0 0 0 .296-1.726c0-.62-.099-1.197-.296-1.733a2.922 2.922 0 0 0-.911-1.298c-.411-.33-.934-.495-1.57-.495s-1.16.165-1.57.495c-.41.33-.714.763-.911 1.298a4.978 4.978 0 0 0-.296 1.733c0 .62.099 1.195.296 1.726.197.532.5.96.911 1.286.41.326.934.489 1.57.489Zm7.801-4.491v5.578h-1.425v-9.273h1.377v1.449h.12a2.65 2.65 0 0 1 .99-1.135c.443-.29 1.015-.434 1.715-.434.628 0 1.177.128 1.648.386.471.253.837.64 1.099 1.159.261.515.392 1.167.392 1.956v5.892h-1.424v-5.795c0-.729-.19-1.296-.568-1.703-.378-.41-.897-.616-1.557-.616a2.49 2.49 0 0 0-1.22.296 2.117 2.117 0 0 0-.839.863c-.205.379-.308.838-.308 1.377Zm12.407 5.771c-.893 0-1.664-.197-2.312-.591a3.973 3.973 0 0 1-1.49-1.667c-.347-.716-.52-1.549-.52-2.499 0-.95.173-1.787.52-2.511.35-.729.836-1.296 1.46-1.703.628-.41 1.36-.615 2.198-.615.483 0 .96.08 1.43.241.471.161.9.423 1.286.785.387.358.694.833.924 1.425.23.591.344 1.32.344 2.185v.604h-7.148v-1.232h5.7c0-.523-.105-.99-.315-1.401a2.363 2.363 0 0 0-.881-.971c-.379-.238-.825-.357-1.34-.357-.568 0-1.059.141-1.473.423-.41.278-.727.64-.948 1.087a3.188 3.188 0 0 0-.332 1.436v.821c0 .701.12 1.294.362 1.781a2.61 2.61 0 0 0 1.02 1.105c.435.25.94.374 1.516.374.374 0 .712-.052 1.014-.157.306-.108.57-.269.79-.483.222-.217.393-.487.514-.809l1.376.387a3.048 3.048 0 0 1-.73 1.231 3.545 3.545 0 0 1-1.268.821c-.503.194-1.069.29-1.697.29Zm7.432-5.771v5.578h-1.425v-9.273h1.377v1.449h.12c.218-.471.548-.849.99-1.135.443-.29 1.015-.434 1.715-.434.628 0 1.177.128 1.648.386.471.253.837.64 1.099 1.159.261.515.392 1.167.392 1.956v5.892h-1.425v-5.795c0-.729-.189-1.296-.567-1.703-.378-.41-.898-.616-1.558-.616-.454 0-.861.099-1.219.296a2.116 2.116 0 0 0-.839.863c-.205.379-.308.838-.308 1.377Zm12.552-3.695v1.208h-4.805v-1.208h4.805Zm-3.405-2.221h1.425v8.838c0 .402.059.704.175.905.121.197.274.33.459.399.189.064.388.096.598.096.157 0 .285-.008.386-.024l.242-.048.289 1.28a2.883 2.883 0 0 1-.404.108 2.932 2.932 0 0 1-.658.061c-.403 0-.797-.087-1.183-.26a2.344 2.344 0 0 1-.954-.791c-.25-.354-.375-.801-.375-1.34v-9.224Zm10.523 11.494v-12.364h1.497v11.036h5.747v1.328h-7.244Zm9.369 0v-9.273h1.425v9.273h-1.425Zm.725-10.818c-.278 0-.518-.095-.719-.284a.911.911 0 0 1-.296-.682c0-.266.099-.493.296-.682.201-.189.441-.284.719-.284.277 0 .515.095.712.284a.903.903 0 0 1 .302.682.903.903 0 0 1-.302.682.993.993 0 0 1-.712.284Zm3.502 10.818v-12.364h1.425v4.564h.121c.105-.161.249-.366.435-.615.189-.254.458-.479.809-.677.354-.201.833-.301 1.436-.301.781 0 1.469.195 2.065.585.596.391 1.06.944 1.395 1.66.334.717.501 1.562.501 2.536 0 .982-.167 1.833-.501 2.553-.335.717-.797 1.272-1.389 1.667-.592.39-1.274.585-2.047.585-.595 0-1.072-.098-1.43-.296-.358-.201-.634-.428-.827-.682a8.876 8.876 0 0 1-.447-.64h-.169v1.425h-1.377Zm1.401-4.636c0 .7.103 1.318.308 1.853.205.531.505.948.899 1.25.395.297.878.446 1.449.446.596 0 1.093-.157 1.491-.471.403-.317.705-.744.906-1.279a5.03 5.03 0 0 0 .308-1.799c0-.652-.101-1.24-.302-1.763-.197-.527-.497-.944-.899-1.25-.399-.31-.9-.465-1.504-.465-.579 0-1.066.147-1.461.441-.394.29-.692.696-.893 1.22-.201.519-.302 1.124-.302 1.817Zm8.965 4.636v-9.273h1.376v1.401h.097c.169-.459.475-.831.918-1.117a2.696 2.696 0 0 1 1.497-.429c.104 0 .235.002.392.006.157.004.276.01.356.019v1.448a4.23 4.23 0 0 0-.332-.054 3.285 3.285 0 0 0-.537-.042 2.51 2.51 0 0 0-1.207.284 2.14 2.14 0 0 0-.834.772 2.086 2.086 0 0 0-.301 1.117v5.868h-1.425Zm9.054.217c-.588 0-1.121-.11-1.6-.332a2.741 2.741 0 0 1-1.141-.972c-.282-.426-.423-.941-.423-1.545 0-.531.105-.962.314-1.292.21-.334.489-.596.839-.785.351-.189.737-.33 1.16-.422a14.18 14.18 0 0 1 1.285-.23 59.772 59.772 0 0 1 1.371-.163c.354-.04.612-.106.773-.199.165-.093.247-.254.247-.483v-.048c0-.596-.163-1.059-.489-1.389-.322-.33-.811-.495-1.467-.495-.68 0-1.213.149-1.6.447-.386.298-.658.616-.815.954l-1.352-.483c.242-.564.564-1.002.966-1.316.406-.318.849-.54 1.328-.664a5.506 5.506 0 0 1 1.425-.193c.298 0 .64.036 1.026.108.39.069.767.211 1.129.429.366.217.67.545.912.984.241.439.362 1.026.362 1.763v6.109h-1.425v-1.256h-.072a2.507 2.507 0 0 1-.483.646c-.226.23-.526.425-.9.586-.374.161-.831.241-1.37.241Zm.217-1.28c.564 0 1.038-.11 1.425-.332a2.259 2.259 0 0 0 1.183-1.962v-1.304c-.06.073-.193.139-.398.2a7.05 7.05 0 0 1-.701.151 31.93 31.93 0 0 1-1.364.181c-.37.048-.716.127-1.038.235a1.796 1.796 0 0 0-.773.477c-.193.209-.29.495-.29.857 0 .495.183.87.55 1.123.37.25.839.374 1.406.374Zm6.633 1.063v-9.273h1.377v1.401h.096c.169-.459.475-.831.918-1.117a2.7 2.7 0 0 1 1.497-.429c.105 0 .235.002.392.006a4.6 4.6 0 0 1 .357.019v1.448a4.32 4.32 0 0 0-.332-.054 3.306 3.306 0 0 0-.538-.042 2.51 2.51 0 0 0-1.207.284c-.35.185-.628.442-.833.772a2.087 2.087 0 0 0-.302 1.117v5.868h-1.425Zm7.525 3.477c-.241 0-.457-.02-.646-.06a1.69 1.69 0 0 1-.392-.109l.362-1.255c.346.088.652.12.918.096a1.1 1.1 0 0 0 .706-.356c.209-.209.4-.549.574-1.02l.265-.725-3.429-9.321h1.546l2.559 7.389h.097l2.56-7.389h1.545l-3.936 10.625c-.177.479-.397.876-.658 1.19a2.481 2.481 0 0 1-.912.706 2.808 2.808 0 0 1-1.159.229Z"/>
  <path fill="#CAD0D3" d="M22.126 176.7v-6.545h3.925v.703h-3.132v2.211h2.838v.703h-2.838v2.928h-.793Zm7.966-2.007v-2.902h.754v4.909h-.754v-.831h-.051a1.614 1.614 0 0 1-.537.636c-.243.173-.55.259-.92.259-.307 0-.58-.067-.819-.201a1.411 1.411 0 0 1-.562-.614c-.136-.275-.205-.621-.205-1.039v-3.119h.755v3.068c0 .358.1.644.3.857.202.213.46.319.773.319.188 0 .379-.048.572-.144.197-.095.36-.242.493-.441.134-.198.201-.45.201-.757Zm2.89-4.538v6.545h-.754v-6.545h.754Zm2.136 0v6.545h-.754v-6.545h.754Zm1.867 8.386c-.128 0-.242-.011-.342-.032a.848.848 0 0 1-.208-.058l.192-.664c.183.047.345.064.486.051a.584.584 0 0 0 .374-.189c.11-.111.212-.291.303-.54l.141-.383-1.815-4.935h.818l1.355 3.912h.051l1.355-3.912h.819l-2.084 5.625c-.094.253-.21.463-.349.63a1.303 1.303 0 0 1-.482.373 1.487 1.487 0 0 1-.614.122Zm7.426-1.841h-.83l2.402-6.545h.819l2.403 6.545h-.83l-1.957-5.51h-.051l-1.956 5.51Zm.307-2.557h3.35v.703h-3.35v-.703Zm7.399 2.659c-.46 0-.857-.108-1.19-.326a2.12 2.12 0 0 1-.766-.898 3.04 3.04 0 0 1-.269-1.307c0-.499.092-.939.275-1.32.185-.383.443-.683.773-.898a2.08 2.08 0 0 1 1.164-.326c.345 0 .656.064.933.192s.504.307.68.537c.178.23.288.498.33.805h-.754a1.165 1.165 0 0 0-.384-.594c-.196-.175-.46-.262-.792-.262a1.32 1.32 0 0 0-.774.23c-.22.151-.39.365-.514.642a2.38 2.38 0 0 0-.182.968c0 .38.06.71.178.991.122.281.292.5.512.655.221.156.481.234.78.234.196 0 .374-.034.533-.103a1.097 1.097 0 0 0 .643-.754h.754a1.745 1.745 0 0 1-.978 1.333c-.273.134-.59.201-.952.201Zm5.027 0c-.46 0-.856-.108-1.189-.326a2.119 2.119 0 0 1-.767-.898 3.042 3.042 0 0 1-.268-1.307c0-.499.091-.939.274-1.32.186-.383.444-.683.774-.898a2.08 2.08 0 0 1 1.163-.326 2.2 2.2 0 0 1 .934.192c.277.128.503.307.68.537.177.23.287.498.33.805h-.755a1.164 1.164 0 0 0-.383-.594c-.196-.175-.46-.262-.793-.262a1.32 1.32 0 0 0-.773.23c-.22.151-.391.365-.515.642a2.382 2.382 0 0 0-.182.968c0 .38.06.71.179.991.121.281.292.5.511.655.222.156.482.234.78.234.196 0 .374-.034.534-.103a1.097 1.097 0 0 0 .642-.754h.754a1.745 1.745 0 0 1-.978 1.333c-.272.134-.59.201-.952.201Zm5.091 0c-.473 0-.88-.104-1.224-.313a2.103 2.103 0 0 1-.79-.882c-.182-.379-.274-.82-.274-1.323s.091-.946.275-1.33a2.17 2.17 0 0 1 .773-.901 2.08 2.08 0 0 1 1.164-.326c.255 0 .508.043.757.128.25.085.476.224.68.415.205.19.368.441.49.755.121.313.182.698.182 1.157v.319h-3.784v-.652H63.5c0-.277-.055-.524-.166-.741a1.251 1.251 0 0 0-1.176-.703c-.3 0-.56.074-.78.223a1.47 1.47 0 0 0-.502.576 1.69 1.69 0 0 0-.176.76v.435c0 .371.064.685.192.943.13.255.31.45.54.585.23.132.498.198.802.198.198 0 .377-.028.537-.083.162-.058.302-.143.419-.256.117-.115.208-.258.271-.428l.73.204a1.613 1.613 0 0 1-.387.652 1.89 1.89 0 0 1-.672.435 2.495 2.495 0 0 1-.898.153Zm6.658-3.912-.678.192a1.247 1.247 0 0 0-.189-.329.92.92 0 0 0-.332-.269c-.14-.07-.32-.105-.54-.105-.3 0-.55.069-.751.208-.198.136-.297.31-.297.521 0 .187.068.335.204.444.137.109.35.199.64.272l.728.179c.439.106.766.269.981.489.215.217.323.497.323.84 0 .281-.08.533-.243.754a1.61 1.61 0 0 1-.671.525 2.465 2.465 0 0 1-1.004.191c-.5 0-.915-.108-1.243-.326-.328-.217-.536-.535-.623-.952l.716-.179c.068.264.197.462.387.594.191.132.442.198.75.198.352 0 .631-.074.838-.223.209-.152.313-.333.313-.544 0-.17-.06-.313-.179-.428-.119-.117-.302-.204-.55-.262l-.818-.192c-.45-.106-.78-.271-.99-.495a1.2 1.2 0 0 1-.314-.847c0-.277.078-.522.234-.735.157-.213.372-.38.642-.502.273-.121.582-.182.927-.182.486 0 .867.107 1.144.32.28.213.477.494.595.843Zm4.702 0-.678.192a1.248 1.248 0 0 0-.188-.329.92.92 0 0 0-.333-.269c-.14-.07-.32-.105-.54-.105-.3 0-.55.069-.751.208-.198.136-.297.31-.297.521 0 .187.068.335.204.444.137.109.35.199.64.272l.728.179c.44.106.766.269.981.489.216.217.323.497.323.84 0 .281-.08.533-.243.754a1.61 1.61 0 0 1-.67.525 2.466 2.466 0 0 1-1.004.191c-.501 0-.915-.108-1.244-.326-.328-.217-.535-.535-.623-.952l.716-.179c.068.264.197.462.387.594.192.132.442.198.75.198.352 0 .632-.074.838-.223.209-.152.313-.333.313-.544 0-.17-.06-.313-.179-.428-.119-.117-.302-.204-.55-.262l-.817-.192c-.45-.106-.78-.271-.991-.495a1.2 1.2 0 0 1-.314-.847c0-.277.078-.522.234-.735.157-.213.372-.38.642-.502.273-.121.582-.182.927-.182.486 0 .867.107 1.144.32.28.213.478.494.595.843Zm1.225 3.81v-4.909h.754v4.909h-.754Zm.383-5.727a.537.537 0 0 1-.38-.15.485.485 0 0 1-.157-.362c0-.14.052-.261.157-.361.106-.1.233-.15.38-.15s.273.05.377.15c.107.1.16.221.16.361a.48.48 0 0 1-.16.362c-.104.1-.23.15-.377.15Zm1.855 5.727v-6.545h.754v2.416h.064c.055-.085.132-.194.23-.326.1-.134.243-.254.428-.358.188-.107.441-.16.76-.16.414 0 .779.103 1.094.31.315.207.561.5.738.879.177.379.265.827.265 1.342 0 .52-.088.971-.265 1.352a2.096 2.096 0 0 1-.735.882 1.92 1.92 0 0 1-1.083.31c-.316 0-.568-.052-.758-.156a1.413 1.413 0 0 1-.438-.361 5.104 5.104 0 0 1-.236-.339h-.09v.754h-.728Zm.741-2.455c0 .371.054.698.163.982.109.281.267.501.476.661.21.158.465.237.767.237.316 0 .579-.083.79-.25.213-.168.373-.394.48-.677.108-.286.162-.603.162-.953 0-.345-.053-.656-.16-.933a1.442 1.442 0 0 0-.476-.661c-.21-.164-.476-.246-.796-.246-.306 0-.564.077-.773.233a1.396 1.396 0 0 0-.473.645c-.107.275-.16.596-.16.962Zm5.5-4.09v6.545h-.754v-6.545h.754Zm3.44 6.647c-.473 0-.88-.104-1.224-.313a2.103 2.103 0 0 1-.79-.882c-.183-.379-.274-.82-.274-1.323s.091-.946.275-1.33a2.17 2.17 0 0 1 .773-.901 2.08 2.08 0 0 1 1.163-.326c.256 0 .509.043.758.128.25.085.476.224.68.415.205.19.368.441.49.755.121.313.182.698.182 1.157v.319h-3.784v-.652h3.017c0-.277-.056-.524-.166-.741a1.251 1.251 0 0 0-1.177-.703c-.3 0-.56.074-.78.223a1.47 1.47 0 0 0-.501.576 1.69 1.69 0 0 0-.176.76v.435c0 .371.064.685.192.943.13.255.31.45.54.585.23.132.498.198.802.198.198 0 .377-.028.537-.083.162-.058.302-.143.419-.256.117-.115.208-.258.272-.428l.728.204a1.613 1.613 0 0 1-.387.652c-.18.186-.404.33-.67.435a2.495 2.495 0 0 1-.899.153Zm7.156.013a2 2 0 0 1-.847-.176 1.455 1.455 0 0 1-.604-.514 1.452 1.452 0 0 1-.224-.818c0-.282.056-.51.167-.684.11-.177.258-.316.444-.416.185-.1.39-.175.613-.224.226-.051.453-.091.681-.121.299-.038.54-.067.726-.086.187-.022.323-.057.409-.106.087-.049.13-.134.13-.256v-.025c0-.315-.085-.56-.258-.735-.17-.175-.43-.262-.777-.262-.36 0-.642.079-.847.236a1.4 1.4 0 0 0-.431.505l-.716-.255c.128-.299.298-.531.511-.697.216-.169.45-.286.704-.352.255-.068.507-.102.754-.102.157 0 .338.019.543.058.207.036.406.111.598.226.194.115.355.289.482.521.128.233.192.544.192.934v3.234h-.754v-.665h-.038a1.315 1.315 0 0 1-.256.342 1.47 1.47 0 0 1-.476.31c-.199.085-.44.128-.726.128Zm.115-.678c.298 0 .55-.058.754-.175a1.198 1.198 0 0 0 .627-1.039v-.69c-.032.038-.103.073-.211.105-.107.03-.23.057-.37.08a18.344 18.344 0 0 1-.723.096 2.8 2.8 0 0 0-.55.125.943.943 0 0 0-.409.252c-.102.111-.153.262-.153.454 0 .262.097.46.29.594.197.132.445.198.745.198Zm4.266-2.39v2.953h-.754v-4.909h.728v.767h.064a1.4 1.4 0 0 1 .525-.601c.234-.153.537-.23.907-.23.333 0 .623.068.873.205.249.134.443.338.581.613.139.273.208.618.208 1.036v3.119h-.754v-3.068c0-.386-.1-.686-.301-.901-.2-.218-.475-.326-.824-.326-.24 0-.456.052-.646.156a1.126 1.126 0 0 0-.444.457 1.51 1.51 0 0 0-.163.729Zm6.364 3.055c-.409 0-.77-.103-1.083-.31a2.084 2.084 0 0 1-.735-.882c-.177-.381-.266-.832-.266-1.352 0-.515.089-.963.266-1.342.176-.379.423-.672.738-.879.315-.207.68-.31 1.093-.31.319 0 .572.053.757.16a1.3 1.3 0 0 1 .429.358c.1.132.178.241.233.326h.064v-2.416h.754v6.545h-.729v-.754h-.089a4.75 4.75 0 0 1-.237.339 1.413 1.413 0 0 1-.437.361c-.19.104-.443.156-.758.156Zm.102-.677c.303 0 .559-.079.767-.237.209-.16.368-.38.477-.661a2.75 2.75 0 0 0 .163-.982c0-.366-.054-.687-.16-.962a1.398 1.398 0 0 0-.473-.645c-.209-.156-.467-.233-.774-.233-.319 0-.586.082-.799.246a1.475 1.475 0 0 0-.476.661 2.639 2.639 0 0 0-.156.933c0 .35.053.667.159.953.109.283.269.509.48.677.213.167.477.25.792.25Zm11.535-3.925h-.793a1.657 1.657 0 0 0-.668-1.036 1.804 1.804 0 0 0-.546-.268 2.175 2.175 0 0 0-.627-.089 2 2 0 0 0-1.077.3c-.319.2-.574.495-.764.885-.187.39-.281.869-.281 1.435 0 .567.094 1.045.281 1.435.19.39.445.685.764.886a2 2 0 0 0 1.077.3c.218 0 .426-.03.627-.089.2-.06.382-.149.546-.266a1.676 1.676 0 0 0 .668-1.038h.793c-.06.334-.169.633-.326.898a2.462 2.462 0 0 1-1.378 1.093 2.932 2.932 0 0 1-.93.143 2.74 2.74 0 0 1-1.489-.409 2.796 2.796 0 0 1-1.026-1.163c-.249-.503-.374-1.099-.374-1.79 0-.69.125-1.287.374-1.79.249-.502.591-.89 1.026-1.163a2.74 2.74 0 0 1 1.489-.409c.331 0 .641.048.93.144.292.096.555.236.79.422.234.183.43.407.588.671.157.262.266.561.326.898Zm4.272 2.493v-2.902h.754v4.909h-.754v-.831h-.051a1.613 1.613 0 0 1-.537.636c-.243.173-.55.259-.92.259-.307 0-.58-.067-.819-.201a1.413 1.413 0 0 1-.562-.614c-.136-.275-.205-.621-.205-1.039v-3.119h.755v3.068c0 .358.1.644.3.857.202.213.46.319.773.319.188 0 .379-.048.573-.144.196-.095.36-.242.492-.441.134-.198.201-.45.201-.757Zm5.613-1.803-.677.192a1.263 1.263 0 0 0-.189-.329.924.924 0 0 0-.332-.269 1.215 1.215 0 0 0-.541-.105c-.3 0-.55.069-.751.208-.198.136-.297.31-.297.521 0 .187.068.335.205.444.136.109.349.199.639.272l.729.179c.439.106.766.269.981.489.215.217.323.497.323.84 0 .281-.081.533-.243.754-.16.222-.384.397-.671.525a2.47 2.47 0 0 1-1.004.191c-.501 0-.915-.108-1.243-.326-.328-.217-.536-.535-.623-.952l.715-.179c.069.264.198.462.387.594.192.132.442.198.751.198.352 0 .631-.074.838-.223.208-.152.313-.333.313-.544 0-.17-.06-.313-.179-.428-.12-.117-.303-.204-.55-.262l-.818-.192c-.45-.106-.78-.271-.991-.495a1.199 1.199 0 0 1-.313-.847c0-.277.078-.522.233-.735.158-.213.372-.38.643-.502.272-.121.581-.182.926-.182.486 0 .868.107 1.145.32.279.213.477.494.594.843Zm3.36-1.099v.639h-2.544v-.639h2.544Zm-1.803-1.176h.755v4.679c0 .213.031.373.092.479a.477.477 0 0 0 .243.211.98.98 0 0 0 .317.051c.083 0 .151-.004.204-.013l.128-.025.153.677a1.585 1.585 0 0 1-.562.09 1.51 1.51 0 0 1-.626-.138 1.237 1.237 0 0 1-.505-.418c-.133-.188-.199-.424-.199-.71v-4.883Zm4.879 6.187c-.443 0-.832-.105-1.166-.316a2.143 2.143 0 0 1-.78-.885c-.186-.38-.278-.823-.278-1.33 0-.511.092-.958.278-1.339.187-.382.447-.678.78-.889a2.137 2.137 0 0 1 1.166-.316c.443 0 .831.105 1.163.316.335.211.595.507.78.889.188.381.282.828.282 1.339 0 .507-.094.95-.282 1.33a2.116 2.116 0 0 1-.78.885c-.332.211-.72.316-1.163.316Zm0-.677c.337 0 .614-.087.831-.259.217-.173.378-.4.483-.681.104-.281.156-.586.156-.914a2.64 2.64 0 0 0-.156-.917 1.546 1.546 0 0 0-.483-.687c-.217-.175-.494-.262-.831-.262-.337 0-.614.087-.831.262a1.536 1.536 0 0 0-.482.687 2.617 2.617 0 0 0-.157.917c0 .328.052.633.157.914.104.281.265.508.482.681.217.172.494.259.831.259Zm3.376.575v-4.909h.729v.767h.064c.102-.262.267-.466.495-.61.228-.148.502-.221.821-.221.324 0 .594.073.809.221.217.144.387.348.508.61h.051c.126-.254.314-.455.566-.604.251-.151.553-.227.904-.227.439 0 .798.137 1.077.412.28.273.419.698.419 1.275v3.286h-.754v-3.286c0-.362-.099-.621-.297-.776a1.1 1.1 0 0 0-.7-.233c-.345 0-.613.104-.803.313-.189.206-.284.469-.284.786v3.196h-.767v-3.362a.886.886 0 0 0-.272-.675c-.181-.172-.414-.258-.7-.258-.196 0-.379.052-.549.156a1.174 1.174 0 0 0-.409.435 1.274 1.274 0 0 0-.154.636v3.068h-.754Zm7.822 0v-4.909h.754v4.909h-.754Zm.384-5.727a.54.54 0 0 1-.381-.15.486.486 0 0 1-.156-.362c0-.14.052-.261.156-.361a.54.54 0 0 1 .381-.15c.147 0 .272.05.377.15.106.1.16.221.16.361a.483.483 0 0 1-.16.362c-.105.1-.23.15-.377.15Zm1.611 5.727v-.575l2.787-3.58v-.051h-2.697v-.703h3.669v.601l-2.71 3.554v.051h2.799v.703h-3.848Zm6.455.115c-.311 0-.594-.059-.847-.176a1.451 1.451 0 0 1-.604-.514 1.454 1.454 0 0 1-.224-.818c0-.282.055-.51.166-.684.111-.177.259-.316.444-.416.186-.1.39-.175.614-.224.226-.051.453-.091.681-.121.298-.038.54-.067.725-.086.188-.022.324-.057.409-.106.088-.049.131-.134.131-.256v-.025c0-.315-.086-.56-.258-.735-.171-.175-.43-.262-.777-.262-.36 0-.643.079-.847.236a1.407 1.407 0 0 0-.432.505l-.715-.255c.127-.299.298-.531.511-.697.215-.169.45-.286.703-.352.256-.068.507-.102.754-.102.158 0 .339.019.544.058.206.036.406.111.597.226.194.115.355.289.483.521.128.233.192.544.192.934v3.234h-.755v-.665h-.038a1.296 1.296 0 0 1-.256.342 1.46 1.46 0 0 1-.476.31c-.198.085-.44.128-.725.128Zm.115-.678c.298 0 .549-.058.754-.175.207-.117.362-.269.467-.454a1.16 1.16 0 0 0 .159-.585v-.69c-.032.038-.102.073-.211.105-.106.03-.23.057-.37.08a18.876 18.876 0 0 1-.723.096 2.79 2.79 0 0 0-.549.125.936.936 0 0 0-.409.252c-.103.111-.154.262-.154.454 0 .262.097.46.291.594.196.132.444.198.745.198Zm3.614.563v-6.545h.754v2.416h.064c.055-.085.132-.194.23-.326.1-.134.243-.254.428-.358.188-.107.441-.16.761-.16.413 0 .778.103 1.093.31.315.207.561.5.738.879.177.379.265.827.265 1.342 0 .52-.088.971-.265 1.352a2.098 2.098 0 0 1-.735.882c-.313.207-.674.31-1.083.31-.316 0-.568-.052-.758-.156a1.43 1.43 0 0 1-.438-.361 5.03 5.03 0 0 1-.236-.339h-.09v.754h-.728Zm.741-2.455c0 .371.054.698.163.982.109.281.267.501.476.661.209.158.465.237.767.237.316 0 .579-.083.79-.25.213-.168.373-.394.479-.677.109-.286.163-.603.163-.953 0-.345-.053-.656-.16-.933a1.439 1.439 0 0 0-.476-.661c-.211-.164-.476-.246-.796-.246-.306 0-.564.077-.773.233a1.391 1.391 0 0 0-.473.645c-.107.275-.16.596-.16.962Zm5.5-4.09v6.545h-.754v-6.545h.754Zm3.44 6.647c-.473 0-.881-.104-1.224-.313a2.1 2.1 0 0 1-.789-.882c-.184-.379-.275-.82-.275-1.323s.091-.946.275-1.33c.185-.385.443-.686.773-.901a2.08 2.08 0 0 1 1.163-.326c.256 0 .509.043.758.128s.476.224.681.415a2 2 0 0 1 .489.755c.121.313.182.698.182 1.157v.319h-3.784v-.652h3.017c0-.277-.056-.524-.166-.741a1.257 1.257 0 0 0-.467-.515 1.304 1.304 0 0 0-.71-.188c-.3 0-.56.074-.779.223a1.464 1.464 0 0 0-.502.576 1.69 1.69 0 0 0-.176.76v.435c0 .371.064.685.192.943.13.255.31.45.54.585.23.132.497.198.802.198.198 0 .377-.028.537-.083.162-.058.302-.143.419-.256.117-.115.208-.258.271-.428l.729.204a1.607 1.607 0 0 1-.387.652c-.181.186-.404.33-.671.435a2.491 2.491 0 0 1-.898.153Zm10.109-6.647h.793v4.333c0 .448-.106.847-.317 1.199a2.22 2.22 0 0 1-.885.828c-.381.2-.829.3-1.342.3-.514 0-.961-.1-1.343-.3a2.248 2.248 0 0 1-.888-.828 2.301 2.301 0 0 1-.313-1.199v-4.333h.792v4.269c0 .32.071.604.211.854.141.247.341.442.601.585.262.14.575.211.94.211.364 0 .677-.071.939-.211.262-.143.463-.338.601-.585.141-.25.211-.534.211-.854v-4.269Zm3.168 0v6.545h-.792v-6.545h.792Zm4.121 6.545v-6.545h.792v5.842h3.043v.703h-3.835Zm4.96 0v-4.909h.754v4.909h-.754Zm.383-5.727a.537.537 0 0 1-.38-.15.486.486 0 0 1-.156-.362c0-.14.052-.261.156-.361.107-.1.233-.15.38-.15s.273.05.378.15a.48.48 0 0 1 .159.361.482.482 0 0 1-.159.362.529.529 0 0 1-.378.15Zm1.855 5.727v-6.545h.754v2.416h.064c.056-.085.132-.194.23-.326.1-.134.243-.254.429-.358.187-.107.441-.16.76-.16.414 0 .778.103 1.093.31.316.207.562.5.739.879.176.379.265.827.265 1.342 0 .52-.089.971-.265 1.352a2.093 2.093 0 0 1-.736.882c-.313.207-.674.31-1.083.31-.315 0-.568-.052-.757-.156a1.406 1.406 0 0 1-.438-.361 5.104 5.104 0 0 1-.237-.339h-.089v.754h-.729Zm.741-2.455c0 .371.055.698.163.982.109.281.268.501.477.661.208.158.464.237.767.237.315 0 .578-.083.789-.25.213-.168.373-.394.48-.677.108-.286.163-.603.163-.953 0-.345-.054-.656-.16-.933a1.446 1.446 0 0 0-.476-.661c-.211-.164-.477-.246-.796-.246-.307 0-.565.077-.774.233a1.398 1.398 0 0 0-.473.645c-.106.275-.16.596-.16.962Zm4.747 2.455v-4.909h.728v.741h.051c.09-.243.252-.44.486-.591.235-.151.499-.227.793-.227l.208.003c.083.003.145.006.188.01v.767a2.449 2.449 0 0 0-.176-.029 1.713 1.713 0 0 0-.284-.022c-.239 0-.452.05-.639.15a1.1 1.1 0 0 0-.601 1v3.107h-.754Zm4.793.115c-.311 0-.594-.059-.847-.176a1.451 1.451 0 0 1-.604-.514 1.454 1.454 0 0 1-.224-.818c0-.282.055-.51.166-.684.111-.177.259-.316.444-.416.186-.1.39-.175.614-.224.226-.051.453-.091.681-.121.298-.038.54-.067.725-.086.188-.022.324-.057.409-.106.088-.049.132-.134.132-.256v-.025c0-.315-.087-.56-.259-.735-.171-.175-.43-.262-.777-.262-.36 0-.642.079-.847.236a1.404 1.404 0 0 0-.431.505l-.716-.255c.128-.299.298-.531.511-.697.215-.169.45-.286.703-.352.256-.068.507-.102.754-.102.158 0 .339.019.544.058.206.036.406.111.597.226.194.115.355.289.483.521.128.233.192.544.192.934v3.234h-.754v-.665h-.039a1.296 1.296 0 0 1-.256.342 1.46 1.46 0 0 1-.476.31c-.198.085-.44.128-.725.128Zm.115-.678c.298 0 .55-.058.754-.175a1.201 1.201 0 0 0 .627-1.039v-.69c-.032.038-.103.073-.211.105a3.47 3.47 0 0 1-.371.08 18.876 18.876 0 0 1-.722.096 2.8 2.8 0 0 0-.55.125.936.936 0 0 0-.409.252c-.103.111-.154.262-.154.454 0 .262.097.46.291.594.196.132.444.198.745.198Zm3.511.563v-4.909h.729v.741h.051c.09-.243.252-.44.486-.591.234-.151.499-.227.793-.227l.207.003c.084.003.146.006.189.01v.767a2.56 2.56 0 0 0-.176-.029 1.713 1.713 0 0 0-.284-.022c-.239 0-.452.05-.639.15a1.1 1.1 0 0 0-.601 1v3.107h-.755Zm3.984 1.841c-.128 0-.242-.011-.342-.032a.837.837 0 0 1-.207-.058l.191-.664c.184.047.346.064.486.051a.584.584 0 0 0 .374-.189c.111-.111.212-.291.304-.54l.14-.383-1.815-4.935h.818l1.355 3.912h.051l1.356-3.912h.818l-2.084 5.625c-.094.253-.21.463-.348.63-.139.168-.3.292-.483.373a1.489 1.489 0 0 1-.614.122Zm9.242-6.75v.639h-2.647v-.639h2.647Zm-1.854 4.909v-5.587c0-.281.066-.515.198-.703.132-.187.304-.328.515-.422.211-.093.433-.14.668-.14.185 0 .336.015.453.044.118.03.205.058.262.084l-.217.652a2.885 2.885 0 0 0-.16-.048.933.933 0 0 0-.262-.029c-.249 0-.429.063-.54.188-.109.126-.163.31-.163.553v5.408h-.754Zm4.703.102c-.443 0-.832-.105-1.167-.316a2.157 2.157 0 0 1-.78-.885c-.185-.38-.278-.823-.278-1.33 0-.511.093-.958.278-1.339a2.15 2.15 0 0 1 .78-.889 2.143 2.143 0 0 1 1.167-.316c.443 0 .831.105 1.163.316.335.211.595.507.78.889.188.381.281.828.281 1.339 0 .507-.093.95-.281 1.33a2.116 2.116 0 0 1-.78.885c-.332.211-.72.316-1.163.316Zm0-.677c.337 0 .613-.087.831-.259.217-.173.378-.4.482-.681.105-.281.157-.586.157-.914 0-.328-.052-.634-.157-.917a1.536 1.536 0 0 0-.482-.687c-.218-.175-.494-.262-.831-.262-.337 0-.614.087-.831.262a1.546 1.546 0 0 0-.483.687 2.64 2.64 0 0 0-.156.917c0 .328.052.633.156.914.105.281.266.508.483.681.217.172.494.259.831.259Zm3.376.575v-4.909h.728v.741h.051c.09-.243.252-.44.486-.591.235-.151.499-.227.793-.227l.208.003c.083.003.146.006.188.01v.767a2.449 2.449 0 0 0-.176-.029 1.713 1.713 0 0 0-.284-.022c-.239 0-.452.05-.639.15a1.1 1.1 0 0 0-.601 1v3.107h-.754Zm8.002 0h-2.02v-6.545h2.109c.635 0 1.178.131 1.63.393.452.26.798.634 1.039 1.121.241.486.361 1.068.361 1.745 0 .682-.121 1.269-.364 1.761a2.595 2.595 0 0 1-1.061 1.132c-.465.262-1.03.393-1.694.393Zm-1.228-.703h1.177c.541 0 .989-.105 1.345-.313.356-.209.621-.506.796-.892.175-.386.262-.845.262-1.378 0-.528-.086-.983-.259-1.364a1.9 1.9 0 0 0-.773-.882c-.343-.207-.771-.31-1.282-.31h-1.266v5.139Zm7.633.805c-.473 0-.882-.104-1.225-.313a2.106 2.106 0 0 1-.789-.882c-.183-.379-.275-.82-.275-1.323s.092-.946.275-1.33c.185-.385.443-.686.773-.901a2.084 2.084 0 0 1 1.164-.326c.256 0 .508.043.757.128.25.085.476.224.681.415.205.19.368.441.489.755.121.313.182.698.182 1.157v.319h-3.784v-.652h3.017c0-.277-.055-.524-.166-.741a1.25 1.25 0 0 0-.467-.515 1.3 1.3 0 0 0-.709-.188c-.301 0-.561.074-.78.223a1.472 1.472 0 0 0-.502.576 1.69 1.69 0 0 0-.176.76v.435c0 .371.064.685.192.943.13.255.31.45.54.585.23.132.498.198.803.198.198 0 .377-.028.536-.083.162-.058.302-.143.419-.256.117-.115.208-.258.272-.428l.728.204a1.605 1.605 0 0 1-.386.652c-.181.186-.405.33-.671.435a2.499 2.499 0 0 1-.898.153Zm7.044-5.011-1.815 4.909h-.767l-1.815-4.909h.818l1.355 3.912h.051l1.355-3.912h.818Zm2.878 5.011c-.473 0-.881-.104-1.224-.313a2.1 2.1 0 0 1-.789-.882c-.183-.379-.275-.82-.275-1.323s.092-.946.275-1.33c.185-.385.443-.686.773-.901.333-.217.72-.326 1.164-.326.255 0 .508.043.757.128s.476.224.681.415a2 2 0 0 1 .489.755c.121.313.182.698.182 1.157v.319h-3.784v-.652h3.017c0-.277-.055-.524-.166-.741a1.25 1.25 0 0 0-.467-.515 1.303 1.303 0 0 0-.709-.188c-.301 0-.561.074-.78.223a1.472 1.472 0 0 0-.502.576 1.69 1.69 0 0 0-.176.76v.435c0 .371.064.685.192.943.13.255.31.45.54.585.23.132.498.198.802.198.199 0 .378-.028.537-.083.162-.058.302-.143.419-.256.117-.115.208-.258.272-.428l.728.204a1.605 1.605 0 0 1-.386.652c-.181.186-.405.33-.672.435a2.491 2.491 0 0 1-.898.153Zm3.935-6.647v6.545h-.755v-6.545h.755Zm3.375 6.647c-.443 0-.832-.105-1.166-.316a2.157 2.157 0 0 1-.78-.885c-.185-.38-.278-.823-.278-1.33 0-.511.093-.958.278-1.339a2.15 2.15 0 0 1 .78-.889 2.137 2.137 0 0 1 1.166-.316c.444 0 .831.105 1.164.316.334.211.594.507.78.889.187.381.281.828.281 1.339 0 .507-.094.95-.281 1.33a2.13 2.13 0 0 1-.78.885c-.333.211-.72.316-1.164.316Zm0-.677c.337 0 .614-.087.831-.259.218-.173.379-.4.483-.681.104-.281.157-.586.157-.914a2.64 2.64 0 0 0-.157-.917 1.53 1.53 0 0 0-.483-.687c-.217-.175-.494-.262-.831-.262-.336 0-.613.087-.83.262a1.53 1.53 0 0 0-.483.687 2.64 2.64 0 0 0-.157.917c0 .328.053.633.157.914.104.281.265.508.483.681.217.172.494.259.83.259Zm3.376 2.416v-6.75h.729v.78h.089c.056-.085.133-.194.231-.326.1-.134.242-.254.428-.358.187-.107.441-.16.76-.16.414 0 .778.103 1.094.31.315.207.561.5.738.879.177.379.265.827.265 1.342 0 .52-.088.971-.265 1.352a2.098 2.098 0 0 1-.735.882c-.313.207-.675.31-1.084.31-.315 0-.568-.052-.757-.156a1.406 1.406 0 0 1-.438-.361 5.515 5.515 0 0 1-.237-.339h-.063v2.595h-.755Zm.742-4.296c0 .371.054.698.163.982.108.281.267.501.476.661.209.158.464.237.767.237.315 0 .578-.083.789-.25.213-.168.373-.394.48-.677.108-.286.163-.603.163-.953 0-.345-.053-.656-.16-.933a1.439 1.439 0 0 0-.476-.661c-.211-.164-.476-.246-.796-.246-.307 0-.565.077-.773.233a1.391 1.391 0 0 0-.473.645c-.107.275-.16.596-.16.962Zm6.801 2.557c-.473 0-.881-.104-1.224-.313a2.108 2.108 0 0 1-.79-.882c-.183-.379-.274-.82-.274-1.323s.091-.946.274-1.33c.186-.385.444-.686.774-.901.332-.217.72-.326 1.163-.326.256 0 .508.043.758.128.249.085.476.224.68.415.205.19.368.441.489.755.122.313.183.698.183 1.157v.319h-3.785v-.652h3.018c0-.277-.056-.524-.167-.741a1.248 1.248 0 0 0-.466-.515 1.307 1.307 0 0 0-.71-.188c-.3 0-.56.074-.78.223a1.47 1.47 0 0 0-.501.576c-.118.236-.176.49-.176.76v.435c0 .371.064.685.192.943.13.255.31.45.54.585.23.132.497.198.802.198.198 0 .377-.028.537-.083.162-.058.301-.143.419-.256.117-.115.207-.258.271-.428l.729.204a1.619 1.619 0 0 1-.387.652c-.181.186-.405.33-.671.435a2.495 2.495 0 0 1-.898.153Zm3.18-.102v-4.909h.729v.741h.051c.089-.243.251-.44.486-.591a1.43 1.43 0 0 1 .792-.227l.208.003c.083.003.146.006.188.01v.767a2.49 2.49 0 0 0-.175-.029 1.734 1.734 0 0 0-.285-.022c-.238 0-.451.05-.639.15a1.1 1.1 0 0 0-.601 1v3.107h-.754Zm6.826-3.81-.678.192a1.231 1.231 0 0 0-.188-.329.92.92 0 0 0-.333-.269c-.14-.07-.32-.105-.54-.105-.3 0-.551.069-.751.208-.198.136-.297.31-.297.521 0 .187.068.335.204.444.137.109.35.199.64.272l.728.179c.439.106.766.269.982.489.215.217.322.497.322.84 0 .281-.081.533-.243.754a1.603 1.603 0 0 1-.671.525 2.462 2.462 0 0 1-1.003.191c-.501 0-.915-.108-1.244-.326-.328-.217-.535-.535-.623-.952l.716-.179c.068.264.197.462.387.594.192.132.442.198.751.198.351 0 .631-.074.837-.223.209-.152.313-.333.313-.544a.571.571 0 0 0-.178-.428c-.12-.117-.303-.204-.55-.262l-.818-.192c-.45-.106-.78-.271-.991-.495a1.199 1.199 0 0 1-.313-.847c0-.277.077-.522.233-.735.158-.213.372-.38.642-.502.273-.121.582-.182.927-.182.486 0 .867.107 1.144.32.279.213.478.494.595.843ZM23.314 187.7l-1.789-6.545h.806l1.367 5.331h.064l1.394-5.331h.895l1.393 5.331h.064l1.368-5.331h.805l-1.79 6.545h-.818l-1.444-5.216h-.051l-1.445 5.216h-.818Zm8.007-2.953v2.953h-.754v-6.545h.754v2.403h.064c.115-.254.287-.455.518-.604.232-.151.54-.227.927-.227.334 0 .627.067.878.201.252.132.447.336.585.611.14.273.211.62.211 1.042v3.119h-.754v-3.068c0-.39-.101-.692-.304-.905-.2-.215-.478-.322-.834-.322-.247 0-.469.052-.665.156a1.15 1.15 0 0 0-.46.457c-.11.2-.166.443-.166.729Zm6.557 3.055a2.14 2.14 0 0 1-1.166-.316 2.151 2.151 0 0 1-.78-.885c-.185-.38-.278-.823-.278-1.33 0-.511.093-.958.278-1.339.188-.382.447-.678.78-.889a2.14 2.14 0 0 1 1.166-.316c.444 0 .831.105 1.164.316.334.211.594.507.78.889.187.381.28.828.28 1.339 0 .507-.093.95-.28 1.33a2.121 2.121 0 0 1-.78.885c-.333.211-.72.316-1.164.316Zm0-.677c.337 0 .614-.087.831-.259.218-.173.378-.4.483-.681.104-.281.157-.586.157-.914a2.63 2.63 0 0 0-.157-.917 1.54 1.54 0 0 0-.483-.687c-.217-.175-.494-.262-.83-.262-.337 0-.614.087-.832.262a1.538 1.538 0 0 0-.482.687 2.63 2.63 0 0 0-.157.917c0 .328.052.633.157.914.104.281.265.508.482.681.218.172.495.259.831.259Zm7.199.575-1.79-6.545h.805l1.368 5.331h.064l1.393-5.331h.895l1.394 5.331h.064l1.368-5.331h.805l-1.79 6.545h-.818l-1.444-5.216h-.052l-1.444 5.216h-.818Zm8.239.115a2 2 0 0 1-.847-.176 1.455 1.455 0 0 1-.604-.514 1.452 1.452 0 0 1-.224-.818c0-.282.056-.51.166-.684.111-.177.26-.316.445-.416.185-.1.39-.175.613-.224.226-.051.453-.091.681-.121.298-.038.54-.067.726-.086.187-.022.323-.057.409-.106.087-.049.13-.134.13-.256v-.025c0-.315-.086-.56-.258-.735-.17-.175-.43-.262-.777-.262-.36 0-.642.079-.847.236a1.4 1.4 0 0 0-.431.505l-.716-.255c.128-.299.298-.531.511-.697.215-.169.45-.286.703-.352.256-.068.508-.102.755-.102.157 0 .338.019.543.058.207.036.406.111.598.226.194.115.354.289.482.521.128.233.192.544.192.934v3.234h-.754v-.665h-.039a1.315 1.315 0 0 1-.255.342c-.12.122-.278.225-.477.31-.198.085-.44.128-.725.128Zm.115-.678c.298 0 .55-.058.754-.175a1.198 1.198 0 0 0 .627-1.039v-.69c-.032.038-.103.073-.211.105-.107.03-.23.057-.371.08a18.344 18.344 0 0 1-.722.096 2.8 2.8 0 0 0-.55.125.943.943 0 0 0-.41.252c-.101.111-.153.262-.153.454 0 .262.097.46.291.594.196.132.445.198.745.198Zm4.266-2.39v2.953h-.754v-4.909h.728v.767h.064c.115-.249.29-.45.524-.601.235-.153.537-.23.908-.23.332 0 .623.068.873.205.249.134.443.338.581.613.139.273.208.618.208 1.036v3.119h-.754v-3.068c0-.386-.1-.686-.3-.901-.2-.218-.476-.326-.825-.326-.241 0-.456.052-.646.156a1.126 1.126 0 0 0-.444.457 1.51 1.51 0 0 0-.163.729Zm6.645-1.956v.639h-2.544v-.639h2.544Zm-1.802-1.176h.754v4.679c0 .213.03.373.093.479a.477.477 0 0 0 .242.211.98.98 0 0 0 .317.051c.083 0 .151-.004.204-.013l.128-.025.154.677a1.595 1.595 0 0 1-.563.09 1.51 1.51 0 0 1-.626-.138 1.242 1.242 0 0 1-.505-.418c-.132-.188-.198-.424-.198-.71v-4.883Zm10.837 1.585h-.792a1.652 1.652 0 0 0-.668-1.036 1.804 1.804 0 0 0-.547-.268 2.17 2.17 0 0 0-.626-.089 2 2 0 0 0-1.077.3c-.32.2-.574.495-.764.885-.188.39-.281.869-.281 1.435 0 .567.094 1.045.281 1.435.19.39.444.685.764.886a2 2 0 0 0 1.077.3c.217 0 .426-.03.626-.089.2-.06.383-.149.547-.266a1.674 1.674 0 0 0 .668-1.038h.792a2.65 2.65 0 0 1-.326.898 2.451 2.451 0 0 1-1.377 1.093c-.29.096-.6.143-.93.143a2.74 2.74 0 0 1-1.49-.409 2.8 2.8 0 0 1-1.025-1.163c-.25-.503-.374-1.099-.374-1.79 0-.69.124-1.287.374-1.79.249-.502.59-.89 1.025-1.163a2.74 2.74 0 0 1 1.49-.409c.33 0 .64.048.93.144.292.096.555.236.79.422.234.183.43.407.587.671.158.262.267.561.326.898Zm3.173 4.602a2.14 2.14 0 0 1-1.166-.316 2.15 2.15 0 0 1-.78-.885c-.186-.38-.278-.823-.278-1.33 0-.511.093-.958.278-1.339.187-.382.447-.678.78-.889a2.14 2.14 0 0 1 1.166-.316c.443 0 .831.105 1.164.316.334.211.594.507.78.889.187.381.28.828.28 1.339 0 .507-.093.95-.28 1.33a2.12 2.12 0 0 1-.78.885c-.333.211-.72.316-1.164.316Zm0-.677c.337 0 .614-.087.831-.259.218-.173.378-.4.483-.681.104-.281.156-.586.156-.914a2.63 2.63 0 0 0-.156-.917 1.538 1.538 0 0 0-.483-.687c-.217-.175-.494-.262-.83-.262-.337 0-.614.087-.832.262a1.538 1.538 0 0 0-.482.687 2.63 2.63 0 0 0-.157.917c0 .328.052.633.157.914.104.281.265.508.482.681.218.172.495.259.831.259Zm4.13-2.378v2.953h-.754v-4.909h.729v.767h.064c.115-.249.29-.45.524-.601.234-.153.537-.23.907-.23.333 0 .624.068.873.205.25.134.443.338.582.613.138.273.207.618.207 1.036v3.119h-.754v-3.068c0-.386-.1-.686-.3-.901-.2-.218-.475-.326-.825-.326-.24 0-.456.052-.645.156a1.126 1.126 0 0 0-.445.457 1.51 1.51 0 0 0-.163.729Zm6.646-1.956v.639h-2.544v-.639h2.544Zm-1.803-1.176h.754v4.679c0 .213.031.373.093.479a.477.477 0 0 0 .243.211c.1.034.206.051.316.051.083 0 .152-.004.205-.013l.128-.025.153.677a1.595 1.595 0 0 1-.563.09c-.212 0-.421-.046-.626-.138a1.242 1.242 0 0 1-.505-.418c-.132-.188-.198-.424-.198-.71v-4.883Zm2.937 6.085v-4.909h.729v.741h.051c.09-.243.252-.44.486-.591a1.43 1.43 0 0 1 .793-.227 8.9 8.9 0 0 1 .207.003c.083.003.146.006.189.01v.767a2.545 2.545 0 0 0-.176-.029 1.721 1.721 0 0 0-.284-.022c-.24 0-.452.05-.64.15a1.104 1.104 0 0 0-.6 1v3.107h-.755Zm5.194.102a2.14 2.14 0 0 1-1.167-.316 2.15 2.15 0 0 1-.78-.885c-.185-.38-.278-.823-.278-1.33 0-.511.093-.958.278-1.339a2.15 2.15 0 0 1 .78-.889 2.14 2.14 0 0 1 1.167-.316c.443 0 .83.105 1.163.316.335.211.595.507.78.889.188.381.281.828.281 1.339 0 .507-.094.95-.281 1.33a2.122 2.122 0 0 1-.78.885c-.332.211-.72.316-1.163.316Zm0-.677c.336 0 .613-.087.83-.259.218-.173.379-.4.483-.681.105-.281.157-.586.157-.914a2.63 2.63 0 0 0-.157-.917 1.538 1.538 0 0 0-.482-.687c-.218-.175-.495-.262-.831-.262-.337 0-.614.087-.831.262a1.538 1.538 0 0 0-.483.687 2.63 2.63 0 0 0-.156.917c0 .328.052.633.156.914.105.281.266.508.483.681.217.172.494.259.83.259Zm4.13-5.97v6.545h-.754v-6.545h.754Z"/>
  <defs>
    <linearGradient id="a" x1="401" x2="0" y1="0" y2="211" gradientUnits="userSpaceOnUse">
      <stop stop-color="#E96E26"/>
      <stop offset="1" stop-color="#21A6D6"/>
    </linearGradient>
  </defs>
</svg>
