<svg xmlns="http://www.w3.org/2000/svg" width="743" height="589" fill="none" viewBox="0 0 743 589">
  <mask id="a" width="709" height="402" x="23" y="187" maskUnits="userSpaceOnUse" style="mask-type:alpha">
    <path fill="#D9D9D9" d="M405 187.5H23.5v401H732V188.095c-121.847.404-250.21.526-250-.595-22 120-106.167 131.333-145.5 122V243c41.2 16 62.833-9.667 68.5-24.5v-31Z"/>
  </mask>
  <g mask="url(#a)">
    <path fill="#21A6D6" d="M581.582 457.64c-2.253 0-4.16-1.04-5.72-3.12-1.56-2.08-2.34-4.593-2.34-7.54 0-3.64.867-6.413 2.6-8.32 1.56-2.08 3.727-3.12 6.5-3.12 8.147 0 16.38-1.04 24.7-3.12 8.147-2.08 16.9-5.807 26.26-11.18-5.2-11.44-7.8-24.267-7.8-38.48 0-10.573 1.994-19.933 5.98-28.08 4.16-8.32 9.707-14.907 16.64-19.76 7.107-4.853 15.08-7.28 23.92-7.28 7.454 0 14.127 1.733 20.02 5.2 5.894 3.467 10.574 8.147 14.04 14.04 3.467 5.893 5.2 12.567 5.2 20.02 0 11.093-3.9 21.667-11.7 31.72-7.8 10.053-19.153 19.5-34.06 28.34 6.76 5.72 16.12 8.58 28.08 8.58 5.027 0 10.054-.693 15.08-2.08a74.72 74.72 0 0 0 14.56-5.72c2.6 1.907 4.507 4.767 5.72 8.58 1.387 3.64 2.08 7.193 2.08 10.66a84.755 84.755 0 0 1-18.2 7.8c-6.413 1.907-13.173 2.86-20.28 2.86h-.26c-9.706 0-18.633-1.56-26.78-4.68-8.146-3.293-14.82-7.8-20.02-13.52-22.186 12.133-43.593 18.2-64.22 18.2Zm66.56-75.66c0 11.44 2.08 20.627 6.24 27.56 23.054-13.347 34.58-27.56 34.58-42.64 0-5.547-1.473-9.88-4.42-13-2.946-3.12-7.02-4.68-12.22-4.68-6.933 0-12.74 3.12-17.42 9.36-4.506 6.067-6.76 13.867-6.76 23.4Z"/>
    <path fill="#21A6D6" d="M492.303 457.64c-2.254 0-4.074-1.04-5.46-3.12-1.387-2.08-2.08-4.767-2.08-8.06 0-7.453 3.12-11.18 9.36-11.18 5.026 0 10.14-.78 15.34-2.34 5.2-1.733 11.267-4.593 18.2-8.58-6.76-11.787-10.14-25.653-10.14-41.6 0-10.747 1.993-20.193 5.98-28.34 3.986-8.32 9.533-14.82 16.64-19.5 7.106-4.853 15.166-7.28 24.18-7.28 7.626 0 14.386 1.82 20.28 5.46 5.893 3.467 10.486 8.32 13.78 14.56 3.293 6.24 4.94 13.433 4.94 21.58 0 11.093-3.294 21.233-9.88 30.42-6.414 9.187-17.334 19.153-32.76 29.9 5.546 3.987 13 5.98 22.36 5.98 2.427 0 4.333 1.04 5.72 3.12 1.386 2.08 2.08 4.853 2.08 8.32 0 3.293-.78 5.893-2.34 7.8-1.56 1.907-3.814 2.86-6.76 2.86-8.32 0-16.12-1.387-23.4-4.16-7.28-2.773-13.347-6.587-18.2-11.44-16.64 10.4-32.587 15.6-47.84 15.6Zm47.84-76.96c0 13.693 2.426 24.613 7.28 32.76 11.266-7.8 19.586-15.427 24.96-22.88 5.546-7.453 8.32-14.56 8.32-21.32 0-6.24-1.56-11.093-4.68-14.56-2.947-3.64-7.107-5.46-12.48-5.46-6.76 0-12.394 3.033-16.9 9.1-4.334 6.067-6.5 13.52-6.5 22.36Z"/>
    <path fill="#21A6D6" d="M453.301 587.64c-14.56 0-25.047-5.373-31.46-16.12-6.414-10.747-9.62-25.567-9.62-44.46v-86.32c-5.894 6.067-11.96 10.4-18.2 13-6.067 2.6-12.914 3.9-20.54 3.9-2.254 0-4.074-1.04-5.46-3.12-1.387-2.08-2.08-4.767-2.08-8.06 0-3.467.866-6.153 2.6-8.06 1.56-2.08 3.726-3.12 6.5-3.12 6.066 0 12.046-1.993 17.94-5.98 5.893-4.16 12.306-10.747 19.24-19.76V259c0-9.36.693-17.853 2.08-25.48 1.56-7.8 4.246-14.473 8.06-20.02 3.12-4.68 7.106-8.493 11.96-11.44 5.026-2.947 11.266-4.42 18.72-4.42 13.52 0 23.92 6.067 31.2 18.2 7.28 12.133 10.92 29.293 10.92 51.48 0 52.867-16.207 98.8-48.62 137.8 11.44 3.813 21.233 11.96 29.38 24.44 5.893 3.813 11.96 5.72 18.2 5.72 2.253 0 4.073 1.04 5.46 3.12 1.386 2.08 2.08 4.853 2.08 8.32 0 3.293-.867 5.893-2.6 7.8-1.56 2.08-3.814 3.12-6.76 3.12h-3.38c2.773 8.667 4.853 18.113 6.24 28.34 1.56 10.4 2.34 21.32 2.34 32.76 0 22.707-3.814 39.867-11.44 51.48-7.454 11.613-18.374 17.42-32.76 17.42Zm-17.94-334.1v129.74c11.786-16.12 20.8-34.147 27.04-54.08 6.413-20.107 9.62-40.82 9.62-62.14 0-15.6-1.647-27.473-4.94-35.62-3.12-8.147-7.8-12.22-14.04-12.22-11.787 0-17.68 11.44-17.68 34.32Zm0 273.52c0 13 1.473 22.793 4.42 29.38 2.946 6.587 7.886 9.88 14.82 9.88 6.413 0 11.353-4.247 14.82-12.74 3.466-8.32 5.2-20.54 5.2-36.66 0-27.387-3.727-49.4-11.18-66.04-5.72-2.427-11.094-5.287-16.12-8.58-4.854-3.293-8.84-6.76-11.96-10.4v95.16Z"/>
    <path fill="#21A6D6" d="M334.245 587.64c-14.56 0-25.047-5.373-31.46-16.12s-9.62-25.567-9.62-44.46V370.54c-6.24 1.56-12.74 2.86-19.5 3.9s-12.913 1.56-18.46 1.56c-6.067 0-10.487-.78-13.26-2.34-2.773-1.56-4.16-4.593-4.16-9.1 0-3.12.607-5.373 1.82-6.76 1.213-1.56 2.6-2.34 4.16-2.34h7.02c6.933 0 13.953-.607 21.06-1.82 6.933-1.213 14.04-2.947 21.32-5.2V259c0-9.36.693-17.853 2.08-25.48 1.56-7.8 4.247-14.473 8.06-20.02 3.12-4.68 7.107-8.493 11.96-11.44 5.027-2.947 11.267-4.42 18.72-4.42 13.52 0 23.92 6.067 31.2 18.2 7.28 12.133 10.92 29.293 10.92 51.48 0 16.12-2.6 30.593-7.8 43.42-5.026 12.827-12.046 23.66-21.06 32.5-9.013 8.84-19.327 15.6-30.94 20.28v48.36c2.427-3.293 5.72-5.72 9.88-7.28 11.96 3.64 22.187 11.96 30.68 24.96 5.894 3.813 11.96 5.72 18.2 5.72 2.253 0 4.073 1.04 5.46 3.12 1.387 2.08 2.08 4.853 2.08 8.32 0 3.293-.867 5.893-2.6 7.8-1.56 2.08-3.813 3.12-6.76 3.12h-3.38c2.774 8.667 4.853 18.113 6.24 28.34 1.56 10.4 2.34 21.32 2.34 32.76 0 22.707-3.813 39.867-11.44 51.48-7.453 11.613-18.373 17.42-32.76 17.42Zm-17.94-334.1v87.1c10.747-6.067 19.5-15.427 26.26-28.08 6.933-12.827 10.4-27.993 10.4-45.5 0-15.6-1.647-27.473-4.94-35.62-3.12-8.147-7.8-12.22-14.04-12.22-11.786 0-17.68 11.44-17.68 34.32Zm0 273.52c0 13 1.473 22.793 4.42 29.38s7.887 9.88 14.82 9.88c6.413 0 11.354-4.247 14.82-12.74 3.467-8.32 5.2-20.54 5.2-36.66 0-27.387-3.727-49.4-11.18-66.04-5.72-2.427-11.093-5.287-16.12-8.58-4.853-3.293-8.84-6.76-11.96-10.4v95.16Z"/>
    <path fill="#21A6D6" d="M91.042 457.64c-2.427 0-4.334-1.04-5.72-3.12-1.56-2.08-2.34-4.767-2.34-8.06 0-3.467.866-6.153 2.6-8.06 1.733-1.907 3.986-2.86 6.76-2.86 10.573 0 20.193-2.773 28.86-8.32 8.84-5.72 16.033-13.52 21.58-23.4-.52-3.64-.78-7.453-.78-11.44 0-12.48 2.686-23.573 8.06-33.28 5.373-9.707 12.653-17.333 21.84-22.88 9.36-5.72 19.846-8.58 31.46-8.58 11.613 0 22.013 2.86 31.2 8.58 9.186 5.547 16.38 13.173 21.58 22.88 5.373 9.707 8.06 20.8 8.06 33.28s-2.687 23.66-8.06 33.54c-5.2 9.88-12.394 17.68-21.58 23.4-9.014 5.547-19.414 8.32-31.2 8.32-11.094 0-21.06-2.513-29.9-7.54s-15.947-11.873-21.32-20.54c-7.28 9.013-16.207 15.947-26.78 20.8-10.4 4.853-21.84 7.28-34.32 7.28Zm112.06-22.36c11.093 0 19.933-3.9 26.52-11.7 6.76-7.8 10.14-18.2 10.14-31.2 0-6.413-.954-12.307-2.86-17.68-10.4-.347-19.847-2.427-28.34-6.24-8.32-3.813-14.907-9.013-19.76-15.6-6.934 2.947-12.394 7.973-16.38 15.08-3.987 6.933-5.98 15.253-5.98 24.96 0 12.653 3.293 22.88 9.88 30.68 6.76 7.8 15.686 11.7 26.78 11.7Z"/>
    <path fill="#21A6D6" d="M90.68 457.64c-13.52 0-25.307-2.687-35.36-8.06-10.053-5.373-17.853-12.827-23.4-22.36-5.547-9.707-8.32-21.06-8.32-34.06 0-12.827 2.427-24.093 7.28-33.8 4.853-9.88 11.527-17.593 20.02-23.14 8.667-5.72 18.547-8.58 29.64-8.58 8.32 0 15.86 1.647 22.62 4.94 6.933 3.12 12.567 7.713 16.9 13.78-2.08 7.107-7.107 12.22-15.08 15.34-5.72-7.8-13.607-11.7-23.66-11.7s-18.2 3.813-24.44 11.44c-6.067 7.453-9.1 17.593-9.1 30.42 0 13.173 3.813 23.747 11.44 31.72 7.8 7.973 18.807 11.96 33.02 11.96 2.253 0 4.073 1.127 5.46 3.38 1.56 2.08 2.34 4.767 2.34 8.06s-.867 5.893-2.6 7.8c-1.56 1.907-3.813 2.86-6.76 2.86Z"/>
  </g>
  <mask id="b" width="743" height="317" x="0" y="0" maskUnits="userSpaceOnUse" style="mask-type:alpha">
    <path fill="#D9D9D9" d="M279 316.5H0V0h742.5v316.5h-412v-11c-1.2-54.8 1.5-70.833 3-72l.5-50c-47.2 0-56.333 50.333-55 75.5v57.5Z"/>
  </mask>
  <g mask="url(#b)">
    <path fill="#25292C" d="M630.609 297.6c-22.133 0-41.733-6.133-58.8-18.4-16.8-12.533-29.866-29.867-39.2-52-9.333-22.133-14-48-14-77.6 0-29.6 4.667-55.467 14-77.6 9.334-22.133 22.4-39.333 39.2-51.6 17.067-12.267 36.8-18.4 59.2-18.4 22.4 0 41.867 6.133 58.4 18.4 16.8 12.267 29.734 29.467 38.8 51.6 9.334 21.867 14 47.6 14 77.2s-4.666 55.6-14 78c-9.333 22.133-22.4 39.467-39.2 52-16.8 12.267-36.266 18.4-58.4 18.4Zm.4-35.6c22.934 0 40.8-9.867 53.6-29.6 13.067-20 19.6-47.333 19.6-82 0-35.2-6.533-62.8-19.6-82.8-12.8-20-30.666-30-53.6-30-22.933 0-41.066 10-54.4 30-13.333 20-20 47.333-20 82s6.667 62.133 20 82.4c13.334 20 31.467 30 54.4 30Zm-271.884 35.6c-22.133 0-41.733-6.133-58.8-18.4-16.8-12.533-29.867-29.867-39.2-52-9.333-22.133-14-48-14-77.6 0-29.6 4.667-55.467 14-77.6 9.333-22.133 22.4-39.333 39.2-51.6 17.067-12.267 36.8-18.4 59.2-18.4 22.4 0 41.867 6.133 58.4 18.4 16.8 12.267 29.733 29.467 38.8 51.6 9.333 21.867 14 47.6 14 77.2s-4.667 55.6-14 78c-9.333 22.133-22.4 39.467-39.2 52-16.8 12.267-36.267 18.4-58.4 18.4Zm.4-35.6c22.933 0 40.8-9.867 53.6-29.6 13.067-20 19.6-47.333 19.6-82 0-35.2-6.533-62.8-19.6-82.8-12.8-20-30.667-30-53.6-30s-41.067 10-54.4 30c-13.333 20-20 47.333-20 82s6.667 62.133 20 82.4c13.333 20 31.467 30 54.4 30ZM10.1 292.4c-2.667-1.867-5.067-5.467-7.2-10.8-1.867-5.6-2.667-10.933-2.4-16 6.933-4.533 14.933-10.4 24-17.6 9.333-7.467 18.933-15.467 28.8-24 10.133-8.8 20-17.733 29.6-26.8 9.867-9.333 18.8-18.133 26.8-26.4 16.267-17.333 28-32.667 35.2-46 7.2-13.333 10.8-26.133 10.8-38.4 0-15.2-4.8-27.467-14.4-36.8-9.6-9.333-22.533-14-38.8-14-17.067 0-31.333 5.333-42.8 16-11.467 10.667-18.4 25.333-20.8 44-15.467 1.6-27.467-1.467-36-9.2 3.2-18.4 9.467-34 18.8-46.8 9.6-12.8 21.467-22.533 35.6-29.2C71.433 3.467 87.033 0 104.1 0c17.867 0 33.467 3.6 46.8 10.8 13.333 7.2 23.733 17.2 31.2 30 7.467 12.533 11.2 27.2 11.2 44 0 16-3.733 31.733-11.2 47.2-7.467 15.467-19.467 32.667-36 51.6-11.733 13.333-24.4 26.267-38 38.8-13.6 12.267-27.2 23.6-40.8 34h9.2c1.333 0 2.667.133 4 .4 1.6.267 4.133.667 7.6 1.2 3.467.267 8.8.8 16 1.6 8.533 1.067 15.867 1.867 22 2.4 6.4.533 11.733.8 16 .8 9.067 0 18.667-1.067 28.8-3.2 10.4-2.4 19.333-5.2 26.8-8.4 7.733 7.733 11.6 18 11.6 30.8-6.667 4.533-15.6 8.267-26.8 11.2-10.933 2.933-24.667 4.4-41.2 4.4-4.267 0-9.2-.267-14.8-.8-5.333-.533-13.467-1.6-24.4-3.2-9.067-1.333-16.4-2.267-22-2.8-5.333-.8-9.867-1.333-13.6-1.6-3.733-.267-7.733-.4-12-.4-8.267 0-16.533.4-24.8 1.2-8.267.533-14.8 1.333-19.6 2.4Z"/>
  </g>
</svg>
