<svg xmlns="http://www.w3.org/2000/svg" width="96" height="120" fill="none" viewBox="0 0 96 120">
  <path fill="#25292C" fill-rule="evenodd" d="M18.65 68.147c.533.447.202.952-.472.923-.677-.028-2.107-.07-3.413-.9a.766.766 0 0 1-.138-.113c-.16-.165-.318-.332-.475-.5a.827.827 0 0 0-1.04-.16c-1.921 1.184-5.45 3.832-8.335 8.623a1.35 1.35 0 0 1-.152.266 1.231 1.231 0 0 0-.074.11C1.691 81.315-.462 88.413.37 98.38c.581 6.971 3.14 11.972 6.597 15.386 4.366 4.312 10.177 6.142 15.257 6.231 4.277.075 7.765-1.574 10.07-3.978a11.295 11.295 0 0 0 2.227-3.312c1.871-4.308.901-10.879-4.74-11.596a.864.864 0 0 1-.444-.184c-1.886-1.565-4.023-4.422-3.503-6.949.74-3.597 9.333-9.78 18.391-13.008 9.056-3.229 16.311-4.935 19.408-3.229.492.271.953.852 1.369 1.665a.986.986 0 0 0 1.372.394c1.488-.892 3.503-1.542 5.485-.423 3.761 2.127 4.043 14.118-4.993 18.14-.318.142-.53.457-.58.801-.163 1.111-.75 2.388-1.107 2.806a.564.564 0 0 1-.17.128c-.797.42-2.037 1.178-3.075 2.261-1.558 1.625-2.25 3.602-2.22 5.605.02 1.197.299 2.418.808 3.589a11.243 11.243 0 0 0 2.226 3.312c2.303 2.404 5.791 4.053 10.069 3.978 5.08-.09 10.892-1.919 15.257-6.231 3.457-3.416 6.016-8.415 6.597-15.386.831-9.971-1.324-17.07-4.186-21.99a1.14 1.14 0 0 0-.069-.101 1.33 1.33 0 0 1-.126-.214 1.261 1.261 0 0 0-.058-.11c-2.88-4.758-6.392-7.39-8.305-8.57a.825.825 0 0 0-1.04.16c-.175.19-.354.379-.535.565a.753.753 0 0 1-.155.123c-1.273.757-2.637.798-3.293.826-.86.037-.924-.586-.362-1.046.36-.294.713-.599 1.055-.914 2.026-1.86 3.786-4.123 5.271-6.667a1.24 1.24 0 0 1 .105-.181c.422-.737.819-1.489 1.189-2.253l.058-.12c2.203-4.586 3.605-9.871 4.152-15.284.976-9.672-.785-19.705-5.611-26.851a25.885 25.885 0 0 0-1.64-2.173C69.125-.63 48.287-.016 47.578.01h-.117c-.708-.024-21.546-.64-33.54 13.57a25.541 25.541 0 0 0-1.643 2.174c-4.826 7.148-6.587 17.18-5.611 26.85.545 5.414 1.948 10.697 4.15 15.285l.06.12c.37.764.766 1.516 1.19 2.253a1.3 1.3 0 0 1 .105.18c1.485 2.545 3.244 4.808 5.27 6.668.379.349.769.684 1.17 1.007l.01.008.027.022ZM66.976 83.62a.822.822 0 0 0-.437.893c.402 2.255.608 4.828.544 7.341-.019.719.792 1.153 1.309.653 4.32-4.18 3.341-9.405.877-9.526-.63-.032-1.43.224-2.293.64ZM4.65 69.228c.017.784 1.026 1.125 1.557.548a27.737 27.737 0 0 1 5.03-4.325.886.886 0 0 0 .24-1.24 34.352 34.352 0 0 1-.931-1.413.852.852 0 0 0-.722-.404H7.106c-.405 0-1.164.26-1.743 1.074-.434.609-.75 1.53-.75 2.894.001.949.015 1.924.036 2.866Zm85.03-5.76c-.581-.812-1.34-1.074-1.743-1.074h-2.718a.852.852 0 0 0-.721.404c-.299.478-.61.95-.931 1.413a.886.886 0 0 0 .24 1.24c1.352.898 3.167 2.3 5.03 4.327.53.577 1.539.237 1.556-.547.022-.943.035-1.92.035-2.869.002-1.364-.316-2.285-.748-2.894Zm1.263-20.59A51.649 51.649 0 0 1 88.746 53.5c-.239.741.554 1.422 1.233 1.042 1.383-.772 2.695-1.536 3.425-2.042l.004-.003a.022.022 0 0 1 .003-.002c.78-.541 1.183-.969 1.37-1.558.235-.739.26-1.878.26-3.718V32.765c0-2.658-.003-3.035-.01-3.092a.01.01 0 0 0-.008-.009 2.883 2.883 0 0 1-.365-.138c-.247-.118-1.507-.82-2.903-1.603-.632-.356-1.397.204-1.273.918.793 4.551.934 9.34.46 14.038ZM12.72 26.299a.795.795 0 0 0-.7.565c-.82 2.858-4.316 17.093 3.997 27.758 9.282 11.91 20.115 13.467 31.503 14.245 11.389-.778 22.223-2.337 31.504-14.245 8.314-10.665 4.819-24.9 3.998-27.758a.795.795 0 0 0-.7-.566c-24.6-2.454-44.998-2.454-69.602 0ZM4.1 42.879c-.473-4.698-.332-9.485.458-14.035.124-.715-.641-1.274-1.274-.919C1.89 28.71.63 29.41.383 29.526a2.902 2.902 0 0 1-.37.14.01.01 0 0 0-.003.006c-.006.05-.01.416-.01 3.093v14.453c0 1.84.026 2.98.26 3.718.186.586.594 1.014 1.377 1.559.73.507 2.042 1.272 3.427 2.046.68.38 1.471-.301 1.233-1.041A51.684 51.684 0 0 1 4.1 42.878Z" clip-rule="evenodd"/>
  <path fill="#E96E26" fill-rule="evenodd" d="M29.715 94.766c.325.992 7.118.277 16.082-3.368 8.965-3.644 16.082-9.919 15.481-10.749-.602-.83-9.15.83-17.929 4.427-8.781 3.601-13.818 9.275-13.633 9.69Z" clip-rule="evenodd"/>
</svg>
