<svg xmlns="http://www.w3.org/2000/svg" width="165" height="120" fill="none" viewBox="0 0 165 120">
  <path fill="#E3EEEE" d="M10.383 70.08c-1.894 0-3.56-.427-5-1.28a8.914 8.914 0 0 1-3.28-3.6C1.33 63.655.93 61.88.904 59.88l4.4-.24c.026 2.133.48 3.745 1.36 4.84.88 1.093 2.12 1.64 3.72 1.64 1.68 0 2.96-.573 3.84-1.72.906-1.145 1.36-2.8 1.36-4.96v-18.4h4.32v18.4c0 2.16-.4 4.04-1.2 5.64-.774 1.6-1.867 2.84-3.28 3.72-1.414.855-3.094 1.28-5.04 1.28Zm16.402-.64v-28.4h10.6c3.255 0 5.788.787 7.6 2.36 1.813 1.546 2.72 3.707 2.72 6.48 0 1.84-.412 3.44-1.24 4.8-.825 1.333-2.012 2.36-3.56 3.08-1.52.693-3.36 1.04-5.52 1.04h-6.28v10.64h-4.32Zm4.32-14.56h6.16c1.946 0 3.428-.413 4.44-1.24 1.015-.855 1.52-2.107 1.52-3.76 0-1.627-.507-2.84-1.52-3.64-1.012-.827-2.492-1.24-4.44-1.24h-6.16v9.88Zm15.873 14.56V64.4h5.16v5.04h-5.16Z"/>
  <path fill="#49BDE6" d="M65.533 70c-2.08 0-3.893-.413-5.44-1.24a8.954 8.954 0 0 1-3.6-3.44c-.855-1.493-1.28-3.24-1.28-5.24 0-1.973.373-3.707 1.12-5.2.745-1.52 1.773-2.707 3.08-3.56 1.333-.88 2.854-1.32 4.56-1.32 1.28 0 2.44.255 3.48.76a6.321 6.321 0 0 1 2.6 2.12c-.32 1.093-1.093 1.88-2.32 2.36-.88-1.2-2.093-1.8-3.64-1.8-1.546 0-2.8.587-3.76 1.76-.933 1.145-1.4 2.707-1.4 4.68 0 2.027.587 3.654 1.76 4.88 1.2 1.227 2.893 1.84 5.08 1.84.345 0 .627.173.84.52.24.32.36.733.36 1.24s-.133.907-.4 1.2c-.24.293-.587.44-1.04.44Zm.054 0a1.004 1.004 0 0 1-.878-.48c-.24-.32-.36-.733-.36-1.24 0-.533.133-.945.4-1.24a1.34 1.34 0 0 1 1.04-.44c1.626 0 3.106-.427 4.44-1.28 1.36-.88 2.466-2.08 3.32-3.6a12.44 12.44 0 0 1-.12-1.76c0-1.92.413-3.627 1.24-5.12a9.275 9.275 0 0 1 3.36-3.52c1.44-.88 3.053-1.32 4.84-1.32 1.786 0 3.386.44 4.8 1.32a8.98 8.98 0 0 1 3.32 3.52c.826 1.493 1.24 3.2 1.24 5.12s-.414 3.64-1.24 5.16a9.2 9.2 0 0 1-3.32 3.6c-1.387.855-2.987 1.28-4.8 1.28-1.707 0-3.24-.387-4.6-1.16a9.087 9.087 0 0 1-3.28-3.16 11.265 11.265 0 0 1-4.12 3.2c-1.6.746-3.36 1.12-5.28 1.12h-.002Zm17.242-3.44c1.706 0 3.066-.6 4.08-1.8 1.04-1.2 1.56-2.8 1.56-4.8 0-.987-.147-1.893-.44-2.72-1.6-.055-3.054-.373-4.36-.96-1.28-.587-2.294-1.387-3.04-2.4-1.067.454-1.907 1.227-2.52 2.32-.614 1.067-.92 2.345-.92 3.84 0 1.946.506 3.52 1.52 4.72 1.04 1.2 2.413 1.8 4.12 1.8ZM103.004 90c-2.24 0-3.853-.827-4.84-2.48-.986-1.654-1.48-3.933-1.48-6.84V56.6c-.96.24-1.96.44-3 .6-.94.152-1.889.232-2.84.24-.933 0-1.613-.12-2.04-.36-.426-.24-.64-.707-.64-1.4 0-.48.094-.827.28-1.04.187-.24.4-.36.64-.36h1.08c1.067 0 2.147-.093 3.24-.28a26.93 26.93 0 0 0 3.28-.8V39.44c0-1.44.107-2.745.32-3.92.24-1.2.654-2.227 1.24-3.08a5.801 5.801 0 0 1 1.84-1.76c.774-.454 1.734-.68 2.88-.68 2.08 0 3.68.933 4.8 2.8 1.12 1.867 1.68 4.507 1.68 7.92 0 2.48-.4 4.707-1.2 6.68-.773 1.973-1.853 3.64-3.24 5a14.46 14.46 0 0 1-4.76 3.12v7.44a3.256 3.256 0 0 1 1.52-1.12c1.84.56 3.414 1.84 4.72 3.84.907.587 1.84.88 2.8.88.347 0 .627.16.84.48.214.32.32.745.32 1.28 0 .507-.133.907-.4 1.2-.24.32-.586.48-1.04.48h-.52c.427 1.333.747 2.787.96 4.36.24 1.6.36 3.28.36 5.04 0 3.493-.586 6.133-1.76 7.92-1.146 1.787-2.826 2.68-5.04 2.68Zm-2.76-51.4V52c1.654-.933 3-2.373 4.04-4.32 1.067-1.973 1.6-4.307 1.6-7 0-2.4-.253-4.227-.76-5.48-.48-1.255-1.2-1.88-2.16-1.88-1.813 0-2.72 1.76-2.72 5.28Zm0 42.08c0 2 .227 3.507.68 4.52.454 1.013 1.214 1.52 2.28 1.52.987 0 1.747-.654 2.28-1.96.534-1.28.8-3.16.8-5.64 0-4.213-.573-7.6-1.72-10.16a15.646 15.646 0 0 1-2.48-1.32 9.215 9.215 0 0 1-1.84-1.6v14.64ZM121.32 90c-2.24 0-3.853-.827-4.84-2.48-.985-1.654-1.48-3.933-1.48-6.84V67.4c-.905.933-1.84 1.6-2.8 2-.933.4-1.985.6-3.16.6-.345 0-.625-.16-.84-.48-.213-.32-.32-.733-.32-1.24 0-.533.135-.945.4-1.24a1.186 1.186 0 0 1 1-.48c.935 0 1.855-.307 2.76-.92.907-.64 1.895-1.654 2.96-3.04V39.44c0-1.44.107-2.745.32-3.92.24-1.2.655-2.227 1.24-3.08a5.81 5.81 0 0 1 1.84-1.76c.775-.454 1.735-.68 2.88-.68 2.08 0 3.68.933 4.8 2.8 1.12 1.867 1.68 4.507 1.68 7.92 0 8.133-2.493 15.2-7.48 21.2 1.76.587 3.267 1.84 4.52 3.76.907.587 1.84.88 2.8.88.347 0 .627.16.84.48.215.32.32.745.32 1.28 0 .507-.133.907-.4 1.2-.24.32-.585.48-1.04.48h-.52c.427 1.333.747 2.787.96 4.36.24 1.6.36 3.28.36 5.04 0 3.493-.585 6.133-1.76 7.92-1.145 1.787-2.825 2.68-5.04 2.68Zm-2.76-51.4v19.96a28.298 28.298 0 0 0 4.16-8.32 31.257 31.257 0 0 0 1.48-9.56c0-2.4-.253-4.227-.76-5.48-.48-1.255-1.2-1.88-2.16-1.88-1.813 0-2.72 1.76-2.72 5.28Zm0 42.08c0 2 .227 3.507.68 4.52.455 1.013 1.215 1.52 2.28 1.52.987 0 1.747-.654 2.28-1.96.535-1.28.8-3.16.8-5.64 0-4.213-.573-7.6-1.72-10.16a15.741 15.741 0 0 1-2.48-1.32 9.246 9.246 0 0 1-1.84-1.6v14.64ZM127.32 70c-.347 0-.625-.16-.84-.48-.213-.32-.318-.733-.318-1.24 0-1.145.48-1.72 1.438-1.72a8.19 8.19 0 0 0 2.362-.36c.8-.267 1.733-.707 2.8-1.32-1.042-1.813-1.562-3.945-1.562-6.4 0-1.654.309-3.107.922-4.36.613-1.28 1.465-2.28 2.558-3A6.439 6.439 0 0 1 138.4 50c1.175 0 2.215.28 3.12.84a5.51 5.51 0 0 1 2.12 2.24c.509.96.762 2.067.762 3.32 0 1.707-.509 3.267-1.52 4.68-.987 1.413-2.667 2.945-5.04 4.6.853.613 2 .92 3.438.92.375 0 .667.16.882.48.213.32.318.746.318 1.28 0 .507-.12.907-.36 1.2-.24.293-.585.44-1.04.44a10.026 10.026 0 0 1-3.6-.64c-1.12-.427-2.053-1.013-2.8-1.76-2.558 1.6-5.014 2.4-7.36 2.4Zm7.36-11.84c0 2.107.375 3.787 1.122 5.04 1.733-1.2 3.013-2.373 3.838-3.52.855-1.145 1.282-2.24 1.282-3.28 0-.96-.242-1.707-.722-2.24-.453-.56-1.091-.84-1.918-.84-1.04 0-1.909.467-2.6 1.4-.667.933-1.002 2.08-1.002 3.44ZM141.056 70c-.345 0-.64-.16-.88-.48a1.884 1.884 0 0 1-.36-1.16c0-.56.133-.987.4-1.28a1.182 1.182 0 0 1 1-.48c1.255 0 2.52-.16 3.8-.48 1.255-.32 2.6-.893 4.04-1.72-.8-1.76-1.2-3.733-1.2-5.92 0-1.627.308-3.067.92-4.32.64-1.28 1.493-2.293 2.56-3.04a6.38 6.38 0 0 1 3.68-1.12c1.146 0 2.173.267 3.08.8a5.974 5.974 0 0 1 2.16 2.16c.533.907.8 1.933.8 3.08 0 1.707-.6 3.333-1.8 4.88-1.2 1.545-2.945 3-5.24 4.36 1.04.88 2.48 1.32 4.32 1.32.773 0 1.546-.107 2.32-.32.776-.214 1.527-.51 2.24-.88.4.293.693.733.88 1.32a4.6 4.6 0 0 1 .32 1.64c-.883.508-1.822.91-2.8 1.2a10.892 10.892 0 0 1-3.12.44h-.04a11.434 11.434 0 0 1-4.12-.72c-1.254-.507-2.28-1.2-3.08-2.08-3.412 1.867-6.707 2.8-9.88 2.8Zm10.24-11.64c0 1.76.32 3.173.96 4.24 3.546-2.055 5.32-4.24 5.32-6.56 0-.855-.227-1.52-.68-2-.454-.48-1.08-.72-1.88-.72-1.067 0-1.96.48-2.68 1.44-.692.933-1.04 2.133-1.04 3.6Z"/>
</svg>
