<?xml version="1.0" encoding="utf-8"?>
<!-- Generator: Adobe Illustrator 26.5.0, SVG Export Plug-In . SVG Version: 6.00 Build 0)  -->
<svg version="1.1" id="LOGO" xmlns="http://www.w3.org/2000/svg"
   xmlns:xlink="http://www.w3.org/1999/xlink" x="0px"
   y="0px" viewBox="0 0 792.29 780" style="enable-background:new 0 0 792.29 780;"
   xml:space="preserve">
   <style type="text/css">
      .st0 {
         fill-rule: evenodd;
         clip-rule: evenodd;
         fill: #E3EEEE;
      }

      .st1 {
         fill-rule: evenodd;
         clip-rule: evenodd;
         fill: #F2B883;
      }
   </style>
   <g>
      <path class="st0" d="M304.6,441.52c3.32,2.79,1.26,5.94-2.94,5.76c-4.3-0.18-13.47-0.45-21.73-5.92c-2.11-2.16-4.17-4.39-6.19-6.68
		c-10.61,6-35.57,22.71-55.57,55.97c-0.31,0.72-0.71,1.39-1.2,1.99c-17.92,30.72-31.46,75.12-26.26,137.56
		c3.62,43.5,19.56,74.71,41.1,96.02c27.2,26.91,63.4,38.33,95.05,38.88c26.65,0.47,48.38-9.82,62.74-24.82
		c5.99-6.25,10.68-13.3,13.87-20.67c11.83-27.28,5.44-69.09-31.09-72.54c-12.02-9.52-26.38-28.03-23.03-44.34
		c4.61-22.45,58.15-61.03,114.58-81.18c56.42-20.15,101.62-30.8,120.91-20.15c4.23,2.33,8.09,8.34,11.34,16.74
		c9.33-7.06,24.78-15.09,39.91-6.53c23.89,13.53,25.25,91.03-34.45,114.61c0.08,7.96-5.13,19.34-7.63,21.59
		c-4.93,2.55-13.02,7.39-19.75,14.42c-9.71,10.14-14.02,22.48-13.83,34.98c0.12,7.47,1.86,15.09,5.03,22.4
		c3.18,7.38,7.88,14.42,13.87,20.67c14.35,15,36.08,25.29,62.73,24.82c31.65-0.56,67.86-11.97,95.05-38.88
		c21.54-21.32,37.48-52.52,41.1-96.02c5.2-62.45-8.34-106.85-26.27-137.56c-0.48-0.6-0.88-1.27-1.18-1.99
		c-20.01-33.27-44.98-49.97-55.58-55.97c-2.16,2.44-4.35,4.82-6.61,7.12c-8.08,5.04-16.87,5.3-21.05,5.48
		c-5.35,0.23-5.75-3.66-2.25-6.53c2.22-1.81,4.41-3.71,6.57-5.7c12.62-11.61,23.59-25.73,32.84-41.61c0.19-0.4,0.41-0.78,0.65-1.13
		c2.61-4.55,5.08-9.24,7.41-14.06l0.36-0.75c13.73-28.62,22.46-61.6,25.87-95.38c6.08-60.36-4.89-122.97-34.96-167.57
		c-3.16-4.69-6.57-9.21-10.22-13.56C619.07,12.31,489.25,16.14,484.83,16.3l-0.1,0l-0.09,0l-0.12,0h-0.09l-0.12,0l-0.09,0l-0.12,0
		c-4.41-0.15-134.23-3.99-208.96,84.69c-3.66,4.35-7.07,8.87-10.23,13.56c-30.07,44.61-41.04,107.22-34.96,167.57
		c3.4,33.78,12.14,66.75,25.86,95.38l0.37,0.75c2.33,4.82,4.8,9.51,7.41,14.06c0.25,0.36,0.47,0.74,0.66,1.13
		c9.25,15.88,20.21,30,32.83,41.61c2.39,2.2,4.82,4.29,7.29,6.28l0.06,0.05L304.6,441.52L304.6,441.52z M602.24,539.85
		c3.64,18.3,5.17,40.51,3.5,61.04c36.77-26.83,31.06-65.97,14.22-66.8C615.21,533.85,608.9,536.24,602.24,539.85L602.24,539.85z
		 M217.78,462.63c17.07-21.75,34.97-34.63,45.46-41.01c-3.76-5.11-7.32-10.45-10.68-16h-19.88c-2.52,0-7.25,1.62-10.86,6.7
		c-2.7,3.8-4.67,9.55-4.67,18.06C217.16,441.35,217.45,452.88,217.78,462.63L217.78,462.63z M747.12,412.32
		c-3.62-5.07-8.35-6.7-10.86-6.7h-19.88c-3.36,5.55-6.92,10.89-10.68,16c10.49,6.38,28.39,19.26,45.45,41.01
		c0.34-9.75,0.63-21.28,0.63-32.25C751.79,421.87,749.81,416.12,747.12,412.32L747.12,412.32z M770.33,343.85L770.33,343.85
		L770.33,343.85z M754.99,283.83c-2.77,27.53-8.93,54.61-18.31,79.56c12.3-6.68,26.94-14.87,33.66-19.53l0.02-0.02
		c4.86-3.38,7.38-6.05,8.54-9.73c1.47-4.61,1.63-11.72,1.63-23.2v-90.2c0-17.8-0.03-19.21-0.07-19.34l-0.05-0.01
		c-0.72-0.23-1.44-0.47-2.27-0.86c-2.14-1.02-16.41-9.05-28.25-15.74C756.75,216.51,758.34,250.54,754.99,283.83L754.99,283.83z
		 M264.26,180.69c0,0-33.9,102.1,23.93,176.42c57.83,74.32,125.32,84.04,196.27,88.9c70.95-4.86,138.45-14.59,196.27-88.9
		c57.84-74.32,23.94-176.42,23.94-176.42C548.75,164.92,420.2,164.92,264.26,180.69L264.26,180.69z M213.95,283.83
		c-3.35-33.3-1.76-67.32,5.08-99.07c-11.83,6.7-26.1,14.73-28.23,15.74c-0.83,0.39-1.56,0.63-2.28,0.86l-0.04,0.01
		c-0.04,0.12-0.07,1.54-0.07,19.34v90.2c0,11.48,0.16,18.59,1.62,23.2c1.16,3.66,3.7,6.33,8.58,9.73
		c6.71,4.67,21.34,12.86,33.65,19.54C222.89,338.44,216.72,311.36,213.95,283.83L213.95,283.83z" />
      <path class="st1" d="M373.54,607.64c2.02,6.19,44.34,1.73,100.19-21.02c55.85-22.74,100.19-61.9,96.45-67.08
		c-3.75-5.18-57.01,5.18-111.7,27.63C403.77,569.64,372.39,605.05,373.54,607.64L373.54,607.64z" />
   </g>
</svg>