<svg xmlns="http://www.w3.org/2000/svg" width="414" height="207" fill="none" viewBox="0 0 414 207">
  <rect width="413.333" height="206.11" fill="url(#a)" rx="15"/>
  <rect width="412.333" height="205.11" x=".5" y=".5" stroke="url(#b)" stroke-opacity=".1" rx="14.5"/>
  <path fill="#383E42" d="M25.34 40.28c.34 1.8 1.6 3 3.68 3 1.68 0 2.8-.66 2.78-1.96 0-1.3-1.12-2.1-3.76-2.76-2.56-.62-4.62-1.8-4.62-4.08 0-2.46 2-4 4.88-4 3.08 0 5.16 1.92 5.46 4.62l-2.2.12c-.24-1.68-1.48-2.78-3.3-2.78-1.52 0-2.62.8-2.6 2.06 0 1.54 1.84 2 3.56 2.46 2.78.7 4.82 2.02 4.82 4.2 0 2.66-2.4 4.08-5.14 4.08-3.22 0-5.54-1.9-5.78-4.82l2.22-.14Zm10.953-9.48h2.12v8.84l4.7-5.24h2.74l-4.16 4.44 4.34 6.16h-2.46l-3.3-4.82-1.86 2.02V45h-2.12V30.8Zm12.188 3.6h2.12V45h-2.12V34.4Zm-.04-1.56v-2.02h2.22v2.02h-2.22Zm5.176-2.04h2.12v11.74c0 .48.26.72.72.72h.86V45h-1.32c-1.42 0-2.38-.92-2.38-2.36V30.8Zm5.957 0h2.12v11.74c0 .48.26.72.72.72h.86V45h-1.32c-1.42 0-2.38-.92-2.38-2.36V30.8Zm11.962 6.94c-.22-1.14-1.28-1.82-2.38-1.82-1.08 0-1.96.56-1.96 1.5.02.96 1.24 1.34 2.36 1.56 2.64.48 4.32 1.18 4.32 3.26s-2.08 3-4.34 3c-2.7 0-4.64-1.36-4.8-3.58l2.18-.14c.22 1.2 1.14 1.96 2.6 1.96.96 0 2.16-.34 2.16-1.34-.02-1.14-1.36-1.28-2.5-1.54-2.26-.48-4.18-1.1-4.18-3.12 0-2.06 1.68-3.32 4.32-3.32 2.3 0 4.06 1.34 4.4 3.46l-2.18.12Z"/>
  <path fill="#5B686E" d="M22 81.185V96.81h30.37V65.56H22v15.625Zm24.474-1.25a3.757 3.757 0 0 1 1.9 1.125c.281.302.526.637.728 1 0 .04-1.312.953-2.111 1.462-.03.02-.146-.11-.274-.307a1.749 1.749 0 0 0-.603-.63 1.688 1.688 0 0 0-.824-.252c-.92-.066-1.513.432-1.508 1.25-.008.203.037.405.13.585.202.432.579.69 1.76 1.214 2.174.963 3.105 1.598 3.683 2.5.646 1 .79 2.615.352 3.81-.486 1.3-1.676 2.183-3.36 2.476a9.044 9.044 0 0 1-2.313-.026 5.536 5.536 0 0 1-3.083-1.637c-.28-.317-.824-1.145-.79-1.205a2.13 2.13 0 0 1 .28-.182l1.117-.66.873-.52.182.277c.307.453.699.838 1.151 1.135.972.525 2.299.453 2.955-.155a1.387 1.387 0 0 0 .168-1.73c-.243-.347-.73-.64-2.087-1.25-1.567-.695-2.243-1.125-2.86-1.81a4.161 4.161 0 0 1-.833-1.563 6.427 6.427 0 0 1-.054-2c.323-1.557 1.458-2.644 3.115-2.967a7.487 7.487 0 0 1 2.306.065v-.005Zm-7.129 1.31v1.28h-3.943v11.557h-2.797v-11.56h-3.953v-1.25c-.01-.43.001-.86.034-1.29.015-.02 2.43-.03 5.346-.025h5.299l.014 1.288ZM64.37 66v30.37h30.37V66H64.37Zm16.065 25.878c-.448.911-1.304 1.51-2.296 1.799-1.523.35-2.98.15-4.065-.5-.725-.446-1.292-1.131-1.676-1.92l2.313-1.417c.02.009.08.118.162.26.295.495.55.845 1.05 1.09.49.168 1.569.275 1.985-.59.255-.44.174-1.853.174-3.417 0-2.457.01-4.905.01-7.334h2.846c0 2.672.014 5.203 0 7.811.006 1.599.144 3.024-.503 4.218Zm11.801-.803c-.989 3.382-6.502 3.492-8.705 1.257-.465-.526-.757-.8-1.035-1.408 1.17-.673 1.17-.673 2.31-1.332.619.95 1.191 1.474 2.22 1.688 1.397.17 2.802-.31 2.487-1.793-.324-1.211-2.86-1.506-4.585-2.801-1.752-1.177-2.163-4.036-.723-5.67.48-.604 1.298-1.055 2.157-1.272l.896-.115c1.72-.035 2.795.42 3.585 1.3.22.223.399.463.734.983-.916.584-.914.579-2.226 1.429-.28-.604-.746-.983-1.238-1.148-.763-.231-1.726.02-1.925.827-.07.248-.055.48.055.89.31.706 1.347 1.012 2.278 1.44 2.68 1.087 3.585 2.253 3.808 3.64.214 1.194-.052 1.969-.093 2.085Zm29.69 5.295a2.45 2.45 0 0 1-1.172-.307l-3.711-2.204c-.558-.307-.279-.419-.111-.474.753-.252.892-.307 1.674-.754.083-.056.195-.028.279.028l2.846 1.702c.111.056.251.056.334 0l11.133-6.445c.112-.056.167-.167.167-.307V74.747c0-.14-.055-.251-.167-.307l-11.133-6.417c-.111-.056-.251-.056-.334 0l-11.133 6.417c-.111.056-.167.195-.167.307v12.862c0 .112.056.251.167.307l3.041 1.758c1.647.837 2.679-.14 2.679-1.116V75.863c0-.168.139-.335.335-.335h1.423a.34.34 0 0 1 .334.335v12.695c0 2.204-1.199 3.487-3.292 3.487-.642 0-1.144 0-2.567-.697l-2.929-1.674a2.354 2.354 0 0 1-1.172-2.037V74.775c0-.837.446-1.618 1.172-2.037l11.132-6.445a2.491 2.491 0 0 1 2.344 0l11.132 6.445a2.354 2.354 0 0 1 1.172 2.037v12.862c0 .837-.446 1.618-1.172 2.037l-11.132 6.445a2.856 2.856 0 0 1-1.172.251m3.432-8.845c-4.883 0-5.887-2.232-5.887-4.129a.34.34 0 0 1 .334-.335h1.451c.168 0 .307.112.307.28.223 1.478.865 2.204 3.823 2.204 2.343 0 3.348-.53 3.348-1.786 0-.725-.279-1.256-3.934-1.618-3.041-.307-4.939-.977-4.939-3.404 0-2.26 1.897-3.6 5.078-3.6 3.571 0 5.329 1.228 5.552 3.907a.447.447 0 0 1-.083.25c-.056.056-.14.112-.223.112h-1.451a.327.327 0 0 1-.307-.25c-.335-1.535-1.2-2.038-3.488-2.038-2.567 0-2.874.893-2.874 1.563 0 .81.363 1.06 3.823 1.507 3.432.446 5.05 1.088 5.05 3.487-.028 2.455-2.037 3.85-5.58 3.85Zm38.938-3.575a2.765 2.765 0 1 0 0-5.53 2.765 2.765 0 0 0 0 5.53Z"/>
  <path fill="#5B686E" d="M174.8 76.625a27.147 27.147 0 0 0-1.674-.558 24.71 24.71 0 0 0 .364-1.722c.509-3.203-.049-5.458-1.601-6.332-.461-.267-.97-.388-1.553-.388-1.698 0-3.857 1.262-6.04 3.372-2.183-2.11-4.342-3.372-6.04-3.372-.582 0-1.091.121-1.552.388-1.553.898-2.111 3.154-1.601 6.331.097.558.218 1.14.364 1.723-.582.17-1.14.34-1.674.558-3.032 1.164-4.682 2.765-4.682 4.56 0 1.795 1.674 3.396 4.682 4.56a27.35 27.35 0 0 0 1.674.558 24.07 24.07 0 0 0-.364 1.722c-.51 3.203.048 5.458 1.601 6.332.461.267.97.388 1.552.388 1.723 0 3.881-1.262 6.04-3.372 2.183 2.11 4.342 3.372 6.04 3.372.583 0 1.092-.121 1.553-.388 1.552-.898 2.11-3.154 1.601-6.332a24.63 24.63 0 0 0-.364-1.722c.582-.17 1.14-.34 1.674-.558 3.032-1.164 4.681-2.765 4.681-4.56 0-1.795-1.649-3.396-4.681-4.56Zm-3.59-7.399c.994.582 1.334 2.377.921 4.924-.072.51-.194 1.043-.339 1.601a28.84 28.84 0 0 0-4.003-.606 34.87 34.87 0 0 0-2.522-3.153c1.795-1.771 3.614-2.984 5.094-2.984.315 0 .606.073.849.218Zm-2.717 14.385a30.988 30.988 0 0 1-1.48 2.328c-.897.073-1.795.098-2.717.098-.946 0-1.843-.025-2.717-.098a30.86 30.86 0 0 1-1.455-2.328c-.461-.8-.897-1.626-1.286-2.426.389-.8.825-1.625 1.286-2.426.437-.776.946-1.552 1.48-2.328a33.468 33.468 0 0 1 2.717-.097c.946 0 1.843.024 2.716.097a30.58 30.58 0 0 1 1.456 2.328c.461.8.897 1.626 1.285 2.426-.412.8-.824 1.601-1.285 2.426Zm2.013-.8c.364.848.655 1.673.922 2.498a26.31 26.31 0 0 1-2.62.46c.291-.46.607-.945.873-1.455.291-.51.558-1.019.825-1.504Zm-6.21 6.573a27.09 27.09 0 0 1-1.673-2.013c.557.024 1.115.048 1.673.048s1.116-.024 1.674-.048a27.377 27.377 0 0 1-1.674 2.013Zm-4.512-3.639a26.664 26.664 0 0 1-2.619-.46c.267-.801.558-1.65.921-2.499.267.485.534.995.825 1.48.291.533.582.994.873 1.48Zm-1.698-6.185a28.949 28.949 0 0 1-.921-2.499c.824-.194 1.698-.34 2.619-.46-.291.46-.606.945-.873 1.455-.291.51-.558 1.019-.825 1.504Zm6.21-6.574c.582.63 1.14 1.31 1.674 2.013-.558-.024-1.116-.048-1.674-.048-.558 0-1.116.024-1.673.048a27.158 27.158 0 0 1 1.673-2.013Zm5.385 5.094-.873-1.455c.922.12 1.795.266 2.62.46-.267.801-.558 1.65-.922 2.499a29.67 29.67 0 0 0-.825-1.504Zm-13.22-3.93c-.412-2.547-.073-4.342.922-4.924.243-.145.534-.218.849-.218 1.455 0 3.275 1.189 5.094 2.984a31.923 31.923 0 0 0-2.523 3.153c-1.407.121-2.741.34-4.002.606-.146-.558-.243-1.091-.34-1.6Zm-5.991 7.035c0-1.14 1.382-2.353 3.808-3.25a14.543 14.543 0 0 1 1.553-.51 35.366 35.366 0 0 0 1.455 3.784c-.582 1.286-1.092 2.547-1.455 3.76-3.348-.97-5.361-2.426-5.361-3.784Zm6.913 11.959c-.995-.582-1.334-2.377-.922-4.924.073-.51.194-1.043.34-1.601 1.261.29 2.595.485 4.002.606a35.047 35.047 0 0 0 2.523 3.154c-1.795 1.77-3.614 2.983-5.094 2.983a1.64 1.64 0 0 1-.849-.218Zm14.748-4.924c.413 2.547.073 4.342-.921 4.924a1.64 1.64 0 0 1-.849.218c-1.456 0-3.275-1.188-5.094-2.983a31.784 31.784 0 0 0 2.522-3.154 32.994 32.994 0 0 0 4.003-.606c.145.558.242 1.091.339 1.6Zm2.184-3.784c-.486.193-1.019.363-1.553.509a35.357 35.357 0 0 0-1.455-3.784c.582-1.286 1.091-2.547 1.455-3.76 3.348.97 5.361 2.426 5.361 3.784 0 1.14-1.407 2.353-3.808 3.25ZM206.667 66a15.185 15.185 0 1 0 0 30.37c3-.006 5.932-.9 8.425-2.572l-12.456-16.091v9.547h-2.043V75.11h2.555l13.553 17.459a15.188 15.188 0 0 0 5.151-11.385A15.184 15.184 0 0 0 206.667 66Zm4.218 9.111h2.024v11.573l-2.024-2.659v-8.914Z"/>
  <path fill="#25292C" d="m240.02 68.228 5.458.002 3.567 5.921 3.555-5.92 5.453-.002-8.981 15.577-9.052-15.578Z"/>
  <path fill="#5B686E" d="m234.068 68.27 5.948-.041 9.051 15.578 8.981-15.578 5.958.007-14.939 25.638-14.999-25.605Zm51.471 23.585-.067-.135c-.135-.27-.135-.538-.067-.875h-7.27l10.77-19.118 4.511 8.145 1.48-1.077-4.51-8.145c-.067-.135-.606-.943-1.481-.943-.404 0-1.01.135-1.481 1.01l-10.905 19.32c-.067.202-.539 1.077-.135 1.818.269.403.673.808 1.616.808h9.155c-.943 0-1.414-.404-1.616-.808Zm20.734-1.75-8.751-15.753c-.135-.135-.606-1.01-1.481-1.01-.404 0-1.01.202-1.481 1.01l-1.145 1.885v3.635l2.626-4.51 8.684 15.483h-3.299c.055.32.008.65-.135.942l-.067.067c-.404.74-1.414.808-1.549.808h5.117c.202 0 1.144-.067 1.615-.808.202-.336.337-.942-.134-1.75Zm-4.78 1.75v-.068l.068-.134c.067-.27.134-.539.067-.808l-.269-.808-6.867-11.982-1.01-1.818h-.067l-1.01 1.818-6.866 11.982-.269.808c-.066.342-.018.697.134 1.01.27.403.673.808 1.616.808h12.79c.202 0 1.212-.068 1.683-.808Zm-8.078-11.983 6.261 10.973h-12.521l6.26-10.973Zm45.901-1.17.758-2.324a.077.077 0 0 1 .016-.028.107.107 0 0 1 .026-.02.08.08 0 0 1 .032-.006c.011 0 .021.002.031.006l8.735 3.65a.08.08 0 0 1 .049.071l-.003 2.434c0 .015-.005.03-.014.043a.08.08 0 0 1-.035.028l-8.734 3.648a.078.078 0 0 1-.063 0 .075.075 0 0 1-.026-.02.067.067 0 0 1-.016-.029l-.756-2.323a.079.079 0 0 1 .004-.058.077.077 0 0 1 .043-.04l6.214-2.394a.08.08 0 0 0 .037-.12.078.078 0 0 0-.037-.028l-6.214-2.392a.08.08 0 0 1-.047-.098Zm-17.355 2.632 6.227 2.403a.072.072 0 0 1 .044.09l-.763 2.33a.068.068 0 0 1-.04.044.07.07 0 0 1-.058 0l-8.733-3.645a.071.071 0 0 1-.034-.028.068.068 0 0 1-.011-.04v-2.442a.067.067 0 0 1 .011-.041.07.07 0 0 1 .034-.027l8.735-3.648a.07.07 0 0 1 .083.018.086.086 0 0 1 .016.026l.762 2.333a.073.073 0 0 1-.004.054.072.072 0 0 1-.04.037l-6.229 2.398a.076.076 0 0 0-.035.027.078.078 0 0 0-.013.042c0 .015.005.03.013.042a.076.076 0 0 0 .035.027Zm6.833 9.62 6.866-19.592a.079.079 0 0 1 .076-.052h2.95a.078.078 0 0 1 .077.069.068.068 0 0 1-.004.037l-6.833 19.592a.076.076 0 0 1-.028.037.08.08 0 0 1-.045.015h-2.986a.074.074 0 0 1-.036-.01.086.086 0 0 1-.042-.06.078.078 0 0 1 .005-.036Z"/>
  <path fill="#333" d="M378.709 73.803c0-.284.018-.302.302-.302.285 0 .302.017.302.302s-.017.302-.302.302c-.284 0-.302-.017-.302-.302Zm-2.416-1.553c0-.285.017-.302.302-.302s.302.017.302.302-.017.302-.302.302-.302-.017-.302-.302Z"/>
  <path fill="url(#c)" d="M385.017 95.852c.734-1.079 1.157-2.52.95-3.262-.138-.51-.579-.923-1.122-1.053-.872-.207-1.864.104-5.014 1.588-1.786.846-3.21 1.355-4.358 1.57-.889.165-3.176.139-4.013-.051-2.002-.44-3.944-1.294-4.703-2.071-.432-.44-.432-.44-.432-2.14 0-1.338.035-1.839.156-2.365.155-.673.155-.673.457-.673.225 0 .294.035.294.155.008.121.043.104.198-.077 1.225-1.459 1.571-1.856 1.614-1.89.026-.026.362-.414.733-.863.665-.803.673-.82.449-.846-.198-.026-.233-.069-.233-.328 0-.207.043-.293.129-.293.07 0 .13-.035.13-.078 0-.095.846-.466 1.562-.682.707-.215 2.149-.388 2.641-.31.345.051.371.069.362.328 0 .224-.069.31-.397.526a2.86 2.86 0 0 0-.621.561c-.251.337-.199.31.517-.276.631-.51 2.218-1.545 2.961-1.925.673-.345.673-.345.629-1.25-.025-.501-.112-1.123-.189-1.382a7.238 7.238 0 0 1-.19-.794c-.043-.328-.043-.328.259-.328.19 0 .319.052.354.13.034.086-.009.13-.13.13-.138 0-.164.034-.121.155.156.414.302 1.277.354 2.114.035.51.069.923.078.923.008 0 .448-.155.984-.345 1.57-.56 3.098-.742 4.375-.509.673.12 2.192.613 2.192.708 0 .052-.216.06-.501.026-1.001-.112-.811.043.647.535 1.433.491 1.433.491 1.856 1.121 1.294 1.916 1.855 4.29 1.631 6.904-.052.587-.078 1.096-.052 1.14.026.034-.026.155-.112.267-.086.112-.268.483-.397.811-.587 1.484-1.717 3.003-2.9 3.883-.285.216-1.234.734-1.337.734-.026 0 .112-.233.31-.518Zm3.746-10.45c-.182-.708-1.079-2.563-1.269-2.65-.043-.017-.069-.077-.069-.13 0-.06-.086-.155-.19-.224-.311-.198-2.571-.957-3.037-1.026-.441-.06-.441-.06-.441-.423s0-.363-.552-.423c-.785-.087-1.924.008-2.684.224-.802.225-1.993.69-1.95.768.069.104 1.795.906 2.373 1.105.216.069.829.32 1.346.56 1.217.544 1.234.553 2.762 1.192a75.2 75.2 0 0 1 1.64.69c.189.086.655.276 1.035.432.38.146.785.319.906.38.121.06.225.103.242.086.017-.01-.035-.26-.112-.561Z"/>
  <path fill="#666" d="M362.831 86.195c-.095-.18-.121-1.561-.035-1.88.035-.113.112-.2.173-.2.094 0 .12.225.12 1.123 0 1.096-.06 1.32-.258.957Zm.043-2.649c.138-1.148.802-3.21 1.061-3.296.181-.06.121.423-.155 1.113-.259.673-.604 2.063-.604 2.45 0 .165-.043.216-.182.216-.172 0-.181-.025-.12-.483Zm1.251-3.823c0-.043.198-.37.431-.733a6.477 6.477 0 0 1 1.933-1.847c.518-.32.518-.32.216-.371-.164-.035-.224-.06-.138-.07.078 0 .147-.068.147-.137 0-.095.095-.13.345-.13.337 0 .345.009.345.302 0 .216-.043.328-.147.363a.944.944 0 0 0-.267.172.415.415 0 0 1-.242.113c-.069 0-.12.043-.12.086 0 .052-.052.086-.121.086s-.138.06-.173.13c-.026.069-.129.13-.224.13s-.173.05-.173.111c0 .138-.707.837-.845.837-.061 0-.104.078-.104.173 0 .095-.035.172-.086.172-.044 0-.087.06-.087.13 0 .069-.034.13-.078.13-.043 0-.103.094-.129.215-.043.156-.112.216-.267.216-.121 0-.216-.035-.216-.078Zm15.447-1.959c0-.138.104-.19.587-.267.742-.13 1.674-.388 1.795-.5.052-.044.302-.182.561-.303.259-.12.483-.241.492-.276.017-.043.069-.069.112-.069s.147-.069.233-.155c.129-.13.138-.182.052-.26a.466.466 0 0 0-.294-.103c-.095 0-.172-.034-.172-.086 0-.043-.078-.086-.164-.086-.259 0-.44-.095-.44-.225 0-.069-.087-.12-.208-.12-.12 0-.267-.052-.327-.121a.912.912 0 0 0-.311-.173c-.104-.034-.19-.12-.19-.19 0-.069-.069-.12-.155-.12-.173 0-.622-.423-.622-.587 0-.06-.034-.104-.086-.104-.043 0-.086-.112-.086-.259 0-.155-.043-.259-.112-.259-.104 0-.492-1.122-.492-1.424 0-.069-.035-.13-.078-.13s-.147-.172-.242-.388c-.086-.215-.181-.388-.215-.388-.044 0-.069-.077-.069-.172 0-.095-.052-.173-.113-.173-.138 0-.578-.449-.578-.587 0-.06-.077-.104-.172-.104-.095 0-.173-.034-.173-.068 0-.035-.138-.121-.302-.182-.164-.06-.302-.164-.302-.233 0-.077-.095-.12-.259-.12-.138 0-.259-.026-.259-.07 0-.034-.198-.112-.449-.172-.509-.12-.931-.466-.931-.76 0-.138-.061-.207-.19-.224-.13-.017-.208-.095-.225-.215-.017-.113-.086-.2-.155-.2s-.121-.06-.121-.129-.034-.13-.086-.13c-.043 0-.087-.077-.087-.172 0-.259.285-.215.449.07.268.457 1.183 1.38 1.424 1.432.138.035.604.233 1.044.449 1.407.681 2.08 1.553 2.641 3.417.19.622.293.829.656 1.225.483.527 1.432 1.114 2.451 1.528.362.147.656.31.656.362 0 .207-.751.777-1.493 1.13-.829.398-1.77.691-2.538.795-.414.052-.457.043-.457-.104Zm-14.153-1.052c0-.044.13-.225.285-.415.156-.181.466-.587.682-.906.216-.31.457-.613.535-.673.121-.103.138-.078.138.207 0 .242-.043.328-.173.363-.095.026-.172.12-.172.207 0 .095-.035.164-.086.164-.044 0-.087.06-.087.13 0 .068-.034.129-.086.129-.043 0-.086.06-.086.13 0 .068-.078.128-.173.128-.129 0-.173.06-.173.216 0 .121-.069.25-.163.302-.208.104-.441.112-.441.017Zm1.985-2.443c.363-.319 1.139-.854 1.226-.854.043 0 .069.095.069.216 0 .138-.052.216-.13.216-.069 0-.129.043-.129.086 0 .051-.061.086-.13.086s-.129.043-.129.086c0 .052-.095.087-.216.087-.155 0-.216.043-.216.172 0 .147-.06.173-.319.173-.328-.009-.328-.009-.026-.268Z"/>
  <path fill="#666" d="M377.449 73.976c-.94-.475-1.45-1.312-1.191-1.976.087-.233.587-.182.725.069.147.276.665.638 1.536 1.078.708.354.708.354.708.7 0 .345 0 .345-.673.345-.544 0-.751-.043-1.105-.216Zm-8.664-.561c0-.043.121-.147.259-.216.285-.146.293-.13-.138-.733a6.569 6.569 0 0 1-.82-1.614c-.155-.458-.155-.458.052-.458.164 0 .215.07.31.432.061.242.138.432.173.432.034 0 .129.172.224.388.087.216.182.388.225.388.034 0 .06.06.06.13 0 .069.043.13.086.13.052 0 .087.077.087.172 0 .095.06.172.129.172.086 0 .13.095.13.302 0 .164-.035.302-.087.302-.043 0-.086.06-.086.13 0 .086-.095.13-.302.13-.164 0-.302-.035-.302-.087Zm19.374-1.83c-.432-.457-.432-.457.026-.025.241.233.448.44.448.448 0 .07-.077-.008-.474-.422Z"/>
  <path fill="url(#d)" d="M366.507 92.323c-.32-.354-.415-2.348-.182-3.789.596-3.676 3.867-6.403 7.689-6.403.812 0 .812 0 .812.302 0 .207-.061.354-.19.457-.509.415-.846.734-.846.82 0 .052.061.009.138-.095.069-.103.182-.19.233-.19.061 0 .156-.077.216-.172.06-.095.138-.173.19-.173.043 0 .181-.095.311-.215.129-.121.284-.216.345-.216.069 0 .121-.035.121-.078 0-.138 2.545-1.648 2.778-1.648.035 0 .069.06.069.13 0 .172.061.163.743-.113 1.346-.552 1.933-.664 3.529-.664 1.458.008 1.476.008 2.373.319.906.31.906.31.017.32-.914.008-1.121.12-.388.206.233.026 1.001.25 1.709.51 1.294.457 1.294.457 1.622.931.544.794 1.079 1.977 1.312 2.926.121.492.207.958.19 1.035-.035.113-.043.113-.052-.017 0-.086-.052-.13-.104-.103-.043.034-.284-.035-.535-.156-.374-.176-.754-.34-1.139-.492a23.51 23.51 0 0 1-1.035-.431c-.19-.086-.924-.397-1.64-.69-1.527-.639-1.545-.648-2.761-1.191a15.86 15.86 0 0 0-1.347-.561c-.379-.13-.992-.406-2.097-.94-.276-.13-.561-.243-.63-.243-.077 0-.112-.051-.086-.12.035-.087.009-.112-.069-.078-.069.026-.103.086-.069.138.026.052.009.06-.052.026-.207-.13-2.338 1.269-3.883 2.563-.389.32-.716.578-.742.578-.052 0 .034-.466.138-.837.129-.423.561-.958.992-1.225.38-.25.38-.25.13-.285-.725-.104-2.909.354-2.822.595.026.06.017.112-.026.112-.035 0-.242.242-.449.536-.337.483-1.579 2.028-1.717 2.14-.026.026-.276.319-.561.647-1.631 1.95-1.925 2.235-1.951 1.881-.008-.086-.06.095-.129.406-.147.708-.147 2.27 0 3.09.061.336.078.62.052.62-.035 0-.121-.068-.207-.163Z"/>
  <path fill="#999" d="M362.874 83.753c.12-.906.405-2.019.733-2.873.354-.898 1.053-2.114 1.381-2.417.181-.163.181-.163.155.173-.017.285-.06.354-.216.37-.155.027-.198.087-.198.286 0 .164-.043.25-.13.25-.069 0-.129.078-.129.173 0 .207-.354.949-.449.949-.034 0-.069.095-.069.216 0 .12-.034.215-.086.215-.043 0-.086.06-.086.13 0 .069-.104.466-.225.88-.12.423-.259 1.061-.319 1.433-.078.56-.121.664-.259.664-.147 0-.155-.043-.103-.449Zm14.972-4.15c0-.156-.078-.579-.172-.933-.095-.353-.173-.742-.173-.871 0-.242 0-.242.647-.242.587 0 .647.017.647.173 0 .155-.06.172-.517.172-.501 0-.518.009-.432.173.104.19.345 1.363.345 1.648 0 .104-.06.164-.172.164-.138 0-.173-.06-.173-.285Zm-12.168-1.83c.061-.07.389-.31.725-.535.227-.145.452-.295.673-.449.035-.034-.198-.043-.526-.026-.527.035-.604.018-.639-.12-.034-.147-.043-.147-.052-.01-.008.096-.077.148-.224.148-.259 0-.25-.026.216-.63.164-.225.336-.406.379-.406.035 0 .052.155.035.345-.035.345-.035.345.596.345.63 0 .63 0 .63.302 0 .208-.044.302-.13.302-.069 0-.129.044-.129.087 0 .051-.095.086-.216.086-.138 0-.216.052-.216.13 0 .069-.06.129-.129.129s-.13.043-.13.086c0 .052-.077.086-.172.086-.095 0-.173.06-.173.13 0 .095-.095.13-.311.13-.267 0-.302-.018-.207-.13Zm13.549-.017c0-.156.078-.181.595-.233.63-.052 2.218-.527 2.408-.716.06-.061.233-.113.371-.113.164 0 .25-.043.25-.13 0-.068.061-.129.13-.129s.129-.034.129-.086c0-.043.078-.086.173-.086.095 0 .172-.052.172-.121s-.077-.155-.172-.181c-.095-.026-.173-.095-.173-.138 0-.044-.095-.078-.216-.078-.138 0-.215-.052-.215-.13 0-.077-.078-.129-.207-.129-.302 0-.484-.086-.484-.224 0-.07-.086-.121-.215-.121-.13 0-.216-.052-.216-.12 0-.079-.104-.139-.233-.156-.207-.026-.25-.07-.268-.32-.034-.302-.034-.302.259-.077.466.354 1.321.82 2.011 1.113.354.147.665.293.69.337.095.146-.664.733-1.467 1.13-.923.449-1.812.716-2.744.811-.535.06-.578.052-.578-.103Zm-12.755-2.46c.354-.518 1.07-1.173 1.752-1.614.371-.241.716-.44.777-.44.06 0 .155-.06.215-.13.078-.094.061-.18-.112-.405-.535-.699-1.26-2.287-1.139-2.485.026-.052.104-.086.173-.086.129 0 .474.94.474 1.311 0 .182.044.242.173.242.112 0 .19.078.224.216.026.12.087.216.13.216.043 0 .078.06.078.13 0 .068.043.129.086.129.051 0 .086.077.086.172 0 .095.052.173.121.173.146 0 .224.19.224.526 0 .207-.034.25-.216.25-.215 0-.845.26-.888.371-.018.035-.087.06-.156.06s-.12.044-.12.087c0 .052-.052.086-.121.086s-.138.06-.173.13c-.026.069-.129.13-.224.13s-.173.051-.173.111c0 .164-.544.665-.716.665-.095 0-.147.069-.147.216 0 .181-.043.215-.267.215-.259 0-.259 0-.061-.276Zm11.529-1.078c-.138-.018-.241-.078-.241-.121s-.095-.078-.216-.078-.216-.035-.216-.086c0-.043-.06-.087-.129-.087s-.13-.034-.13-.086c0-.043-.051-.086-.112-.086-.121 0-.492-.38-.492-.51 0-.043-.043-.094-.103-.111-.052-.018-.112-.268-.138-.57-.035-.535-.035-.535.362-.535.285 0 .397.034.397.12 0 .07.061.139.13.173a.208.208 0 0 1 .129.182c0 .069.078.13.173.13.095 0 .172.034.172.077s.095.103.216.13c.155.042.216.111.216.267 0 .12-.035.215-.078.215-.164 0-1.105-.699-1.217-.906-.181-.336-.302-.051-.138.328.259.639 1.243 1.269 1.959 1.269.518 0 .587-.104.207-.285-.371-.173-.388-.32-.043-.32.457 0 .69.165.69.493 0 .258-.025.284-.258.284-.139 0-.259.043-.259.087 0 .086-.415.095-.881.026Zm2.434-.121c0-.052-.06-.147-.129-.216a.58.58 0 0 1-.13-.337c0-.112-.026-.215-.069-.233-.095-.043-.449-1.208-.449-1.484 0-.475.216-.164.527.742.164.51.405 1.079.535 1.269.233.354.233.354-.026.354-.138 0-.259-.043-.259-.095Zm-1.208-2.874c0-.069-.043-.138-.095-.155-.052-.017-.078-.164-.06-.328.025-.302.025-.302.31.078.337.457.345.526.061.526-.13 0-.216-.052-.216-.12Zm-1.036-1.087c0-.043-.06-.087-.129-.087s-.13-.077-.13-.172c0-.13-.06-.173-.233-.173-.12 0-.509-.103-.854-.233-.526-.198-.638-.276-.638-.431 0-.199 0-.199.629.025.656.242 1.683.803 1.873 1.019.095.12.069.138-.207.138-.173 0-.311-.035-.311-.086Zm-6.714-1.433c-.215-.147-.259-.38-.069-.38.069 0 .138-.06.173-.13.026-.068.095-.129.155-.129.061 0 .216-.06.354-.12.129-.07.233-.095.233-.06 0 .042.224.103.501.129.267.026.794.103 1.165.155.664.104.664.104.664.388 0 .285 0 .285-1.493.285-1.208 0-1.527-.026-1.683-.138Zm4.013-.095c-.034-.026-.06-.147-.06-.259 0-.146-.052-.198-.181-.198a.231.231 0 0 1-.225-.173c-.026-.095-.077-.172-.121-.172-.043 0-.077-.112-.077-.26 0-.137.034-.258.069-.258.043 0 .267.242.5.535.716.915.682.846.397.846-.138 0-.276-.026-.302-.06Z"/>
  <path fill="#484848" d="M366.515 92.314c-.12-.138-.259-.259-.293-.259-.155 0-.604-.578-.742-.95-.311-.862-.406-1.5-.406-2.847 0-2.02.363-3.443 1.329-5.212.872-1.605 2.486-3.418 3.815-4.298.931-.621 2.304-1.251 3.27-1.51.76-.199 1.036-.225 2.287-.233 1.148 0 1.476.026 1.683.138.397.207 1.294.414 1.821.414.345 0 .466.035.466.121 0 .19-.44.25-1.269.181-.708-.06-.742-.06-.682.095.208.527.328 1.243.372 2.2.051 1.088.051 1.088-.717 1.494a19.506 19.506 0 0 0-3.081 2.071c-1.32 1.07-1.268 1.035-1.268.897 0-.604.561-1.51 1.165-1.881.164-.103.302-.224.302-.267 0-.121-1.027-.095-1.795.051-3.159.605-5.678 3.159-6.188 6.274-.198 1.226-.138 2.865.139 3.512.129.302.043.311-.208.009Zm-3.598-5.946c-.138-.267-.104-.44.086-.44.138 0 .173.06.173.302 0 .337-.121.397-.259.138Zm-.086-1.968c0-.44.25-1.794.474-2.554.259-.889.682-1.872.811-1.872.173 0 .095.448-.207 1.2-.362.905-.63 1.992-.708 2.838-.043.527-.077.622-.207.622-.12 0-.163-.06-.163-.234Zm1.294-4.565c0-.12.535-.966.811-1.285.302-.346.302-.346.311-.018 0 .26-.026.32-.173.32-.129 0-.172.06-.172.215 0 .139-.052.216-.13.216-.069 0-.129.078-.129.164 0 .302-.104.44-.311.44-.112 0-.207-.026-.207-.052Zm1.432-1.941c.087-.104.51-.415.932-.69.63-.415.734-.51.544-.51-.129 0-.233-.034-.233-.077 0-.104.225-.182.527-.182.224 0 .25.026.25.294 0 .302-.112.397-.44.397-.087 0-.164.06-.164.13 0 .068-.061.129-.13.129s-.129.043-.129.086c0 .052-.061.086-.13.086s-.129.043-.129.086c0 .052-.069.087-.164.087-.086 0-.181.077-.207.172-.035.138-.121.173-.371.173-.319 0-.319 0-.156-.181Zm14.36-.233c0-.173.328-.276.889-.276.13 0 .233-.035.233-.087 0-.043.121-.086.259-.086.147 0 .259-.035.259-.086 0-.043.095-.087.216-.087s.215-.034.215-.086c0-.043.121-.086.259-.086.164 0 .259-.043.259-.121 0-.138.181-.224.483-.224.147 0 .208-.052.208-.173 0-.13.06-.173.224-.173.198 0 .207-.017.086-.129-.069-.07-.172-.13-.233-.13-.069 0-.285-.06-.483-.138-.25-.103-.371-.198-.371-.301 0-.13-.069-.164-.302-.164-.207 0-.302-.044-.302-.13 0-.078-.078-.13-.216-.13-.172 0-.216-.043-.216-.215 0-.12.018-.216.044-.216.025 0 .345.173.716.38.362.216.923.492 1.251.621.319.13.578.285.578.345 0 .19-.699.717-1.415 1.062-.716.345-1.622.638-2.27.742-.327.052-.371.043-.371-.112Zm-14.411-.967c0-.043.103-.207.241-.362.13-.156.38-.5.561-.768.182-.268.406-.561.492-.639.173-.155.173-.147.173.164 0 .25-.035.337-.173.371-.095.026-.172.121-.172.207 0 .095-.035.164-.078.164s-.104.095-.13.216c-.043.155-.112.216-.267.216-.121 0-.216.043-.216.086 0 .052.121.086.259.086.311 0 .354.216.069.294-.302.078-.759.06-.759-.035Zm1.812-2.287c0-.077 1.079-.837 1.484-1.044.25-.12.466-.181.561-.147.147.06.147.052.009-.146-.829-1.174-1.347-2.261-1.424-2.977a50.58 50.58 0 0 1-.078-1.52c-.043-1.182-.043-1.182.803-1.018.863.156 1.985.475 2.14.596.052.043.242.095.432.13.189.034.396.103.457.155.06.043.19.095.302.103.103.009.241.026.302.035.198.017.103.233-.173.397-.19.112-.5.172-.975.198-.604.035-.777.009-1.251-.181-.302-.13-.561-.216-.578-.199-.043.044.776 1.226 1.311 1.907.354.45.475.674.475.88 0 .268-.017.286-.311.286-.362 0-.586.103-.958.457-.276.259-.371.492-.198.492.052 0 .086.13.086.293 0 .25-.034.311-.267.389a1.916 1.916 0 0 1-.475.095c-.129 0-.207.051-.207.129 0 .07-.06.13-.13.13-.069 0-.129.043-.129.086 0 .051-.06.086-.129.086-.07 0-.13.043-.13.086 0 .052-.078.087-.172.087-.095 0-.173.06-.173.13 0 .085-.095.129-.302.129-.164 0-.302-.018-.302-.043Zm10.468-.224c-.156-.043-.285-.12-.285-.164 0-.052-.078-.086-.173-.086-.094 0-.172-.035-.172-.087 0-.043-.061-.086-.13-.086-.086 0-.129-.086-.129-.259 0-.233-.026-.259-.259-.259-.199 0-.259-.034-.259-.172 0-.095-.034-.173-.086-.173-.043 0-.086-.138-.086-.302 0-.164.043-.302.086-.302.052 0 .086-.095.086-.216 0-.19.035-.215.302-.215s.311.026.363.259c.034.18.095.259.215.259.087 0 .182.06.207.129.035.069.104.13.173.13.069 0 .121.06.121.129s.078.13.172.13c.208 0 .95.353.95.448 0 .034.095.069.215.069.199 0 .216.034.216.38 0 .319-.034.388-.19.431-.284.07-1.018.052-1.337-.043Zm1.173-.293c.173-.052.069-.13-.69-.501-.595-.293-1.035-.578-1.303-.846-.432-.431-.552-.422-.457.026.112.5.983 1.191 1.725 1.373.259.06.354.051.725-.052Zm1.39-.043c0-.173-.043-.26-.13-.26-.086 0-.129-.086-.129-.258 0-.138-.035-.26-.069-.26-.035 0-.181-.344-.319-.776-.147-.423-.285-.776-.32-.776-.043 0-.069-.061-.069-.13s-.034-.13-.086-.13c-.043 0-.086-.06-.086-.129s-.035-.13-.087-.13c-.043 0-.086-.138-.086-.31 0-.198.034-.285.095-.242.259.156.794 1.183 1.07 2.054.173.527.406 1.105.526 1.286.208.32.208.32-.051.32-.233 0-.259-.026-.259-.26Zm-2.071-3.625c0-.043-.061-.086-.13-.086s-.129-.035-.129-.07c0-.034-.138-.12-.302-.18-.164-.061-.302-.147-.302-.19 0-.044-.078-.078-.173-.078-.095 0-.172-.035-.172-.087 0-.043-.078-.086-.173-.086-.095 0-.371-.077-.621-.172-.466-.182-1.64-.346-2.46-.346-.336 0-.457-.034-.457-.12 0-.07-.052-.147-.104-.164-.06-.026.181-.052.535-.06.647-.018.647-.018.043-.13-.392-.07-.786-.127-1.182-.173-.328-.034-.587-.095-.587-.138 0-.043.095-.224.208-.405.112-.173.232-.432.258-.579.242-1.346.19-1.277.742-.983.277.146.743.457 1.027.69.294.233.561.423.604.423.035 0 .173.147.294.328.121.172.406.535.647.794.363.414.535.518 1.156.76.691.258 1.709.836 1.83 1.043.043.06-.043.095-.242.095-.172 0-.31-.034-.31-.086Z"/>
  <path fill="#2D2D2D" d="M365.79 91.693c-.914-.94-2.528-3.504-2.528-4.004 0-.087-.052-.311-.121-.51-.276-.785-.337-1.329-.285-2.416.095-1.838.458-3.253 1.243-4.85.63-1.285 1.415-2.114 2.736-2.908.518-.31.518-.31-.415-.31-.94 0-.94 0-.707-.285.121-.147.354-.466.509-.708.708-1.062 2.218-2.313 2.934-2.434.173-.025.319-.069.319-.103 0-.026-.086-.164-.198-.302-.199-.25-.199-.25.147-.63.422-.466.586-.561 1.07-.63.362-.043.362-.043-.112-.648-.941-1.182-1.882-2.718-1.752-2.856.034-.026.457.138.949.363.785.37.958.422 1.45.422.414 0 .638-.043.82-.163.224-.147.353-.156 1.458-.104 1.976.095 2.667.19 3.478.492 1.924.707 2.658 1.441 3.296 3.305.19.544.389 1.087.449 1.19.311.614 1.657 1.572 2.865 2.055.268.103.518.233.544.276.172.276-1.7 1.355-2.9 1.665-.871.225-2.269.268-2.986.087-.328-.078-.707-.207-.854-.285-.198-.104-.518-.138-1.424-.13-1.441.01-2.451.242-3.788.89-1.217.595-1.985 1.112-2.891 1.984-1.813 1.735-3.142 4.047-3.599 6.257-.207.975-.216 2.692-.034 3.495.146.63.518 1.674.699 1.967.198.302.017.225-.372-.172Zm13.282-17.83c.043-.042-.208-.215-.674-.44-.871-.414-1.553-.888-1.631-1.13-.069-.207-.198-.224-.267-.043-.19.475.578 1.312 1.51 1.657.328.12.924.095 1.062-.043Z"/>
  <path fill="#5B686E" d="M361 66h30.37v30.37H361z" style="mix-blend-mode:color"/>
  <path fill="#5B686E" d="m23.776 108.37 2.44 27.345 10.953 3.025 10.982-3.022 2.443-27.348H23.776Zm21.742 6.474-.153 1.75-.067.802H32.45l.307 3.415h12.235l-.082.847-.788 8.811-.059.554-6.878 1.89v.001l-.008.004-6.874-1.811-.466-5.173h3.37l.239 2.664 3.729.995h.01v-.133l3.746-.945.391-4.288H29.686l-.825-9.299-.08-.947h16.817l-.08.863Zm20.666-6.474 2.434 27.325 10.921 3.045 10.952-3.056 2.436-27.314H66.184Zm21.687 6.26-.81 9.103.002.049-.004.113v-.001l-.575 6.365-.063.566-6.866 1.898-.005.005-6.853-1.909-.464-5.263h3.36l.24 2.676 3.724 1.01-.002.002v-.001l3.739-1.024.395-4.357h-7.815l-.067-.737-.153-1.725-.08-.927h8.412l.306-3.389H71.48l-.067-.736-.152-1.726-.08-.927h16.77l-.08.935Zm34.055-6.26c8.386 0 15.185 6.799 15.185 15.185s-6.799 15.185-15.185 15.185-15.185-6.799-15.185-15.185 6.799-15.185 15.185-15.185Zm-3.018 20.244c.221.816.197 1.579-.03 2.268l-.083.228a4.242 4.242 0 0 1-.801 1.247c-.883.961-2.116 1.325-2.644 1.019-.57-.332-.286-1.689.739-2.771 1.102-1.162 2.682-1.91 2.682-1.91v-.004l.137-.077Zm12.541-13.744c-.685-2.699-5.159-3.586-9.391-2.081-2.517.894-5.244 2.3-7.205 4.134-2.332 2.178-2.702 4.076-2.549 4.869.54 2.798 4.374 4.628 5.951 5.986v.007c-.464.228-3.867 1.935-4.664 3.702-.855 1.86.132 3.19.778 3.359 1.993.552 4.043-.455 5.144-2.086 1.063-1.596.969-3.646.511-4.652.628-.171 1.367-.247 2.316-.132 2.658.304 3.19 1.974 3.075 2.658-.114.682-.662 1.08-.853 1.194-.19.115-.247.152-.229.229.019.114.115.114.265.095.209-.038 1.387-.569 1.444-1.861.057-1.633-1.5-3.454-4.27-3.417-1.139.02-1.862.115-2.373.324a.525.525 0 0 0-.133-.133c-1.708-1.841-4.878-3.132-4.745-5.58.038-.892.36-3.245 6.074-6.092 4.688-2.336 8.429-1.689 9.074-.266.928 2.03-1.994 5.809-6.872 6.358-1.861.209-2.829-.511-3.077-.778-.264-.285-.302-.304-.397-.246-.152.076-.057.323 0 .475.152.379.74 1.044 1.766 1.385.891.285 3.075.454 5.695-.569 2.941-1.138 5.237-4.309 4.573-6.966l.092.084Zm32.847-.426c-4.049 0-6.58 2.025-7.592 6.074 1.518-2.025 3.29-2.784 5.315-2.278 1.155.289 1.98 1.126 2.895 2.055 1.489 1.511 3.211 3.26 6.975 3.26 4.049 0 6.58-2.025 7.592-6.074-1.518 2.025-3.29 2.784-5.314 2.278-1.156-.289-1.981-1.127-2.896-2.055-1.488-1.511-3.21-3.26-6.975-3.26Zm-7.592 9.111c-4.05 0-6.58 2.025-7.593 6.074 1.519-2.025 3.29-2.784 5.315-2.278 1.155.289 1.98 1.126 2.895 2.055 1.49 1.511 3.212 3.26 6.975 3.26 4.05 0 6.58-2.025 7.593-6.074-1.519 2.025-3.29 2.784-5.315 2.278-1.155-.289-1.98-1.127-2.895-2.055-1.488-1.511-3.211-3.26-6.975-3.26Zm62.932-.274-13.243 13.243a1.326 1.326 0 0 0 1.873 1.873l13.243-13.243a1.325 1.325 0 0 0-1.873-1.873Zm-2.649-14.568-25.163 25.162a1.331 1.331 0 0 0 .046 1.828 1.331 1.331 0 0 0 1.828.046l25.162-25.163a1.326 1.326 0 0 0-1.873-1.873Zm42.174-.343h-20.247a5.079 5.079 0 0 0-5.062 5.062v20.246c0 2.783 2.279 5.062 5.062 5.062h20.247c2.782 0 5.061-2.279 5.061-5.062v-20.246c0-2.783-2.279-5.062-5.061-5.062Zm-2.769 21.33a3.981 3.981 0 0 1-1.166 1.562c-.535.43-1.207.786-2.037 1.038-.826.257-1.809.386-2.951.386h-8.136v-17.717h8.606c1.592 0 2.867.356 3.821 1.088.964.731 1.439 1.829 1.439 3.302 0 .894-.218 1.656-.653 2.288-.653.947-1.063 1.122-1.874 1.463v.06c1.083.228 1.918.741 2.467 1.538.549.796.835 1.804.835 3.02a5.022 5.022 0 0 1-.38 1.932l.029.034v.006Zm-3.514-4.365c-.515-.475-1.247-.707-2.185-.707h-5.473v5.527h5.487c.934 0 1.67-.243 2.19-.732.519-.49.781-1.187.781-2.077-.01-.875-.262-1.552-.781-2.012h-.025l.006.001Zm-.757-3.574c.499-.425.747-1.034.746-1.829 0-.89-.222-1.523-.672-1.883-.445-.361-1.088-.549-1.932-.549h-5.062v4.889h5.062c.736 0 1.369-.217 1.853-.627l.005-.001Zm39.286-13.391-8.495 4.855.017 3.815 8.478-4.845 9.965 5.695 3.322 1.898v-3.826l-13.287-7.592Zm-1.494 25.69-8.471-4.84v-11.322l-.003-.001-.018-3.82-3.3 1.885v15.185l8.478 4.844 3.314-1.931Zm11.459-4.84v-9.608l3.322 1.899v9.636l-13.287 7.593-3.31-1.892 3.31-1.93v-.005l9.965-5.693Z"/>
  <path fill="#5B686E" d="M282.937 119.619v8.733l8.47 4.841v-8.734l-8.47-4.84Zm8.47-5.702-7.717 4.41 8.471 4.841 7.717-4.411-8.471-4.84Zm57.437-1.052-14.249 25.479a.774.774 0 0 1-1.348.005l-14.531-25.481a.774.774 0 0 1 .808-1.147l14.264 2.549a.748.748 0 0 0 .275 0l13.965-2.545a.775.775 0 0 1 .816 1.14Z"/>
  <path fill="#25292C" d="m340.582 108.377-10.543 2.066a.389.389 0 0 0-.312.357l-.65 10.955a.393.393 0 0 0 .296.4c.059.014.12.014.178.001l2.936-.679a.39.39 0 0 1 .457.264.39.39 0 0 1 .009.192l-.872 4.271a.387.387 0 0 0 .295.455.387.387 0 0 0 .197-.007l1.813-.552a.389.389 0 0 1 .493.45l-1.387 6.709c-.086.419.472.648.704.288l.155-.24 8.593-17.147a.387.387 0 0 0-.419-.554l-3.023.583a.38.38 0 0 1-.195-.013.379.379 0 0 1-.255-.279.39.39 0 0 1 .005-.195l1.972-6.837a.384.384 0 0 0-.251-.476.384.384 0 0 0-.196-.012Z"/>
  <path fill="#5B686E" d="m389.457 115.738-13.356-7.368-13.284 7.406.022 15.532 13.263 7.432 13.377-7.467-.022-15.535Zm-6.631 10.824-.008-6.156-6.033 3.453.029 6.908 5.263-2.927 5.161 2.987-10.4 5.805-.024-5.865-.713.397-.769-.433.024 5.893-10.283-5.763 5.154-3.001 5.105 2.871-.029-6.935-5.833-3.28.008 6.065-5.16 3.005-.016-11.976 5.168 2.906.749-1.279-5.261-2.958 10.404-5.8v5.88l-5.143 2.878 5.88 3.307 5.882-3.366-5.137-2.824v-5.882l10.361 5.715-5.224 2.99.837 1.229 5.16-2.954.017 12.101-5.169-2.991ZM39.387 152.073a.61.61 0 0 0-.515.269l-7.261 10.498a.634.634 0 0 0-.106.282.636.636 0 0 0 .04.299.636.636 0 0 0 .45.377l4.69.994-.29 5.796a.634.634 0 0 0 .107.38.637.637 0 0 0 .316.239.63.63 0 0 0 .712-.237l7.262-10.498a.632.632 0 0 0 .106-.282.63.63 0 0 0-.218-.544.644.644 0 0 0-.272-.132l-4.69-.995.29-5.796a.633.633 0 0 0-.107-.38.637.637 0 0 0-.514-.27Zm-15.923 11.053A1.473 1.473 0 0 0 22 164.59c-.002.388.15.761.423 1.038l13.72 13.719c.137.136.299.244.477.319.178.073.37.111.563.112h.005c.193-.001.384-.039.563-.112.178-.075.34-.183.477-.319l13.72-13.721a1.466 1.466 0 0 0-.008-2.07 1.468 1.468 0 0 0-2.072-.007l-6.833 6.833-.033.025-5.817 5.818-5.818-5.817-.03-.025-6.835-6.834a1.466 1.466 0 0 0-1.038-.423Zm57.152-1.252-3.773-11.134h16.03l-3.787 11.167a3.816 3.816 0 0 0-.48.148l-3.74-7.63-3.75 7.585a3.92 3.92 0 0 0-.5-.136Zm-12.328 18.227c5.042 3.542 10.635-3.311 18.252-4.174 4.375-.26 7.348-2.938 5.654-7.083-3.15 1.94-6.094-.603-6.073-3.154h-2.394c-.079 2.278-1.792 4.07-4.447 3.804-2.079 3.109-4.488 4.856-7.222 5.744-1.848-.852-3.586-2.929-2.798-5.703a3.874 3.874 0 0 1-1-.251c-2.541 4.745-2.855 8.495.028 10.817Zm3.754-14.41c0-1.803-1.965-2.935-3.528-2.034-1.563.901-1.563 3.166 0 4.067 1.563.901 3.528-.231 3.528-2.033Zm10.167-.023c0-1.802-1.965-2.935-3.528-2.033-1.563.901-1.563 3.166 0 4.067 1.563.901 3.528-.231 3.528-2.034m10.129 0c0-1.802-1.965-2.935-3.528-2.033-1.563.901-1.563 3.166 0 4.067 1.564.901 3.528-.231 3.528-2.034m35.875 3.802-6.228 3.596-6.228-3.596v-7.191l6.228-3.596 6.228 3.596v7.191Zm8.71-2.766-6.892 11.911c-.25.434-.713.649-1.213.649h-13.784c-.501 0-.963-.222-1.214-.655l-6.891-11.892a1.422 1.422 0 0 1 0-1.414l6.891-11.964c.251-.433.713-.753 1.214-.753h13.784c.5 0 .963.32 1.213.753l6.892 11.99a1.35 1.35 0 0 1 0 1.375m-5.707 4.669v-10.686l-9.294-5.358-9.285 5.357v10.687l9.293 5.357 9.286-5.357Zm38.145-19.187h-17.36c-.982-.044-.939-1.438 0-1.446h17.36c.943.014.977 1.398 0 1.446Zm-17.36 5.785c-.982-.045-.939-1.438 0-1.446h10.129c.943.014.977 1.398 0 1.446h-10.129Zm7.231-2.892c-.982-.045-.939-1.439 0-1.447h14.467c.944.015.978 1.398 0 1.447h-14.467Zm11.575 1.446c.943.014.977 1.398 0 1.446h-5.791c-.981-.045-.938-1.438 0-1.446h5.791Zm2.887 1.446c-.982-.045-.939-1.438 0-1.446h1.451c.944.014.978 1.398 0 1.446h-1.451Zm-21.693 2.892c-.982-.044-.939-1.438 0-1.446h2.898c.943.014.977 1.398 0 1.446h-2.898Zm17.354 0c-.982-.044-.939-1.438 0-1.446h7.237c.943.014.977 1.398 0 1.446h-7.237Zm-11.569 0c-.982-.044-.939-1.438 0-1.446h1.451c.944.014.978 1.398 0 1.446h-1.451Zm-5.785 17.355c-.982-.045-.939-1.439 0-1.447h2.898c.943.015.977 1.398 0 1.447h-2.898Zm5.785 0c-.982-.045-.939-1.439 0-1.447h1.451c.944.015.978 1.398 0 1.447h-1.451Zm11.569-14.462c-.981-.045-.939-1.439 0-1.446h7.237c.943.014.977 1.397 0 1.446h-7.237Zm-17.354 0c-.982-.045-.939-1.439 0-1.446h7.236c.944.014.978 1.397 0 1.446h-7.236Zm0 11.569c-.982-.044-.939-1.438 0-1.446h7.236c.944.014.978 1.398 0 1.446h-7.236Zm0 5.785c-.982-.045-.939-1.438 0-1.446h7.236c.944.014.978 1.398 0 1.446h-7.236Zm0-14.462c-.982-.044-.939-1.438 0-1.446h1.452c.943.014.977 1.398 0 1.446h-1.452Zm4.338 0c-.981-.044-.938-1.438 0-1.446h4.345c.943.014.977 1.398 0 1.446h-4.345Zm7.231 0c-.981-.044-.938-1.438 0-1.446h11.576c.943.014.977 1.398 0 1.446H163.57Zm5.785 2.892c-.981-.044-.939-1.438 0-1.446h4.344c.944.015.978 1.398 0 1.446h-4.344Zm-8.677 0c-.982-.044-.939-1.438 0-1.446h5.79c.944.015.978 1.398 0 1.446h-5.79Zm-8.677 0c-.982-.044-.939-1.438 0-1.446h5.79c.944.015.977 1.398 0 1.446h-5.79Zm0 2.893c-.982-.045-.939-1.438 0-1.446h1.452c.943.014.977 1.397 0 1.446h-1.452Zm4.338 0c-.981-.045-.938-1.438 0-1.446h13.022c.943.014.977 1.397 0 1.446h-13.022Zm-4.338-17.354c-.982-.045-.939-1.439 0-1.447h4.341c.947.015.981 1.398 0 1.447h-4.341Zm54.666-3.963c-8.39 0-15.185 6.799-15.185 15.185 0 6.71 4.35 12.401 10.382 14.407.76.143 1.038-.327 1.038-.73 0-.361-.013-1.316-.019-2.582-4.224.916-5.115-2.037-5.115-2.037-.691-1.753-1.689-2.221-1.689-2.221-1.376-.941.106-.922.106-.922 1.525.106 2.326 1.564 2.326 1.564 1.354 2.322 3.555 1.651 4.423 1.262.136-.981.527-1.651.961-2.031-3.372-.379-6.916-1.685-6.916-7.503 0-1.658.588-3.012 1.562-4.075-.17-.384-.683-1.927.133-4.019 0 0 1.272-.408 4.176 1.556a14.615 14.615 0 0 1 3.796-.512c1.291.008 2.582.175 3.797.512 2.885-1.964 4.157-1.556 4.157-1.556.816 2.092.303 3.635.151 4.019.968 1.063 1.557 2.417 1.557 4.075 0 5.833-3.55 7.118-6.928 7.491.531.455 1.025 1.387 1.025 2.809 0 2.032-.019 3.665-.019 4.158 0 .399.265.873 1.044.721 6.075-1.991 10.422-7.686 10.422-14.386 0-8.386-6.799-15.185-15.185-15.185Zm57.05 11.764-.041-.109-4.135-10.791a1.076 1.076 0 0 0-1.068-.677 1.104 1.104 0 0 0-.623.233 1.14 1.14 0 0 0-.366.557l-2.79 8.541H243.39l-2.79-8.54a1.082 1.082 0 0 0-.367-.558 1.103 1.103 0 0 0-1.265-.068 1.08 1.08 0 0 0-.425.512l-4.144 10.785-.04.109a7.677 7.677 0 0 0 2.546 8.871l.013.011.038.027 6.298 4.716 3.116 2.358 1.898 1.432a1.274 1.274 0 0 0 1.544 0l1.897-1.432 3.114-2.358 6.336-4.745.016-.013a7.682 7.682 0 0 0 2.542-8.861Zm26.405 5.368a.634.634 0 0 1-.447-.184l-.943-.941a.62.62 0 0 1-.193-.449.642.642 0 0 1 .184-.453.633.633 0 0 1 .903.006l.496.495 1.494-1.493a.634.634 0 1 1 .896.895l-1.942 1.94a.651.651 0 0 1-.206.137.647.647 0 0 1-.242.047Zm11.835-.186 1.941-1.938a.633.633 0 0 0-.894-.895l-1.495 1.493-.496-.495a.631.631 0 0 0-1.04.202.625.625 0 0 0 .005.489.619.619 0 0 0 .142.205l.944.941a.636.636 0 0 0 .447.185.63.63 0 0 0 .446-.187Zm-20.006-7.892 3.236-2.006a1.274 1.274 0 0 0 .599-1.071 1.259 1.259 0 0 0-.592-1.076l-3.235-2.038a1.274 1.274 0 0 0-1.765.428 1.265 1.265 0 0 0-.175.643v4.044a1.265 1.265 0 0 0 1.932 1.076Zm2.569-3.083-3.236 2.007v-4.044l3.236 2.037Zm22.072 9.471a4.434 4.434 0 0 1-4.429 4.429 4.433 4.433 0 0 1-4.378-3.797h-2.632a4.427 4.427 0 0 1-4.378 3.797 4.432 4.432 0 0 1-4.379-3.797h-.706a4.389 4.389 0 0 1-3.141-1.318v6.38a3.801 3.801 0 0 0 3.797 3.796h.05a4.433 4.433 0 0 1 4.379-3.796 4.434 4.434 0 0 1 4.429 4.429 4.434 4.434 0 0 1-4.429 4.429 4.43 4.43 0 0 1-4.379-3.796h-.05a5.067 5.067 0 0 1-5.062-5.062v-8.986a6.336 6.336 0 0 1-5.062-6.199 6.334 6.334 0 0 1 6.327-6.327 6.335 6.335 0 0 1 6.328 6.327 6.337 6.337 0 0 1-6.267 6.325 3.137 3.137 0 0 0 3.08 2.533h.706a4.433 4.433 0 0 1 4.379-3.796 4.427 4.427 0 0 1 4.378 3.796h2.632a4.427 4.427 0 0 1 4.378-3.796 4.433 4.433 0 0 1 4.429 4.429Zm-18.981 10.123a3.168 3.168 0 0 0 3.164 3.164 3.168 3.168 0 0 0 3.163-3.164 3.168 3.168 0 0 0-3.163-3.164 3.168 3.168 0 0 0-3.164 3.164Zm-5.062-14.552a5.067 5.067 0 0 0 5.062-5.062 5.067 5.067 0 0 0-5.062-5.062 5.067 5.067 0 0 0-5.061 5.062 5.066 5.066 0 0 0 5.061 5.062Zm11.389 4.429a3.168 3.168 0 0 0-3.163-3.164 3.168 3.168 0 0 0-3.164 3.164 3.168 3.168 0 0 0 3.164 3.163 3.168 3.168 0 0 0 3.163-3.163Zm11.389 0a3.168 3.168 0 0 0-3.164-3.164 3.168 3.168 0 0 0-3.163 3.164 3.168 3.168 0 0 0 3.163 3.163 3.168 3.168 0 0 0 3.164-3.163Zm-16.45 10.123a.631.631 0 1 0 1.08-.447.634.634 0 0 0-1.08.447Zm2.53 0a.63.63 0 0 0 .186.447.63.63 0 0 0 .895 0 .633.633 0 1 0-1.081-.447Zm15.185 0a4.434 4.434 0 0 1-4.429 4.429 4.424 4.424 0 0 1-2.896-1.084 4.425 4.425 0 0 1-1.482-2.715l-.026.007-.641.021h-.021a.634.634 0 0 1-.021-1.264l.641-.022c.023-.002.044.008.066.009a4.428 4.428 0 0 1 4.38-3.81 4.434 4.434 0 0 1 4.429 4.429Zm-1.265 0a3.168 3.168 0 0 0-3.164-3.164 3.168 3.168 0 0 0-3.163 3.164 3.168 3.168 0 0 0 3.163 3.164 3.168 3.168 0 0 0 3.164-3.164Zm33.326-14.576h-5.806V150.74h5.806a5.689 5.689 0 0 1 5.682 5.682 5.69 5.69 0 0 1-5.682 5.683Zm-3.944-1.862h3.944a3.824 3.824 0 0 0 3.82-3.82 3.825 3.825 0 0 0-3.82-3.82h-3.944v7.64Zm0 1.862h-5.805a5.689 5.689 0 0 1-5.682-5.682 5.69 5.69 0 0 1 5.682-5.683h5.806v11.365h-.001Zm-5.805-9.504a3.825 3.825 0 0 0-3.82 3.821 3.826 3.826 0 0 0 3.82 3.821h3.944v-7.642h-3.944Zm5.805 19.006h-5.805a5.689 5.689 0 0 1-5.682-5.682 5.689 5.689 0 0 1 5.682-5.682h5.806v11.364h-.001Zm-5.805-9.502a3.824 3.824 0 0 0-3.82 3.82 3.825 3.825 0 0 0 3.82 3.82h3.944v-7.64h-3.944Zm.03 19.005c-3.149 0-5.713-2.549-5.713-5.682a5.688 5.688 0 0 1 5.682-5.681h5.806v5.619c0 3.168-2.591 5.744-5.775 5.744Zm-.03-9.503a3.824 3.824 0 0 0-3.82 3.82c0 2.107 1.727 3.82 3.852 3.82 2.157 0 3.914-1.741 3.914-3.882v-3.758h-3.946Zm9.749 0h-.124a5.689 5.689 0 0 1-5.682-5.682 5.689 5.689 0 0 1 5.682-5.682h.124a5.689 5.689 0 0 1 5.682 5.682 5.689 5.689 0 0 1-5.682 5.682Zm-.123-9.502a3.824 3.824 0 0 0-3.82 3.82 3.825 3.825 0 0 0 3.82 3.82h.124a3.824 3.824 0 0 0 3.82-3.82 3.826 3.826 0 0 0-3.821-3.82h-.123Zm29.979 6.366a2.45 2.45 0 0 1-1.797-.747 2.458 2.458 0 0 1-.749-1.799 2.44 2.44 0 0 1 .749-1.798 2.465 2.465 0 0 1 1.797-.748 2.445 2.445 0 0 1 1.799.748c.501.501.75 1.1.748 1.798a2.485 2.485 0 0 1-.748 1.799 2.413 2.413 0 0 1-1.799.747Zm7.639 0a2.45 2.45 0 0 1-1.797-.747 2.455 2.455 0 0 1-.749-1.799 2.44 2.44 0 0 1 .749-1.798 2.463 2.463 0 0 1 1.797-.748 2.446 2.446 0 0 1 1.799.748c.501.501.75 1.1.747 1.798a2.48 2.48 0 0 1-.747 1.799 2.414 2.414 0 0 1-1.799.747Zm7.639 0c-.7 0-1.3-.249-1.798-.747a2.458 2.458 0 0 1-.748-1.799 2.44 2.44 0 0 1 .748-1.798 2.466 2.466 0 0 1 1.798-.748 2.448 2.448 0 0 1 1.799.748c.501.501.75 1.1.747 1.798a2.484 2.484 0 0 1-.747 1.799 2.414 2.414 0 0 1-1.799.747Z"/>
  <defs>
    <linearGradient id="a" x1="206.667" x2="206.667" y1="0" y2="206.11" gradientUnits="userSpaceOnUse">
      <stop stop-color="#fff"/>
      <stop offset="1" stop-color="#CAD0D3"/>
    </linearGradient>
    <linearGradient id="b" x1="206.667" x2="206.667" y1="0" y2="206.11" gradientUnits="userSpaceOnUse">
      <stop stop-color="#F7F8F8"/>
      <stop offset=".5" stop-color="#1F2326"/>
      <stop offset="1" stop-color="#F7F8F8"/>
    </linearGradient>
    <linearGradient id="c" x1="360.544" x2="360.112" y1="64.052" y2="64.44" gradientUnits="userSpaceOnUse">
      <stop stop-color="#8D8E8D"/>
      <stop offset=".01" stop-color="#8B8C8B"/>
      <stop offset=".02" stop-color="#8A8C8A"/>
      <stop offset=".03" stop-color="#8A8B8A"/>
      <stop offset=".04" stop-color="#828382"/>
      <stop offset=".05" stop-color="#878987"/>
      <stop offset=".12" stop-color="#848584"/>
      <stop offset=".13" stop-color="#838583"/>
      <stop offset=".14" stop-color="#838483"/>
      <stop offset=".24" stop-color="#7D7E7D"/>
      <stop offset=".25" stop-color="#7C7E7C"/>
      <stop offset=".26" stop-color="#7C7D7C"/>
      <stop offset=".28" stop-color="#7B7C7B"/>
      <stop offset=".29" stop-color="#7A7C7A"/>
      <stop offset=".3" stop-color="#7A7B7A"/>
      <stop offset=".31" stop-color="#797B79"/>
      <stop offset=".37" stop-color="#777877"/>
      <stop offset=".38" stop-color="#767876"/>
      <stop offset=".92" stop-color="#616261"/>
      <stop offset=".93" stop-color="#5F605E"/>
      <stop offset=".94" stop-color="#5F5F5E"/>
      <stop offset=".98" stop-color="#5D5E5C"/>
      <stop offset="1" stop-color="#5D5D5D"/>
    </linearGradient>
    <linearGradient id="d" x1="360.544" x2="360.112" y1="64.052" y2="64.44" gradientUnits="userSpaceOnUse">
      <stop stop-color="#8D8E8D"/>
      <stop offset=".01" stop-color="#8B8C8B"/>
      <stop offset=".02" stop-color="#8A8C8A"/>
      <stop offset=".03" stop-color="#8A8B8A"/>
      <stop offset=".04" stop-color="#828382"/>
      <stop offset=".05" stop-color="#878987"/>
      <stop offset=".12" stop-color="#848584"/>
      <stop offset=".13" stop-color="#838583"/>
      <stop offset=".14" stop-color="#838483"/>
      <stop offset=".24" stop-color="#7D7E7D"/>
      <stop offset=".25" stop-color="#7C7E7C"/>
      <stop offset=".26" stop-color="#7C7D7C"/>
      <stop offset=".28" stop-color="#7B7C7B"/>
      <stop offset=".29" stop-color="#7A7C7A"/>
      <stop offset=".3" stop-color="#7A7B7A"/>
      <stop offset=".31" stop-color="#797B79"/>
      <stop offset=".37" stop-color="#777877"/>
      <stop offset=".38" stop-color="#767876"/>
      <stop offset=".92" stop-color="#616261"/>
      <stop offset=".93" stop-color="#5F605E"/>
      <stop offset=".94" stop-color="#5F5F5E"/>
      <stop offset=".98" stop-color="#5D5E5C"/>
      <stop offset="1" stop-color="#5D5D5D"/>
    </linearGradient>
  </defs>
</svg>
