<svg xmlns="http://www.w3.org/2000/svg" width="788" height="108" fill="none" viewBox="0 0 788 108">
  <path fill="#383E42" d="M1.344 4.808c1.12 0 1.624-.504 1.624-1.638h1.19v9.94H2.646V6.026h-2.1V4.808h.798ZM12.996 3.17v6.594H14.1v1.386h-1.106v1.96h-1.511v-1.96h-5.11V9.764l4.913-6.594h1.708Zm-4.86 6.594h3.346V5.298L8.137 9.764Z"/>
  <rect width="18" height="18" y="23.11" fill="#8F9CA1" rx="2"/>
  <rect width="17" height="17" x=".5" y="23.61" stroke="#F7F8F8" stroke-opacity=".1" rx="1.5"/>
  <rect width="18" height="18" x="22" y="23.11" fill="#8F9CA1" rx="2"/>
  <rect width="17" height="17" x="22.5" y="23.61" stroke="#F7F8F8" stroke-opacity=".1" rx="1.5"/>
  <rect width="18" height="18" x="44" y="23.11" fill="#8F9CA1" rx="2"/>
  <rect width="17" height="17" x="44.5" y="23.61" stroke="#F7F8F8" stroke-opacity=".1" rx="1.5"/>
  <rect width="18" height="18" y="45.11" fill="#8F9CA1" rx="2"/>
  <rect width="17" height="17" x=".5" y="45.61" stroke="#F7F8F8" stroke-opacity=".1" rx="1.5"/>
  <rect width="18" height="18" x="22" y="45.11" fill="#8F9CA1" rx="2"/>
  <rect width="17" height="17" x="22.5" y="45.61" stroke="#F7F8F8" stroke-opacity=".1" rx="1.5"/>
  <rect width="18" height="18" x="44" y="45.11" fill="#8F9CA1" rx="2"/>
  <rect width="17" height="17" x="44.5" y="45.61" stroke="#F7F8F8" stroke-opacity=".1" rx="1.5"/>
  <rect width="18" height="18" y="67.11" fill="#8F9CA1" rx="2"/>
  <rect width="17" height="17" x=".5" y="67.61" stroke="#F7F8F8" stroke-opacity=".1" rx="1.5"/>
  <rect width="18" height="18" x="22" y="67.11" fill="#8F9CA1" rx="2"/>
  <rect width="17" height="17" x="22.5" y="67.61" stroke="#F7F8F8" stroke-opacity=".1" rx="1.5"/>
  <rect width="18" height="18" x="44" y="67.11" fill="#8F9CA1" rx="2"/>
  <rect width="17" height="17" x="44.5" y="67.61" stroke="#F7F8F8" stroke-opacity=".1" rx="1.5"/>
  <rect width="18" height="18" y="89.11" fill="#8F9CA1" rx="2"/>
  <rect width="17" height="17" x=".5" y="89.61" stroke="#F7F8F8" stroke-opacity=".1" rx="1.5"/>
  <rect width="18" height="18" x="22" y="89.11" fill="#8F9CA1" rx="2"/>
  <rect width="17" height="17" x="22.5" y="89.61" stroke="#F7F8F8" stroke-opacity=".1" rx="1.5"/>
  <rect width="18" height="18" x="44" y="89.11" fill="#8F9CA1" rx="2"/>
  <rect width="17" height="17" x="44.5" y="89.61" stroke="#F7F8F8" stroke-opacity=".1" rx="1.5"/>
  <path fill="#383E42" d="M67.344 4.808c1.12 0 1.624-.504 1.624-1.638h1.19v9.94h-1.512V6.026h-2.1V4.808h.798ZM79.15 3.17v1.386h-4.41l-.392 2.856c.462-.588 1.371-.924 2.254-.924 1.89 0 3.233 1.414 3.233 3.374 0 2.044-1.483 3.472-3.584 3.472-2.058 0-3.598-1.162-3.738-2.842l1.554-.098c.155.98 1.079 1.554 2.157 1.554 1.218 0 2.043-.854 2.043-2.072 0-1.288-.84-2.1-2.141-2.1-.869 0-1.597.406-1.89 1.05h-1.583l.77-5.656h5.727Z"/>
  <rect width="18" height="18" x="66" y="23.11" fill="#8F9CA1" rx="2"/>
  <rect width="17" height="17" x="66.5" y="23.61" stroke="#F7F8F8" stroke-opacity=".1" rx="1.5"/>
  <rect width="18" height="18" x="88" y="23.11" fill="#8F9CA1" rx="2"/>
  <rect width="17" height="17" x="88.5" y="23.61" stroke="#F7F8F8" stroke-opacity=".1" rx="1.5"/>
  <rect width="18" height="18" x="110" y="23.11" fill="#8F9CA1" rx="2"/>
  <rect width="18" height="18" x="110" y="23.11" fill="#F8932A" rx="2"/>
  <rect width="17" height="17" x="110.5" y="23.61" stroke="#F7F8F8" stroke-opacity=".1" rx="1.5"/>
  <rect width="18" height="18" x="66" y="45.11" fill="#8F9CA1" rx="2"/>
  <rect width="17" height="17" x="66.5" y="45.61" stroke="#F7F8F8" stroke-opacity=".1" rx="1.5"/>
  <rect width="18" height="18" x="88" y="45.11" fill="#8F9CA1" rx="2"/>
  <rect width="18" height="18" x="88" y="45.11" fill="#F8932A" rx="2"/>
  <rect width="17" height="17" x="88.5" y="45.61" stroke="#F7F8F8" stroke-opacity=".1" rx="1.5"/>
  <rect width="18" height="18" x="110" y="45.11" fill="#8F9CA1" rx="2"/>
  <rect width="18" height="18" x="110" y="45.11" fill="#F8932A" rx="2"/>
  <rect width="17" height="17" x="110.5" y="45.61" stroke="#F7F8F8" stroke-opacity=".1" rx="1.5"/>
  <rect width="18" height="18" x="66" y="67.11" fill="#8F9CA1" rx="2"/>
  <rect width="17" height="17" x="66.5" y="67.61" stroke="#F7F8F8" stroke-opacity=".1" rx="1.5"/>
  <rect width="18" height="18" x="88" y="67.11" fill="#8F9CA1" rx="2"/>
  <rect width="18" height="18" x="88" y="67.11" fill="#F8932A" rx="2"/>
  <rect width="17" height="17" x="88.5" y="67.61" stroke="#F7F8F8" stroke-opacity=".1" rx="1.5"/>
  <rect width="18" height="18" x="110" y="67.11" fill="#8F9CA1" rx="2"/>
  <rect width="18" height="18" x="110" y="67.11" fill="#F8932A" rx="2"/>
  <rect width="17" height="17" x="110.5" y="67.61" stroke="#F7F8F8" stroke-opacity=".1" rx="1.5"/>
  <rect width="18" height="18" x="66" y="89.11" fill="#8F9CA1" rx="2"/>
  <rect width="17" height="17" x="66.5" y="89.61" stroke="#F7F8F8" stroke-opacity=".1" rx="1.5"/>
  <rect width="18" height="18" x="88" y="89.11" fill="#8F9CA1" rx="2"/>
  <rect width="18" height="18" x="88" y="89.11" fill="#F8932A" rx="2"/>
  <rect width="17" height="17" x="88.5" y="89.61" stroke="#F7F8F8" stroke-opacity=".1" rx="1.5"/>
  <rect width="18" height="18" x="110" y="89.11" fill="#8F9CA1" rx="2"/>
  <rect width="18" height="18" x="110" y="89.11" fill="#F8932A" rx="2"/>
  <rect width="17" height="17" x="110.5" y="89.61" stroke="#F7F8F8" stroke-opacity=".1" rx="1.5"/>
  <path fill="#383E42" d="M133.344 4.808c1.12 0 1.624-.504 1.624-1.638h1.19v9.94h-1.512V6.026h-2.1V4.808h.798Zm10.882.672c-.28-.742-.924-1.162-1.792-1.162-1.456 0-2.31 1.274-2.464 3.514.532-.924 1.428-1.428 2.492-1.428 1.974 0 3.304 1.4 3.304 3.416 0 2.184-1.512 3.514-3.626 3.514-.938 0-1.848-.35-2.59-1.134-.7-.742-1.036-1.988-1.036-3.5 0-3.01 1.036-5.754 3.934-5.754 1.554 0 2.842.868 3.276 2.436l-1.498.098Zm-4.13 4.34c-.028 1.274.84 2.184 2.086 2.184 1.204 0 2.03-.91 2.03-2.184 0-1.232-.798-2.114-1.946-2.114-1.26 0-2.156.882-2.17 2.114Z"/>
  <rect width="18" height="18" x="132" y="23.11" fill="#8F9CA1" rx="2"/>
  <rect width="18" height="18" x="132" y="23.11" fill="#F8932A" rx="2"/>
  <rect width="17" height="17" x="132.5" y="23.61" stroke="#F7F8F8" stroke-opacity=".1" rx="1.5"/>
  <rect width="18" height="18" x="154" y="23.11" fill="#8F9CA1" rx="2"/>
  <rect width="18" height="18" x="154" y="23.11" fill="#F8932A" rx="2"/>
  <rect width="17" height="17" x="154.5" y="23.61" stroke="#F7F8F8" stroke-opacity=".1" rx="1.5"/>
  <rect width="18" height="18" x="176" y="23.11" fill="#8F9CA1" rx="2"/>
  <rect width="18" height="18" x="176" y="23.11" fill="#F8932A" rx="2"/>
  <rect width="17" height="17" x="176.5" y="23.61" stroke="#F7F8F8" stroke-opacity=".1" rx="1.5"/>
  <rect width="18" height="18" x="132" y="45.11" fill="#8F9CA1" rx="2"/>
  <rect width="18" height="18" x="132" y="45.11" fill="#F8932A" rx="2"/>
  <rect width="17" height="17" x="132.5" y="45.61" stroke="#F7F8F8" stroke-opacity=".1" rx="1.5"/>
  <rect width="18" height="18" x="154" y="45.11" fill="#8F9CA1" rx="2"/>
  <rect width="18" height="18" x="154" y="45.11" fill="#F8932A" rx="2"/>
  <rect width="17" height="17" x="154.5" y="45.61" stroke="#F7F8F8" stroke-opacity=".1" rx="1.5"/>
  <rect width="18" height="18" x="176" y="45.11" fill="#8F9CA1" rx="2"/>
  <rect width="18" height="18" x="176" y="45.11" fill="#F8932A" rx="2"/>
  <rect width="17" height="17" x="176.5" y="45.61" stroke="#F7F8F8" stroke-opacity=".1" rx="1.5"/>
  <rect width="18" height="18" x="132" y="67.11" fill="#8F9CA1" rx="2"/>
  <rect width="18" height="18" x="132" y="67.11" fill="#F8932A" rx="2"/>
  <rect width="17" height="17" x="132.5" y="67.61" stroke="#F7F8F8" stroke-opacity=".1" rx="1.5"/>
  <rect width="18" height="18" x="154" y="67.11" fill="#8F9CA1" rx="2"/>
  <rect width="18" height="18" x="154" y="67.11" fill="#F8932A" rx="2"/>
  <rect width="17" height="17" x="154.5" y="67.61" stroke="#F7F8F8" stroke-opacity=".1" rx="1.5"/>
  <rect width="18" height="18" x="176" y="67.11" fill="#8F9CA1" rx="2"/>
  <rect width="18" height="18" x="176" y="67.11" fill="#F8932A" rx="2"/>
  <rect width="17" height="17" x="176.5" y="67.61" stroke="#F7F8F8" stroke-opacity=".1" rx="1.5"/>
  <rect width="18" height="18" x="132" y="89.11" fill="#8F9CA1" rx="2"/>
  <rect width="18" height="18" x="132" y="89.11" fill="#F8932A" rx="2"/>
  <rect width="17" height="17" x="132.5" y="89.61" stroke="#F7F8F8" stroke-opacity=".1" rx="1.5"/>
  <rect width="18" height="18" x="154" y="89.11" fill="#8F9CA1" rx="2"/>
  <rect width="18" height="18" x="154" y="89.11" fill="#F8932A" rx="2"/>
  <rect width="17" height="17" x="154.5" y="89.61" stroke="#F7F8F8" stroke-opacity=".1" rx="1.5"/>
  <rect width="18" height="18" x="176" y="89.11" fill="#8F9CA1" rx="2"/>
  <rect width="18" height="18" x="176" y="89.11" fill="#F8932A" rx="2"/>
  <rect width="17" height="17" x="176.5" y="89.61" stroke="#F7F8F8" stroke-opacity=".1" rx="1.5"/>
  <path fill="#383E42" d="M199.344 4.808c1.12 0 1.624-.504 1.624-1.638h1.19v9.94h-1.512V6.026h-2.1V4.808h.798Zm4.862-1.638h7.14v1.288c-1.932 2.408-3.248 5.362-3.22 8.652h-1.554c0-3.15 1.246-6.118 3.206-8.554h-5.572V3.17Z"/>
  <rect width="18" height="18" x="198" y="23.11" fill="#8F9CA1" rx="2"/>
  <rect width="18" height="18" x="198" y="23.11" fill="#F8932A" rx="2"/>
  <rect width="17" height="17" x="198.5" y="23.61" stroke="#F7F8F8" stroke-opacity=".1" rx="1.5"/>
  <rect width="18" height="18" x="220" y="23.11" fill="#8F9CA1" rx="2"/>
  <rect width="18" height="18" x="220" y="23.11" fill="#F8932A" rx="2"/>
  <rect width="17" height="17" x="220.5" y="23.61" stroke="#F7F8F8" stroke-opacity=".1" rx="1.5"/>
  <rect width="18" height="18" x="242" y="23.11" fill="#8F9CA1" rx="2"/>
  <rect width="18" height="18" x="242" y="23.11" fill="#5CFFF9" rx="2"/>
  <rect width="17" height="17" x="242.5" y="23.61" stroke="#F7F8F8" stroke-opacity=".1" rx="1.5"/>
  <rect width="18" height="18" x="198" y="45.11" fill="#8F9CA1" rx="2"/>
  <rect width="18" height="18" x="198" y="45.11" fill="#F8932A" rx="2"/>
  <rect width="17" height="17" x="198.5" y="45.61" stroke="#F7F8F8" stroke-opacity=".1" rx="1.5"/>
  <rect width="18" height="18" x="220" y="45.11" fill="#8F9CA1" rx="2"/>
  <rect width="18" height="18" x="220" y="45.11" fill="#F8932A" rx="2"/>
  <rect width="17" height="17" x="220.5" y="45.61" stroke="#F7F8F8" stroke-opacity=".1" rx="1.5"/>
  <rect width="18" height="18" x="242" y="45.11" fill="#8F9CA1" rx="2"/>
  <rect width="18" height="18" x="242" y="45.11" fill="#5CFFF9" rx="2"/>
  <rect width="17" height="17" x="242.5" y="45.61" stroke="#F7F8F8" stroke-opacity=".1" rx="1.5"/>
  <rect width="18" height="18" x="198" y="67.11" fill="#8F9CA1" rx="2"/>
  <rect width="18" height="18" x="198" y="67.11" fill="#F8932A" rx="2"/>
  <rect width="17" height="17" x="198.5" y="67.61" stroke="#F7F8F8" stroke-opacity=".1" rx="1.5"/>
  <rect width="18" height="18" x="220" y="67.11" fill="#8F9CA1" rx="2"/>
  <rect width="18" height="18" x="220" y="67.11" fill="#F8932A" rx="2"/>
  <rect width="17" height="17" x="220.5" y="67.61" stroke="#F7F8F8" stroke-opacity=".1" rx="1.5"/>
  <rect width="18" height="18" x="242" y="67.11" fill="#8F9CA1" rx="2"/>
  <rect width="18" height="18" x="242" y="67.11" fill="#5CFFF9" rx="2"/>
  <rect width="17" height="17" x="242.5" y="67.61" stroke="#F7F8F8" stroke-opacity=".1" rx="1.5"/>
  <rect width="18" height="18" x="198" y="89.11" fill="#8F9CA1" rx="2"/>
  <rect width="18" height="18" x="198" y="89.11" fill="#F8932A" rx="2"/>
  <rect width="17" height="17" x="198.5" y="89.61" stroke="#F7F8F8" stroke-opacity=".1" rx="1.5"/>
  <rect width="18" height="18" x="220" y="89.11" fill="#8F9CA1" rx="2"/>
  <rect width="18" height="18" x="220" y="89.11" fill="#F8932A" rx="2"/>
  <rect width="17" height="17" x="220.5" y="89.61" stroke="#F7F8F8" stroke-opacity=".1" rx="1.5"/>
  <rect width="18" height="18" x="242" y="89.11" fill="#8F9CA1" rx="2"/>
  <rect width="18" height="18" x="242" y="89.11" fill="#5CFFF9" rx="2"/>
  <rect width="17" height="17" x="242.5" y="89.61" stroke="#F7F8F8" stroke-opacity=".1" rx="1.5"/>
  <path fill="#383E42" d="M265.344 4.808c1.12 0 1.624-.504 1.624-1.638h1.19v9.94h-1.512V6.026h-2.1V4.808h.798Zm8.726 8.526c-2.282 0-3.836-1.134-3.836-2.954 0-1.246.742-2.212 2.002-2.66-.966-.378-1.526-1.036-1.526-2.044 0-1.582 1.372-2.73 3.36-2.73 1.988 0 3.36 1.148 3.36 2.73 0 1.008-.574 1.666-1.54 2.044 1.26.462 2.016 1.428 2.016 2.66 0 1.82-1.568 2.954-3.836 2.954Zm-2.268-3.122c0 1.064.882 1.736 2.268 1.736 1.372 0 2.254-.672 2.254-1.736 0-1.05-.882-1.736-2.254-1.736-1.386 0-2.268.686-2.268 1.736Zm.462-4.466c0 .868.7 1.414 1.806 1.414s1.778-.546 1.778-1.414c0-.868-.672-1.414-1.778-1.414-1.106 0-1.806.546-1.806 1.414Z"/>
  <rect width="18" height="18" x="264" y="23.11" fill="#8F9CA1" rx="2"/>
  <rect width="18" height="18" x="264" y="23.11" fill="#5CFFF9" rx="2"/>
  <rect width="17" height="17" x="264.5" y="23.61" stroke="#F7F8F8" stroke-opacity=".1" rx="1.5"/>
  <rect width="18" height="18" x="286" y="23.11" fill="#8F9CA1" rx="2"/>
  <rect width="18" height="18" x="286" y="23.11" fill="#5CFFF9" rx="2"/>
  <rect width="17" height="17" x="286.5" y="23.61" stroke="#F7F8F8" stroke-opacity=".1" rx="1.5"/>
  <rect width="18" height="18" x="308" y="23.11" fill="#8F9CA1" rx="2"/>
  <rect width="18" height="18" x="308" y="23.11" fill="#00BAAE" rx="2"/>
  <rect width="17" height="17" x="308.5" y="23.61" stroke="#F7F8F8" stroke-opacity=".1" rx="1.5"/>
  <rect width="18" height="18" x="264" y="45.11" fill="#8F9CA1" rx="2"/>
  <rect width="18" height="18" x="264" y="45.11" fill="#5CFFF9" rx="2"/>
  <rect width="17" height="17" x="264.5" y="45.61" stroke="#F7F8F8" stroke-opacity=".1" rx="1.5"/>
  <rect width="18" height="18" x="286" y="45.11" fill="#8F9CA1" rx="2"/>
  <rect width="18" height="18" x="286" y="45.11" fill="#5CFFF9" rx="2"/>
  <rect width="17" height="17" x="286.5" y="45.61" stroke="#F7F8F8" stroke-opacity=".1" rx="1.5"/>
  <rect width="18" height="18" x="308" y="45.11" fill="#8F9CA1" rx="2"/>
  <rect width="18" height="18" x="308" y="45.11" fill="#00BAAE" rx="2"/>
  <rect width="17" height="17" x="308.5" y="45.61" stroke="#F7F8F8" stroke-opacity=".1" rx="1.5"/>
  <rect width="18" height="18" x="264" y="67.11" fill="#8F9CA1" rx="2"/>
  <rect width="18" height="18" x="264" y="67.11" fill="#5CFFF9" rx="2"/>
  <rect width="17" height="17" x="264.5" y="67.61" stroke="#F7F8F8" stroke-opacity=".1" rx="1.5"/>
  <rect width="18" height="18" x="286" y="67.11" fill="#8F9CA1" rx="2"/>
  <rect width="18" height="18" x="286" y="67.11" fill="#00BAAE" rx="2"/>
  <rect width="17" height="17" x="286.5" y="67.61" stroke="#F7F8F8" stroke-opacity=".1" rx="1.5"/>
  <rect width="18" height="18" x="308" y="67.11" fill="#8F9CA1" rx="2"/>
  <rect width="18" height="18" x="308" y="67.11" fill="#00BAAE" rx="2"/>
  <rect width="17" height="17" x="308.5" y="67.61" stroke="#F7F8F8" stroke-opacity=".1" rx="1.5"/>
  <rect width="18" height="18" x="264" y="89.11" fill="#8F9CA1" rx="2"/>
  <rect width="18" height="18" x="264" y="89.11" fill="#5CFFF9" rx="2"/>
  <rect width="17" height="17" x="264.5" y="89.61" stroke="#F7F8F8" stroke-opacity=".1" rx="1.5"/>
  <rect width="18" height="18" x="286" y="89.11" fill="#8F9CA1" rx="2"/>
  <rect width="18" height="18" x="286" y="89.11" fill="#00BAAE" rx="2"/>
  <rect width="17" height="17" x="286.5" y="89.61" stroke="#F7F8F8" stroke-opacity=".1" rx="1.5"/>
  <rect width="18" height="18" x="308" y="89.11" fill="#8F9CA1" rx="2"/>
  <rect width="18" height="18" x="308" y="89.11" fill="#00BAAE" rx="2"/>
  <rect width="17" height="17" x="308.5" y="89.61" stroke="#F7F8F8" stroke-opacity=".1" rx="1.5"/>
  <path fill="#383E42" d="M331.344 4.808c1.12 0 1.624-.504 1.624-1.638h1.19v9.94h-1.512V6.026h-2.1V4.808h.798Zm5.17 1.68c0-2.198 1.526-3.542 3.626-3.542.938 0 1.876.35 2.617 1.148.687.756 1.023 2.002 1.023 3.542 0 2.982-.98 5.698-3.878 5.698-1.554 0-2.758-.798-3.248-2.254l1.512-.098c.308.616.938.98 1.708.98 1.456 0 2.296-1.246 2.45-3.43-.504.868-1.358 1.4-2.506 1.4-1.946 0-3.304-1.4-3.304-3.444Zm1.54 0c0 1.246.798 2.142 1.974 2.142 1.26 0 2.128-.896 2.142-2.142.028-1.274-.812-2.212-2.058-2.212-1.218 0-2.058.938-2.058 2.212Z"/>
  <rect width="18" height="18" x="330" y="23.11" fill="#8F9CA1" rx="2"/>
  <rect width="18" height="18" x="330" y="23.11" fill="red" rx="2"/>
  <rect width="17" height="17" x="330.5" y="23.61" stroke="#F7F8F8" stroke-opacity=".1" rx="1.5"/>
  <rect width="18" height="18" x="352" y="23.11" fill="#8F9CA1" rx="2"/>
  <rect width="18" height="18" x="352" y="23.11" fill="#fff" rx="2"/>
  <rect width="17" height="17" x="352.5" y="23.61" stroke="#F7F8F8" stroke-opacity=".1" rx="1.5"/>
  <rect width="18" height="18" x="374" y="23.11" fill="#8F9CA1" rx="2"/>
  <rect width="18" height="18" x="374" y="23.11" fill="#D6878F" rx="2"/>
  <rect width="17" height="17" x="374.5" y="23.61" stroke="#F7F8F8" stroke-opacity=".1" rx="1.5"/>
  <rect width="18" height="18" x="330" y="45.11" fill="#8F9CA1" rx="2"/>
  <rect width="18" height="18" x="330" y="45.11" fill="#fff" rx="2"/>
  <rect width="17" height="17" x="330.5" y="45.61" stroke="#F7F8F8" stroke-opacity=".1" rx="1.5"/>
  <rect width="18" height="18" x="352" y="45.11" fill="#8F9CA1" rx="2"/>
  <rect width="18" height="18" x="352" y="45.11" fill="#fff" rx="2"/>
  <rect width="17" height="17" x="352.5" y="45.61" stroke="#F7F8F8" stroke-opacity=".1" rx="1.5"/>
  <rect width="18" height="18" x="374" y="45.11" fill="#8F9CA1" rx="2"/>
  <rect width="18" height="18" x="374" y="45.11" fill="#D6878F" rx="2"/>
  <rect width="17" height="17" x="374.5" y="45.61" stroke="#F7F8F8" stroke-opacity=".1" rx="1.5"/>
  <rect width="18" height="18" x="330" y="67.11" fill="#8F9CA1" rx="2"/>
  <rect width="18" height="18" x="330" y="67.11" fill="#fff" rx="2"/>
  <rect width="17" height="17" x="330.5" y="67.61" stroke="#F7F8F8" stroke-opacity=".1" rx="1.5"/>
  <rect width="18" height="18" x="352" y="67.11" fill="#8F9CA1" rx="2"/>
  <rect width="18" height="18" x="352" y="67.11" fill="#53CFE5" rx="2"/>
  <rect width="17" height="17" x="352.5" y="67.61" stroke="#F7F8F8" stroke-opacity=".1" rx="1.5"/>
  <rect width="18" height="18" x="374" y="67.11" fill="#8F9CA1" rx="2"/>
  <rect width="18" height="18" x="374" y="67.11" fill="#D6878F" rx="2"/>
  <rect width="17" height="17" x="374.5" y="67.61" stroke="#F7F8F8" stroke-opacity=".1" rx="1.5"/>
  <rect width="18" height="18" x="330" y="89.11" fill="#8F9CA1" rx="2"/>
  <rect width="18" height="18" x="330" y="89.11" fill="#fff" rx="2"/>
  <rect width="17" height="17" x="330.5" y="89.61" stroke="#F7F8F8" stroke-opacity=".1" rx="1.5"/>
  <rect width="18" height="18" x="352" y="89.11" fill="#8F9CA1" rx="2"/>
  <rect width="18" height="18" x="352" y="89.11" fill="#D6878F" rx="2"/>
  <rect width="17" height="17" x="352.5" y="89.61" stroke="#F7F8F8" stroke-opacity=".1" rx="1.5"/>
  <rect width="18" height="18" x="374" y="89.11" fill="#8F9CA1" rx="2"/>
  <rect width="18" height="18" x="374" y="89.11" fill="#D6878F" rx="2"/>
  <rect width="17" height="17" x="374.5" y="89.61" stroke="#F7F8F8" stroke-opacity=".1" rx="1.5"/>
  <path fill="#383E42" d="M396.98 6.208c.224-1.876 1.596-3.262 3.654-3.262 1.904 0 3.304 1.232 3.304 2.898 0 1.47-1.176 2.408-2.632 3.304-.714.392-2.562 1.652-2.618 2.576h5.306v1.386h-7.168c0-2.954 1.974-4.116 3.78-5.208 1.036-.658 1.764-1.344 1.764-2.072 0-.882-.714-1.498-1.736-1.498-1.106 0-1.848.7-2.086 1.974l-1.568-.098Zm12.434 7.126c-2.492 0-4.032-2.016-4.032-5.18 0-3.178 1.54-5.208 4.032-5.208 2.52 0 4.046 2.03 4.046 5.208 0 3.164-1.526 5.18-4.046 5.18Zm-2.464-5.18c0 2.436.896 3.794 2.464 3.794 1.596 0 2.478-1.358 2.478-3.794 0-2.45-.882-3.822-2.478-3.822-1.568 0-2.464 1.372-2.464 3.822Z"/>
  <rect width="18" height="18" x="396" y="23.11" fill="#D6878F" rx="2"/>
  <rect width="17" height="17" x="396.5" y="23.61" stroke="#F7F8F8" stroke-opacity=".1" rx="1.5"/>
  <rect width="18" height="18" x="418" y="23.11" fill="#8F9CA1" rx="2"/>
  <rect width="18" height="18" x="418" y="23.11" fill="#FF751A" rx="2"/>
  <rect width="17" height="17" x="418.5" y="23.61" stroke="#F7F8F8" stroke-opacity=".1" rx="1.5"/>
  <rect width="18" height="18" x="440" y="23.11" fill="#8F9CA1" rx="2"/>
  <rect width="18" height="18" x="440" y="23.11" fill="#FF751A" rx="2"/>
  <rect width="17" height="17" x="440.5" y="23.61" stroke="#F7F8F8" stroke-opacity=".1" rx="1.5"/>
  <rect width="18" height="18" x="396" y="45.11" fill="#D6878F" rx="2"/>
  <rect width="17" height="17" x="396.5" y="45.61" stroke="#F7F8F8" stroke-opacity=".1" rx="1.5"/>
  <rect width="18" height="18" x="418" y="45.11" fill="#8F9CA1" rx="2"/>
  <rect width="18" height="18" x="418" y="45.11" fill="#FF751A" rx="2"/>
  <rect width="17" height="17" x="418.5" y="45.61" stroke="#F7F8F8" stroke-opacity=".1" rx="1.5"/>
  <rect width="18" height="18" x="440" y="45.11" fill="#8F9CA1" rx="2"/>
  <rect width="18" height="18" x="440" y="45.11" fill="#FF751A" rx="2"/>
  <rect width="17" height="17" x="440.5" y="45.61" stroke="#F7F8F8" stroke-opacity=".1" rx="1.5"/>
  <rect width="18" height="18" x="396" y="67.11" fill="#fff" rx="2"/>
  <rect width="17" height="17" x="396.5" y="67.61" stroke="#F7F8F8" stroke-opacity=".1" rx="1.5"/>
  <rect width="18" height="18" x="418" y="67.11" fill="#8F9CA1" rx="2"/>
  <rect width="18" height="18" x="418" y="67.11" fill="#FF751A" rx="2"/>
  <rect width="17" height="17" x="418.5" y="67.61" stroke="#F7F8F8" stroke-opacity=".1" rx="1.5"/>
  <rect width="18" height="18" x="440" y="67.11" fill="#8F9CA1" rx="2"/>
  <rect width="18" height="18" x="440" y="67.11" fill="#FF751A" rx="2"/>
  <rect width="17" height="17" x="440.5" y="67.61" stroke="#F7F8F8" stroke-opacity=".1" rx="1.5"/>
  <rect width="18" height="18" x="396" y="89.11" fill="#fff" rx="2"/>
  <rect width="17" height="17" x="396.5" y="89.61" stroke="#F7F8F8" stroke-opacity=".1" rx="1.5"/>
  <rect width="18" height="18" x="418" y="89.11" fill="#8F9CA1" rx="2"/>
  <rect width="18" height="18" x="418" y="89.11" fill="#FF751A" rx="2"/>
  <rect width="17" height="17" x="418.5" y="89.61" stroke="#F7F8F8" stroke-opacity=".1" rx="1.5"/>
  <rect width="18" height="18" x="440" y="89.11" fill="#8F9CA1" rx="2"/>
  <rect width="18" height="18" x="440" y="89.11" fill="#FF751A" rx="2"/>
  <rect width="17" height="17" x="440.5" y="89.61" stroke="#F7F8F8" stroke-opacity=".1" rx="1.5"/>
  <path fill="#383E42" d="M462.98 6.208c.224-1.876 1.596-3.262 3.654-3.262 1.904 0 3.304 1.232 3.304 2.898 0 1.47-1.176 2.408-2.632 3.304-.714.392-2.562 1.652-2.618 2.576h5.306v1.386h-7.168c0-2.954 1.974-4.116 3.78-5.208 1.036-.658 1.764-1.344 1.764-2.072 0-.882-.714-1.498-1.736-1.498-1.106 0-1.848.7-2.086 1.974l-1.568-.098Zm9.182-1.4c1.12 0 1.624-.504 1.624-1.638h1.19v9.94h-1.512V6.026h-2.1V4.808h.798Z"/>
  <rect width="18" height="18" x="462" y="23.11" fill="#8F9CA1" rx="2"/>
  <rect width="18" height="18" x="462" y="23.11" fill="#FF751A" rx="2"/>
  <rect width="17" height="17" x="462.5" y="23.61" stroke="#F7F8F8" stroke-opacity=".1" rx="1.5"/>
  <rect width="18" height="18" x="484" y="23.11" fill="#8F9CA1" rx="2"/>
  <rect width="18" height="18" x="484" y="23.11" fill="#FF751A" rx="2"/>
  <rect width="17" height="17" x="484.5" y="23.61" stroke="#F7F8F8" stroke-opacity=".1" rx="1.5"/>
  <rect width="18" height="18" x="506" y="23.11" fill="#8F9CA1" rx="2"/>
  <rect width="18" height="18" x="506" y="23.11" fill="#fff" rx="2"/>
  <rect width="17" height="17" x="506.5" y="23.61" stroke="#F7F8F8" stroke-opacity=".1" rx="1.5"/>
  <rect width="18" height="18" x="462" y="45.11" fill="#8F9CA1" rx="2"/>
  <rect width="18" height="18" x="462" y="45.11" fill="#FF751A" rx="2"/>
  <rect width="17" height="17" x="462.5" y="45.61" stroke="#F7F8F8" stroke-opacity=".1" rx="1.5"/>
  <rect width="18" height="18" x="484" y="45.11" fill="#8F9CA1" rx="2"/>
  <rect width="18" height="18" x="484" y="45.11" fill="#FF751A" rx="2"/>
  <rect width="17" height="17" x="484.5" y="45.61" stroke="#F7F8F8" stroke-opacity=".1" rx="1.5"/>
  <rect width="18" height="18" x="506" y="45.11" fill="#8F9CA1" rx="2"/>
  <rect width="18" height="18" x="506" y="45.11" fill="#fff" rx="2"/>
  <rect width="17" height="17" x="506.5" y="45.61" stroke="#F7F8F8" stroke-opacity=".1" rx="1.5"/>
  <rect width="18" height="18" x="462" y="67.11" fill="#8F9CA1" rx="2"/>
  <rect width="18" height="18" x="462" y="67.11" fill="#FF751A" rx="2"/>
  <rect width="17" height="17" x="462.5" y="67.61" stroke="#F7F8F8" stroke-opacity=".1" rx="1.5"/>
  <rect width="18" height="18" x="484" y="67.11" fill="#8F9CA1" rx="2"/>
  <rect width="18" height="18" x="484" y="67.11" fill="#FF751A" rx="2"/>
  <rect width="17" height="17" x="484.5" y="67.61" stroke="#F7F8F8" stroke-opacity=".1" rx="1.5"/>
  <rect width="18" height="18" x="506" y="67.11" fill="#8F9CA1" rx="2"/>
  <rect width="18" height="18" x="506" y="67.11" fill="#fff" rx="2"/>
  <rect width="17" height="17" x="506.5" y="67.61" stroke="#F7F8F8" stroke-opacity=".1" rx="1.5"/>
  <rect width="18" height="18" x="462" y="89.11" fill="#8F9CA1" rx="2"/>
  <rect width="18" height="18" x="462" y="89.11" fill="#FF751A" rx="2"/>
  <rect width="17" height="17" x="462.5" y="89.61" stroke="#F7F8F8" stroke-opacity=".1" rx="1.5"/>
  <rect width="18" height="18" x="484" y="89.11" fill="#8F9CA1" rx="2"/>
  <rect width="18" height="18" x="484" y="89.11" fill="#fff" rx="2"/>
  <rect width="17" height="17" x="484.5" y="89.61" stroke="#F7F8F8" stroke-opacity=".1" rx="1.5"/>
  <rect width="18" height="18" x="506" y="89.11" fill="#8F9CA1" rx="2"/>
  <rect width="18" height="18" x="506" y="89.11" fill="#86A7D1" rx="2"/>
  <rect width="17" height="17" x="506.5" y="89.61" stroke="#F7F8F8" stroke-opacity=".1" rx="1.5"/>
  <path fill="#383E42" d="M528.98 6.208c.224-1.876 1.596-3.262 3.654-3.262 1.904 0 3.304 1.232 3.304 2.898 0 1.47-1.176 2.408-2.632 3.304-.714.392-2.562 1.652-2.618 2.576h5.306v1.386h-7.168c0-2.954 1.974-4.116 3.78-5.208 1.036-.658 1.764-1.344 1.764-2.072 0-.882-.714-1.498-1.736-1.498-1.106 0-1.848.7-2.086 1.974l-1.568-.098Zm8.818 0c.224-1.876 1.596-3.262 3.654-3.262 1.904 0 3.304 1.232 3.304 2.898 0 1.47-1.176 2.408-2.632 3.304-.714.392-2.562 1.652-2.618 2.576h5.306v1.386h-7.168c0-2.954 1.974-4.116 3.78-5.208 1.036-.658 1.764-1.344 1.764-2.072 0-.882-.714-1.498-1.736-1.498-1.106 0-1.848.7-2.086 1.974l-1.568-.098Z"/>
  <rect width="18" height="18" x="528" y="23.11" fill="#8F9CA1" rx="2"/>
  <rect width="18" height="18" x="528" y="23.11" fill="#86A7D1" rx="2"/>
  <rect width="17" height="17" x="528.5" y="23.61" stroke="#F7F8F8" stroke-opacity=".1" rx="1.5"/>
  <rect width="18" height="18" x="550" y="23.11" fill="#8F9CA1" rx="2"/>
  <rect width="18" height="18" x="550" y="23.11" fill="#A97BD8" rx="2"/>
  <rect width="17" height="17" x="550.5" y="23.61" stroke="#F7F8F8" stroke-opacity=".1" rx="1.5"/>
  <rect width="18" height="18" x="572" y="23.11" fill="#8F9CA1" rx="2"/>
  <rect width="18" height="18" x="572" y="23.11" fill="#A97BD8" rx="2"/>
  <rect width="17" height="17" x="572.5" y="23.61" stroke="#F7F8F8" stroke-opacity=".1" rx="1.5"/>
  <rect width="18" height="18" x="528" y="45.11" fill="#8F9CA1" rx="2"/>
  <rect width="18" height="18" x="528" y="45.11" fill="#86A7D1" rx="2"/>
  <rect width="17" height="17" x="528.5" y="45.61" stroke="#F7F8F8" stroke-opacity=".1" rx="1.5"/>
  <rect width="18" height="18" x="550" y="45.11" fill="#8F9CA1" rx="2"/>
  <rect width="18" height="18" x="550" y="45.11" fill="#A97BD8" rx="2"/>
  <rect width="17" height="17" x="550.5" y="45.61" stroke="#F7F8F8" stroke-opacity=".1" rx="1.5"/>
  <rect width="18" height="18" x="572" y="45.11" fill="#8F9CA1" rx="2"/>
  <rect width="18" height="18" x="572" y="45.11" fill="#A97BD8" rx="2"/>
  <rect width="17" height="17" x="572.5" y="45.61" stroke="#F7F8F8" stroke-opacity=".1" rx="1.5"/>
  <rect width="18" height="18" x="528" y="67.11" fill="#8F9CA1" rx="2"/>
  <rect width="18" height="18" x="528" y="67.11" fill="#A97BD8" rx="2"/>
  <rect width="17" height="17" x="528.5" y="67.61" stroke="#F7F8F8" stroke-opacity=".1" rx="1.5"/>
  <rect width="18" height="18" x="550" y="67.11" fill="#8F9CA1" rx="2"/>
  <rect width="18" height="18" x="550" y="67.11" fill="#A97BD8" rx="2"/>
  <rect width="17" height="17" x="550.5" y="67.61" stroke="#F7F8F8" stroke-opacity=".1" rx="1.5"/>
  <rect width="18" height="18" x="572" y="67.11" fill="#8F9CA1" rx="2"/>
  <rect width="18" height="18" x="572" y="67.11" fill="#A97BD8" rx="2"/>
  <rect width="17" height="17" x="572.5" y="67.61" stroke="#F7F8F8" stroke-opacity=".1" rx="1.5"/>
  <rect width="18" height="18" x="528" y="89.11" fill="#8F9CA1" rx="2"/>
  <rect width="18" height="18" x="528" y="89.11" fill="#A97BD8" rx="2"/>
  <rect width="17" height="17" x="528.5" y="89.61" stroke="#F7F8F8" stroke-opacity=".1" rx="1.5"/>
  <rect width="18" height="18" x="550" y="89.11" fill="#8F9CA1" rx="2"/>
  <rect width="18" height="18" x="550" y="89.11" fill="#A97BD8" rx="2"/>
  <rect width="17" height="17" x="550.5" y="89.61" stroke="#F7F8F8" stroke-opacity=".1" rx="1.5"/>
  <rect width="18" height="18" x="572" y="89.11" fill="#8F9CA1" rx="2"/>
  <rect width="17" height="17" x="572.5" y="89.61" stroke="#F7F8F8" stroke-opacity=".1" rx="1.5"/>
  <path fill="#383E42" d="M594.98 6.208c.224-1.876 1.596-3.262 3.654-3.262 1.904 0 3.304 1.232 3.304 2.898 0 1.47-1.176 2.408-2.632 3.304-.714.392-2.562 1.652-2.618 2.576h5.306v1.386h-7.168c0-2.954 1.974-4.116 3.78-5.208 1.036-.658 1.764-1.344 1.764-2.072 0-.882-.714-1.498-1.736-1.498-1.106 0-1.848.7-2.086 1.974l-1.568-.098Zm11.836.994c.868.014 1.876-.406 1.876-1.568 0-.798-.714-1.302-1.876-1.302-.966 0-1.624.462-1.736 1.204l-1.568-.098c.196-1.47 1.54-2.492 3.318-2.492 2.058 0 3.444 1.05 3.444 2.59 0 1.12-.658 1.862-1.932 2.198 1.456.378 2.268 1.33 2.268 2.646 0 1.764-1.526 2.954-3.78 2.954-2.072 0-3.542-1.176-3.626-2.898l1.554-.084c.098 1.134 1.148 1.596 2.072 1.596 1.092 0 2.198-.504 2.198-1.75 0-1.218-1.12-1.764-2.212-1.736l-.798.014V7.188l.798.014Z"/>
  <rect width="18" height="18" x="594" y="23.11" fill="#8F9CA1" rx="2"/>
  <rect width="17" height="17" x="594.5" y="23.61" stroke="#F7F8F8" stroke-opacity=".1" rx="1.5"/>
  <rect width="18" height="18" x="616" y="23.11" fill="#8F9CA1" rx="2"/>
  <rect width="18" height="18" x="616" y="23.11" fill="#FFC920" rx="2"/>
  <rect width="17" height="17" x="616.5" y="23.61" stroke="#F7F8F8" stroke-opacity=".1" rx="1.5"/>
  <rect width="18" height="18" x="638" y="23.11" fill="#8F9CA1" rx="2"/>
  <rect width="18" height="18" x="638" y="23.11" fill="#093C6B" rx="2"/>
  <rect width="17" height="17" x="638.5" y="23.61" stroke="#F7F8F8" stroke-opacity=".1" rx="1.5"/>
  <rect width="18" height="18" x="594" y="45.11" fill="#8F9CA1" rx="2"/>
  <rect width="17" height="17" x="594.5" y="45.61" stroke="#F7F8F8" stroke-opacity=".1" rx="1.5"/>
  <rect width="18" height="18" x="616" y="45.11" fill="#8F9CA1" rx="2"/>
  <rect width="18" height="18" x="616" y="45.11" fill="#FFC920" rx="2"/>
  <rect width="17" height="17" x="616.5" y="45.61" stroke="#F7F8F8" stroke-opacity=".1" rx="1.5"/>
  <rect width="18" height="18" x="638" y="45.11" fill="#8F9CA1" rx="2"/>
  <rect width="18" height="18" x="638" y="45.11" fill="#093C6B" rx="2"/>
  <rect width="17" height="17" x="638.5" y="45.61" stroke="#F7F8F8" stroke-opacity=".1" rx="1.5"/>
  <rect width="18" height="18" x="594" y="67.11" fill="#8F9CA1" rx="2"/>
  <rect width="17" height="17" x="594.5" y="67.61" stroke="#F7F8F8" stroke-opacity=".1" rx="1.5"/>
  <rect width="18" height="18" x="616" y="67.11" fill="#8F9CA1" rx="2"/>
  <rect width="18" height="18" x="616" y="67.11" fill="#FFC920" rx="2"/>
  <rect width="17" height="17" x="616.5" y="67.61" stroke="#F7F8F8" stroke-opacity=".1" rx="1.5"/>
  <rect width="18" height="18" x="638" y="67.11" fill="#8F9CA1" rx="2"/>
  <rect width="18" height="18" x="638" y="67.11" fill="#093C6B" rx="2"/>
  <rect width="17" height="17" x="638.5" y="67.61" stroke="#F7F8F8" stroke-opacity=".1" rx="1.5"/>
  <rect width="18" height="18" x="594" y="89.11" fill="#8F9CA1" rx="2"/>
  <rect width="18" height="18" x="594" y="89.11" fill="#FFC920" rx="2"/>
  <rect width="17" height="17" x="594.5" y="89.61" stroke="#F7F8F8" stroke-opacity=".1" rx="1.5"/>
  <rect width="18" height="18" x="616" y="89.11" fill="#8F9CA1" rx="2"/>
  <rect width="17" height="17" x="616.5" y="89.61" stroke="#F7F8F8" stroke-opacity=".1" rx="1.5"/>
  <rect width="18" height="18" x="638" y="89.11" fill="#8F9CA1" rx="2"/>
  <rect width="18" height="18" x="638" y="89.11" fill="#093C6B" rx="2"/>
  <rect width="17" height="17" x="638.5" y="89.61" stroke="#F7F8F8" stroke-opacity=".1" rx="1.5"/>
  <path fill="#383E42" d="M660.98 6.208c.224-1.876 1.596-3.262 3.654-3.262 1.904 0 3.304 1.232 3.304 2.898 0 1.47-1.176 2.408-2.632 3.304-.714.392-2.562 1.652-2.618 2.576h5.306v1.386h-7.168c0-2.954 1.974-4.116 3.78-5.208 1.036-.658 1.764-1.344 1.764-2.072 0-.882-.714-1.498-1.736-1.498-1.106 0-1.848.7-2.086 1.974l-1.568-.098Zm15.146-3.038v6.594h1.106v1.386h-1.106v1.96h-1.512v-1.96h-5.11V9.764l4.914-6.594h1.708Zm-4.858 6.594h3.346V5.298l-3.346 4.466Z"/>
  <rect width="18" height="18" x="660" y="23.11" fill="#8F9CA1" rx="2"/>
  <rect width="18" height="18" x="660" y="23.11" fill="#093C6B" rx="2"/>
  <rect width="17" height="17" x="660.5" y="23.61" stroke="#F7F8F8" stroke-opacity=".1" rx="1.5"/>
  <rect width="18" height="18" x="682" y="23.11" fill="#8F9CA1" rx="2"/>
  <rect width="18" height="18" x="682" y="23.11" fill="#093C6B" rx="2"/>
  <rect width="17" height="17" x="682.5" y="23.61" stroke="#F7F8F8" stroke-opacity=".1" rx="1.5"/>
  <rect width="18" height="18" x="704" y="23.11" fill="#8F9CA1" rx="2"/>
  <rect width="18" height="18" x="704" y="23.11" fill="#093C6B" rx="2"/>
  <rect width="17" height="17" x="704.5" y="23.61" stroke="#F7F8F8" stroke-opacity=".1" rx="1.5"/>
  <rect width="18" height="18" x="660" y="45.11" fill="#8F9CA1" rx="2"/>
  <rect width="18" height="18" x="660" y="45.11" fill="#093C6B" rx="2"/>
  <rect width="17" height="17" x="660.5" y="45.61" stroke="#F7F8F8" stroke-opacity=".1" rx="1.5"/>
  <rect width="18" height="18" x="682" y="45.11" fill="#8F9CA1" rx="2"/>
  <rect width="18" height="18" x="682" y="45.11" fill="#093C6B" rx="2"/>
  <rect width="17" height="17" x="682.5" y="45.61" stroke="#F7F8F8" stroke-opacity=".1" rx="1.5"/>
  <rect width="18" height="18" x="704" y="45.11" fill="#8F9CA1" rx="2"/>
  <rect width="18" height="18" x="704" y="45.11" fill="#093C6B" rx="2"/>
  <rect width="17" height="17" x="704.5" y="45.61" stroke="#F7F8F8" stroke-opacity=".1" rx="1.5"/>
  <rect width="18" height="18" x="660" y="67.11" fill="#8F9CA1" rx="2"/>
  <rect width="18" height="18" x="660" y="67.11" fill="#093C6B" rx="2"/>
  <rect width="17" height="17" x="660.5" y="67.61" stroke="#F7F8F8" stroke-opacity=".1" rx="1.5"/>
  <rect width="18" height="18" x="682" y="67.11" fill="#8F9CA1" rx="2"/>
  <rect width="18" height="18" x="682" y="67.11" fill="#093C6B" rx="2"/>
  <rect width="17" height="17" x="682.5" y="67.61" stroke="#F7F8F8" stroke-opacity=".1" rx="1.5"/>
  <rect width="18" height="18" x="704" y="67.11" fill="#8F9CA1" rx="2"/>
  <rect width="18" height="18" x="704" y="67.11" fill="#093C6B" rx="2"/>
  <rect width="17" height="17" x="704.5" y="67.61" stroke="#F7F8F8" stroke-opacity=".1" rx="1.5"/>
  <rect width="18" height="18" x="660" y="89.11" fill="#8F9CA1" rx="2"/>
  <rect width="18" height="18" x="660" y="89.11" fill="#093C6B" rx="2"/>
  <rect width="17" height="17" x="660.5" y="89.61" stroke="#F7F8F8" stroke-opacity=".1" rx="1.5"/>
  <rect width="18" height="18" x="682" y="89.11" fill="#8F9CA1" rx="2"/>
  <rect width="18" height="18" x="682" y="89.11" fill="#093C6B" rx="2"/>
  <rect width="17" height="17" x="682.5" y="89.61" stroke="#F7F8F8" stroke-opacity=".1" rx="1.5"/>
  <rect width="18" height="18" x="704" y="89.11" fill="#8F9CA1" rx="2"/>
  <rect width="18" height="18" x="704" y="89.11" fill="#093C6B" rx="2"/>
  <rect width="17" height="17" x="704.5" y="89.61" stroke="#F7F8F8" stroke-opacity=".1" rx="1.5"/>
  <path fill="#383E42" d="M726.98 6.208c.224-1.876 1.596-3.262 3.654-3.262 1.904 0 3.304 1.232 3.304 2.898 0 1.47-1.176 2.408-2.632 3.304-.714.392-2.562 1.652-2.618 2.576h5.306v1.386h-7.168c0-2.954 1.974-4.116 3.78-5.208 1.036-.658 1.764-1.344 1.764-2.072 0-.882-.714-1.498-1.736-1.498-1.106 0-1.848.7-2.086 1.974l-1.568-.098Zm15.3-3.038v1.386h-4.41l-.392 2.856c.462-.588 1.372-.924 2.254-.924 1.89 0 3.234 1.414 3.234 3.374 0 2.044-1.484 3.472-3.584 3.472-2.058 0-3.598-1.162-3.738-2.842l1.554-.098c.154.98 1.078 1.554 2.156 1.554 1.218 0 2.044-.854 2.044-2.072 0-1.288-.84-2.1-2.142-2.1-.868 0-1.596.406-1.89 1.05h-1.582l.77-5.656h5.726Z"/>
  <rect width="18" height="18" x="726" y="23.11" fill="#8F9CA1" rx="2"/>
  <rect width="18" height="18" x="726" y="23.11" fill="#093C6B" rx="2"/>
  <rect width="17" height="17" x="726.5" y="23.61" stroke="#F7F8F8" stroke-opacity=".1" rx="1.5"/>
  <rect width="18" height="18" x="748" y="23.11" fill="#8F9CA1" rx="2"/>
  <rect width="17" height="17" x="748.5" y="23.61" stroke="#F7F8F8" stroke-opacity=".1" rx="1.5"/>
  <rect width="18" height="18" x="770" y="23.11" fill="#8F9CA1" rx="2"/>
  <rect width="17" height="17" x="770.5" y="23.61" stroke="#F7F8F8" stroke-opacity=".1" rx="1.5"/>
  <rect width="18" height="18" x="726" y="45.11" fill="#8F9CA1" rx="2"/>
  <rect width="17" height="17" x="726.5" y="45.61" stroke="#F7F8F8" stroke-opacity=".1" rx="1.5"/>
  <rect width="18" height="18" x="748" y="45.11" fill="#8F9CA1" rx="2"/>
  <rect width="17" height="17" x="748.5" y="45.61" stroke="#F7F8F8" stroke-opacity=".1" rx="1.5"/>
  <rect width="18" height="18" x="770" y="45.11" fill="#8F9CA1" rx="2"/>
  <rect width="17" height="17" x="770.5" y="45.61" stroke="#F7F8F8" stroke-opacity=".1" rx="1.5"/>
  <rect width="18" height="18" x="726" y="67.11" fill="#8F9CA1" rx="2"/>
  <rect width="17" height="17" x="726.5" y="67.61" stroke="#F7F8F8" stroke-opacity=".1" rx="1.5"/>
  <rect width="18" height="18" x="748" y="67.11" fill="#8F9CA1" rx="2"/>
  <rect width="17" height="17" x="748.5" y="67.61" stroke="#F7F8F8" stroke-opacity=".1" rx="1.5"/>
  <rect width="18" height="18" x="770" y="67.11" fill="#8F9CA1" rx="2"/>
  <rect width="17" height="17" x="770.5" y="67.61" stroke="#F7F8F8" stroke-opacity=".1" rx="1.5"/>
  <rect width="18" height="18" x="726" y="89.11" fill="#8F9CA1" rx="2"/>
  <rect width="17" height="17" x="726.5" y="89.61" stroke="#F7F8F8" stroke-opacity=".1" rx="1.5"/>
  <rect width="18" height="18" x="748" y="89.11" fill="#8F9CA1" rx="2"/>
  <rect width="17" height="17" x="748.5" y="89.61" stroke="#F7F8F8" stroke-opacity=".1" rx="1.5"/>
  <rect width="18" height="18" x="770" y="89.11" fill="#8F9CA1" rx="2"/>
  <rect width="17" height="17" x="770.5" y="89.61" stroke="#F7F8F8" stroke-opacity=".1" rx="1.5"/>
</svg>
